<svg width="184" height="176" viewBox="0 0 184 176" fill="none" xmlns="http://www.w3.org/2000/svg">
<g clip-path="url(#clip0_1116_56522)">
<path d="M137.137 48.9472C148.531 48.8922 157.733 41.7647 157.689 33.0275C157.646 24.2903 148.374 17.252 136.98 17.3071C125.585 17.3621 116.384 24.4896 116.427 33.2268C116.471 41.964 125.743 49.0023 137.137 48.9472Z" fill="white"/>
<path d="M137.015 49.2319C131.603 49.232 126.509 47.6041 122.658 44.6414C118.753 41.637 116.591 37.6208 116.569 33.3324C116.548 29.0439 118.671 25.0068 122.547 21.9642C126.399 18.9396 131.529 17.2589 136.991 17.2322C142.455 17.206 147.599 18.8357 151.481 21.8226C155.386 24.8268 157.548 28.8432 157.569 33.1316C157.59 37.42 155.468 41.4572 151.592 44.4997C147.739 47.5244 142.61 49.2049 137.148 49.2317C137.104 49.2318 137.059 49.2319 137.015 49.2319ZM136.992 17.5366L136.994 17.841C126.026 17.8947 117.137 24.8428 117.179 33.3294C117.199 37.4258 119.276 41.2718 123.029 44.159C126.805 47.0638 131.82 48.6515 137.145 48.6229C142.472 48.5968 147.469 46.9625 151.216 44.021C154.94 41.0972 156.98 37.2309 156.96 33.1345C156.919 24.6811 148.031 17.8407 137.122 17.8407C137.079 17.8407 137.037 17.8408 136.994 17.841L136.992 17.5366Z" fill="#1B1B23"/>
<path d="M122.635 56.6813C125.031 56.6813 126.973 55.1918 126.973 53.3543C126.973 51.5169 125.031 50.0273 122.635 50.0273C120.238 50.0273 118.296 51.5169 118.296 53.3543C118.296 55.1918 120.238 56.6813 122.635 56.6813Z" fill="white"/>
<path d="M122.634 56.9881C120.07 56.9881 117.984 55.358 117.984 53.3543C117.984 51.3506 120.07 49.7205 122.634 49.7205C125.198 49.7205 127.284 51.3506 127.284 53.3543C127.284 55.3579 125.198 56.9881 122.634 56.9881ZM122.634 50.334C120.413 50.334 118.607 51.6888 118.607 53.3542C118.607 55.0196 120.413 56.3745 122.634 56.3745C124.855 56.3745 126.662 55.0196 126.662 53.3542C126.662 51.6888 124.855 50.334 122.634 50.334Z" fill="#1B1B23"/>
<path d="M111.392 57.6932C112.541 57.6932 113.472 56.9791 113.472 56.0981C113.472 55.2172 112.541 54.503 111.392 54.503C110.243 54.503 109.312 55.2172 109.312 56.0981C109.312 56.9791 110.243 57.6932 111.392 57.6932Z" fill="white"/>
<path d="M111.391 58C110.073 58 109 57.1468 109 56.0981C109 55.0494 110.073 54.1961 111.391 54.1961C112.71 54.1961 113.783 55.0494 113.783 56.0981C113.783 57.1468 112.71 58 111.391 58ZM111.391 54.8098C110.416 54.8098 109.622 55.3877 109.622 56.0982C109.622 56.8087 110.416 57.3866 111.391 57.3866C112.367 57.3866 113.16 56.8087 113.16 56.0982C113.16 55.3877 112.367 54.8098 111.391 54.8098Z" fill="#1B1B23"/>
</g>
<g clip-path="url(#clip1_1116_56522)">
<path d="M100.243 51.6672C100.233 51.6703 100.221 51.6724 100.211 51.6755C99.4401 51.8622 98.4208 52.3589 97.2782 53.0393C95.5479 54.0691 93.5329 55.5199 91.6629 56.9552C91.3514 57.1937 91.044 57.4322 90.7418 57.6687C87.8338 59.9471 85.4846 61.9953 85.4846 61.9953C85.4846 61.9953 80.8348 56.0104 78.5901 54.8168C78.5849 54.7286 78.5787 54.6425 78.5725 54.5575C78.3603 51.9524 77.282 50.5949 76.7697 49.4251C74.792 44.9046 80.1724 39.9889 84.7622 42.8439C86.3228 37.9957 93.5009 37.7738 95.3678 41.951C95.3947 42.0091 95.4206 42.0693 95.4444 42.1294C97.1582 41.363 99.5478 40.8372 102.091 42.4467C105.092 44.3456 105.571 50.3522 100.243 51.6672Z" fill="#1B1B23"/>
<path d="M92.7928 44.8869C92.7547 44.8869 92.7161 44.8784 92.6796 44.8605C92.5511 44.7978 92.4977 44.6424 92.5605 44.5138C94.19 41.1663 97.7675 40.8901 97.9191 40.88C98.0613 40.8716 98.1848 40.9784 98.1943 41.1214C98.2039 41.2642 98.096 41.3877 97.9534 41.3973C97.9196 41.3995 94.521 41.6691 93.0255 44.7411C92.9807 44.8332 92.8886 44.8869 92.7928 44.8869Z" fill="white"/>
<path d="M103.264 67.8381C103.263 67.8661 103.262 67.8951 103.26 67.9242C103.259 67.9573 103.257 67.9905 103.253 68.0237C103.251 68.0528 103.249 68.0828 103.245 68.1129V68.115C103.241 68.1575 103.234 68.2 103.228 68.2436C103.223 68.284 103.216 68.3255 103.209 68.3659C103.209 68.3691 103.208 68.3722 103.206 68.3753C103.2 68.4116 103.193 68.4489 103.185 68.4852C103.16 68.6034 103.129 68.7206 103.091 68.8368C103.081 68.8658 103.072 68.8948 103.062 68.9239C103.039 68.9934 103.012 69.0618 102.984 69.1303C102.968 69.1686 102.952 69.207 102.934 69.2464C102.915 69.29 102.894 69.3335 102.872 69.3771C102.853 69.4165 102.833 69.4549 102.812 69.4932C102.79 69.5326 102.769 69.572 102.746 69.6115C102.723 69.6498 102.699 69.6892 102.676 69.7276C102.651 69.766 102.626 69.8043 102.6 69.8417C102.576 69.8769 102.551 69.9122 102.527 69.9475C102.52 69.9547 102.515 69.963 102.51 69.9703C102.486 70.0024 102.462 70.0335 102.438 70.0646C102.409 70.1009 102.38 70.1372 102.35 70.1735C102.32 70.2088 102.289 70.2441 102.257 70.2793C102.255 70.2814 102.253 70.2835 102.252 70.2855C102.222 70.3187 102.192 70.3509 102.161 70.383C102.128 70.4172 102.095 70.4504 102.061 70.4836C102.028 70.5158 101.994 70.5479 101.959 70.5801C101.958 70.5801 101.957 70.5811 101.956 70.5821C101.921 70.6143 101.885 70.6464 101.848 70.6776C101.816 70.7045 101.785 70.7315 101.751 70.7574C101.74 70.7667 101.729 70.7761 101.716 70.7854C101.684 70.8103 101.651 70.8352 101.618 70.8601C101.579 70.8902 101.538 70.9192 101.497 70.9472C101.455 70.9752 101.414 71.0032 101.372 71.0302C101.336 71.053 101.301 71.0758 101.265 71.0976C101.242 71.111 101.219 71.1245 101.197 71.138C101.124 71.1805 101.05 71.221 100.973 71.2604C100.923 71.2863 100.874 71.3112 100.823 71.335C100.528 71.4771 100.228 71.6068 99.9228 71.7219C99.872 71.7416 99.8203 71.7602 99.7696 71.7779C99.7013 71.8017 99.6319 71.8256 99.5636 71.8484C99.5171 71.8639 99.4705 71.8795 99.4239 71.894C99.3825 71.9065 99.3411 71.9199 99.2987 71.9324C99.2356 71.9511 99.1735 71.9697 99.1104 71.9874C98.684 72.1087 98.2504 72.2031 97.8105 72.2694C97.7577 72.2777 97.705 72.286 97.6522 72.2933C97.616 72.2985 97.5797 72.3037 97.5446 72.3088C97.4628 72.3192 97.3821 72.3296 97.3014 72.3389C97.2113 72.3493 97.1213 72.3586 97.0323 72.3659C96.8698 72.3814 96.7094 72.3928 96.5511 72.4022C95.7024 72.452 94.8528 72.4198 94.0114 72.3068C93.939 72.2974 93.8686 72.2871 93.8003 72.2777C93.7724 72.2746 93.7444 72.2705 93.7175 72.2663C93.6533 72.256 93.5881 72.2456 93.524 72.2352C93.198 72.1792 92.8741 72.1118 92.5522 72.033C92.5284 72.0268 92.516 72.0237 92.516 72.0237C92.516 72.0237 92.5636 74.1154 92.842 75.8317C92.9227 76.3326 93.0231 76.8014 93.1483 77.1768C93.1483 77.1768 93.1483 77.1778 93.1473 77.1799C93.1162 77.323 96.5405 85.0215 93.7815 87.5592C93.1874 88.1068 87.0919 87.2678 86.3302 87.5592C83.388 87.4078 77.4244 82.3762 74.6416 77.3641C74.6105 77.3081 74.0811 76.6694 74.0479 76.6051C74.0066 76.5221 74.751 75.674 74.7116 75.591C74.7116 75.591 77.7925 69.8042 78.6639 64.789C78.6763 64.7206 78.6877 64.6521 78.6991 64.5837V64.5827C78.401 64.4655 78.0978 64.3255 77.7967 64.1647C77.6952 64.1108 77.5948 64.0548 77.4955 63.9967C77.4044 63.9438 77.3134 63.8889 77.2233 63.8329C76.9532 63.6628 76.6872 63.4782 76.4306 63.278C76.3964 63.2521 76.3623 63.2252 76.3292 63.1972C76.2609 63.1422 76.1936 63.0872 76.1274 63.0312C75.9949 62.9182 75.8655 62.802 75.7403 62.6807C74.3805 61.3761 73.4687 59.6255 73.893 57.6987C74.0824 56.8379 74.5792 56.0539 75.2477 55.4742C75.2901 55.4368 75.3346 55.4005 75.3791 55.3643C75.4454 55.3114 75.5137 55.2595 75.584 55.2097C75.6306 55.1776 75.6772 55.1454 75.7248 55.1143C75.8686 55.021 76.0166 54.937 76.1698 54.8623C76.2205 54.8374 76.2722 54.8136 76.324 54.7908C77.0215 54.4848 77.7998 54.3801 78.5718 54.5574C78.6742 54.5813 78.7757 54.6093 78.8781 54.6435C79.9389 54.9951 80.6612 55.4991 81.3257 56.1607C81.6993 56.532 82.0553 56.9541 82.4423 57.4259C82.4858 57.4778 82.5292 57.5307 82.5727 57.5846C82.6596 57.6914 82.7497 57.8013 82.8418 57.9133C83.026 58.1384 83.2195 58.3717 83.4265 58.6165C83.4793 58.6787 83.531 58.7378 83.5817 58.7938C83.6148 58.8301 83.648 58.8654 83.6811 58.8996C83.7132 58.9348 83.7463 58.968 83.7784 58.9991C83.826 59.0479 83.8725 59.0914 83.917 59.1319C83.9326 59.1464 83.9481 59.1599 83.9626 59.1723C83.9926 59.1983 84.0216 59.2231 84.0516 59.246C84.4024 59.5301 84.6942 59.6183 84.9612 59.5488C84.9985 59.5394 85.0368 59.526 85.074 59.5094C85.1672 59.4689 85.2583 59.4088 85.3483 59.33C85.3835 59.2978 85.4197 59.2636 85.4559 59.2273C85.813 58.8571 86.169 58.2099 86.6254 57.3876C86.7216 57.2144 86.822 57.0443 86.9255 56.8763C86.9948 56.7643 87.0662 56.6533 87.1376 56.5434C87.2101 56.4345 87.2836 56.3256 87.3581 56.2188C87.5081 56.0052 87.6623 55.7977 87.8186 55.5955C88.6413 54.5367 89.5438 53.6562 90.2734 53.0879C90.6118 52.8235 90.9854 52.5974 91.3869 52.4066C91.388 52.4045 91.39 52.4035 91.3911 52.4045C91.8516 52.1815 92.3483 52.0052 92.8679 51.8663C94.7389 51.3633 96.905 51.3467 98.7616 51.5085C99.2718 51.5531 99.7592 51.6101 100.21 51.6754C100.179 52.4678 100.168 53.259 100.174 54.0513V54.0524C100.185 55.5136 100.258 56.9727 100.395 58.4277C100.402 58.5076 100.409 58.5864 100.418 58.6642C100.42 58.6735 100.421 58.6828 100.422 58.6911C100.43 58.7689 100.44 58.8457 100.451 58.9214C100.461 58.996 100.471 59.0697 100.483 59.1433C100.499 59.2418 100.516 59.3393 100.533 59.4357C100.546 59.4969 100.557 59.5571 100.57 59.6172C100.583 59.6836 100.598 59.75 100.613 59.8143C100.622 59.8558 100.632 59.8972 100.641 59.9377C100.658 60.0041 100.674 60.0704 100.691 60.1358C100.693 60.1409 100.694 60.1461 100.695 60.1513C100.715 60.2281 100.736 60.3038 100.758 60.3795C100.8 60.5288 100.845 60.674 100.892 60.8171C100.95 60.9944 101.012 61.1676 101.077 61.3377C101.148 61.5285 101.224 61.7152 101.301 61.8977C101.341 61.989 101.38 62.0802 101.419 62.1705C101.448 62.2368 101.478 62.3032 101.508 62.3685C101.559 62.4805 101.61 62.5915 101.661 62.7025C101.703 62.7906 101.743 62.8777 101.785 62.9638C101.928 63.2666 102.072 63.5653 102.211 63.864C102.238 63.921 102.265 63.9791 102.291 64.0361C102.441 64.3618 102.582 64.6884 102.709 65.0234C102.722 65.0587 102.736 65.0939 102.749 65.1292C102.865 65.4445 102.967 65.767 103.05 66.1009C103.081 66.2254 103.109 66.3519 103.134 66.4805C103.142 66.5199 103.15 66.5603 103.157 66.6008C103.168 66.6609 103.178 66.7221 103.187 66.7833C103.196 66.8434 103.204 66.9036 103.212 66.9637C103.214 66.9752 103.215 66.9866 103.216 66.998C103.223 67.0571 103.229 67.1152 103.235 67.1743C103.235 67.1774 103.236 67.1805 103.235 67.1836C103.242 67.2448 103.247 67.3049 103.251 67.3661C103.252 67.3713 103.252 67.3765 103.252 67.3827C103.257 67.447 103.26 67.5113 103.263 67.5756C103.268 67.6628 103.268 67.751 103.264 67.8381Z" fill="white"/>
<path d="M96.7332 52.0397C97.3674 52.0397 98.0317 52.0695 98.7076 52.1284C98.9994 52.1539 99.2882 52.184 99.571 52.2182C99.5543 52.822 99.5483 53.4371 99.5532 54.0513V54.0568C99.5636 55.53 99.6388 57.0201 99.7762 58.4843C99.7832 58.562 99.7913 58.6501 99.8014 58.7343L99.802 58.7397L99.8042 58.7579C99.8133 58.8439 99.8245 58.9276 99.8354 59.007C99.8462 59.0849 99.857 59.1618 99.8689 59.2385C99.8694 59.2413 99.8698 59.244 99.8703 59.2468C99.8874 59.3483 99.9044 59.4486 99.9225 59.548C99.9233 59.5518 99.924 59.5556 99.9247 59.5595L99.94 59.6365C99.9471 59.6721 99.954 59.7076 99.961 59.7416C99.977 59.8198 99.9924 59.8899 100.008 59.9556C100.018 59.9967 100.027 60.0379 100.036 60.078C100.037 60.0814 100.038 60.0848 100.039 60.0883C100.055 60.1556 100.072 60.2228 100.089 60.289C100.09 60.2941 100.092 60.2992 100.093 60.3042C100.094 60.3073 100.095 60.3104 100.095 60.3135C100.117 60.3935 100.139 60.4725 100.161 60.5498C100.207 60.7115 100.253 60.8634 100.302 61.0108C100.359 61.1823 100.422 61.3611 100.495 61.5562C100.566 61.7441 100.643 61.9357 100.731 62.1444L100.736 62.1548C100.774 62.2435 100.812 62.3321 100.85 62.4197C100.881 62.4898 100.913 62.5599 100.943 62.6255C100.994 62.7397 101.046 62.8527 101.1 62.9674L101.132 63.037C101.163 63.1033 101.194 63.1688 101.224 63.2312L101.344 63.4829C101.445 63.6945 101.549 63.9134 101.649 64.1295C101.675 64.1838 101.701 64.2391 101.727 64.2968C101.893 64.6572 102.02 64.958 102.129 65.2454L102.168 65.3477C102.284 65.6636 102.375 65.959 102.448 66.2516C102.476 66.3647 102.502 66.4816 102.525 66.5988C102.525 66.6021 102.526 66.6054 102.527 66.6088C102.534 66.642 102.54 66.6762 102.546 66.7104C102.546 66.7126 102.547 66.7149 102.547 66.717C102.557 66.7696 102.565 66.823 102.574 66.879C102.582 66.932 102.589 66.9851 102.595 67.0381C102.596 67.044 102.597 67.0498 102.598 67.0556C102.598 67.0616 102.599 67.0677 102.6 67.0737C102.606 67.1208 102.611 67.1672 102.616 67.2141C102.616 67.2249 102.617 67.2358 102.618 67.2466C102.624 67.3007 102.628 67.354 102.632 67.4082C102.632 67.4102 102.632 67.4122 102.632 67.4141C102.633 67.4203 102.633 67.4264 102.633 67.4325C102.638 67.4887 102.641 67.5449 102.643 67.6052C102.647 67.6709 102.647 67.7416 102.644 67.8154C102.643 67.8362 102.643 67.8579 102.641 67.8796C102.641 67.8881 102.64 67.8965 102.64 67.905C102.639 67.9222 102.639 67.936 102.637 67.9462C102.636 67.9571 102.635 67.9709 102.634 67.9819C102.633 67.9969 102.632 68.0122 102.63 68.0277C102.628 68.0392 102.627 68.0511 102.626 68.063C102.623 68.09 102.619 68.1171 102.615 68.1445L102.614 68.1559C102.613 68.1585 102.613 68.1611 102.613 68.1638C102.609 68.1901 102.605 68.2168 102.6 68.2433C102.598 68.2524 102.596 68.2615 102.595 68.2707C102.59 68.2957 102.585 68.3214 102.58 68.3463C102.579 68.35 102.578 68.3535 102.577 68.3571C102.557 68.4547 102.531 68.5504 102.5 68.6455L102.498 68.6508C102.491 68.672 102.485 68.6931 102.477 68.7143C102.475 68.7195 102.473 68.7248 102.472 68.73C102.454 68.7835 102.431 68.8407 102.409 68.8964C102.396 68.9281 102.382 68.9598 102.369 68.99C102.352 69.026 102.335 69.0621 102.317 69.0988C102.301 69.1315 102.284 69.1633 102.267 69.1952C102.249 69.229 102.23 69.2628 102.21 69.2966C102.191 69.329 102.171 69.362 102.151 69.3944C102.131 69.4254 102.111 69.4565 102.09 69.4867C102.089 69.4888 102.087 69.491 102.086 69.493C102.067 69.5205 102.048 69.5479 102.029 69.5754C102.02 69.5865 102.013 69.5969 102.006 69.6067C101.989 69.6302 101.971 69.6531 101.953 69.6759L101.949 69.6815C101.924 69.7121 101.9 69.7426 101.875 69.7731C101.85 69.8021 101.824 69.831 101.799 69.8598C101.792 69.8672 101.786 69.8747 101.779 69.8821C101.758 69.9052 101.737 69.9277 101.716 69.9497C101.687 69.9794 101.659 70.008 101.629 70.0369C101.604 70.0613 101.578 70.0859 101.551 70.1107C101.547 70.1143 101.543 70.1181 101.539 70.1218C101.51 70.1479 101.481 70.1742 101.449 70.2006L101.423 70.2227C101.405 70.2377 101.388 70.2527 101.369 70.2672C101.366 70.2697 101.361 70.2736 101.358 70.2762C101.353 70.2802 101.348 70.2842 101.343 70.2881C101.341 70.2898 101.339 70.2915 101.337 70.2931C101.307 70.3161 101.276 70.3391 101.246 70.3621C101.244 70.3631 101.243 70.3642 101.242 70.3652C101.211 70.3883 101.18 70.4106 101.15 70.4309L101.144 70.435C101.11 70.4585 101.075 70.4821 101.039 70.5048C101.038 70.5057 101.033 70.5086 101.032 70.5096C101.003 70.5279 100.975 70.5464 100.95 70.5616L100.915 70.5822L100.883 70.6012C100.825 70.6351 100.762 70.6697 100.686 70.7086C100.64 70.7325 100.599 70.7533 100.559 70.7718C100.558 70.7726 100.556 70.7735 100.554 70.7743C100.27 70.911 99.9843 71.0339 99.7042 71.1396C99.7022 71.1403 99.7002 71.141 99.6983 71.1417C99.6546 71.1587 99.61 71.1748 99.5652 71.1904C99.4996 71.2133 99.4329 71.2362 99.3644 71.2591C99.3235 71.2727 99.2828 71.2864 99.2419 71.2992C99.2234 71.3048 99.2048 71.3106 99.1862 71.3164C99.1657 71.3228 99.1451 71.3292 99.1233 71.3357L99.0843 71.3472C99.0374 71.3611 98.9909 71.3749 98.9408 71.3889C98.5394 71.5032 98.128 71.5923 97.7149 71.6548L97.7064 71.6561C97.6601 71.6634 97.6138 71.6706 97.5638 71.6776C97.5291 71.6826 97.4944 71.6875 97.4604 71.6925L97.4479 71.6941C97.3747 71.7034 97.3024 71.7126 97.2309 71.7209C97.1345 71.7319 97.0555 71.7399 96.9821 71.7458C96.9792 71.746 96.9763 71.7463 96.9734 71.7467C96.835 71.7598 96.685 71.7711 96.5149 71.7812C96.27 71.7956 96.0215 71.8028 95.7762 71.8028C95.2161 71.8028 94.6503 71.7649 94.091 71.6898C94.0459 71.684 94.0016 71.6778 93.9581 71.6717L93.8846 71.6614C93.8793 71.6607 93.8739 71.66 93.8684 71.6593C93.8494 71.6572 93.8303 71.6543 93.8166 71.6522L93.7027 71.6339L93.6258 71.6216C93.3178 71.5686 93.0079 71.5041 92.7042 71.4298C92.6787 71.4232 92.6654 71.4199 92.6654 71.4199C92.6162 71.4076 92.5663 71.4017 92.5165 71.4017C92.3767 71.4017 92.2393 71.449 92.1279 71.5384C91.977 71.6595 91.8908 71.8442 91.8953 72.038C91.8972 72.1251 91.9471 74.1928 92.229 75.9311C92.3175 76.4798 92.4215 76.9432 92.5386 77.3102C92.5623 77.4184 92.616 77.5627 92.7098 77.8149C93.0119 78.6267 93.7195 80.5276 94.0548 82.4782C94.3205 84.0249 94.4204 86.0629 93.4078 87.0573C93.3274 87.0791 93.075 87.1274 92.4113 87.1274C91.5919 87.1274 90.5162 87.0582 89.4758 86.9912C88.5384 86.9308 87.653 86.8739 87.0351 86.8739C86.6853 86.8739 86.4466 86.8911 86.2675 86.9313C85.0054 86.8139 82.9377 85.6301 80.8314 83.8132C78.5158 81.8159 76.4575 79.3551 75.1846 77.0625C75.147 76.9947 75.1048 76.9406 74.8585 76.6342C74.842 76.6137 74.8236 76.5909 74.8042 76.5667C74.8302 76.5322 74.8553 76.499 74.8767 76.4707C75.0827 76.1982 75.2376 75.9935 75.304 75.8001C75.7027 75.0382 78.4443 69.6818 79.2749 64.9008C79.2873 64.8324 79.2988 64.7639 79.3102 64.6954L79.3116 64.6867C79.3173 64.6528 79.3201 64.6175 79.3201 64.5831C79.3201 64.3271 79.1638 64.0972 78.9259 64.0039C78.6474 63.8944 78.3656 63.7639 78.0878 63.6155C77.9942 63.5657 77.9002 63.5134 77.8071 63.4589C77.7244 63.4109 77.6382 63.3589 77.5538 63.3065C77.2909 63.1409 77.0414 62.9663 76.8121 62.7874C76.81 62.7859 76.808 62.7843 76.8059 62.7827C76.7802 62.7632 76.7544 62.7429 76.7295 62.7218C76.7257 62.7187 76.7219 62.7154 76.7181 62.7124C76.6537 62.6606 76.5904 62.6088 76.5301 62.558C76.3972 62.4446 76.2801 62.3385 76.1699 62.2318C75.5031 61.5921 75.016 60.9041 74.7222 60.1872C74.4023 59.4068 74.3275 58.6148 74.4996 57.8332C74.655 57.1265 75.065 56.4561 75.6576 55.9422C75.6934 55.9107 75.7311 55.8801 75.7688 55.8494C75.8271 55.8028 75.8847 55.7595 75.9395 55.7205C75.9808 55.692 76.0221 55.6634 76.0624 55.6371C76.1856 55.5571 76.3132 55.4849 76.4431 55.4215C76.483 55.402 76.5269 55.3816 76.5731 55.3612C76.9777 55.1838 77.3935 55.0938 77.8088 55.0938C78.0192 55.0938 78.2292 55.1175 78.4314 55.164C78.5203 55.1847 78.6023 55.2077 78.6833 55.2347C79.5566 55.5243 80.216 55.9333 80.8885 56.603C81.225 56.9374 81.549 57.3171 81.9627 57.8216C81.9641 57.8232 81.9654 57.8249 81.9669 57.8265C82.0079 57.8754 82.0487 57.9253 82.0917 57.9785C82.1793 58.0861 82.2699 58.1968 82.3618 58.3085C82.5648 58.5565 82.7583 58.789 82.9535 59.02C83.0102 59.0867 83.0668 59.1514 83.1238 59.2143C83.159 59.2528 83.1941 59.2903 83.2292 59.3267C83.2714 59.3726 83.3119 59.4128 83.3408 59.441C83.4004 59.5017 83.4552 59.5525 83.4972 59.5906C83.5182 59.6102 83.539 59.6283 83.5574 59.6442C83.593 59.675 83.6284 59.7052 83.6684 59.736C84.0512 60.0443 84.4167 60.1941 84.7856 60.1941C84.8965 60.1941 85.0073 60.18 85.115 60.1522C85.1846 60.1347 85.2547 60.1102 85.3238 60.0798C85.4729 60.0146 85.6186 59.9203 85.757 59.7992C85.7604 59.7962 85.7637 59.7932 85.7671 59.7902C85.8138 59.7476 85.8556 59.7077 85.8952 59.6679C85.8977 59.6655 85.9002 59.6629 85.9027 59.6603C86.3091 59.2388 86.6762 58.5774 87.1408 57.7399L87.1682 57.6908C87.2555 57.5336 87.3491 57.3742 87.4535 57.2047C87.5232 57.092 87.5952 56.9806 87.6564 56.8861C87.7368 56.7652 87.8038 56.6666 87.8661 56.5773C88.002 56.3838 88.1471 56.1874 88.3087 55.9782C89.0234 55.0584 89.8785 54.1842 90.6555 53.579C90.9495 53.3493 91.2852 53.1441 91.6532 52.9692C91.657 52.9673 91.6609 52.9654 91.6647 52.9636C92.0675 52.7689 92.5261 52.6022 93.029 52.4676C94.0843 52.1836 95.3305 52.0398 96.7332 52.0397ZM96.7329 51.4174C95.4309 51.4174 94.0867 51.5387 92.8679 51.8664C92.3483 52.0053 91.8516 52.1816 91.3911 52.4046C91.3909 52.4044 91.3904 52.4042 91.39 52.4042C91.389 52.4042 91.3876 52.4051 91.3869 52.4067C90.9854 52.5975 90.6118 52.8236 90.2734 53.088C89.5438 53.6563 88.6413 54.5368 87.8186 55.5956C87.6623 55.7978 87.5081 56.0053 87.3581 56.2189C87.2836 56.3257 87.2101 56.4346 87.1376 56.5435C87.0662 56.6534 86.9948 56.7644 86.9255 56.8764C86.822 57.0444 86.7216 57.2145 86.6254 57.3877C86.169 58.21 85.813 58.8572 85.4559 59.2274C85.4197 59.2637 85.3835 59.2979 85.3483 59.3301C85.2583 59.4089 85.1672 59.469 85.074 59.5095C85.0368 59.5261 84.9985 59.5396 84.9612 59.5489C84.9039 59.5638 84.8454 59.5715 84.7854 59.5715C84.5661 59.5715 84.3271 59.4692 84.0516 59.2461C84.0216 59.2232 83.9926 59.1984 83.9626 59.1724C83.9481 59.16 83.9326 59.1465 83.917 59.132C83.8725 59.0915 83.826 59.048 83.7784 58.9992C83.7463 58.9681 83.7132 58.9349 83.6811 58.8997C83.648 58.8655 83.6148 58.8302 83.5817 58.7939C83.531 58.7379 83.4793 58.6788 83.4265 58.6166C83.2195 58.3718 83.026 58.1385 82.8418 57.9134C82.7497 57.8014 82.6596 57.6915 82.5727 57.5847C82.5292 57.5308 82.4858 57.4779 82.4423 57.426C82.0553 56.9542 81.6993 56.5321 81.3257 56.1608C80.6612 55.4992 79.9389 54.9952 78.8781 54.6436C78.7757 54.6094 78.6742 54.5814 78.5718 54.5575C78.317 54.499 78.0617 54.4711 77.8087 54.4711C77.295 54.4711 76.7912 54.5858 76.324 54.7909C76.2722 54.8137 76.2205 54.8375 76.1698 54.8624C76.0166 54.9371 75.8686 55.0211 75.7248 55.1144C75.6772 55.1455 75.6306 55.1777 75.584 55.2098C75.5137 55.2596 75.4454 55.3115 75.3791 55.3644C75.3346 55.4007 75.2901 55.437 75.2477 55.4743C74.5792 56.054 74.0824 56.838 73.893 57.6988C73.4687 59.6256 74.3805 61.3762 75.7403 62.6808C75.8655 62.8021 75.9949 62.9183 76.1274 63.0313C76.1936 63.0873 76.2609 63.1423 76.3292 63.1973C76.3623 63.2253 76.3964 63.2522 76.4306 63.2781C76.6872 63.4783 76.9532 63.6629 77.2233 63.833C77.3134 63.889 77.4044 63.9439 77.4955 63.9968C77.5948 64.0549 77.6952 64.1109 77.7967 64.1648C78.0978 64.3256 78.401 64.4656 78.6991 64.5828V64.5838C78.6877 64.6522 78.6763 64.7207 78.6639 64.7891C77.7925 69.8043 74.7116 75.5911 74.7116 75.5911C74.751 75.6741 74.0065 76.5222 74.0478 76.6052C74.081 76.6695 74.6105 77.3082 74.6415 77.3642C77.4243 82.3763 83.3879 87.4079 86.3301 87.5593C86.4489 87.5139 86.6975 87.4959 87.0349 87.4959C88.3024 87.4959 90.8222 87.7495 92.4111 87.7495C93.1096 87.7495 93.6283 87.7004 93.7814 87.5594C96.5404 85.0217 93.1161 77.3232 93.1472 77.1801C93.1482 77.178 93.1482 77.177 93.1482 77.177C93.023 76.8016 92.9226 76.3328 92.8419 75.8319C92.5635 74.1156 92.5159 72.0239 92.5159 72.0239C92.5159 72.0239 92.5283 72.027 92.5521 72.0332C92.874 72.112 93.1979 72.1794 93.5239 72.2354C93.588 72.2458 93.6532 72.2562 93.7174 72.2665C93.7443 72.2707 93.7723 72.2748 93.8002 72.2779C93.8685 72.2873 93.9389 72.2976 94.0113 72.307C94.5967 72.3856 95.1858 72.4251 95.776 72.4251C96.0342 72.4251 96.2927 72.4175 96.551 72.4024C96.7093 72.3931 96.8697 72.3816 97.0322 72.3661C97.1212 72.3588 97.2112 72.3495 97.3013 72.3391C97.382 72.3298 97.4627 72.3194 97.5445 72.3091C97.5796 72.3039 97.6159 72.2987 97.6521 72.2935C97.7049 72.2862 97.7576 72.2779 97.8104 72.2696C98.2503 72.2033 98.6839 72.1089 99.1103 71.9876C99.1734 71.9699 99.2355 71.9513 99.2986 71.9326C99.341 71.9202 99.3824 71.9067 99.4238 71.8942C99.4704 71.8797 99.517 71.8642 99.5635 71.8486C99.6318 71.8258 99.7012 71.8019 99.7695 71.7781C99.8202 71.7604 99.8719 71.7418 99.9226 71.7221C100.228 71.607 100.528 71.4773 100.823 71.3353C100.874 71.3114 100.923 71.2865 100.973 71.2606C101.05 71.2212 101.124 71.1807 101.197 71.1382C101.219 71.1247 101.242 71.1112 101.265 71.0978C101.301 71.076 101.336 71.0532 101.372 71.0304C101.414 71.0034 101.455 70.9754 101.497 70.9474C101.538 70.9194 101.578 70.8904 101.618 70.8603C101.651 70.8354 101.684 70.8105 101.716 70.7856C101.729 70.7763 101.74 70.7669 101.751 70.7576C101.784 70.7317 101.815 70.7047 101.848 70.6778C101.885 70.6467 101.921 70.6145 101.956 70.5823C101.957 70.5813 101.958 70.5803 101.959 70.5803C101.993 70.5481 102.028 70.516 102.061 70.4838C102.095 70.4506 102.128 70.4175 102.161 70.3832C102.192 70.3511 102.222 70.3189 102.252 70.2858C102.253 70.2837 102.255 70.2816 102.257 70.2795C102.288 70.2443 102.319 70.209 102.349 70.1737C102.379 70.1375 102.408 70.1012 102.437 70.0649C102.462 70.0337 102.486 70.0026 102.51 69.9705C102.515 69.9632 102.52 69.9549 102.526 69.9477C102.551 69.9124 102.576 69.8772 102.6 69.8419C102.626 69.8046 102.651 69.7662 102.675 69.7278C102.699 69.6894 102.723 69.65 102.746 69.6117C102.769 69.5723 102.79 69.5328 102.812 69.4934C102.833 69.4551 102.852 69.4167 102.872 69.3773C102.894 69.3337 102.915 69.2902 102.934 69.2466C102.952 69.2072 102.968 69.1688 102.984 69.1305C103.012 69.062 103.039 68.9936 103.061 68.9241C103.072 68.8951 103.081 68.866 103.09 68.837C103.129 68.7208 103.16 68.6036 103.185 68.4854C103.193 68.4491 103.2 68.4118 103.206 68.3755C103.207 68.3724 103.208 68.3693 103.208 68.3662C103.216 68.3257 103.223 68.2842 103.228 68.2438C103.234 68.2002 103.241 68.1577 103.245 68.1152C103.245 68.1142 103.245 68.1131 103.245 68.1131C103.249 68.083 103.251 68.053 103.253 68.0239C103.257 67.9907 103.259 67.9576 103.26 67.9244C103.262 67.8953 103.263 67.8663 103.264 67.8383C103.267 67.7512 103.267 67.663 103.263 67.5759C103.26 67.5116 103.257 67.4473 103.252 67.383C103.252 67.3768 103.252 67.3716 103.251 67.3664C103.247 67.3053 103.242 67.2451 103.235 67.1839C103.236 67.1808 103.235 67.1777 103.235 67.1746C103.229 67.1155 103.223 67.0574 103.216 66.9983C103.215 66.9869 103.214 66.9755 103.212 66.9641C103.204 66.9039 103.196 66.8438 103.187 66.7836C103.177 66.7224 103.168 66.6612 103.157 66.6011C103.149 66.5606 103.142 66.5202 103.134 66.4808C103.109 66.3522 103.081 66.2257 103.05 66.1012C102.967 65.7673 102.865 65.4448 102.749 65.1295C102.735 65.0942 102.722 65.059 102.709 65.0237C102.582 64.6888 102.441 64.3621 102.29 64.0364C102.265 63.9794 102.238 63.9213 102.211 63.8643C102.072 63.5656 101.928 63.2669 101.784 62.9641C101.743 62.878 101.703 62.7909 101.661 62.7028C101.61 62.5918 101.559 62.4809 101.508 62.3689C101.478 62.3035 101.448 62.2371 101.419 62.1708C101.38 62.0806 101.34 61.9893 101.301 61.898C101.224 61.7155 101.148 61.5288 101.077 61.338C101.012 61.1679 100.95 60.9948 100.892 60.8174C100.845 60.6743 100.8 60.5291 100.758 60.3798C100.736 60.3041 100.715 60.2284 100.695 60.1516C100.694 60.1464 100.693 60.1413 100.691 60.1361C100.674 60.0707 100.657 60.0044 100.641 59.938C100.632 59.8975 100.622 59.8561 100.613 59.8146C100.597 59.7503 100.583 59.6839 100.569 59.6175C100.557 59.5574 100.546 59.4972 100.533 59.4361C100.516 59.3396 100.499 59.2421 100.483 59.1436C100.471 59.07 100.461 58.9963 100.45 58.9217C100.44 58.846 100.43 58.7692 100.421 58.6914C100.42 58.6832 100.419 58.6738 100.418 58.6645C100.409 58.5867 100.402 58.5079 100.395 58.428C100.258 56.973 100.184 55.5139 100.174 54.0527V54.0517C100.168 53.2593 100.179 52.4681 100.21 51.6758C99.7591 51.6104 99.2717 51.5534 98.7615 51.5088C98.1144 51.4522 97.4298 51.4174 96.7329 51.4174Z" fill="#1B1B23"/>
<path d="M89.7935 55.2552C89.8181 55.4284 89.9269 55.5783 90.0839 55.6549C90.2012 55.7071 90.3291 55.7304 90.4571 55.7232C90.7026 55.7091 90.9399 55.6294 91.1444 55.4926C91.2351 55.4372 91.3247 55.3825 91.4092 55.3276L91.8975 55.0184C92.2086 54.8256 92.4861 54.6549 92.7501 54.5188C93.0159 54.381 93.2543 54.2655 93.529 54.1269C93.6676 54.0615 93.8158 53.9826 93.9861 53.9092C94.1562 53.826 94.3445 53.7556 94.5677 53.6386L94.6806 53.5795C94.744 53.5459 94.8017 53.5024 94.8517 53.4509C95.1154 53.1786 95.1089 52.7436 94.8372 52.4794C94.6243 52.2749 94.3707 52.118 94.0928 52.019C93.8109 51.9139 93.513 51.8575 93.2123 51.8525C92.9053 51.8467 92.5992 51.8878 92.3046 51.9744C92.0135 52.0606 91.7355 52.1864 91.4785 52.3483C90.9881 52.6509 90.576 53.0653 90.2758 53.5578C90.1322 53.7912 90.0171 54.0411 89.9327 54.302C89.8904 54.4326 89.8572 54.5658 89.8333 54.701C89.8205 54.7689 89.8115 54.8379 89.8047 54.9093L89.7894 55.1392C89.7867 55.1779 89.7882 55.2168 89.7935 55.2552Z" fill="#1B1B23"/>
<path d="M90.5685 57.1694C90.4738 57.2361 90.4511 57.3673 90.5177 57.4621C90.9436 58.0405 92.9983 58.5299 94.3013 58.1228C95.3619 57.7913 95.1263 56.8592 94.886 56.3244C94.8854 56.3229 94.8848 56.3216 94.8841 56.3201C94.7898 56.1151 94.5475 56.0254 94.3429 56.1198C92.8729 56.7951 91.3061 57.0234 90.6556 57.1337C90.6242 57.1388 90.5944 57.151 90.5685 57.1694Z" fill="#1B1B23"/>
<path d="M99.6075 56.2122C99.7167 56.2525 99.7726 56.374 99.7323 56.4834C99.5218 57.0575 98.8408 57.8008 97.8065 57.6456C96.8777 57.506 96.615 56.9074 96.7139 56.3294C96.7139 56.3293 96.7139 56.3292 96.714 56.3291C96.753 56.1055 96.9656 55.9558 97.1887 55.9949C98.3784 56.1886 98.8597 56.2567 99.517 56.1999C99.5477 56.1972 99.5785 56.2015 99.6075 56.2122Z" fill="#1B1B23"/>
<path d="M81.891 64.5403C80.4974 64.7203 78.9678 64.3048 78.1543 63.9871L81.891 64.5403Z" fill="white"/>
<path d="M81.1937 64.8941C80.0507 64.8941 78.8618 64.5974 78.0415 64.2769C77.8817 64.2145 77.8028 64.0341 77.8651 63.874C77.9274 63.7139 78.1072 63.6348 78.2671 63.6972C79.1947 64.0594 80.6231 64.3907 81.8514 64.2317C82.0227 64.21 82.1771 64.3301 82.199 64.5005C82.2209 64.671 82.1008 64.8269 81.9308 64.8488C81.6902 64.88 81.4429 64.8941 81.1937 64.8941Z" fill="#1B1B23"/>
<path d="M100.211 51.6755C100.18 52.4678 100.168 53.2591 100.174 54.0514C99.9333 53.9602 99.7118 53.8803 99.5027 53.8191C99.243 53.7424 99.0122 53.6802 98.7452 53.6045C98.6107 53.5702 98.4658 53.5256 98.3023 53.4893C98.1367 53.4447 97.9576 53.4147 97.7403 53.3483L97.6296 53.3151C97.5675 53.2964 97.5095 53.2674 97.4557 53.2311C97.3812 53.1782 97.3212 53.1129 97.2777 53.0393C97.1577 52.836 97.1597 52.5726 97.3036 52.3662C97.4578 52.1474 97.6554 51.9649 97.8852 51.83C98.118 51.688 98.3726 51.5874 98.6386 51.5314C98.679 51.5231 98.7204 51.5148 98.7617 51.5086C98.9936 51.4702 99.2306 51.4619 99.4655 51.4847C99.7314 51.5106 99.9922 51.5718 100.243 51.6672C100.232 51.6703 100.221 51.6724 100.211 51.6755Z" fill="#1B1B23"/>
<path d="M92.6495 75.1746C92.6464 75.1745 92.6433 75.1734 92.6403 75.1722C87.9362 73.7476 88.2872 70.2687 88.7827 69.6499C90.3305 70.7322 92.5331 71.4152 92.5331 71.4152C92.5331 71.4152 92.4273 73.4501 92.6495 75.1746Z" fill="#1B1B23"/>
<path d="M81.4398 61.6836C81.3028 61.6836 81.1774 61.592 81.1401 61.453C80.1612 57.8018 77.1755 57.8663 77.0476 57.8719C76.8784 57.8756 76.7323 57.7443 76.7258 57.573C76.7192 57.4017 76.8517 57.2572 77.0226 57.2502C77.0593 57.2472 80.6287 57.1473 81.7398 61.2917C81.7843 61.4577 81.6861 61.6283 81.5205 61.6729C81.4936 61.6802 81.4665 61.6836 81.4398 61.6836Z" fill="#1B1B23"/>
<path d="M97.5006 60.9377C97.3976 60.9377 97.2968 60.8865 97.2378 60.7927C97.1462 60.6475 97.1895 60.4553 97.3346 60.3636C97.8397 60.0438 98.1113 59.7745 98.1418 59.563C98.1757 59.3289 97.9224 59.0192 97.5322 58.5734C96.3771 57.2534 96.6718 56.3522 96.7092 56.2539C96.7703 56.0933 96.9494 56.0124 97.1098 56.0739C97.2701 56.1351 97.3505 56.3148 97.2895 56.4753C97.2898 56.4753 97.0933 57.1284 97.9989 58.1631C98.4467 58.6748 98.8335 59.1167 98.7562 59.652C98.696 60.0689 98.3598 60.4505 97.666 60.8896C97.6146 60.9221 97.5573 60.9377 97.5006 60.9377Z" fill="#1B1B23"/>
<path d="M92.8107 63.329C92.9809 63.2027 93.1802 63.1401 93.373 63.1089C93.5673 63.0802 93.7605 63.0823 93.9482 63.1078C94.3244 63.1578 94.6829 63.2901 95.0073 63.5069C95.1647 63.6159 95.3078 63.7402 95.4389 63.8792C95.566 64.0212 95.683 64.1746 95.7729 64.3457C95.9548 64.6816 96.0565 65.0908 95.9615 65.4866C95.9359 65.5933 95.8288 65.659 95.7223 65.6334C95.6352 65.6124 95.5755 65.5368 95.5707 65.4516L95.5699 65.4363C95.5541 65.1546 95.4436 64.8822 95.2809 64.6401C95.1974 64.5206 95.1056 64.405 94.9985 64.3031C94.8951 64.1985 94.7786 64.1034 94.6578 64.0205C94.4225 63.8573 94.137 63.7389 93.8485 63.6694C93.5603 63.6024 93.2587 63.5835 93.0107 63.6703L92.9939 63.6761C92.8905 63.7123 92.7776 63.6576 92.7415 63.554C92.7123 63.4699 92.743 63.3793 92.8107 63.329Z" fill="#1B1B23"/>
<path d="M129.882 135.609L129.621 138.874L33.3281 135.458C33.3281 135.458 50.9762 84.8286 57.6203 82.0141C60.8926 80.6285 67.6049 79.125 70.814 77.7539C71.8236 77.3226 74.7126 75.5916 74.7126 75.5916C80.5169 85.0567 87.1904 85.7541 87.1904 85.7541C87.1904 85.7541 91.1617 84.9746 93.1154 77.0704C93.1154 77.0704 97.0686 78.7463 97.1669 78.7774C103.841 80.8754 114.012 85.741 114.012 85.741L129.882 135.609Z" fill="#62B2FF"/>
<path d="M148.485 143.733L114.815 157.906C114.555 158.015 114.266 158.03 113.996 157.948L74.6684 145.958C74.1353 145.795 73.7519 145.327 73.6968 144.771L73.5771 143.567L114.252 136.482L148.673 141.54C148.86 141.566 149 141.727 149 141.916V142.959C149 143.297 148.797 143.603 148.485 143.733Z" fill="#BFB6FF"/>
<path d="M148.765 141.52C148.765 141.52 148.845 141.546 148.901 141.626C148.959 141.707 148.983 141.782 148.983 141.782L114.971 154.919C114.563 155.09 114.109 155.113 113.687 154.984L73.7881 143.55L110.898 133.761L148.765 141.52Z" fill="white"/>
<path d="M110.916 134.4L147.148 141.824L114.747 154.339C114.742 154.341 114.737 154.343 114.732 154.346C114.575 154.411 114.409 154.444 114.239 154.444C114.113 154.444 113.988 154.426 113.867 154.389C113.864 154.388 113.861 154.387 113.857 154.386L76.1331 143.575L110.916 134.4ZM110.898 133.761L73.7881 143.55L113.687 154.984C113.867 155.039 114.053 155.066 114.239 155.066C114.489 155.066 114.737 155.017 114.971 154.919L148.982 141.782C148.982 141.782 148.959 141.707 148.901 141.626C148.845 141.546 148.765 141.52 148.765 141.52L110.898 133.761Z" fill="#1B1B23"/>
<path d="M120.48 151.497C121.058 151.497 121.527 151.307 121.527 151.073C121.527 150.838 121.058 150.648 120.48 150.648C119.902 150.648 119.434 150.838 119.434 151.073C119.434 151.307 119.902 151.497 120.48 151.497Z" fill="#1B1B23"/>
<path d="M128.305 148.385C128.883 148.385 129.352 148.194 129.352 147.96C129.352 147.726 128.883 147.536 128.305 147.536C127.727 147.536 127.259 147.726 127.259 147.96C127.259 148.194 127.727 148.385 128.305 148.385Z" fill="#1B1B23"/>
<path d="M134.594 145.993C135.172 145.993 135.641 145.803 135.641 145.569C135.641 145.334 135.172 145.144 134.594 145.144C134.016 145.144 133.548 145.334 133.548 145.569C133.548 145.803 134.016 145.993 134.594 145.993Z" fill="#1B1B23"/>
<path d="M140.943 143.532C141.521 143.532 141.99 143.342 141.99 143.108C141.99 142.873 141.521 142.683 140.943 142.683C140.365 142.683 139.896 142.873 139.896 143.108C139.896 143.342 140.365 143.532 140.943 143.532Z" fill="#1B1B23"/>
<path d="M122.763 156.022C122.463 156.022 122.153 155.972 121.844 155.87C121.341 155.705 120.874 155.406 120.492 155.005C120.374 154.881 120.378 154.684 120.502 154.565C120.626 154.446 120.823 154.451 120.941 154.575C121.253 154.902 121.631 155.145 122.037 155.279C122.691 155.495 123.341 155.419 123.82 155.071C124.258 154.753 124.5 154.238 124.5 153.62C124.5 152.265 123.28 151.031 121.941 151.031C121.615 151.031 121.317 151.107 121.053 151.256C120.903 151.34 120.714 151.287 120.63 151.137C120.546 150.987 120.599 150.797 120.748 150.713C121.106 150.511 121.508 150.409 121.941 150.409C123.635 150.409 125.121 151.91 125.121 153.62C125.121 154.443 124.788 155.137 124.184 155.575C123.777 155.871 123.284 156.022 122.763 156.022Z" fill="#1B1B23"/>
<path d="M130.529 152.838C130.228 152.838 129.918 152.787 129.609 152.686C129.107 152.52 128.639 152.221 128.258 151.82C128.139 151.696 128.144 151.499 128.268 151.38C128.392 151.262 128.589 151.266 128.707 151.391C129.018 151.717 129.397 151.961 129.803 152.094C130.457 152.31 131.107 152.234 131.586 151.887C132.024 151.569 132.266 151.053 132.266 150.436C132.266 149.081 131.046 147.847 129.706 147.847C129.381 147.847 129.082 147.922 128.818 148.071C128.669 148.155 128.48 148.102 128.396 147.952C128.312 147.802 128.365 147.613 128.514 147.528C128.872 147.327 129.273 147.224 129.706 147.224C131.401 147.224 132.887 148.725 132.887 150.436C132.887 151.258 132.554 151.952 131.95 152.391C131.542 152.686 131.05 152.838 130.529 152.838Z" fill="#1B1B23"/>
<path d="M136.715 150.446C136.415 150.446 136.105 150.396 135.796 150.294C135.293 150.129 134.826 149.83 134.444 149.429C134.326 149.305 134.33 149.108 134.455 148.989C134.579 148.87 134.775 148.875 134.893 148.999C135.205 149.326 135.584 149.569 135.99 149.703C136.643 149.919 137.293 149.843 137.772 149.495C138.211 149.177 138.452 148.662 138.452 148.044C138.452 146.69 137.232 145.456 135.893 145.456C135.567 145.456 135.269 145.531 135.005 145.68C134.855 145.763 134.666 145.711 134.582 145.561C134.498 145.411 134.551 145.221 134.701 145.137C135.058 144.935 135.46 144.833 135.893 144.833C137.587 144.833 139.073 146.334 139.073 148.044C139.073 148.867 138.74 149.561 138.136 149.999C137.729 150.295 137.236 150.446 136.715 150.446Z" fill="#1B1B23"/>
<path d="M142.858 148.055C142.557 148.055 142.247 148.005 141.938 147.903C141.436 147.738 140.968 147.438 140.587 147.038C140.468 146.914 140.473 146.717 140.597 146.598C140.721 146.479 140.918 146.484 141.036 146.608C141.347 146.935 141.726 147.178 142.132 147.312C142.786 147.527 143.436 147.452 143.915 147.104C144.353 146.786 144.595 146.271 144.595 145.653C144.595 144.298 143.375 143.064 142.035 143.064C141.71 143.064 141.411 143.14 141.147 143.288C140.998 143.373 140.809 143.319 140.725 143.17C140.641 143.02 140.694 142.83 140.843 142.746C141.201 142.544 141.602 142.442 142.035 142.442C143.73 142.442 145.216 143.942 145.216 145.653C145.216 146.476 144.883 147.17 144.279 147.608C143.871 147.904 143.379 148.055 142.858 148.055Z" fill="#1B1B23"/>
<path d="M101.765 80.135C112.779 72.7061 134.796 100.417 136.992 120.016C135.851 114.729 108.888 119.905 100.651 123.841C93.0421 104.292 95.4642 84.3855 101.765 80.135Z" fill="#62B2FF"/>
<path d="M109.566 111.298C109.426 111.298 109.3 111.203 109.265 111.061C108.133 106.432 102.492 94.6326 102.435 94.5139C102.361 94.359 102.426 94.1731 102.58 94.0988C102.735 94.0244 102.921 94.0897 102.995 94.2445C103.228 94.7313 108.721 106.221 109.868 110.913C109.909 111.08 109.807 111.248 109.64 111.289C109.616 111.295 109.591 111.298 109.566 111.298Z" fill="white"/>
<path d="M61.531 122.413C51.2207 113.825 28.4228 106.175 26.9135 110.577C25.0678 115.959 61.531 122.413 61.531 122.413Z" fill="#1B1B23"/>
<path d="M132.488 135.775C127.261 139.595 119.208 136.832 116.148 134.135C110.885 129.586 110.298 118.055 106.197 97.279C104.311 87.7298 100.314 81.6529 99.447 79.9707C98.0513 77.262 96.9491 75.1747 99.2279 74.8833C99.2279 74.8833 97.7024 71.5677 100.845 71.4212C100.845 71.4212 99.4708 68.7119 102.283 68.3531C102.43 67.1604 101.815 65.3439 101.3 64.3599C99.7507 61.4084 100.329 59.8884 103.377 62.1824C108.171 65.7892 117.248 77.4158 121.622 84.6616C138.163 112.064 142.201 128.675 132.488 135.775Z" fill="white"/>
<path d="M126.258 137.965C125.242 137.965 124.285 137.856 123.45 137.705C120.607 137.192 117.66 135.883 115.943 134.369C111.877 130.855 110.559 123.334 108.376 110.874C107.678 106.895 106.888 102.385 105.892 97.3394C104.272 89.1333 101.06 83.4673 99.6887 81.0478C99.4667 80.6562 99.2914 80.3469 99.171 80.1134L99.1262 80.0263C98.0749 77.9866 97.2445 76.3755 97.7673 75.3779C97.9573 75.0154 98.2978 74.7741 98.8029 74.6463C98.6049 74.067 98.3277 72.9239 98.8402 72.0788C99.1459 71.5749 99.6695 71.2642 100.4 71.1522C100.23 70.6585 100.042 69.8091 100.416 69.102C100.696 68.5715 101.226 68.2297 101.992 68.084C102.03 67.0289 101.542 65.4929 101.025 64.5042C100.486 63.4778 99.7012 61.6536 100.5 60.9717C101.056 60.4979 102.086 60.8218 103.563 61.9333C105.806 63.6207 109.121 67.1468 112.899 71.8623C116.353 76.1744 119.714 80.8989 121.888 84.5002C130.354 98.5267 135.364 109.407 137.203 117.764C138.143 122.035 138.248 125.721 137.515 128.72C136.772 131.761 135.142 134.219 132.67 136.026L132.487 135.774L132.67 136.026C130.638 137.511 128.325 137.965 126.258 137.965ZM101.132 61.3801C101.028 61.3801 100.952 61.4041 100.903 61.4458C100.716 61.6052 100.616 62.3891 101.575 64.215C102.073 65.1663 102.754 67.0632 102.59 68.3913C102.573 68.5324 102.462 68.6439 102.321 68.6617C101.632 68.7499 101.176 68.9954 100.965 69.3917C100.563 70.1507 101.116 71.2695 101.122 71.2808C101.169 71.3749 101.166 71.4869 101.113 71.5779C101.06 71.669 100.964 71.7271 100.859 71.732C100.121 71.7665 99.6205 71.9915 99.3716 72.4008C98.8427 73.2707 99.5031 74.7387 99.5099 74.7534C99.5509 74.8433 99.547 74.9477 99.4991 75.0342C99.4511 75.1207 99.365 75.1794 99.2671 75.192C98.7614 75.2567 98.4506 75.4121 98.3169 75.6673C97.9445 76.3781 98.7865 78.0114 99.6778 79.7409L99.7227 79.828C99.8373 80.0505 100.01 80.355 100.229 80.7405C101.615 83.1863 104.861 88.9138 106.501 97.2188C107.498 102.271 108.289 106.784 108.987 110.766C111.147 123.09 112.451 130.529 116.35 133.9C117.991 135.346 120.82 136.598 123.56 137.093C127.933 137.881 130.729 136.675 132.304 135.523C137.041 132.061 138.445 126.296 136.597 117.899C134.773 109.609 129.787 98.79 121.356 84.8227C116.013 75.9702 107.049 65.3346 103.19 62.4313C102.151 61.649 101.482 61.3801 101.132 61.3801Z" fill="#1B1B23"/>
<path d="M103.02 78.004C102.916 78.004 102.815 77.9524 102.756 77.8583C101.816 76.3558 100.053 75.242 98.9978 75.1445C98.8271 75.1287 98.7014 74.9772 98.7172 74.8061C98.7329 74.635 98.8841 74.5094 99.0548 74.5248C100.594 74.667 102.448 76.1942 103.282 77.5274C103.374 77.6729 103.33 77.865 103.185 77.9564C103.133 77.9886 103.076 78.004 103.02 78.004Z" fill="#1B1B23"/>
<path d="M104.665 74.7541C104.541 74.7541 104.423 74.6784 104.376 74.5549C104.192 74.0787 103.54 73.3387 102.753 72.7139C101.95 72.0758 101.174 71.6917 100.777 71.7351C100.608 71.7535 100.453 71.6305 100.434 71.4596C100.416 71.2889 100.539 71.1352 100.709 71.1165C101.526 71.028 102.681 71.8627 103.139 72.2262C103.839 72.7821 104.684 73.6271 104.955 74.3309C105.017 74.4912 104.937 74.6712 104.777 74.7332C104.74 74.7474 104.702 74.7541 104.665 74.7541Z" fill="#1B1B23"/>
<path d="M105.576 70.4325C105.493 70.4325 105.41 70.3991 105.349 70.333C104.55 69.4711 102.901 68.7447 102.347 68.6945C102.176 68.679 102.05 68.5277 102.066 68.3565C102.081 68.1855 102.232 68.0611 102.403 68.0746C103.133 68.1409 104.922 68.9585 105.803 69.9096C105.92 70.0355 105.913 70.2323 105.787 70.3492C105.727 70.405 105.652 70.4325 105.576 70.4325Z" fill="#1B1B23"/>
<path d="M84.6436 117.118L87.6656 115.398L100.746 138.481L97.7235 140.201L84.6436 117.118Z" fill="white"/>
<path d="M87.4322 116.247L99.8989 138.247L97.9568 139.352L85.4901 117.352L87.4322 116.247ZM87.6656 115.398L84.6436 117.118L97.7235 140.201L100.746 138.481L87.6656 115.398Z" fill="#1B1B23"/>
<path d="M100.747 138.481C100.721 139.089 100.695 139.697 100.67 140.305C100.649 140.791 100.629 141.277 100.608 141.764C100.181 141.532 99.7541 141.301 99.3267 141.069C98.7928 140.78 98.2584 140.49 97.7246 140.201L100.747 138.481Z" fill="#1B1B23"/>
<path d="M88.1426 116.239L85.1206 117.959L84.2129 116.357C84.0192 116.015 84.1387 115.581 84.4798 115.387L86.2665 114.37C86.6076 114.176 87.0413 114.296 87.2349 114.638L88.1426 116.239Z" fill="#1B1B23"/>
<path d="M61.531 122.413C51.2207 113.825 28.4228 106.175 26.9135 110.577C25.0678 115.959 61.531 122.413 61.531 122.413Z" fill="#1B1B23"/>
<path d="M99.5737 130.827C100.675 132.72 100.234 134.994 98.4268 137.176C94.9031 141.431 84.5404 144.705 76.6745 146.569C61.2882 149.53 42.1307 152.94 31.0152 143.523C23.502 136.482 26.6681 122.618 29.0688 115.289C29.7289 112.737 31.1807 109.7 31.8034 108.45C40.5993 108.682 55.5523 116.966 61.2882 122.652C61.2943 122.658 61.2994 122.664 61.3055 122.669C61.3116 122.675 61.318 122.682 61.3241 122.687L61.3273 122.691C61.3276 122.692 61.3287 122.691 61.329 122.692L60.3003 124.415C60.3003 124.415 70.0964 126.395 76.4313 125.504C78.7171 125.148 81.0428 124.643 82.4659 122.93C84.0297 121.047 84.5818 117.944 84.6274 117.574C84.6931 117.042 85.0171 117.13 85.0171 117.13L87.1096 120.851C87.1096 120.851 87.3928 123.841 88.3985 124.865C90.0409 124.57 91.7509 122.246 93.248 121.288C94.2425 120.651 96.5573 121.124 96.8635 123.852C96.8635 123.852 98.5789 124.837 98.3295 127.522C98.9095 127.993 99.6125 128.859 99.5737 130.827Z" fill="white"/>
<path d="M51.8901 150C42.6644 150 35.7683 147.958 30.8143 143.76C30.8103 143.757 30.8064 143.754 30.8027 143.75C23.2275 136.651 26.2759 122.82 28.7705 115.201C29.4107 112.732 30.7708 109.825 31.5252 108.31C31.5791 108.202 31.6905 108.134 31.8112 108.138C35.869 108.246 41.5589 110.053 47.8329 113.228C53.3623 116.026 58.5999 119.551 61.5034 122.428C61.5094 122.434 61.5151 122.439 61.5208 122.445L61.5321 122.456C61.534 122.458 61.5449 122.469 61.5466 122.471C61.5476 122.472 61.5487 122.473 61.5496 122.474C61.5848 122.51 61.6114 122.554 61.6259 122.603C61.6509 122.687 61.6397 122.777 61.5949 122.852L60.7944 124.192C62.7545 124.557 70.928 125.964 76.3878 125.196C78.5895 124.853 80.858 124.379 82.2269 122.731C83.8302 120.801 84.3152 117.567 84.319 117.536C84.3553 117.242 84.4642 117.032 84.6428 116.912C84.8034 116.804 84.983 116.798 85.0975 116.829C85.1779 116.851 85.2463 116.904 85.2873 116.977L87.3798 120.698C87.4011 120.736 87.4142 120.778 87.4184 120.821C87.4908 121.583 87.8238 123.653 88.5095 124.521C89.4032 124.279 90.3605 123.388 91.2882 122.525C91.9109 121.945 92.4991 121.398 93.0808 121.025C93.6859 120.638 94.6126 120.627 95.3862 120.997C95.9502 121.267 96.9147 121.97 97.1535 123.672C97.5752 123.976 98.8068 125.071 98.6516 127.388C99.4947 128.141 99.899 129.242 99.8851 130.746C100.995 132.732 100.564 135.082 98.6655 137.375C94.8086 142.032 83.2765 145.324 76.7456 146.872C76.7414 146.873 76.737 146.874 76.7327 146.874C68.3075 148.496 60.0946 149.954 52.2447 149.999C52.1263 149.999 52.0075 150 51.8901 150ZM31.221 143.29C36.1199 147.437 42.9975 149.433 52.241 149.376C60.0362 149.333 68.2156 147.88 76.6091 146.265C79.8799 145.489 84.6934 144.203 89.0647 142.479C93.5642 140.705 96.6335 138.854 98.1873 136.977C99.9314 134.872 100.328 132.743 99.3049 130.983C99.2762 130.934 99.2615 130.877 99.2628 130.82C99.2999 128.932 98.6363 128.172 98.1338 127.764C98.0531 127.698 98.0105 127.597 98.02 127.493C98.2463 125.056 96.7702 124.158 96.7073 124.121C96.623 124.071 96.5654 123.984 96.5545 123.887C96.4289 122.768 95.9189 121.941 95.1184 121.558C94.4433 121.236 93.762 121.328 93.4146 121.55C92.8802 121.892 92.3119 122.421 91.7103 122.981C90.6594 123.959 89.5726 124.97 88.4528 125.171C88.3515 125.19 88.2485 125.157 88.1766 125.083C87.1807 124.069 86.8568 121.415 86.8067 120.947L84.9343 117.617C84.8453 118.328 84.2117 121.314 82.7038 123.129C81.1965 124.944 78.8018 125.449 76.4784 125.811C70.1594 126.7 60.3367 124.739 60.2382 124.719C60.1394 124.699 60.0563 124.633 60.0157 124.54C59.975 124.448 59.9815 124.341 60.0333 124.255L60.9365 122.742C58.0478 119.929 52.9447 116.512 47.5527 113.783C41.4611 110.701 35.9472 108.924 31.992 108.767C31.2338 110.303 29.9697 113.044 29.3688 115.366C29.3671 115.373 29.3653 115.379 29.3633 115.385C26.9151 122.86 23.9013 136.423 31.221 143.29ZM76.674 146.569H76.675H76.674Z" fill="#1B1B23"/>
<path d="M60.6492 124.841C60.6278 124.841 60.6059 124.839 60.5841 124.834C56.8348 124.033 52.4999 123.765 48.6911 124.099C48.5209 124.115 48.3697 123.987 48.3547 123.816C48.3397 123.645 48.4661 123.494 48.6369 123.479C52.5044 123.139 56.9064 123.412 60.7137 124.226C60.8813 124.262 60.9882 124.427 60.9525 124.595C60.9214 124.741 60.7925 124.841 60.6492 124.841Z" fill="#1B1B23"/>
<path d="M93.8255 127.648C93.7294 127.648 93.6347 127.604 93.5739 127.52C93.4731 127.381 93.504 127.186 93.6428 127.085C94.4263 126.516 96.2673 125.021 96.4403 123.458C96.4592 123.287 96.6122 123.164 96.7831 123.183C96.9534 123.202 97.0762 123.356 97.0573 123.526C96.9744 124.275 96.468 125.799 94.0075 127.589C93.9525 127.629 93.8887 127.648 93.8255 127.648Z" fill="#1B1B23"/>
<path d="M95.4084 131.099C95.2888 131.099 95.1748 131.029 95.1238 130.912C95.055 130.755 95.1266 130.572 95.2837 130.503C96.0571 130.164 97.7433 128.915 98.0191 127.22C98.0467 127.05 98.2065 126.936 98.3755 126.963C98.5447 126.991 98.6594 127.151 98.6319 127.32C98.3264 129.197 96.5687 130.618 95.5328 131.073C95.4921 131.09 95.4499 131.099 95.4084 131.099Z" fill="#1B1B23"/>
<path d="M96.9728 134.405C96.8568 134.405 96.7455 134.34 96.6923 134.228C96.6186 134.073 96.6845 133.887 96.8393 133.813C98.0279 133.247 99.2007 131.664 99.2524 130.556C99.2604 130.384 99.4054 130.255 99.5772 130.259C99.7484 130.268 99.8808 130.413 99.8727 130.585C99.8097 131.932 98.5168 133.703 97.1059 134.375C97.0629 134.396 97.0174 134.405 96.9728 134.405Z" fill="#1B1B23"/>
<path d="M70.4914 80.0598C61.5238 70.25 33.6357 92.0144 26.915 110.551C29.2614 105.679 54.2613 117.048 61.3469 122.809C73.3184 105.593 75.6224 85.6726 70.4914 80.0598Z" fill="#62B2FF"/>
<path d="M61.1013 122.924C61.0487 122.924 60.9956 122.91 60.9467 122.882C60.798 122.797 60.7469 122.606 60.8325 122.457C66.025 113.416 69.1634 105.288 69.9083 98.9543C69.9284 98.7837 70.0821 98.6626 70.2531 98.6817C70.4234 98.7018 70.545 98.8566 70.525 99.0272C69.7595 105.536 66.6796 113.523 61.3707 122.768C61.3132 122.868 61.2087 122.924 61.1013 122.924Z" fill="white"/>
<path d="M81.0017 94.4681C79.4254 94.4681 77.834 92.8655 76.1379 89.5706C74.2366 85.8775 71.8795 80.0285 70.9769 77.3974C70.9211 77.2349 71.0075 77.0578 71.1695 77.002C71.3317 76.9461 71.5083 77.0327 71.564 77.195C72.4606 79.8087 74.8017 85.6181 76.6896 89.2854C78.2476 92.3117 79.6984 93.8458 81.0024 93.8458C81.0116 93.8458 81.0208 93.8457 81.03 93.8456C82.9981 93.8129 84.6505 90.3236 86.1085 87.2451C86.3525 86.7296 86.5831 86.2428 86.8174 85.7653C86.893 85.6112 87.0791 85.5478 87.2331 85.6234C87.3869 85.6992 87.4503 85.8857 87.3747 86.04C87.1422 86.5135 86.9126 86.9984 86.6695 87.5118C85.059 90.9123 83.3938 94.4285 81.0404 94.4677C81.0275 94.468 81.0145 94.4681 81.0017 94.4681Z" fill="white"/>
<path d="M93.9943 93.4063C92.2814 93.4063 89.9504 90.9621 87.0541 86.1251C86.9658 85.9778 87.0135 85.7866 87.1605 85.6983C87.3076 85.6097 87.4983 85.6576 87.5864 85.8049C91.5174 92.3702 93.4669 92.9709 94.2797 92.7462C95.2214 92.4848 95.8063 90.7577 95.8063 88.2387C95.8063 86.3221 95.4342 80.352 94.5552 77.63C94.5025 77.4664 94.5919 77.291 94.7551 77.2382C94.9181 77.1854 95.0933 77.2749 95.1461 77.4384C96.0461 80.2261 96.4273 86.2942 96.4273 88.2388C96.4273 89.5108 96.2816 90.6318 96.0062 91.4807C95.6673 92.525 95.1421 93.1527 94.4455 93.346C94.3003 93.3861 94.1498 93.4063 93.9943 93.4063Z" fill="white"/>
<path d="M90.7001 101.01C89.9552 101.01 89.3558 100.827 88.8818 100.457C87.6679 99.51 87.4611 97.4337 87.2423 95.2353C86.7993 90.7833 86.9053 85.9029 86.9064 85.8541C86.9103 85.6824 87.0543 85.5445 87.2239 85.5502C87.3953 85.5542 87.5311 85.6967 87.5271 85.8684C87.526 85.9168 87.4211 90.7604 87.8603 95.1735C88.1013 97.5954 88.3292 99.2374 89.2634 99.9661C89.7612 100.354 90.4736 100.473 91.441 100.328C91.6103 100.303 91.7687 100.42 91.7939 100.59C91.8193 100.76 91.7023 100.918 91.5328 100.943C91.2369 100.988 90.9596 101.01 90.7001 101.01Z" fill="white"/>
<path d="M88.8187 91.3495C89.0838 91.3495 89.2986 91.1342 89.2986 90.8686C89.2986 90.6031 89.0838 90.3878 88.8187 90.3878C88.5537 90.3878 88.3389 90.6031 88.3389 90.8686C88.3389 91.1342 88.5537 91.3495 88.8187 91.3495Z" fill="white"/>
<path d="M89.3148 96.8146C89.5799 96.8146 89.7947 96.5993 89.7947 96.3337C89.7947 96.0681 89.5799 95.8528 89.3148 95.8528C89.0498 95.8528 88.835 96.0681 88.835 96.3337C88.835 96.5993 89.0498 96.8146 89.3148 96.8146Z" fill="white"/>
</g>
<g clip-path="url(#clip2_1116_56522)">
<path d="M134.453 37C135.255 37 135.905 36.3284 135.905 35.5C135.905 34.6716 135.255 34 134.453 34C133.65 34 133 34.6716 133 35.5C133 36.3284 133.65 37 134.453 37Z" fill="#1B1B23"/>
<path d="M140 37C140.803 37 141.453 36.3284 141.453 35.5C141.453 34.6716 140.803 34 140 34C139.198 34 138.548 34.6716 138.548 35.5C138.548 36.3284 139.198 37 140 37Z" fill="#1B1B23"/>
<path d="M145.547 37C146.349 37 147 36.3284 147 35.5C147 34.6716 146.349 34 145.547 34C144.745 34 144.095 34.6716 144.095 35.5C144.095 36.3284 144.745 37 145.547 37Z" fill="#1B1B23"/>
</g>
<defs>
<clipPath id="clip0_1116_56522">
<rect width="49" height="41" fill="white" transform="translate(109 17)"/>
</clipPath>
<clipPath id="clip1_1116_56522">
<rect width="123" height="119" fill="white" transform="translate(26 39)"/>
</clipPath>
<clipPath id="clip2_1116_56522">
<rect width="14" height="3" fill="white" transform="translate(133 34)"/>
</clipPath>
</defs>
</svg>
