<svg width="20" height="16" viewBox="0 0 20 16" fill="none" xmlns="http://www.w3.org/2000/svg">
<path fill-rule="evenodd" clip-rule="evenodd" d="M9.65516 0.741361C9.87427 0.641768 10.1257 0.641768 10.3448 0.741361L19.5115 4.90803C19.809 5.04325 20 5.33988 20 5.66667C20 5.99345 19.809 6.29008 19.5115 6.4253L16.6667 7.71841V12.314C16.6667 12.5333 16.5802 12.7438 16.426 12.8998C14.6232 14.7235 12.5049 15.6994 9.99962 15.6667C7.49841 15.6969 5.37968 14.7249 3.57742 12.9226C3.42113 12.7664 3.33333 12.5544 3.33333 12.3334V7.71841L2.5 7.33962L2.5 14.8333C2.5 15.2936 2.1269 15.6667 1.66667 15.6667C1.20643 15.6667 0.833333 15.2936 0.833333 14.8333L0.833333 6.58205L0.488498 6.4253C0.191002 6.29008 0 5.99345 0 5.66667C0 5.33988 0.191002 5.04325 0.488498 4.90803L9.65516 0.741361ZM10.3448 10.592L15 8.47599V11.9637C13.5346 13.3504 11.9088 14.0271 10.0119 14.0001C10.0042 14 9.99658 14 9.98894 14.0001C8.09352 14.0252 6.46533 13.35 5 11.9802V8.47599L9.65516 10.592C9.87427 10.6916 10.1257 10.6916 10.3448 10.592ZM2.84717 5.66667L10 8.91795L17.1528 5.66667L10 2.41538L2.84717 5.66667Z" fill="#1B1B23"/>
</svg>
