<svg width="18" height="17" viewBox="0 0 18 17" fill="none" xmlns="http://www.w3.org/2000/svg">
<path fill-rule="evenodd" clip-rule="evenodd" d="M9.83268 0.666666H8.16602C6.7853 0.666666 5.66602 1.78595 5.66602 3.16667V4H3.16602C1.7853 4 0.666016 5.11929 0.666016 6.5V14C0.666016 15.3807 1.7853 16.5 3.16602 16.5H14.8327C16.2134 16.5 17.3327 15.3807 17.3327 14V6.5C17.3327 5.11929 16.2134 4 14.8327 4H12.3327V3.16667C12.3327 1.78595 11.2134 0.666666 9.83268 0.666666ZM10.666 4V3.16667C10.666 2.70643 10.2929 2.33333 9.83268 2.33333H8.16602C7.70578 2.33333 7.33268 2.70643 7.33268 3.16667V4H10.666ZM2.33268 6.5C2.33268 6.03976 2.70578 5.66667 3.16602 5.66667H14.8327C15.2929 5.66667 15.666 6.03976 15.666 6.5V14C15.666 14.4602 15.2929 14.8333 14.8327 14.8333H3.16602C2.70578 14.8333 2.33268 14.4602 2.33268 14V6.5Z" fill="#1B1B23"/>
</svg>
