<svg width="24" height="24" viewBox="0 0 24 24" fill="none" xmlns="http://www.w3.org/2000/svg">
<path fill-rule="evenodd" clip-rule="evenodd" d="M2 3C2 1.89543 2.89543 1 4 1H14C15.1046 1 16 1.89543 16 3V8C16 8.55228 15.5523 9 15 9C14.4477 9 14 8.55228 14 8V3L4 3V21H14V16C14 15.4477 14.4477 15 15 15C15.5523 15 16 15.4477 16 16V21C16 22.1046 15.1046 23 14 23H4C2.89543 23 2 22.1046 2 21V3ZM18.2929 8.29289C18.6834 7.90237 19.3166 7.90237 19.7071 8.29289L22.7071 11.2929C23.0976 11.6834 23.0976 12.3166 22.7071 12.7071L19.7071 15.7071C19.3166 16.0976 18.6834 16.0976 18.2929 15.7071C17.9024 15.3166 17.9024 14.6834 18.2929 14.2929L19.5858 13H8C7.44772 13 7 12.5523 7 12C7 11.4477 7.44772 11 8 11H19.5858L18.2929 9.70711C17.9024 9.31658 17.9024 8.68342 18.2929 8.29289Z" fill="#1B1B23"/>
</svg>
