<svg width="184" height="176" viewBox="0 0 184 176" fill="none" xmlns="http://www.w3.org/2000/svg">
<g clip-path="url(#clip0_1116_57378)">
<path d="M159.5 139C165.851 139 171 137.657 171 136C171 134.343 165.851 133 159.5 133C153.149 133 148 134.343 148 136C148 137.657 153.149 139 159.5 139Z" fill="#1B1B23"/>
</g>
<g clip-path="url(#clip1_1116_57378)">
<path d="M133.484 51.9312L133.203 57.7707L150.504 38.5407L133.484 51.9312Z" fill="#1B1B23"/>
<path d="M133.203 57.993C133.174 57.993 133.145 57.9876 133.118 57.9764C133.031 57.9407 132.975 57.8541 132.98 57.7601L133.261 51.9206C133.264 51.8564 133.295 51.7966 133.345 51.7567L150.365 38.3663C150.456 38.2948 150.587 38.3045 150.666 38.3885C150.745 38.4726 150.747 38.6032 150.67 38.6891L133.369 57.9191C133.326 57.9671 133.265 57.993 133.203 57.993ZM133.702 52.043L133.456 57.1565L148.606 40.3172L133.702 52.043Z" fill="#1B1B23"/>
<path d="M151 38L141.852 59.5196L133.558 52.0053L125.72 48.2302L151 38Z" fill="#62B2FF"/>
<path d="M132.252 53.1678C132.186 53.1678 132.121 53.139 132.077 53.0836C132 52.9874 132.016 52.8476 132.113 52.7713L152.575 36.6105C152.672 36.5341 152.812 36.5503 152.889 36.6465C152.965 36.7428 152.949 36.8826 152.852 36.9588L132.39 53.1197C132.349 53.1522 132.3 53.1678 132.252 53.1678Z" fill="white"/>
<path d="M117.008 123C116.934 123 116.862 122.964 116.819 122.897C113.048 117.009 110.611 110.823 109.577 104.511C108.663 98.9357 108.836 93.2532 110.091 87.6217C111.467 81.4482 114.163 75.3545 117.887 69.9995C121.085 65.4016 124.85 61.6013 128.489 59.2987C128.593 59.233 128.731 59.2635 128.797 59.3671C128.863 59.4707 128.832 59.6081 128.728 59.674C125.19 61.9125 121.372 65.7684 118.254 70.2527C114.562 75.5607 111.89 81.6001 110.527 87.7181C109.284 93.294 109.112 98.9201 110.017 104.44C111.042 110.692 113.457 116.821 117.196 122.658C117.262 122.762 117.232 122.899 117.128 122.965C117.09 122.989 117.049 123 117.008 123Z" fill="#1B1B23"/>
<path d="M127.646 101.883C127.565 101.883 127.487 101.839 127.447 101.763C125.11 97.2614 123.862 92.3226 123.736 87.0838C123.636 82.897 124.249 78.5111 125.558 74.0478C127.786 66.453 131.312 61.1896 131.347 61.1374C131.416 61.0355 131.555 61.0089 131.657 61.0772C131.759 61.1459 131.786 61.284 131.717 61.3858C131.682 61.4376 128.19 66.6537 125.983 74.1856C124.688 78.6033 124.083 82.9421 124.183 87.0813C124.307 92.2491 125.539 97.12 127.844 101.559C127.901 101.668 127.858 101.802 127.748 101.858C127.715 101.875 127.68 101.883 127.646 101.883Z" fill="#1B1B23"/>
</g>
<g clip-path="url(#clip2_1116_57378)">
<path d="M105.86 135.674H103.731C103.483 135.674 103.282 135.474 103.282 135.228V133.111C103.282 132.865 103.483 132.666 103.731 132.666H105.86C106.108 132.666 106.308 132.865 106.308 133.111V135.228C106.308 135.474 106.108 135.674 105.86 135.674Z" fill="#1B1B23"/>
<path d="M112.366 134.997H110.236C109.989 134.997 109.788 134.797 109.788 134.551V132.435C109.788 132.189 109.989 131.989 110.236 131.989H112.366C112.614 131.989 112.814 132.189 112.814 132.435V134.551C112.814 134.797 112.613 134.997 112.366 134.997Z" fill="#1B1B23"/>
<path d="M99.3542 134.997H97.2247C96.9771 134.997 96.7764 134.797 96.7764 134.551V132.435C96.7764 132.189 96.9771 131.989 97.2247 131.989H99.3542C99.6018 131.989 99.8025 132.189 99.8025 132.435V134.551C99.8024 134.797 99.6017 134.997 99.3542 134.997Z" fill="#1B1B23"/>
<path d="M118.873 134.997H116.743C116.496 134.997 116.295 134.797 116.295 134.551V132.435C116.295 132.189 116.496 131.989 116.743 131.989H118.873C119.12 131.989 119.321 132.189 119.321 132.435V134.551C119.321 134.797 119.12 134.997 118.873 134.997Z" fill="#1B1B23"/>
<path d="M124.163 134.874L142.318 94.7719L173.54 94.5874L155.248 135.251L124.163 134.874Z" fill="white"/>
<path d="M155.248 135.476C155.247 135.476 155.246 135.476 155.245 135.476L124.161 135.1C124.084 135.099 124.013 135.06 123.972 134.995C123.931 134.931 123.925 134.851 123.956 134.782L142.111 94.6793C142.148 94.5989 142.228 94.5468 142.317 94.5463L173.539 94.3618H173.54C173.617 94.3618 173.688 94.4003 173.73 94.464C173.772 94.5282 173.779 94.6095 173.747 94.6794L155.455 135.343C155.419 135.424 155.338 135.476 155.248 135.476ZM124.513 134.653L155.102 135.024L173.189 94.815L142.465 94.9966L124.513 134.653Z" fill="#1B1B23"/>
<path d="M155.042 136.34C154.474 136.34 154.014 135.883 154.014 135.319C154.014 135.179 154.043 135.041 154.099 134.913L171.937 95.8325C172.053 95.567 171.855 95.2712 171.564 95.2738L143.701 95.5833C143.313 95.5867 142.962 95.8134 142.8 96.1645L124.902 135.344C124.679 135.863 124.075 136.103 123.553 135.881C123.032 135.659 122.79 135.059 123.013 134.54L141.442 94.1659C141.604 93.7899 141.975 93.5461 142.387 93.5463L173.746 93.2256C174.313 93.2256 174.773 93.6829 174.773 94.247C174.773 94.3864 174.744 94.5242 174.689 94.6522L155.986 135.724C155.823 136.099 155.452 136.341 155.042 136.34Z" fill="white"/>
<path d="M155.043 136.566C155.043 136.566 155.042 136.566 155.041 136.566C154.707 136.566 154.392 136.436 154.155 136.2C153.918 135.965 153.788 135.652 153.788 135.319C153.788 135.147 153.822 134.981 153.891 134.824L171.731 95.7394C171.763 95.6648 171.73 95.6011 171.714 95.5775C171.698 95.5538 171.651 95.5002 171.567 95.4996L143.704 95.809C143.405 95.8116 143.131 95.988 143.007 96.2584L125.109 135.437C124.979 135.739 124.735 135.976 124.424 136.1C124.113 136.224 123.772 136.22 123.464 136.089C122.828 135.818 122.532 135.084 122.804 134.452L141.235 94.0728C141.431 93.6177 141.884 93.3208 142.387 93.3208H142.387L173.744 93.0001C174.081 93.0001 174.396 93.1298 174.633 93.3653C174.87 93.6008 175 93.9139 175 94.2471C175 94.4182 174.966 94.5847 174.897 94.7418L156.193 135.817C155.996 136.271 155.544 136.566 155.043 136.566ZM171.568 95.0484C171.78 95.0484 171.975 95.1526 172.093 95.328C172.211 95.505 172.231 95.7272 172.146 95.9222L154.306 135.007C154.264 135.103 154.242 135.209 154.242 135.319C154.241 135.531 154.325 135.731 154.476 135.881C154.627 136.032 154.828 136.115 155.042 136.115C155.042 136.115 155.043 136.115 155.043 136.115C155.363 136.115 155.651 135.926 155.778 135.635L174.482 94.5592C174.524 94.4625 174.546 94.3563 174.546 94.2471C174.546 94.0345 174.463 93.8347 174.312 93.6844C174.161 93.534 173.96 93.4512 173.746 93.4512L142.389 93.772C142.389 93.772 142.389 93.772 142.389 93.772C142.066 93.772 141.777 93.9615 141.65 94.2547L123.22 134.634C123.048 135.033 123.237 135.501 123.643 135.674C123.839 135.757 124.057 135.76 124.255 135.681C124.454 135.602 124.61 135.451 124.694 135.255L142.594 96.0714C142.791 95.6419 143.225 95.362 143.7 95.3578L171.562 95.0484C171.564 95.0484 171.566 95.0484 171.568 95.0484Z" fill="#1B1B23"/>
<path d="M87.54 136.664C86.6203 136.445 86.0535 135.526 86.2742 134.612C86.4591 133.846 87.1488 133.306 87.9414 133.307L155.022 133.37C155.967 133.37 156.734 134.132 156.735 135.072C156.735 136.012 155.968 136.774 155.023 136.774L87.9414 136.711C87.8062 136.711 87.6714 136.696 87.54 136.664Z" fill="white"/>
<path d="M155.023 137L87.9413 136.937C87.7888 136.937 87.636 136.919 87.4874 136.884C87.4874 136.884 87.4873 136.884 87.4872 136.884C86.4473 136.636 85.8042 135.593 86.0537 134.559C86.2639 133.689 87.0393 133.081 87.9397 133.081H87.9418L155.022 133.144H155.022C156.091 133.144 156.961 134.009 156.962 135.072C156.962 136.135 156.092 137 155.023 137ZM87.5929 136.445C87.707 136.472 87.8243 136.486 87.9415 136.486L155.023 136.549C155.842 136.549 156.508 135.886 156.508 135.072C156.508 134.258 155.841 133.595 155.022 133.595C155.022 133.595 155.022 133.595 155.022 133.595L87.9413 133.532C87.9407 133.532 87.9402 133.532 87.9397 133.532C87.2499 133.532 86.6559 133.998 86.495 134.664C86.304 135.456 86.7964 136.255 87.5929 136.445Z" fill="#1B1B23"/>
<path d="M152.896 135.738C153.236 135.738 153.512 135.463 153.512 135.125C153.512 134.786 153.236 134.512 152.896 134.512C152.555 134.512 152.279 134.786 152.279 135.125C152.279 135.463 152.555 135.738 152.896 135.738Z" fill="#BFB6FF"/>
<path d="M150.021 135.613H150.017L145.796 135.586C145.494 135.584 145.25 135.339 145.252 135.038C145.254 134.737 145.501 134.495 145.804 134.497L150.024 134.524C150.327 134.525 150.571 134.769 150.57 135.07C150.569 135.371 150.323 135.614 150.021 135.613Z" fill="#BFB6FF"/>
<path d="M145.738 123.298L140.706 112.729C140.623 112.616 140.649 112.458 140.762 112.376C140.806 112.345 140.858 112.328 140.912 112.328L144.917 112.327C145.196 112.327 145.457 112.46 145.621 112.684L146.967 115.548C147.082 115.705 147.304 115.741 147.463 115.626C147.486 115.609 147.507 115.59 147.526 115.568L153.563 109.504C153.756 109.275 154.041 109.144 154.342 109.146L159.428 109.17C159.597 109.171 159.733 109.308 159.732 109.476C159.731 109.547 159.706 109.615 159.66 109.669L146.297 123.318C146.171 123.467 145.947 123.486 145.797 123.361C145.775 123.342 145.755 123.321 145.738 123.298Z" fill="#62B2FF"/>
</g>
<g clip-path="url(#clip3_1116_57378)">
<path d="M59.7841 110.541C59.7841 110.541 71.2637 103.573 76.0273 95.9731C76.0273 95.9731 75.3605 91.7988 75.8966 88.7388C76.3119 86.3682 78.0424 84.7644 81.0188 86.0893C82.4723 84.9737 86.6254 84.7645 87.456 86.647C88.5803 86.6686 89.8094 87.414 89.8094 88.8085C90.9861 89.0874 91.7475 90.2727 91.4014 91.458C93.9624 93.0616 88.505 104.314 87.6637 105.891C82.68 115.234 76.6279 124.997 65.6312 133.733C55.2193 142.006 39.4548 140.75 33.9556 137.279C9.23244 121.672 40.8663 76.3463 54.0461 72.2821C64.8247 68.9584 62.1117 88.3096 52.433 113.865C56.3925 112.536 59.7841 110.541 59.7841 110.541Z" fill="white"/>
<path d="M46.2158 140.173C41.2444 140.173 36.5188 139.158 33.8395 137.466C30.0566 135.078 27.3937 131.869 25.9249 127.927C24.6025 124.378 24.2405 120.227 24.8489 115.589C27.283 97.0303 44.7993 74.902 53.9825 72.0702C56.3239 71.3482 58.1329 71.6522 59.3594 72.9739C61.4063 75.1797 61.7669 80.1294 60.4313 87.6856C59.2163 94.5589 56.5818 103.477 52.8058 113.503C56.4776 112.211 59.5905 110.398 59.6725 110.35C59.7459 110.306 62.6009 108.561 65.9899 105.928C69.1173 103.499 73.3482 99.7967 75.7979 95.9248C75.7042 95.3036 75.1797 91.5601 75.6807 88.7003C75.9242 87.3102 76.5847 86.2619 77.5405 85.7483C78.4785 85.2444 79.6698 85.275 80.9921 85.8361C82.0765 85.0905 84.2266 84.7982 85.7846 85.2001C86.6631 85.4268 87.2861 85.851 87.5964 86.4313C88.7528 86.5081 89.9325 87.2825 90.0243 88.6378C90.6015 88.8182 91.0954 89.2098 91.3965 89.7312C91.6863 90.233 91.7752 90.808 91.6525 91.3664C92.6837 92.2124 92.4702 94.6975 91.016 98.7596C89.8264 102.082 88.2225 105.313 87.858 105.996C82.8763 115.335 76.7523 125.18 65.768 133.907C63.2946 135.873 60.3888 137.41 57.1312 138.476C54.2486 139.42 51.1637 139.977 47.9622 140.131C47.3789 140.159 46.7955 140.173 46.2158 140.173ZM56.2471 72.1341C55.6023 72.1341 54.8897 72.2539 54.1113 72.4939C49.689 73.8576 43.0837 79.9956 37.2836 88.1313C34.2492 92.3874 31.5796 96.999 29.5631 101.468C27.3008 106.481 25.8614 111.252 25.285 115.647C24.6862 120.212 25.0401 124.291 26.3367 127.771C27.771 131.62 30.3739 134.756 34.0731 137.091C36.9938 138.935 42.4373 139.954 47.9413 139.689C51.1037 139.536 54.15 138.986 56.9954 138.055C60.2033 137.004 63.0633 135.492 65.4957 133.559C76.4169 124.882 82.5115 115.083 87.4706 105.786C87.8318 105.109 89.4219 101.906 90.6023 98.6092C91.9961 94.7157 92.239 92.243 91.286 91.6462C91.202 91.5937 91.1632 91.4911 91.1911 91.3955C91.3335 90.9077 91.2715 90.3959 91.0164 89.954C90.7477 89.4887 90.2897 89.1498 89.7598 89.0242C89.6604 89.0007 89.5902 88.9114 89.5902 88.8085C89.5902 87.5751 88.4888 86.8884 87.4526 86.8685C87.3672 86.8669 87.2905 86.8156 87.2558 86.737C86.9678 86.0842 86.2375 85.7744 85.6755 85.6294C84.2028 85.2495 82.0894 85.5468 81.1528 86.2655C81.089 86.3143 81.0039 86.3245 80.9306 86.2919C79.6901 85.7396 78.5893 85.6869 77.7475 86.1393C76.9136 86.5873 76.3335 87.5242 76.114 88.7772C75.5906 91.7644 76.2385 95.8965 76.2452 95.9379C76.2537 95.9912 76.2426 96.0458 76.214 96.0913C73.7362 100.045 69.4303 103.815 66.2544 106.282C62.8188 108.951 59.9271 110.713 59.8983 110.731C59.8974 110.731 59.8965 110.732 59.8957 110.732C59.8616 110.752 56.4388 112.754 52.5033 114.075C52.4226 114.103 52.3337 114.08 52.2749 114.018C52.2161 113.957 52.1979 113.866 52.2282 113.786C56.0834 103.607 58.7702 94.5546 59.9981 87.6078C61.2897 80.3009 60.9577 75.3452 59.0379 73.2764C58.3318 72.5155 57.3975 72.1341 56.2471 72.1341ZM59.7848 110.541H59.7855H59.7848Z" fill="#1B1B23"/>
<path d="M80.5203 89.7343C79.3425 89.7343 78.0922 89.1156 78.0143 89.0765C77.9056 89.0219 77.8616 88.8889 77.9158 88.7795C77.9699 88.6701 78.102 88.6255 78.2107 88.68C78.2173 88.6833 78.8795 89.0129 79.6584 89.1862C80.3394 89.3375 81.2543 89.3984 81.7456 88.8284C82.015 88.5159 82.1139 88.1506 82.0398 87.7426C81.9356 87.1687 81.4875 86.5781 80.9247 86.2729C80.8177 86.2148 80.7777 86.0805 80.8353 85.9728C80.893 85.865 81.0263 85.8249 81.1333 85.8827C81.8074 86.2483 82.3456 86.9638 82.4726 87.6629C82.5706 88.2023 82.4341 88.7057 82.0779 89.119C81.6811 89.5792 81.1097 89.7343 80.5203 89.7343Z" fill="#1B1B23"/>
<path d="M82.4735 94.329C82.4692 94.329 82.4648 94.3289 82.4604 94.3287C82.4312 94.327 81.7408 94.2784 81.2928 93.5927C80.7488 92.76 80.8114 91.3984 81.4787 89.5457C81.9338 88.2824 82.9428 87.3782 84.4776 86.8584C85.8972 86.3777 87.2374 86.4131 87.4916 86.425C87.6129 86.4307 87.7067 86.5344 87.7011 86.6567C87.6954 86.7789 87.5923 86.8743 87.4711 86.8677C87.2306 86.8565 85.9629 86.8231 84.6177 87.2785C83.2163 87.7531 82.2993 88.5667 81.8922 89.6969C81.1265 91.8227 81.3404 92.8518 81.6548 93.3406C81.9777 93.8431 82.4669 93.8848 82.4876 93.8864C82.6081 93.8953 82.6998 94.0006 82.6918 94.122C82.6842 94.2391 82.5884 94.329 82.4735 94.329Z" fill="#1B1B23"/>
<path d="M84.1341 96.2814C84.1255 96.2814 84.1169 96.2809 84.1082 96.2798C84.0794 96.2764 83.3991 96.1885 82.9479 95.4953C82.4561 94.7396 82.4349 93.5944 82.885 92.0912C83.3766 90.4494 84.2455 89.3118 85.4674 88.7099C87.5214 87.698 89.8098 88.5663 89.9062 88.6037C90.0196 88.6477 90.076 88.776 90.0323 88.8902C89.9885 89.0043 89.8613 89.0612 89.748 89.0173C89.7245 89.0081 87.5362 88.182 85.6576 89.1094C84.5517 89.6554 83.7605 90.7017 83.3061 92.2192C82.903 93.5651 82.9044 94.6109 83.31 95.2435C83.645 95.766 84.1401 95.8371 84.161 95.8399C84.2809 95.8558 84.3663 95.9662 84.3513 96.0871C84.3376 96.1991 84.2435 96.2814 84.1341 96.2814Z" fill="#1B1B23"/>
<path d="M85.5223 98.3797C85.2972 98.3797 85.1405 98.3134 85.0842 98.2851C84.9863 98.2476 84.6155 98.0775 84.3627 97.5748C83.9749 96.8042 84.0378 95.6601 84.5496 94.1744C85.0946 92.5919 85.9805 91.5352 87.1827 91.0337C89.2068 90.1892 91.3722 91.2256 91.4634 91.2702C91.5728 91.3236 91.6184 91.4561 91.5654 91.5662C91.5124 91.6762 91.3809 91.7223 91.2717 91.669C91.251 91.6589 89.1877 90.6749 87.3482 91.4443C86.2685 91.8958 85.4668 92.8633 84.9652 94.3198C84.3843 96.0061 84.5253 96.9018 84.7458 97.3561C84.9449 97.7661 85.2283 97.867 85.2403 97.8711C85.2532 97.8755 85.2689 97.8822 85.2808 97.889C85.2864 97.8918 85.4926 97.997 85.803 97.8845C86.1455 97.7604 86.6626 97.3536 87.1822 96.1196C87.449 95.3485 88.3512 94.0319 89.8772 94.524C89.9929 94.5613 90.0567 94.686 90.0197 94.8025C89.9827 94.9191 89.859 94.9831 89.7432 94.946C88.2409 94.4614 87.6211 96.1976 87.5954 96.2717C87.5939 96.2763 87.592 96.2811 87.5901 96.2855C87.1165 97.413 86.5577 98.0939 85.9293 98.3093C85.7779 98.3613 85.6406 98.3797 85.5223 98.3797Z" fill="#1B1B23"/>
<path d="M81.5042 97.327C81.4454 97.327 81.3867 97.3035 81.3435 97.2568C81.2607 97.1675 81.2651 97.0276 81.3536 96.9441C81.4017 96.8987 82.5523 95.8318 84.2226 95.9786C84.3437 95.9891 84.4333 96.0966 84.4227 96.2185C84.4122 96.3403 84.3054 96.4299 84.1845 96.42C82.7146 96.2921 81.6646 97.2579 81.6542 97.2677C81.6117 97.3073 81.5579 97.327 81.5042 97.327Z" fill="#1B1B23"/>
<path d="M77.1429 98.0245C77.0845 98.0245 77.0263 98.0013 76.983 97.9552C75.9956 96.904 75.8323 96.0504 75.8258 96.0146C75.8041 95.8942 75.8834 95.7789 76.0029 95.757C76.1221 95.7351 76.2364 95.8145 76.2585 95.9343C76.2612 95.9477 76.4168 96.7076 77.3026 97.6507C77.3861 97.7395 77.3822 97.8798 77.294 97.9639C77.2515 98.0044 77.1971 98.0245 77.1429 98.0245Z" fill="#1B1B23"/>
<path d="M45.6119 56.1844C43.8162 57.4769 42.0235 58.1867 40.2314 58.6424C42.0154 58.0878 43.8514 57.2051 45.6119 56.1844Z" fill="#1B1B23"/>
<path d="M40.2316 58.8641C40.1353 58.8641 40.0471 58.7999 40.0199 58.7023C39.9877 58.5867 40.0529 58.4663 40.1669 58.4308C41.7838 57.928 43.579 57.1077 45.5025 55.9925C45.6041 55.9334 45.7338 55.9653 45.7972 56.0647C45.8606 56.1641 45.8355 56.2961 45.7401 56.3647C44.1199 57.531 42.3867 58.323 40.2856 58.8573C40.2675 58.8619 40.2494 58.8641 40.2316 58.8641Z" fill="#1B1B23"/>
<path d="M78.9905 43.3963C78.9905 43.3963 75.8676 50.331 64.9432 54.038C62.6981 53.4316 60.6487 53.066 59.0319 54.4657L61.0432 57.067C61.3562 66.1067 59.5569 111.199 42.5613 121.548C29.6747 129.394 45.1269 125.559 39.6474 127.161C19.738 133.581 3.601 121.08 11.0888 103.96C18.1821 87.7639 14.9896 85.3664 15.6047 76.7012C16.7193 60.9373 32.2521 60.5052 39.055 58.9615C39.2706 58.9128 39.4869 58.8574 39.7039 58.7976C39.8799 58.7495 40.0558 58.6978 40.2318 58.6424C42.0238 58.1867 43.8166 57.4769 45.6123 56.1844C48.2483 54.2877 50.8886 51.1346 53.5319 45.6889C59.9514 31.7612 75.6469 34.6609 78.9905 43.3963Z" fill="#1B1B23"/>
<path d="M29.2495 129.092C27.4705 129.092 25.7368 128.932 24.0726 128.61C19.4704 127.719 15.6134 125.653 12.9185 122.637C10.8356 120.306 9.52623 117.439 9.13182 114.347C8.70831 111.027 9.29893 107.502 10.8871 103.871C16.0184 92.1544 15.7405 87.6251 15.4463 82.83C15.333 80.9818 15.2157 79.0707 15.385 76.6854C15.6148 73.4353 16.4806 70.6128 17.9584 68.2964C19.2346 66.2959 21.0107 64.6089 23.2374 63.2821C27.3131 60.8537 32.1255 60.0041 35.9923 59.3215C37.0929 59.1273 38.1325 58.9437 39.0064 58.7454C39.2054 58.7004 39.4145 58.6476 39.6456 58.5839C39.8187 58.5366 39.9937 58.4852 40.166 58.431C40.1698 58.4298 40.1738 58.4286 40.1778 58.4276C42.2239 57.9073 43.9101 57.1372 45.4842 56.0042C48.3752 53.9239 50.9429 50.518 53.3341 45.5916C54.8888 42.2184 57.0502 39.6493 59.7563 37.9594C62.1394 36.4714 64.8812 35.7347 67.6852 35.8288C72.923 36.0047 77.5486 39.0139 79.1955 43.3166C79.2167 43.372 79.2149 43.4337 79.1906 43.4878C79.158 43.5601 78.369 45.2826 76.22 47.4824C74.245 49.5042 70.6975 52.319 65.0132 54.248C64.972 54.2618 64.9278 54.2632 64.886 54.252C62.8416 53.6998 60.8787 53.307 59.3375 54.5006L61.2165 56.9308C61.2449 56.9676 61.2611 57.0125 61.2627 57.0592C61.3908 60.7569 61.1598 74.5355 58.509 88.857C57.0772 96.5929 55.1779 103.191 52.8642 108.468C50.0595 114.864 46.6312 119.329 42.6749 121.738C37.7379 124.744 37.4183 125.778 37.51 126.083C37.6718 126.62 39.5341 126.536 40.2352 126.504C40.4197 126.496 40.5791 126.488 40.6938 126.488C40.8199 126.488 41.0539 126.488 41.0887 126.7C41.1246 126.919 40.9037 126.996 40.6697 127.077C40.4758 127.144 40.1704 127.238 39.7086 127.373C36.1693 128.515 32.6277 129.092 29.2495 129.092ZM40.2911 58.8558C40.1154 58.9111 39.9371 58.9635 39.7611 59.0115C39.5239 59.0768 39.3084 59.1313 39.1028 59.1777C38.2187 59.3784 37.1741 59.5628 36.0681 59.758C32.2365 60.4344 27.4679 61.2762 23.4612 63.6635C21.2942 64.9547 19.5672 66.594 18.3284 68.5359C16.891 70.7892 16.0483 73.5416 15.8237 76.7169C15.6565 79.0727 15.7728 80.9689 15.8853 82.8027C16.183 87.6532 16.464 92.2347 11.2896 104.049C9.7341 107.606 9.15492 111.051 9.5681 114.291C9.95106 117.293 11.2226 120.077 13.2454 122.341C15.8757 125.284 19.6484 127.302 24.1556 128.175C28.8878 129.091 34.1967 128.675 39.5132 126.971C38.3257 126.99 37.2887 126.876 37.0888 126.211C36.9152 125.634 37.2818 124.503 42.4471 121.359C46.3247 118.997 49.694 114.6 52.4615 108.289C54.7616 103.043 56.6507 96.4782 58.0763 88.7759C60.7031 74.5841 60.9475 60.9344 60.8253 57.1464L58.858 54.6019C58.7858 54.5086 58.7991 54.3747 58.8881 54.2977C60.5988 52.8168 62.7233 53.2126 64.9354 53.8067C68.0177 52.754 72.3975 50.7553 75.889 47.1894C77.7312 45.3079 78.5666 43.7535 78.7501 43.3867C77.1361 39.2953 72.6975 36.4407 67.6703 36.2719C64.9532 36.1804 62.2969 36.8945 59.9879 38.3362C57.3559 39.9797 55.2508 42.4849 53.7311 45.7823C51.305 50.7805 48.6917 54.2407 45.7397 56.3648C44.1212 57.5299 42.3896 58.3215 40.2911 58.8558Z" fill="#1B1B23"/>
<path d="M79.9065 65.8024C78.6179 66.5508 74.578 65.8959 72.6508 65.3697C68.3112 67.6438 68.0601 85.7867 67.7402 85.5186C67.7402 85.5186 53.0547 91.0615 46.0195 82.7354C46.0195 82.7354 53.0547 80.7006 51.4642 74.0233C51.4642 74.0233 59.9628 66.7291 62.1104 54.3919C71.7243 54.0495 77.8016 46.3412 78.9014 43.1652C79.8286 45.1397 80.6083 47.7058 81.1486 49.8284C81.3112 50.3663 81.4969 51.0212 81.7988 51.5006C82.1006 51.9683 82.6114 52.2607 83.099 52.5179C84.167 53.0324 83.1919 54.4124 82.3793 54.8801C82.4373 57.0552 83.0642 63.943 79.9065 65.8024Z" fill="white"/>
<path d="M57.5328 87.5479C55.6442 87.5479 53.8986 87.33 52.3236 86.8966C49.6634 86.1644 47.4861 84.8127 45.8522 82.8789C45.8038 82.8216 45.7876 82.7434 45.8092 82.6713C45.8307 82.5992 45.8871 82.5432 45.9589 82.5223C45.9761 82.5173 47.701 82.0064 49.2062 80.7055C51.2003 78.9823 51.888 76.7515 51.2505 74.0749C51.2312 73.9938 51.2587 73.9086 51.3217 73.8545C51.3428 73.8365 53.4607 72.0021 55.8116 68.6932C57.9784 65.6431 60.7926 60.6795 61.8939 54.3535C61.9118 54.2504 61.9989 54.174 62.1028 54.1704C67.3029 53.9852 71.203 51.6208 73.5592 49.6699C76.326 47.3789 78.1317 44.7155 78.6939 43.0921C78.7233 43.0072 78.8007 42.9486 78.8899 42.9438C78.9788 42.9391 79.0622 42.989 79.1004 43.0703C80.1017 45.2027 80.882 47.8888 81.3606 49.7685L81.3921 49.8732C81.5454 50.3826 81.7191 50.9599 81.9847 51.3818C82.2528 51.7974 82.7308 52.0732 83.1977 52.3198C83.6687 52.5482 83.7789 52.9063 83.7883 53.1669C83.8122 53.8256 83.2114 54.6029 82.6031 55.0019C82.6089 55.1754 82.6173 55.3739 82.6268 55.5966C82.746 58.4024 82.9944 64.2407 80.0176 65.9937C80.0173 65.9939 80.0169 65.9941 80.0165 65.9943C78.6232 66.8036 74.4628 66.0808 72.6791 65.6066C71.3273 66.3843 70.2297 68.952 69.4157 73.2417C68.7225 76.8955 68.401 80.9393 68.2089 83.3554C68.1556 84.026 68.1135 84.5556 68.0751 84.9354C68.0126 85.5537 67.9791 85.6644 67.8362 85.725C67.8167 85.7332 67.7965 85.7387 67.7762 85.7412C67.356 85.8941 63.8072 87.1464 59.5346 87.4702C58.8513 87.522 58.1835 87.5479 57.5328 87.5479ZM46.4035 82.8404C47.9533 84.5726 49.9824 85.7928 52.4395 86.4691C54.5085 87.0384 56.8846 87.2266 59.5017 87.0283C63.6008 86.7175 67.0177 85.5431 67.5818 85.3407C67.6309 85.075 67.6962 84.2543 67.7704 83.32C67.9632 80.8949 68.2859 76.836 68.9836 73.1586C69.8508 68.5881 71.0173 65.976 72.5494 65.1731C72.5984 65.1474 72.6552 65.1412 72.7085 65.1559C74.575 65.6655 78.5695 66.3221 79.796 65.6108C80.9666 64.9214 81.7267 63.3873 82.0553 61.0513C82.3341 59.0698 82.2458 56.9912 82.1873 55.6157C82.1753 55.3343 82.165 55.0913 82.1595 54.8862C82.1573 54.8046 82.1999 54.7283 82.2702 54.6878C82.7942 54.3861 83.3667 53.6786 83.3487 53.1832C83.3412 52.9782 83.2285 52.8259 83.0042 52.7178C83.0017 52.7166 82.9993 52.7155 82.997 52.7142C82.4772 52.4399 81.9424 52.1297 81.6144 51.6213C81.3153 51.1462 81.1324 50.5383 80.971 50.0018L80.9382 49.8928C80.9372 49.8896 80.9364 49.8865 80.9356 49.8833C80.4965 48.1583 79.8012 45.7471 78.9157 43.7295C78.1761 45.4233 76.4099 47.883 73.8384 50.0122C71.4567 51.9842 67.5301 54.3697 62.296 54.606C61.1583 60.9363 58.3374 65.9017 56.1608 68.963C54.0728 71.8995 52.1618 73.6923 51.7082 74.1018C52.4871 77.5849 50.9332 79.8012 49.4813 81.0516C48.2862 82.081 46.9928 82.6269 46.4035 82.8404ZM79.9067 65.8024H79.9075H79.9067Z" fill="#1B1B23"/>
<path d="M75.1358 48.1794C74.0678 49.3371 73.9866 50.8456 74.5902 51.3017C75.1939 51.7577 76.5173 51.1262 77.3532 49.7931C78.2123 48.425 78.4793 47.045 77.8988 46.6709C77.2951 46.2967 76.1923 47.0451 75.1358 48.1794Z" fill="#1B1B23"/>
<path d="M80.1506 59.7565C79.9648 59.8852 79.779 59.9787 79.5701 60.0138C79.3728 60.0605 79.1522 60.0723 78.9432 60.0372C78.5253 60.0021 78.1306 59.815 77.8055 59.546C77.643 59.4057 77.5037 59.2419 77.3876 59.0666C77.2715 58.8912 77.1902 58.6807 77.1322 58.4819C77.0277 58.0727 77.051 57.6282 77.2367 57.2423C77.2948 57.1137 77.4573 57.0786 77.5733 57.1487C77.6662 57.1955 77.7126 57.3008 77.7011 57.3943V57.406C77.6662 57.6983 77.7011 57.9907 77.8055 58.2597C77.8636 58.4 77.9333 58.5169 78.0261 58.6338C78.1073 58.7391 78.2002 58.8443 78.3047 58.9379C78.5253 59.1133 78.7923 59.242 79.0825 59.3121C79.3612 59.3939 79.663 59.3823 79.9416 59.3238L79.9532 59.3121C80.0925 59.2653 80.2202 59.3472 80.2551 59.4875C80.2667 59.5811 80.2435 59.6863 80.1506 59.7565Z" fill="#1B1B23"/>
<path d="M76.1224 52.9272C76.668 52.5296 77.9915 51.6174 79.0131 50.3311C79.1524 50.1557 79.4078 50.1206 79.5935 50.2726H79.6051C80.0579 50.6468 80.6964 51.3952 79.8837 52.1787C78.8854 53.126 76.8073 53.617 76.1572 53.2896C76.0527 53.2429 76.0063 53.1142 76.0643 53.009C76.0643 53.009 76.0643 53.009 76.0643 52.9973C76.076 52.9974 76.0992 52.9623 76.1224 52.9272Z" fill="#1B1B23"/>
<path d="M64.9708 54.0225C64.9708 54.0225 61.5979 51.142 59.0316 52.5453C56.4541 53.9548 57.0489 58.2129 62.1222 60.2476C63.1554 60.6335 64.2466 60.8557 65.3495 60.8908" fill="white"/>
<path d="M65.3487 61.1124C65.3463 61.1124 65.344 61.1124 65.3416 61.1122C64.2261 61.0769 63.1168 60.8558 62.0448 60.4553C60.5901 59.8721 59.3878 59.0575 58.563 58.0979C57.8091 57.2211 57.3808 56.2509 57.3245 55.2925C57.2507 54.0389 57.8493 52.9392 58.9258 52.3505C60.0387 51.7419 61.4668 51.8132 63.0554 52.5567C64.2328 53.1077 65.0769 53.8232 65.1122 53.8535C65.2048 53.9326 65.2162 54.0724 65.1377 54.1657C65.0592 54.259 64.9204 54.2708 64.8277 54.1916C64.8194 54.1846 63.9869 53.4797 62.8612 52.9546C61.8475 52.4818 60.3783 52.0606 59.1357 52.7402C58.1994 53.2522 57.6993 54.1729 57.7636 55.2663C57.8508 56.7493 59.0628 58.7825 62.2027 60.0419C63.2252 60.4237 64.2877 60.6355 65.3556 60.6694C65.477 60.6733 65.5723 60.7756 65.5685 60.8979C65.5647 61.0178 65.4669 61.1124 65.3487 61.1124Z" fill="#1B1B23"/>
<path d="M40.2309 58.6425C40.0549 58.6974 39.8789 58.7487 39.703 58.7963L39.6348 58.7845C39.8335 58.7399 40.0322 58.693 40.2309 58.6425Z" fill="#1B1B23"/>
<path d="M39.7032 59.0192C39.6907 59.0192 39.6782 59.0181 39.6659 59.0159L39.5977 59.0041C39.4942 58.9862 39.4178 58.8972 39.4151 58.7914C39.4125 58.6857 39.4843 58.5929 39.5867 58.5696C39.8031 58.5205 39.9962 58.4741 40.1768 58.4277C40.2923 58.3982 40.4103 58.4665 40.4427 58.582C40.4752 58.6975 40.4105 58.8181 40.2967 58.854C40.1191 58.9099 39.9388 58.9629 39.7608 59.0115C39.7419 59.0165 39.7226 59.0192 39.7032 59.0192Z" fill="#1B1B23"/>
<path d="M64.954 54.0381C64.954 54.0381 63.9434 53.1362 62.9902 52.7669C64.2092 49.937 68.4821 41.4969 66.9497 36.0007C67.8296 34.8928 71.4224 34.7451 72.5956 37.0348C73.6056 39.0929 69.1448 49.8984 64.954 54.0381Z" fill="white"/>
<path d="M64.9542 54.2597C64.9022 54.2597 64.8501 54.2412 64.8083 54.204C64.7985 54.1952 63.8154 53.324 62.9115 52.9737C62.8556 52.9521 62.8109 52.9083 62.7876 52.8526C62.7645 52.7969 62.7648 52.7341 62.7886 52.6787C62.9178 52.3789 63.0795 52.02 63.2666 51.6043C64.8314 48.1299 68.0874 40.9001 66.7381 36.0607C66.719 35.992 66.7339 35.9181 66.7782 35.8623C67.2677 35.2458 68.4713 34.9018 69.7049 35.0252C71.1176 35.1667 72.2425 35.8621 72.7913 36.9332C73.0617 37.484 73.007 38.5254 72.6306 40.0318C72.2858 41.4118 71.6965 43.0761 70.9268 44.8448C69.2041 48.8032 67.029 52.299 65.1082 54.1963C65.0656 54.2384 65.01 54.2597 64.9542 54.2597ZM63.2817 52.6499C63.9739 52.9659 64.645 53.4904 64.9421 53.7373C66.7898 51.8474 68.8652 48.4783 70.5239 44.6669C72.0903 41.0676 72.8437 38.0399 72.3986 37.1329C71.9212 36.2014 70.9229 35.5926 69.6613 35.4662C68.6447 35.3642 67.6355 35.6112 67.1935 36.0584C68.503 41.0503 65.2412 48.2927 63.6674 51.7875C63.5221 52.1099 63.3923 52.3981 63.2817 52.6499Z" fill="#1B1B23"/>
<path d="M72.6396 65.3697C71.8502 65.4984 71.1536 66.3871 70.1088 69.1936C67.787 67.2992 65.9876 63.2998 66.6493 62.8203C67.2645 62.3643 68.2862 63.1828 68.9247 63.5922C70.2017 64.3991 71.2233 64.9253 72.6396 65.3697Z" fill="#1B1B23"/>
<path d="M70.109 69.4153C70.0591 69.4153 70.0102 69.3982 69.9706 69.3659C67.8909 67.669 66.2566 64.4102 66.2916 63.1823C66.2988 62.9279 66.376 62.7456 66.5211 62.6405C67.1777 62.1537 68.1021 62.7752 68.7769 63.229C68.8709 63.2922 68.9602 63.3523 69.0429 63.4053C70.2144 64.1454 71.2363 64.6973 72.7051 65.1581C72.8026 65.1887 72.8664 65.2828 72.8591 65.3853C72.8519 65.4879 72.7756 65.572 72.6749 65.5884C72.1281 65.6774 71.4638 66.1853 70.3149 69.2715C70.29 69.3381 70.2349 69.3888 70.1667 69.4074C70.1477 69.4127 70.1283 69.4153 70.109 69.4153ZM67.081 62.9076C66.968 62.9076 66.8659 62.935 66.7798 62.9988C66.7662 63.0087 66.7351 63.0602 66.7312 63.1949C66.716 63.7301 67.11 64.79 67.7349 65.8952C68.3896 67.0529 69.2086 68.1023 70.0138 68.8217C70.7574 66.8736 71.3523 65.8326 72.0076 65.3917C70.7854 64.9561 69.8547 64.4413 68.8079 63.7799C68.7215 63.7245 68.6295 63.6627 68.5326 63.5976C68.085 63.2966 67.5065 62.9076 67.081 62.9076Z" fill="#1B1B23"/>
<path d="M64.7949 58.0377C64.7229 58.0377 64.6523 58.0021 64.6102 57.9368C62.775 55.0908 60.267 55.4919 60.2419 55.4965C60.1222 55.5173 60.0084 55.4366 59.9876 55.3161C59.9669 55.1955 60.0471 55.0808 60.1668 55.0599C60.2811 55.04 62.9875 54.6069 64.9791 57.6955C65.0453 57.7981 65.0164 57.9353 64.9145 58.0019C64.8775 58.0261 64.836 58.0377 64.7949 58.0377Z" fill="#1B1B23"/>
<path d="M61.1925 75.4967C63.317 81.8115 66.3246 84.5395 68.1008 84.0835C68.1008 84.0835 65.0963 113.176 70.0155 134.949C63.5144 137.639 61.0898 141.227 41.8255 139.886C33.5384 139.729 24.3913 137.839 19.3096 134.689C19.3096 134.689 27.3869 123.723 34.7819 99.4929C34.7819 99.4929 61.0997 75.2277 61.1925 75.4967Z" fill="#BFB6FF"/>
<path d="M21.4203 96.429C21.4203 96.429 18.2394 96.2419 17.2295 96.6512C15.2559 97.7036 15.0238 102.264 25.4371 110.38C26.7374 111.362 34.0278 116.25 34.7592 116.227C38.7992 116.157 26.4819 98.5574 26.4819 98.5574L21.4203 96.429Z" fill="#BFB6FF"/>
<path d="M17.7388 97.3442C14.2213 99.7298 23.7626 111.116 37.8238 115.069C37.8238 115.058 25.2034 97.0635 18.8069 97.0752C18.4353 97.0869 18.0522 97.1338 17.7388 97.3442Z" fill="#1B1B23"/>
<path d="M37.8237 115.291C37.8039 115.291 37.784 115.288 37.7646 115.283C32.5254 113.81 27.3531 111.123 23.2006 107.716C19.6258 104.784 17.185 101.59 16.8307 99.3822C16.6709 98.3856 16.9424 97.6173 17.616 97.1606C17.6163 97.1603 17.6165 97.1601 17.6168 97.16C17.9868 96.9116 18.4224 96.8659 18.7999 96.8539C18.802 96.8538 18.8045 96.8538 18.8067 96.8538C20.9756 96.8538 24.0186 98.8112 27.8586 102.672C30.5724 105.401 33.185 108.589 34.8988 110.783C35.8741 112.031 36.6642 113.092 37.1554 113.762C38.0437 114.974 38.0437 114.982 38.0437 115.069C38.0437 115.139 38.0116 115.204 37.9568 115.246C37.918 115.275 37.8712 115.291 37.8237 115.291ZM17.8612 97.5283C17.3332 97.8866 17.1326 98.4865 17.265 99.3114C17.6027 101.417 19.9835 104.506 23.4783 107.373C27.4245 110.61 32.3022 113.19 37.2756 114.68C36.3308 113.368 33.652 109.731 30.4755 106.127C25.3844 100.35 21.3516 97.2969 18.8129 97.2969C18.8108 97.2969 18.8092 97.2969 18.8071 97.2969C18.4986 97.3067 18.1389 97.342 17.8612 97.5283Z" fill="#1B1B23"/>
<path d="M95.7702 116.418C90.4968 114.709 78.6985 114.817 50.8923 117.542C50.6786 117.631 51.0912 117.447 50.8923 117.542C57.0796 105.487 62.3307 88.5889 61.2626 80.9929C59.0258 65.085 33.6795 79.8703 24.2645 109.456C22.9034 113.664 22.4468 117.543 22.6638 120.955C23.1033 131.597 31.2639 143.562 59.4946 140.201C68.0944 139.178 90.9124 130.365 93.1796 128.317C93.6929 131.05 95.8192 131.788 96.8458 128.908C97.5057 133.413 100.194 131.201 100.585 128.76C106.524 141.833 107.184 120.119 95.7702 116.418Z" fill="white"/>
<path d="M50.3921 140.998C46.7422 140.998 43.4129 140.684 40.4338 140.056C35.724 139.063 31.8456 137.28 28.9063 134.757C23.8569 130.422 22.605 124.864 22.444 120.965C22.2114 117.309 22.7535 113.412 24.0553 109.388C27.2415 99.3751 32.5884 90.1306 39.1107 83.3576C44.9345 77.31 51.0678 73.9274 55.5185 74.3077C57.1248 74.4451 58.4507 75.0659 59.4594 76.1526C60.511 77.2856 61.191 78.9037 61.4804 80.9618C61.985 84.55 61.1073 90.4795 59.0092 97.6581C57.0849 104.242 54.2735 111.37 51.2722 117.282C64.9621 115.945 74.6624 115.25 81.7762 115.096C88.5741 114.948 93.0421 115.301 95.8376 116.207C102.736 118.444 105.232 127.018 104.983 130.899C104.899 132.21 104.511 132.995 103.891 133.11C102.801 133.312 101.571 131.335 100.652 129.422C100.27 130.617 99.3835 131.741 98.4268 131.732C97.8645 131.728 97.151 131.345 96.7613 129.657C96.2951 130.55 95.6629 131.02 94.9691 130.964C94.1075 130.895 93.3714 130.022 93.0394 128.704C91.388 129.853 85.6038 132.354 78.7869 134.851C70.4895 137.891 63.2871 139.973 59.5204 140.421C56.2929 140.806 53.2443 140.998 50.3921 140.998ZM54.817 74.7214C50.5581 74.7214 44.8714 78.012 39.4264 83.6661C32.9503 90.3911 27.6401 99.5742 24.4738 109.524C23.1891 113.496 22.654 117.337 22.8832 120.941C23.0409 124.757 24.263 130.188 29.1916 134.419C32.0742 136.894 35.8869 138.644 40.5239 139.622C45.7844 140.731 52.1584 140.852 59.4687 139.981C63.2037 139.537 70.3693 137.463 78.6366 134.435C85.7717 131.821 91.9607 129.12 93.0328 128.152C93.0919 128.099 93.1749 128.081 93.2502 128.107C93.3253 128.133 93.381 128.197 93.3958 128.276C93.6374 129.562 94.2836 130.465 95.0038 130.522C95.642 130.574 96.2382 129.957 96.6388 128.833C96.6729 128.737 96.7671 128.677 96.8676 128.687C96.9679 128.697 97.0487 128.775 97.0634 128.876C97.2874 130.405 97.7854 131.285 98.4298 131.289C98.4314 131.289 98.4332 131.289 98.4348 131.289C99.2182 131.289 100.157 130.045 100.368 128.725C100.384 128.629 100.46 128.554 100.556 128.541C100.652 128.528 100.745 128.579 100.785 128.668C102.561 132.577 103.55 132.723 103.811 132.674C104.196 132.603 104.477 131.912 104.544 130.87C104.651 129.204 104.226 126.17 102.679 123.103C101.52 120.806 99.3684 117.818 95.7029 116.629C92.9554 115.739 88.5333 115.392 81.7859 115.539C74.6193 115.694 64.8173 116.4 50.9429 117.76C50.7491 117.828 50.6642 117.742 50.6269 117.654C50.5982 117.587 50.5785 117.467 50.7322 117.371C53.7772 111.426 56.6385 104.2 58.5873 97.5328C60.668 90.4137 61.5408 84.5507 61.0449 81.0239C60.505 77.1843 58.5812 75.0145 55.4814 74.7492C55.2643 74.7307 55.0423 74.7214 54.817 74.7214Z" fill="#1B1B23"/>
<path d="M44.1282 120.887C44.0687 120.887 44.0093 120.863 43.9659 120.815C43.884 120.725 43.89 120.585 43.9795 120.503C44.0821 120.408 46.5419 118.173 50.8502 117.324C50.9695 117.301 51.085 117.379 51.1083 117.499C51.1316 117.62 51.0538 117.736 50.9346 117.759C46.7546 118.582 44.301 120.807 44.2767 120.829C44.2345 120.868 44.1812 120.887 44.1282 120.887Z" fill="#1B1B23"/>
<path d="M60.9259 74.6782C62.9459 79.3792 61.8174 96.3443 51.0931 117.619C51.0931 117.619 40.819 118.718 32.4024 108.404C24.3921 98.5807 21.0603 96.1952 17.2061 96.6746C18.2741 96.0665 28.107 92.2543 42.0728 79.8119C45.0911 77.1223 49.6767 73.0761 53.3336 71.743C56.2358 70.7021 59.3703 71.053 60.9259 74.6782Z" fill="#BFB6FF"/>
<path d="M51.1857 117.69C51.1545 117.69 51.1227 117.683 51.0925 117.669C50.9825 117.617 50.9351 117.485 50.9866 117.374C54.157 110.559 56.665 104.105 58.4411 98.191C59.8618 93.4608 60.8199 89.064 61.2889 85.1227C62.087 78.415 61.1769 75.316 61.1676 75.2854C61.132 75.1685 61.1971 75.0446 61.3132 75.0086C61.4293 74.9731 61.5522 75.0381 61.588 75.1549C61.6269 75.2819 62.5322 78.3422 61.7318 85.1241C61.2634 89.0927 60.302 93.5187 58.8744 98.2789C57.0915 104.224 54.5716 110.712 51.3851 117.562C51.3477 117.643 51.2684 117.69 51.1857 117.69Z" fill="white"/>
<path d="M93.1994 128.695C93.0926 128.695 92.999 128.616 92.9823 128.507C92.8334 127.532 92.9041 126.645 92.9071 126.608C92.9173 126.486 93.0236 126.396 93.1445 126.406C93.2656 126.416 93.3556 126.523 93.3456 126.645C93.3449 126.654 93.2765 127.518 93.4171 128.439C93.4356 128.56 93.3532 128.674 93.2331 128.692C93.2218 128.694 93.2105 128.695 93.1994 128.695Z" fill="#1B1B23"/>
<path d="M96.8662 129.138C96.8535 129.138 96.8405 129.137 96.8275 129.134C96.7079 129.113 96.6281 128.998 96.6494 128.878C97.1878 125.827 96.8287 123.567 95.582 122.16C94.3139 120.728 92.4198 120.53 91.054 120.616C90.9329 120.625 90.8283 120.531 90.8207 120.409C90.8132 120.287 90.9053 120.182 91.0266 120.174C93.1245 120.042 94.8134 120.627 95.9102 121.865C97.2513 123.378 97.6457 125.764 97.0825 128.955C97.0636 129.062 96.9709 129.138 96.8662 129.138Z" fill="#1B1B23"/>
<path d="M100.533 129.286C100.522 129.286 100.511 129.285 100.5 129.283C100.38 129.265 100.297 129.152 100.315 129.031C100.73 126.219 101.037 123.508 100.247 121.246C99.3429 118.657 97.0692 116.961 93.2962 116.059C93.178 116.03 93.1049 115.911 93.133 115.792C93.161 115.673 93.2793 115.599 93.3978 115.628C97.3281 116.567 99.7042 118.357 100.662 121.098C101.486 123.456 101.174 126.227 100.75 129.097C100.734 129.207 100.64 129.286 100.533 129.286Z" fill="#1B1B23"/>
</g>
<defs>
<clipPath id="clip0_1116_57378">
<rect width="23" height="6" fill="white" transform="translate(148 133)"/>
</clipPath>
<clipPath id="clip1_1116_57378">
<rect width="42" height="85" fill="white" transform="translate(109 38)"/>
</clipPath>
<clipPath id="clip2_1116_57378">
<rect width="89" height="44" fill="white" transform="translate(86 93)"/>
</clipPath>
<clipPath id="clip3_1116_57378">
<rect width="96" height="106" fill="white" transform="translate(9 35)"/>
</clipPath>
</defs>
</svg>
