<svg width="24" height="24" viewBox="0 0 24 24" fill="none" xmlns="http://www.w3.org/2000/svg">
<path fill-rule="evenodd" clip-rule="evenodd" d="M9.12429 13.266C6.1261 13.8432 4 15.2969 4 17V20H20V17C20 15.2969 17.8739 13.8432 14.8757 13.266C13.9834 13.0942 13.0138 13 12 13C10.9862 13 10.0166 13.0942 9.12429 13.266ZM9.55722 11.1675C10.2533 11.7043 11.1114 12 12 12C12.8886 12 13.7467 11.7043 14.4428 11.1675C14.5777 11.0634 14.7066 10.9502 14.8284 10.8284C15.5786 10.0783 16 9.06087 16 8C16 6.93913 15.5786 5.92172 14.8284 5.17157C14.0783 4.42143 13.0609 4 12 4C10.9391 4 9.92172 4.42143 9.17157 5.17157C8.42143 5.92172 8 6.93913 8 8C8 9.06087 8.42143 10.0783 9.17157 10.8284C9.29339 10.9502 9.42226 11.0634 9.55722 11.1675ZM18 18V17C18 17 18.001 16.9865 17.9864 16.9507C17.9702 16.9112 17.9316 16.8372 17.8444 16.734C17.6621 16.5185 17.32 16.2386 16.7631 15.9601C15.648 15.4026 13.9671 15 12 15C10.0329 15 8.352 15.4026 7.23693 15.9601C6.67997 16.2386 6.33788 16.5185 6.15564 16.734C6.06845 16.8372 6.0298 16.9112 6.01361 16.9507C5.99935 16.9856 6 17 6 17L6 18H18ZM13.4142 6.58579C13.0391 6.21071 12.5304 6 12 6C11.4696 6 10.9609 6.21071 10.5858 6.58579C10.2107 6.96086 10 7.46957 10 8C10 8.53043 10.2107 9.03914 10.5858 9.41421C10.9609 9.78929 11.4696 10 12 10C12.5304 10 13.0391 9.78929 13.4142 9.41421C13.7893 9.03914 14 8.53043 14 8C14 7.46957 13.7893 6.96086 13.4142 6.58579Z" fill="#1B1B23"/>
</svg>
