<svg width="94" height="20" viewBox="0 0 94 20" fill="none" xmlns="http://www.w3.org/2000/svg">
<path d="M0.618164 18.9997V0.817871H7.57839C8.89231 0.817871 9.98429 1.02502 10.8543 1.43932C11.7303 1.8477 12.3843 2.40701 12.8163 3.11723C13.2543 3.82746 13.4733 4.63238 13.4733 5.53201C13.4733 6.27183 13.3312 6.90511 13.0471 7.43186C12.7631 7.9527 12.3813 8.37587 11.9019 8.70139C11.4225 9.02691 10.8869 9.2607 10.295 9.40274V9.5803C10.9401 9.61581 11.5586 9.81408 12.1505 10.1751C12.7483 10.5302 13.2365 11.0333 13.6153 11.6843C13.9941 12.3354 14.1835 13.1226 14.1835 14.0459C14.1835 14.9869 13.9556 15.8333 13.4999 16.5849C13.0442 17.3307 12.3576 17.9196 11.4403 18.3516C10.5229 18.7837 9.36876 18.9997 7.97789 18.9997H0.618164ZM3.91184 16.2476H7.4541C8.64965 16.2476 9.5108 16.0197 10.0376 15.564C10.5702 15.1023 10.8366 14.5105 10.8366 13.7884C10.8366 13.2498 10.7034 12.7645 10.4371 12.3324C10.1707 11.8945 9.79193 11.5512 9.30069 11.3026C8.80945 11.0481 8.22351 10.9209 7.54288 10.9209H3.91184V16.2476ZM3.91184 8.55047H7.17001C7.73819 8.55047 8.25015 8.4469 8.70588 8.23975C9.16161 8.02668 9.51968 7.72779 9.7801 7.34308C10.0464 6.95246 10.1796 6.49081 10.1796 5.95814C10.1796 5.25383 9.93102 4.67381 9.43386 4.21808C8.94262 3.76235 8.21168 3.53449 7.24103 3.53449H3.91184V8.55047Z" fill="#1B1B23"/>
<path d="M22.1937 19.266C20.8265 19.266 19.6458 18.9819 18.6515 18.4138C17.6631 17.8397 16.9025 17.0288 16.3699 15.9812C15.8372 14.9277 15.5708 13.6878 15.5708 12.2614C15.5708 10.8587 15.8372 9.62765 16.3699 8.56823C16.9084 7.50289 17.6601 6.67429 18.6248 6.08243C19.5895 5.48466 20.723 5.18577 22.025 5.18577C22.8655 5.18577 23.6586 5.3219 24.4043 5.59415C25.156 5.86049 25.8188 6.27478 26.3929 6.83705C26.973 7.39931 27.4287 8.11546 27.7601 8.98549C28.0916 9.8496 28.2573 10.8794 28.2573 12.075V13.0604H17.0801V10.8942H25.1767C25.1708 10.2787 25.0376 9.73122 24.7772 9.25182C24.5168 8.7665 24.1528 8.38475 23.6852 8.10658C23.2235 7.82841 22.685 7.68932 22.0694 7.68932C21.4125 7.68932 20.8354 7.84912 20.3382 8.16872C19.8411 8.48241 19.4534 8.89671 19.1752 9.41162C18.903 9.92062 18.7639 10.4799 18.758 11.0895V12.9805C18.758 13.7736 18.903 14.4542 19.193 15.0224C19.483 15.5847 19.8884 16.0167 20.4093 16.3186C20.9301 16.6145 21.5397 16.7625 22.2381 16.7625C22.7057 16.7625 23.1288 16.6974 23.5076 16.5672C23.8864 16.431 24.2149 16.2328 24.4931 15.9723C24.7712 15.7119 24.9814 15.3894 25.1234 15.0047L28.1241 15.342C27.9347 16.1351 27.5737 16.8276 27.041 17.4194C26.5143 18.0054 25.8395 18.4611 25.0169 18.7866C24.1942 19.1062 23.2531 19.266 22.1937 19.266Z" fill="#1B1B23"/>
<path d="M32.5208 18.9997V2.99969H37.927C39.177 2.99969 40.2031 3.21323 41.0052 3.64031C41.8073 4.06219 42.401 4.64292 42.7864 5.3825C43.1718 6.12209 43.3645 6.96323 43.3645 7.90594C43.3645 8.84865 43.1718 9.68459 42.7864 10.4138C42.401 11.1429 41.8099 11.7158 41.013 12.1325C40.2161 12.544 39.1979 12.7497 37.9583 12.7497H33.5833V10.9997H37.8958C38.75 10.9997 39.4375 10.8747 39.9583 10.6247C40.4843 10.3747 40.8645 10.0205 41.0989 9.56219C41.3385 9.09865 41.4583 8.54657 41.4583 7.90594C41.4583 7.26531 41.3385 6.70542 41.0989 6.22625C40.8593 5.74709 40.4765 5.37729 39.9505 5.11688C39.4244 4.85125 38.7291 4.71844 37.8645 4.71844H34.4583V18.9997H32.5208ZM40.052 11.8122L43.9895 18.9997H41.7395L37.8645 11.8122H40.052Z" fill="#1B1B23"/>
<path d="M53.2456 14.0934V6.99969H55.0893V18.9997H53.2456V16.9684H53.1206C52.8393 17.5778 52.4018 18.096 51.8081 18.5231C51.2143 18.945 50.4643 19.1559 49.5581 19.1559C48.8081 19.1559 48.1414 18.9919 47.5581 18.6638C46.9747 18.3304 46.5164 17.8304 46.1831 17.1638C45.8497 16.4919 45.6831 15.6455 45.6831 14.6247V6.99969H47.5268V14.4997C47.5268 15.3747 47.7716 16.0726 48.2612 16.5934C48.756 17.1143 49.3862 17.3747 50.1518 17.3747C50.6101 17.3747 51.0763 17.2575 51.5503 17.0231C52.0294 16.7888 52.4305 16.4294 52.7534 15.945C53.0815 15.4606 53.2456 14.8434 53.2456 14.0934Z" fill="#1B1B23"/>
<path d="M66.3063 9.68719L64.65 10.1559C64.5458 9.8799 64.3922 9.61167 64.1891 9.35125C63.9912 9.08563 63.7203 8.86688 63.3766 8.695C63.0328 8.52313 62.5927 8.43719 62.0563 8.43719C61.3219 8.43719 60.7099 8.60646 60.2203 8.945C59.736 9.27834 59.4938 9.70282 59.4938 10.2184C59.4938 10.6768 59.6604 11.0388 59.9938 11.3044C60.3271 11.57 60.8479 11.7914 61.5563 11.9684L63.3375 12.4059C64.4104 12.6664 65.2099 13.0648 65.736 13.6013C66.262 14.1325 66.525 14.8174 66.525 15.6559C66.525 16.3434 66.3271 16.958 65.9313 17.4997C65.5406 18.0414 64.9938 18.4684 64.2906 18.7809C63.5875 19.0934 62.7698 19.2497 61.8375 19.2497C60.6136 19.2497 59.6005 18.9841 58.7985 18.4528C57.9964 17.9216 57.4886 17.1455 57.275 16.1247L59.025 15.6872C59.1917 16.333 59.5068 16.8174 59.9703 17.1403C60.4391 17.4632 61.0511 17.6247 61.8063 17.6247C62.6656 17.6247 63.3479 17.4424 63.8531 17.0778C64.3636 16.708 64.6188 16.2653 64.6188 15.7497C64.6188 15.333 64.4729 14.9841 64.1813 14.7028C63.8896 14.4164 63.4417 14.2028 62.8375 14.0622L60.8375 13.5934C59.7386 13.333 58.9313 12.9294 58.4156 12.3825C57.9052 11.8304 57.65 11.1403 57.65 10.3122C57.65 9.63511 57.8401 9.03615 58.2203 8.51532C58.6057 7.99448 59.1292 7.58563 59.7906 7.28875C60.4573 6.99188 61.2125 6.84344 62.0563 6.84344C63.2438 6.84344 64.1761 7.10386 64.8531 7.62469C65.5354 8.14552 66.0198 8.83302 66.3063 9.68719Z" fill="#1B1B23"/>
<path d="M77.1404 9.68719L75.4842 10.1559C75.38 9.8799 75.2263 9.61167 75.0232 9.35125C74.8253 9.08563 74.5545 8.86688 74.2107 8.695C73.867 8.52313 73.4269 8.43719 72.8904 8.43719C72.156 8.43719 71.5441 8.60646 71.0545 8.945C70.5701 9.27834 70.3279 9.70282 70.3279 10.2184C70.3279 10.6768 70.4946 11.0388 70.8279 11.3044C71.1612 11.57 71.6821 11.7914 72.3904 11.9684L74.1717 12.4059C75.2446 12.6664 76.0441 13.0648 76.5701 13.6013C77.0961 14.1325 77.3592 14.8174 77.3592 15.6559C77.3592 16.3434 77.1612 16.958 76.7654 17.4997C76.3748 18.0414 75.8279 18.4684 75.1248 18.7809C74.4217 19.0934 73.6039 19.2497 72.6717 19.2497C71.4477 19.2497 70.4347 18.9841 69.6326 18.4528C68.8305 17.9216 68.3227 17.1455 68.1092 16.1247L69.8592 15.6872C70.0258 16.333 70.3409 16.8174 70.8045 17.1403C71.2732 17.4632 71.8852 17.6247 72.6404 17.6247C73.4998 17.6247 74.1821 17.4424 74.6873 17.0778C75.1977 16.708 75.4529 16.2653 75.4529 15.7497C75.4529 15.333 75.3071 14.9841 75.0154 14.7028C74.7237 14.4164 74.2758 14.2028 73.6717 14.0622L71.6717 13.5934C70.5727 13.333 69.7654 12.9294 69.2498 12.3825C68.7394 11.8304 68.4842 11.1403 68.4842 10.3122C68.4842 9.63511 68.6743 9.03615 69.0545 8.51532C69.4399 7.99448 69.9633 7.58563 70.6248 7.28875C71.2914 6.99188 72.0467 6.84344 72.8904 6.84344C74.0779 6.84344 75.0102 7.10386 75.6873 7.62469C76.3696 8.14552 76.8539 8.83302 77.1404 9.68719Z" fill="#1B1B23"/>
<path d="M79.4745 18.9997V6.99969H81.3183V18.9997H79.4745ZM80.412 4.99969C80.0527 4.99969 79.7428 4.87729 79.4824 4.6325C79.2271 4.38771 79.0995 4.09344 79.0995 3.74969C79.0995 3.40594 79.2271 3.11167 79.4824 2.86688C79.7428 2.62209 80.0527 2.49969 80.412 2.49969C80.7714 2.49969 81.0787 2.62209 81.3339 2.86688C81.5943 3.11167 81.7245 3.40594 81.7245 3.74969C81.7245 4.09344 81.5943 4.38771 81.3339 4.6325C81.0787 4.87729 80.7714 4.99969 80.412 4.99969Z" fill="#1B1B23"/>
<path d="M87.5665 19.2809C86.8061 19.2809 86.116 19.1377 85.4962 18.8513C84.8764 18.5596 84.3842 18.1403 84.0196 17.5934C83.655 17.0414 83.4727 16.3747 83.4727 15.5934C83.4727 14.9059 83.6082 14.3486 83.879 13.9216C84.1498 13.4893 84.5118 13.1507 84.9649 12.9059C85.4181 12.6611 85.9181 12.4789 86.4649 12.3591C87.017 12.2341 87.5717 12.1351 88.129 12.0622C88.8582 11.9684 89.4493 11.8981 89.9024 11.8513C90.3608 11.7992 90.6941 11.7132 90.9024 11.5934C91.116 11.4736 91.2227 11.2653 91.2227 10.9684V10.9059C91.2227 10.1351 91.0118 9.53615 90.5899 9.10907C90.1733 8.68198 89.5405 8.46844 88.6915 8.46844C87.8113 8.46844 87.1212 8.66115 86.6212 9.04657C86.1212 9.43198 85.7696 9.84344 85.5665 10.2809L83.8165 9.65594C84.129 8.92677 84.5457 8.35906 85.0665 7.95282C85.5925 7.54136 86.1655 7.2549 86.7852 7.09344C87.4102 6.92677 88.0248 6.84344 88.629 6.84344C89.0144 6.84344 89.4571 6.89031 89.9571 6.98406C90.4623 7.07261 90.9493 7.2575 91.4181 7.53875C91.892 7.82 92.2852 8.24448 92.5977 8.81219C92.9102 9.3799 93.0665 10.1403 93.0665 11.0934V18.9997H91.2227V17.3747H91.129C91.004 17.6351 90.7957 17.9138 90.504 18.2106C90.2123 18.5075 89.8243 18.7601 89.3399 18.9684C88.8556 19.1768 88.2644 19.2809 87.5665 19.2809ZM87.8477 17.6247C88.5769 17.6247 89.1915 17.4815 89.6915 17.195C90.1967 16.9085 90.5769 16.5388 90.8321 16.0856C91.0925 15.6325 91.2227 15.1559 91.2227 14.6559V12.9684C91.1446 13.0622 90.9727 13.1481 90.7071 13.2263C90.4467 13.2992 90.1446 13.3643 89.8009 13.4216C89.4623 13.4736 89.1316 13.5205 88.8087 13.5622C88.491 13.5986 88.2332 13.6299 88.0352 13.6559C87.5561 13.7184 87.1082 13.82 86.6915 13.9606C86.28 14.096 85.9467 14.3018 85.6915 14.5778C85.4415 14.8486 85.3165 15.2184 85.3165 15.6872C85.3165 16.3278 85.5535 16.8122 86.0274 17.1403C86.5066 17.4632 87.1134 17.6247 87.8477 17.6247Z" fill="#1B1B23"/>
</svg>
