<svg width="572" height="344" viewBox="0 0 572 344" fill="none" xmlns="http://www.w3.org/2000/svg">
<g clip-path="url(#clip0_8_4961)">
<path d="M503.102 267.954H232.9C229.71 267.954 227.123 265.461 227.123 262.386V43.6131C227.123 40.5384 229.71 38.0458 232.9 38.0458H503.102C506.292 38.0458 508.879 40.5384 508.879 43.6131V262.386C508.879 265.461 506.292 267.954 503.102 267.954Z" fill="white"/>
<path d="M503.102 270H232.9C228.544 270 225 266.584 225 262.386V43.6131C225 39.4152 228.544 35.9998 232.9 35.9998H503.102C507.458 35.9998 511.002 39.4152 511.002 43.6129V262.386C511.002 266.584 507.458 270 503.102 270ZM232.9 40.0918C230.885 40.0918 229.246 41.6713 229.246 43.6131V262.386C229.246 264.328 230.885 265.908 232.9 265.908H503.102C505.116 265.908 506.756 264.328 506.756 262.386V43.6131C506.756 41.6716 505.117 40.0921 503.102 40.0921H232.9V40.0918Z" fill="#1B1B23"/>
<path d="M401.418 108.061C401.649 107.373 401.876 106.824 402.252 106.187C402.411 105.916 402.587 105.655 402.778 105.404C402.869 105.285 402.657 105.546 402.816 105.356C402.96 105.183 403.113 105.018 403.275 104.86C403.378 104.76 403.485 104.663 403.596 104.57C403.65 104.524 403.705 104.481 403.761 104.436C403.936 104.295 403.672 104.497 403.785 104.419C403.998 104.269 404.222 104.132 404.454 104.011C404.573 103.949 404.695 103.895 404.817 103.84C405.018 103.747 404.65 103.892 404.861 103.823C404.914 103.806 404.965 103.785 405.018 103.768C405.269 103.682 405.526 103.614 405.788 103.562C405.908 103.538 406.029 103.519 406.15 103.501C405.923 103.535 406.298 103.488 406.359 103.484C406.632 103.463 406.905 103.457 407.179 103.465C407.435 103.473 407.69 103.494 407.945 103.52C407.993 103.525 408.155 103.55 407.966 103.522C408.037 103.532 408.107 103.542 408.178 103.553C408.332 103.578 408.485 103.606 408.638 103.637C409.195 103.749 409.742 103.9 410.279 104.079C410.554 104.17 410.827 104.269 411.097 104.374C411.144 104.392 411.191 104.411 411.238 104.43C411.473 104.521 411.085 104.364 411.318 104.462C411.47 104.526 411.623 104.591 411.774 104.658C412.832 105.127 413.851 105.677 414.836 106.274C415.789 106.85 416.692 107.498 417.647 108.071C418.806 108.766 420.056 109.436 421.384 109.773C422.596 110.08 423.989 110.018 424.712 108.888C425.327 107.927 425.43 106.669 425.601 105.579C425.692 105.002 425.78 104.421 425.925 103.853C425.984 103.625 426.055 103.402 426.142 103.183C426.058 103.395 426.172 103.133 426.203 103.082C426.229 103.039 426.261 102.998 426.285 102.955C426.349 102.842 426.143 103.075 426.305 102.944C426.409 102.86 426.24 102.987 426.234 102.989C426.272 102.974 426.302 102.939 426.342 102.925C426.079 103.018 426.24 102.965 426.297 102.952C426.424 102.924 426.045 102.973 426.172 102.971C426.278 102.97 426.001 102.948 426.019 102.951C426.092 102.967 426.172 103.026 425.909 102.902C426.099 102.991 425.752 102.752 425.913 102.908C426.044 103.035 425.809 102.728 425.904 102.898C425.941 102.964 425.985 103.027 426.021 103.094C426.054 103.157 426.082 103.222 426.114 103.286C425.988 103.031 426.144 103.375 426.17 103.446C426.489 104.323 426.677 105.242 426.91 106.142C427.133 107.002 427.357 107.939 427.841 108.705C428.079 109.081 428.405 109.427 428.851 109.568C429.367 109.732 429.899 109.551 430.394 109.397C432.924 108.608 434.999 106.924 436.5 104.837C437.877 102.922 438.762 100.662 439.047 98.3505C439.168 97.3738 439.154 96.3825 438.952 95.4162C438.754 94.4737 438.309 93.7068 437.69 92.9643C436.705 91.7814 435.104 90.2515 433.354 90.7456C431.885 91.1602 431.212 92.7365 430.91 94.0478C430.485 95.8933 430.54 97.8191 430.831 99.6782C431.12 101.529 431.712 103.432 432.801 104.999C433.328 105.758 433.965 106.429 434.755 106.941C435.967 107.726 437.437 108.067 438.881 108.132C441.622 108.257 444.357 107.445 446.887 106.511C447.648 106.231 448.401 105.884 449.184 105.665C449.298 105.633 449.413 105.609 449.53 105.591C449.291 105.628 449.602 105.595 449.666 105.596C449.725 105.597 449.782 105.604 449.84 105.606C449.608 105.6 449.773 105.593 449.837 105.61C449.946 105.637 450.05 105.67 450.157 105.701C449.921 105.632 450.236 105.742 450.305 105.781C450.387 105.827 450.462 105.881 450.542 105.93C450.706 106.03 450.411 105.808 450.553 105.938C450.595 105.978 450.642 106.012 450.685 106.05C450.773 106.128 450.858 106.21 450.94 106.294C451.024 106.38 451.105 106.469 451.183 106.56C451.216 106.599 451.248 106.638 451.281 106.677C451.362 106.775 451.162 106.517 451.282 106.679C451.429 106.879 451.577 107.077 451.717 107.282C451.976 107.66 452.22 108.049 452.48 108.426C452.971 109.137 453.598 109.984 454.568 110.044C455.211 110.083 455.758 109.696 456.31 109.433C457.026 109.091 457.681 108.804 458.423 108.554C458.959 108.371 459.51 108.234 460.07 108.142C459.82 108.183 460.19 108.132 460.255 108.128C460.447 108.115 460.64 108.113 460.832 108.123C460.912 108.128 461.227 108.185 460.935 108.127C461.092 108.158 461.249 108.182 461.403 108.225C461.482 108.247 461.56 108.272 461.637 108.3C461.675 108.313 461.712 108.329 461.75 108.341C461.886 108.385 461.559 108.251 461.693 108.318C461.959 108.451 462.224 108.578 462.482 108.724C463.087 109.066 463.705 109.394 464.388 109.564C465.4 109.816 466.44 109.751 467.459 109.58C467.911 109.504 468.165 108.97 468.052 108.573C467.92 108.113 467.461 107.925 467.007 108.001C466.93 108.015 466.851 108.026 466.774 108.039C466.524 108.08 466.945 108.024 466.702 108.049C466.585 108.061 466.468 108.073 466.351 108.082C466.1 108.1 465.848 108.106 465.597 108.095C465.503 108.091 465.409 108.082 465.315 108.075C465.259 108.071 465.071 108.038 465.328 108.08C465.277 108.072 465.226 108.065 465.176 108.056C464.913 108.011 464.655 107.943 464.405 107.854C464.326 107.826 464.126 107.713 464.368 107.843C464.224 107.766 464.068 107.708 463.922 107.633C463.662 107.499 463.411 107.349 463.155 107.208C462.507 106.85 461.838 106.595 461.093 106.51C460.099 106.398 459.074 106.619 458.135 106.921C457.404 107.157 456.691 107.452 455.993 107.768C455.578 107.957 455.167 108.155 454.76 108.36C454.401 108.54 454.868 108.363 454.659 108.412C454.591 108.428 454.447 108.451 454.742 108.41C454.695 108.416 454.648 108.417 454.602 108.411C454.783 108.436 454.752 108.457 454.624 108.396C454.904 108.53 454.695 108.419 454.629 108.385C454.594 108.368 454.565 108.34 454.531 108.321C454.737 108.435 454.63 108.403 454.574 108.348C454.511 108.286 454.444 108.229 454.383 108.165C454.317 108.095 454.256 108.021 454.194 107.948C454.334 108.111 454.19 107.94 454.137 107.868C454.005 107.687 453.877 107.502 453.754 107.315C452.68 105.7 451.399 103.642 449.078 104.013C448.326 104.133 447.601 104.495 446.896 104.762C445.768 105.188 444.626 105.584 443.457 105.896C442.09 106.261 440.886 106.49 439.518 106.506C438.22 106.522 437.003 106.326 435.915 105.712C435.797 105.645 435.682 105.575 435.569 105.5C435.527 105.472 435.485 105.441 435.442 105.413C435.287 105.314 435.589 105.535 435.448 105.418C435.292 105.29 435.137 105.164 434.992 105.025C434.857 104.895 434.728 104.759 434.606 104.617C434.571 104.576 434.537 104.534 434.501 104.493C434.375 104.348 434.609 104.643 434.497 104.487C434.432 104.397 434.363 104.31 434.299 104.22C434.052 103.867 433.831 103.497 433.639 103.114C433.59 103.018 433.542 102.92 433.496 102.823C433.474 102.774 433.347 102.484 433.435 102.692C433.34 102.469 433.251 102.243 433.168 102.016C432.85 101.136 432.626 100.226 432.479 99.3058C432.469 99.2442 432.461 99.182 432.45 99.1203C432.417 98.9168 432.467 99.2515 432.45 99.1214C432.402 98.7632 432.365 98.4035 432.34 98.043C432.309 97.6021 432.297 97.1602 432.304 96.7183C432.31 96.2807 432.337 95.8434 432.386 95.4086C432.393 95.3466 432.436 95.0417 432.397 95.3022C432.412 95.2056 432.426 95.1093 432.442 95.013C432.476 94.8193 432.514 94.6264 432.559 94.4352C432.643 94.0836 432.755 93.7445 432.883 93.4062C432.96 93.2016 432.802 93.5601 432.901 93.3653C432.935 93.2974 432.967 93.2286 433.003 93.1615C433.074 93.0292 433.151 92.9004 433.238 92.7774C433.26 92.7471 433.284 92.7182 433.304 92.6871C433.384 92.5641 433.159 92.8415 433.263 92.7392C433.305 92.698 433.341 92.6505 433.382 92.6083C433.426 92.5632 433.473 92.5223 433.519 92.4792C433.702 92.3071 433.397 92.5349 433.545 92.4568C433.591 92.4323 433.639 92.4015 433.684 92.3739C433.71 92.3578 433.745 92.3491 433.77 92.3311C433.874 92.2539 433.555 92.3903 433.684 92.3646C433.735 92.3545 433.785 92.33 433.835 92.3169C433.866 92.309 433.899 92.3049 433.929 92.2956C434.087 92.2468 433.83 92.372 433.831 92.3052C433.831 92.3071 434.182 92.2719 434.199 92.3046C434.207 92.3188 433.94 92.2528 434.114 92.2953C434.143 92.3024 434.173 92.3068 434.203 92.3136C434.284 92.3316 434.363 92.357 434.442 92.3813C434.669 92.4506 434.397 92.348 434.468 92.3884C434.543 92.4315 434.627 92.4634 434.703 92.5049C434.861 92.5905 435.007 92.6915 435.155 92.7905C435.309 92.8936 435.01 92.6669 435.154 92.7902C435.196 92.8262 435.241 92.8592 435.284 92.8947C435.359 92.9566 435.432 93.0205 435.504 93.0854C435.696 93.2591 435.88 93.441 436.055 93.6304C436.239 93.8289 436.416 94.033 436.586 94.2426C436.508 94.1463 436.676 94.3572 436.708 94.4003C436.762 94.4756 436.814 94.5531 436.862 94.6324C436.912 94.714 436.958 94.7978 437.001 94.8829C437.019 94.917 437.032 94.9615 437.055 94.9925C437.119 95.0804 436.98 94.7975 437.039 94.9552C437.111 95.1489 437.183 95.3393 437.237 95.5387C437.289 95.7321 437.327 95.9277 437.362 96.1247C437.405 96.3617 437.355 96.0006 437.378 96.245C437.389 96.3615 437.401 96.4777 437.409 96.5944C437.438 97.0714 437.429 97.5497 437.382 98.0253C437.372 98.1344 437.358 98.243 437.346 98.3518C437.324 98.575 437.377 98.1756 437.341 98.3988C437.33 98.4653 437.32 98.5322 437.309 98.5987C437.265 98.8593 437.213 99.1184 437.152 99.3759C437 100.02 436.799 100.653 436.552 101.269C436.525 101.338 436.497 101.408 436.468 101.476C436.462 101.492 436.363 101.719 436.435 101.556C436.085 102.347 435.66 103.106 435.166 103.822C434.788 104.367 434.582 104.625 434.122 105.116C433.673 105.596 433.182 106.037 432.654 106.436C432.769 106.351 432.63 106.453 432.602 106.473C432.481 106.557 432.361 106.64 432.239 106.721C431.969 106.896 431.692 107.06 431.406 107.21C431.166 107.336 430.921 107.452 430.671 107.559C430.423 107.665 430.821 107.504 430.568 107.601C430.192 107.747 429.806 107.87 429.412 107.969C429.347 107.985 429.267 107.993 429.205 108.019C429.079 108.072 429.442 108.001 429.307 108.005C429.118 108.01 429.533 108.062 429.356 108.011C429.226 107.973 429.571 108.107 429.447 108.048C429.273 107.965 429.482 108.089 429.486 108.088C429.46 108.093 429.377 107.98 429.361 107.968C429.249 107.882 429.467 108.142 429.397 108.016C429.381 107.987 429.358 107.96 429.339 107.933C429.241 107.786 429.167 107.629 429.09 107.471C429.207 107.711 429.059 107.391 429.036 107.33C429.003 107.243 428.971 107.155 428.941 107.067C428.863 106.841 428.794 106.612 428.728 106.382C428.468 105.472 428.272 104.545 428.007 103.635C427.794 102.911 427.537 101.961 426.831 101.53C426.411 101.274 425.914 101.292 425.482 101.513C424.982 101.77 424.701 102.261 424.502 102.75C424.081 103.781 424.005 104.935 423.821 106.02C423.73 106.553 423.631 107.09 423.456 107.604C423.435 107.665 423.408 107.725 423.39 107.786C423.33 107.982 423.472 107.639 423.379 107.815C423.335 107.899 423.291 107.981 423.243 108.064C423.214 108.115 423.097 108.224 423.239 108.083C423.2 108.122 423.153 108.162 423.117 108.204C423.077 108.249 423 108.255 423.154 108.177C423.087 108.21 423.024 108.25 422.956 108.283C423.173 108.179 422.887 108.281 422.824 108.302C422.643 108.36 423.001 108.31 422.804 108.305C422.74 108.303 422.674 108.311 422.61 108.311C422.496 108.311 422.382 108.302 422.268 108.291C422.481 108.311 422.24 108.285 422.207 108.279C422.12 108.263 422.033 108.245 421.947 108.225C421.67 108.159 421.397 108.077 421.131 107.979C420.811 107.864 420.648 107.793 420.285 107.622C418.197 106.638 416.395 105.198 414.371 104.106C410.606 102.072 405.095 100.295 401.762 104.027C400.828 105.073 400.215 106.322 399.778 107.628C399.637 108.049 399.942 108.521 400.371 108.635C400.833 108.754 401.277 108.483 401.418 108.061ZM408.304 159.705C407.314 159.705 406.37 159.535 405.477 159.188C404.308 158.734 403.653 157.775 403.632 156.489C403.629 156.31 403.639 156.125 403.66 155.935C398.586 158.271 392.538 159.919 390.811 159.27C389.271 158.692 389.027 156.458 390.026 152.036C389.487 152.72 388.909 153.375 388.294 153.997C383.752 158.576 378.297 159.932 372.517 157.919C366.939 155.975 362.85 150.456 361.297 142.777C360.18 137.255 360.843 130.608 366.053 128.517C367.941 127.759 370.116 127.846 372.179 128.76C374.826 129.934 377.03 132.326 377.932 135.005C379.477 139.591 376.449 146.06 372.886 148.139C372.694 148.246 372.465 148.276 372.25 148.223C372.035 148.17 371.85 148.037 371.735 147.854C371.62 147.671 371.584 147.452 371.635 147.243C371.685 147.035 371.819 146.854 372.006 146.739C374.987 144.999 377.614 139.364 376.317 135.511C375.556 133.253 373.699 131.236 371.469 130.248C370.318 129.737 368.558 129.285 366.706 130.029C362.438 131.741 361.975 137.575 362.964 142.464C363.643 145.823 365.99 153.904 373.094 156.38C378.252 158.178 382.942 157.006 387.035 152.898C390.176 149.745 391.774 145.97 391.789 145.932C391.872 145.734 392.031 145.575 392.233 145.488C392.436 145.401 392.665 145.394 392.873 145.469C393.08 145.543 393.25 145.692 393.345 145.884C393.44 146.077 393.453 146.298 393.382 146.5C393.372 146.528 392.389 149.332 391.727 152.205C390.598 157.102 391.419 157.742 391.428 157.746C392.516 158.152 399.17 156.386 404.273 153.821C405.44 151.139 407.938 148.327 409.531 147.651C410.506 147.238 411.093 147.578 411.356 147.818C411.478 147.929 411.562 148.072 411.6 148.228C411.93 149.6 411.19 151.051 409.402 152.542C408.415 153.365 407.101 154.191 405.623 154.97C405.517 155.267 405.436 155.572 405.381 155.881C405.139 157.292 405.821 157.557 406.113 157.67C410.326 159.307 416.227 155.972 422.301 148.519C422.406 148.391 422.547 148.296 422.709 148.246C422.87 148.196 423.043 148.193 423.205 148.238C423.368 148.284 423.513 148.375 423.621 148.5C423.729 148.625 423.797 148.779 423.814 148.941C424.034 151.011 424.835 153.676 427.398 154.622C431.001 155.953 436.781 153.469 443.257 147.807C443.841 147.296 444.422 147.114 444.984 147.267C446.046 147.556 446.429 148.823 446.959 150.578C447.449 152.197 448.057 154.212 449.264 155.43C451.42 157.606 455.782 157.634 458.388 157.65C459.039 157.655 459.554 157.658 459.943 157.693C460.055 157.703 460.162 157.734 460.261 157.785C460.36 157.835 460.447 157.903 460.518 157.986C460.589 158.069 460.643 158.164 460.676 158.267C460.708 158.37 460.72 158.478 460.709 158.585C460.699 158.692 460.667 158.796 460.615 158.891C460.563 158.986 460.492 159.071 460.406 159.139C460.32 159.208 460.221 159.259 460.114 159.291C460.008 159.322 459.895 159.333 459.784 159.323C459.468 159.294 458.962 159.291 458.377 159.287C455.501 159.269 450.688 159.238 448.035 156.56C446.542 155.054 445.869 152.826 445.328 151.035C445.097 150.271 444.79 149.254 444.541 148.906C444.504 148.932 444.456 148.968 444.398 149.019C437.328 155.2 431.075 157.734 426.79 156.151C424.636 155.356 423.134 153.532 422.453 150.934C417.454 156.649 412.489 159.705 408.304 159.705ZM409.902 149.303C409.213 149.743 408.122 150.834 407.177 152.138C407.562 151.877 407.933 151.599 408.29 151.303C408.947 150.756 409.673 150.021 409.902 149.303ZM376.747 191.963C375.28 191.963 373.834 191.815 372.418 191.483C372.289 191.453 372.169 191.394 372.068 191.311C371.967 191.229 371.888 191.124 371.836 191.006C371.785 190.889 371.762 190.761 371.771 190.634C371.78 190.506 371.82 190.383 371.887 190.273C372.64 189.039 373.615 187.71 374.647 186.304C377.83 181.965 381.439 177.047 379.602 173.415C379.487 173.188 379.398 173.09 379.356 173.051C378.533 173.3 376.683 176.728 375.452 179.009C373.023 183.511 370.27 188.614 367.116 189.364C365.615 189.72 364.45 189.547 363.654 188.851C362.116 187.505 362.542 184.704 362.884 182.453C362.963 181.931 363.062 181.285 363.095 180.817C362.914 180.953 362.673 181.151 362.36 181.439C356.077 187.214 351.266 190.217 347.217 190.888C343.469 191.509 340.867 190.062 338.349 188.662C335.858 187.277 333.505 185.967 329.902 186.321C327.043 186.601 325.903 187.611 324.695 188.679C322.585 190.546 320.591 192.31 311.257 189.34C311.044 189.27 310.869 189.123 310.769 188.93C310.669 188.736 310.653 188.513 310.723 188.308C310.793 188.103 310.945 187.933 311.145 187.835C311.344 187.737 311.576 187.719 311.789 187.785C320.178 190.455 321.664 189.139 323.546 187.474C324.842 186.327 326.31 185.028 329.73 184.693C333.879 184.286 336.705 185.858 339.198 187.244C344.008 189.919 348.162 192.229 361.187 180.255C362.321 179.213 363.246 178.602 364.076 179.017C365.049 179.501 364.857 180.77 364.565 182.691C364.311 184.359 363.928 186.88 364.795 187.639C365.147 187.947 365.791 187.993 366.709 187.774C369.117 187.203 371.908 182.031 373.945 178.254C376.37 173.76 377.718 171.406 379.384 171.406L379.407 171.406C379.897 171.412 380.594 171.641 381.129 172.698C383.406 177.202 379.489 182.54 376.034 187.25C375.297 188.254 374.59 189.217 373.983 190.121C380.971 191.229 388.687 187.884 396.164 184.644C403.566 181.435 410.558 178.405 415.728 180.606C418.43 181.757 420.377 184.187 421.683 188.036C421.753 188.242 421.735 188.466 421.633 188.66C421.531 188.853 421.354 189 421.14 189.068C421.034 189.101 420.922 189.114 420.81 189.106C420.699 189.098 420.591 189.069 420.491 189.02C420.392 188.971 420.303 188.904 420.231 188.822C420.158 188.741 420.103 188.646 420.068 188.544C418.921 185.162 417.277 183.055 415.042 182.103C410.564 180.197 403.908 183.082 396.86 186.136C390.486 188.898 383.416 191.963 376.747 191.963ZM299.027 110.191C297.476 110.191 296.017 109.941 294.679 109.438C292.15 108.489 290.159 106.648 289.072 104.254C289.012 104.122 288.959 103.988 288.912 103.853C286.558 104.587 284.829 104.995 284.622 105.042C284.514 105.067 284.401 105.072 284.291 105.055C284.181 105.038 284.075 105.001 283.98 104.945C283.885 104.888 283.802 104.815 283.737 104.728C283.671 104.641 283.624 104.542 283.598 104.438C283.572 104.333 283.567 104.225 283.585 104.119C283.602 104.013 283.641 103.911 283.699 103.819C283.758 103.728 283.834 103.648 283.924 103.585C284.015 103.521 284.117 103.476 284.225 103.451C284.277 103.439 286.138 103.001 288.657 102.204C288.688 100.559 289.499 98.7199 291.066 96.7802C294.241 92.851 299.721 89.5332 302.341 89.9531C303.137 90.0807 303.711 90.53 303.957 91.2189C304.462 92.6303 304.32 94.0446 303.536 95.423C301.493 99.0145 295.279 101.716 290.521 103.329C290.552 103.419 290.587 103.509 290.628 103.598C291.532 105.59 293.19 107.122 295.295 107.913C298.223 109.012 301.889 108.694 305.898 106.992C306.176 106.874 306.528 106.638 306.926 106.312C307.164 100.089 308.39 96.2308 310.573 94.8409C311.918 93.984 313.093 94.3943 313.223 94.4445C313.244 94.4527 313.265 94.4617 313.286 94.4718C314.265 94.9388 314.789 95.8497 314.762 97.0369C314.693 100.013 311.255 104.64 308.602 107.047C308.585 108.049 310.767 108.293 311.707 108.351C315.319 108.576 321.081 107.549 326.045 105.798C326.922 105.49 327.787 105.151 328.637 104.781C328.68 103.085 329.451 101.021 331.303 98.9324C332.038 98.1041 333.917 96.2458 335.495 96.9C336.402 97.2751 336.775 98.2681 336.605 99.8514C336.338 102.325 333.385 104.351 330.411 105.781C330.479 106.054 330.593 106.315 330.747 106.553C331.458 107.641 332.205 108.254 333.031 108.427C334.816 108.804 337.285 107.242 340.412 105.268C341.54 104.556 342.807 103.757 344.17 102.968C344.356 102.848 344.514 102.761 344.627 102.716C344.825 102.636 345.048 102.631 345.25 102.703C345.452 102.775 345.618 102.918 345.715 103.104C345.811 103.289 345.831 103.503 345.77 103.702C345.709 103.901 345.572 104.07 345.387 104.176C345.253 104.252 345.12 104.328 344.987 104.405C344.229 104.942 342.737 106.406 342.934 107.279C343.068 107.87 344.409 108.503 347.773 108.503C352.115 108.503 352.666 106.601 353.068 105.213C353.258 104.559 353.517 103.663 354.467 103.644L354.533 103.643C356.949 103.643 357.088 106.327 357.163 107.775C357.173 107.968 357.185 108.197 357.202 108.393C357.9 107.935 358.692 106.117 359.296 104.73C360.416 102.158 361.685 99.2428 364.02 98.4899C365.157 98.1241 366.406 98.315 367.732 99.0598C368.646 99.574 369.148 100.206 369.223 100.939C369.361 102.297 368.022 103.434 366.605 104.639C364.656 106.296 363.885 107.161 364.468 107.912C364.579 108.055 364.794 108.297 364.981 108.307C365.462 108.324 366.409 107.349 367.165 106.56C368.576 105.087 370.331 103.254 372.619 103.463C373.867 103.578 374.708 103.931 375.189 104.541C375.825 105.348 375.644 106.329 375.498 107.116C375.416 107.56 375.323 108.063 375.44 108.287C375.643 108.673 376.941 108.263 378.198 107.866C381.089 106.953 385.459 105.574 389.922 108.558C390.014 108.619 390.092 108.698 390.152 108.788C390.212 108.878 390.254 108.979 390.274 109.085C390.293 109.191 390.291 109.299 390.268 109.404C390.244 109.509 390.199 109.609 390.136 109.697C390.072 109.786 389.991 109.861 389.897 109.919C389.803 109.977 389.699 110.017 389.589 110.036C389.479 110.055 389.366 110.053 389.257 110.031C389.148 110.008 389.045 109.964 388.954 109.903C385.185 107.383 381.452 108.561 378.726 109.421C376.699 110.061 374.784 110.666 373.924 109.025C373.551 108.314 373.697 107.525 373.826 106.829C373.923 106.307 374.022 105.767 373.837 105.531C373.668 105.317 373.165 105.157 372.457 105.092C371.011 104.961 369.63 106.399 368.413 107.67C367.213 108.923 366.175 110.015 364.893 109.941C364.224 109.908 363.623 109.555 363.108 108.892C361.488 106.806 363.797 104.843 365.482 103.411C366.37 102.656 367.586 101.622 367.533 101.098C367.515 100.925 367.276 100.698 366.876 100.473C365.98 99.9696 365.221 99.8283 364.559 100.042C362.954 100.559 361.843 103.111 360.863 105.363C359.72 107.986 358.642 110.468 356.531 110.108C355.576 109.947 355.523 108.932 355.467 107.857C355.384 106.239 355.209 105.53 354.799 105.337C354.766 105.439 354.733 105.555 354.704 105.653C354.283 107.109 353.405 110.139 347.774 110.139C346.296 110.139 341.798 110.139 341.267 107.591C341.207 107.294 341.204 106.989 341.258 106.691C337.838 108.85 335.13 110.546 332.67 110.026C331.375 109.754 330.276 108.903 329.31 107.424C329.119 107.128 328.969 106.809 328.864 106.475C328.128 106.783 327.383 107.07 326.63 107.335C321.465 109.157 315.424 110.222 311.599 109.985C310.164 109.896 307.952 109.531 307.18 108.166C306.965 108.304 306.765 108.413 306.584 108.49C303.919 109.622 301.368 110.191 299.027 110.191ZM312.359 95.9397C312.151 95.9397 311.826 95.9916 311.458 96.2409C310.591 96.8285 309.18 98.6877 308.726 104.556C310.792 102.275 313.018 98.9782 313.064 97.0006C313.079 96.3356 312.834 96.0958 312.579 95.9615C312.506 95.9464 312.433 95.9391 312.359 95.9397ZM334.786 98.4015C334.454 98.4015 333.309 98.9959 332.076 100.631C331.372 101.563 330.718 102.756 330.447 103.915C333.144 102.499 334.775 100.991 334.915 99.6826C335.015 98.7559 334.853 98.4596 334.814 98.4031C334.805 98.402 334.795 98.4015 334.786 98.4015ZM301.826 91.5503C300.003 91.5503 295.336 94.1602 292.407 97.786C291.681 98.6841 290.682 100.143 290.424 101.619C294.855 100.086 300.325 97.6647 302.048 94.6354C302.599 93.6654 302.699 92.722 302.352 91.7522C302.327 91.6834 302.3 91.6057 302.063 91.5675C301.984 91.5558 301.905 91.55 301.826 91.5503ZM308.62 159.327C308.279 159.327 307.932 159.305 307.579 159.26C302.823 158.661 299.557 155.642 298.134 150.528C297.584 148.554 297.338 146.367 297.328 144.118L297.165 144.14C291.995 144.846 291.626 149.058 291.3 152.774C291.059 155.513 290.811 158.345 288.067 158.347H288.059C282.845 158.347 280.705 155.585 278.984 153.365C277.733 151.752 276.653 150.358 274.65 150.052C273.742 149.914 271.455 150.33 270.285 151.921C269.261 153.314 269.425 155.309 270.759 157.69C270.814 157.784 270.848 157.889 270.86 157.996C270.873 158.104 270.863 158.212 270.831 158.316C270.8 158.42 270.747 158.517 270.677 158.601C270.606 158.685 270.519 158.755 270.42 158.806C270.321 158.858 270.213 158.89 270.101 158.901C269.989 158.911 269.876 158.901 269.769 158.869C269.662 158.838 269.562 158.786 269.475 158.717C269.389 158.648 269.317 158.563 269.265 158.468C267.164 154.72 267.907 152.325 268.899 150.975C270.459 148.854 273.412 148.205 274.916 148.436C277.6 148.846 278.995 150.645 280.344 152.386C282.068 154.609 283.697 156.71 288.058 156.71H288.066C289.138 156.71 289.358 155.468 289.607 152.636C289.948 148.742 290.416 143.408 296.927 142.519C297.073 142.5 297.218 142.479 297.362 142.458C297.718 134.535 300.756 126.307 303.639 124.176C306.235 122.259 308.942 123.277 310.61 124.87C312.138 126.329 313.048 128.739 313.106 131.482C313.161 134.082 312.431 136.645 311.151 138.337C309.167 140.959 305.094 142.812 299.029 143.854C299.014 146.037 299.236 148.171 299.774 150.104C301.022 154.589 303.722 157.123 307.799 157.637C309.646 157.87 312.247 157.419 314.15 153.948C314.723 152.903 315.165 151.587 315.411 150.267C315.319 150.13 315.233 149.99 315.151 149.848C314.064 147.955 313.852 145.68 314.61 144.053C314.668 143.928 314.758 143.82 314.87 143.737C314.983 143.654 315.115 143.6 315.255 143.579C315.395 143.558 315.539 143.572 315.672 143.618C315.805 143.664 315.924 143.742 316.019 143.844C317.146 145.061 317.532 147.387 317.209 149.869C317.779 150.531 318.461 150.946 319.16 151.039C319.349 151.065 319.923 151.141 320.398 150.208C320.616 149.781 320.753 149.269 320.815 148.728C320.264 147.215 319.896 145.729 319.57 144.412C319.527 144.239 319.544 144.058 319.618 143.895C319.691 143.732 319.818 143.597 319.978 143.509C320.139 143.422 320.324 143.387 320.507 143.411C320.689 143.434 320.859 143.513 320.991 143.638C322.161 144.744 322.637 146.706 322.529 148.485C324.083 152.552 327.08 156.549 334.709 157.632C335.232 157.704 336.206 157.378 337.105 156.484C337.816 155.776 339.399 153.748 338.738 150.205C338.699 150 338.744 149.788 338.862 149.613C338.98 149.438 339.164 149.314 339.374 149.265C339.585 149.215 339.807 149.246 339.995 149.349C340.183 149.453 340.323 149.622 340.386 149.821C341.268 152.606 343.838 155.295 346.933 156.673C349.256 157.707 351.508 157.869 353.275 157.131C353.377 157.088 353.488 157.065 353.599 157.063C353.711 157.062 353.821 157.081 353.925 157.12C354.029 157.16 354.124 157.219 354.204 157.294C354.284 157.368 354.348 157.458 354.392 157.556C354.437 157.655 354.46 157.761 354.462 157.868C354.464 157.976 354.444 158.083 354.403 158.182C354.362 158.282 354.301 158.374 354.224 158.451C354.146 158.528 354.053 158.59 353.951 158.633C351.734 159.56 348.988 159.391 346.221 158.16C343.884 157.119 341.851 155.469 340.437 153.538C340.141 155.12 339.424 156.529 338.325 157.623C337.144 158.798 335.664 159.423 334.462 159.251C327.261 158.23 323.766 154.797 321.84 151.084C321.185 152.249 320.132 152.823 318.927 152.661C318.184 152.562 317.469 152.256 316.825 151.778C316.548 152.792 316.156 153.792 315.651 154.713C314.004 157.717 311.534 159.327 308.62 159.327ZM306.635 124.785C306.024 124.785 305.357 124.97 304.673 125.476C302.448 127.12 299.521 134.704 299.084 142.181C304.501 141.214 308.093 139.6 309.778 137.373C312.333 133.995 311.703 128.217 309.415 126.033C309.029 125.665 307.966 124.785 306.635 124.785Z" fill="#C6E3FF"/>
<path d="M290.365 153.421C290.14 153.421 289.924 153.335 289.765 153.181C289.605 153.028 289.516 152.82 289.516 152.603C289.516 149.377 287.954 145.389 285.959 143.521L285.956 143.519C283.81 141.512 276.915 134.721 277.698 131.037C277.838 130.38 278.279 129.495 279.588 129.012C280.799 128.564 281.979 128.688 283.002 129.369C286.486 131.689 287.332 139.998 287.394 142.595C289.595 144.856 291.214 149.069 291.214 152.603C291.214 152.71 291.192 152.816 291.15 152.916C291.107 153.015 291.044 153.105 290.966 153.181C290.887 153.257 290.793 153.318 290.69 153.359C290.587 153.4 290.477 153.421 290.365 153.421ZM280.997 130.383C280.744 130.383 280.479 130.436 280.196 130.54C279.564 130.774 279.418 131.104 279.363 131.366C278.969 133.221 282.09 137.306 285.589 140.838C285.259 137.371 284.174 132.138 282.037 130.715C281.704 130.493 281.363 130.383 280.997 130.383Z" fill="#C6E3FF"/>
</g>
<g clip-path="url(#clip1_8_4961)">
<path d="M282.462 223.117C291.082 219.046 294.282 215.508 291.243 211.784C280.458 198.573 226.674 224.203 212.008 243.034C212.008 243.034 256.436 235.407 282.462 223.117Z" fill="#1B1B23"/>
<path d="M222.773 244.585C217.06 227.596 223.545 151.273 236.618 142.843C249.692 134.412 269.584 182.9 272.706 193.159C275.452 200.644 279.594 216.637 281.044 223.004C304.324 209.843 344.13 196.084 378.132 193.665C413.719 189.541 397.53 202.499 379.993 203.375C394.505 204.361 399.982 205.248 400.147 207.306C400.242 208.502 397.902 209.885 393.123 211.447C392.992 211.49 392.858 211.533 392.725 211.576C393.416 211.802 394.098 212.055 394.768 212.335C396.516 213.076 398.434 214.162 398.413 215.397C398.384 217.126 394.562 218.781 388.807 219.767H388.802C388.468 219.827 388.124 219.882 387.778 219.935C388.656 220.216 389.422 220.491 390.085 220.756C397.672 223.789 391.656 225.683 385.196 226.459C372.752 228.281 360.615 231.146 349.493 236.831C334.526 244.48 317.462 261.233 298.525 272.407C275.334 286.091 236.222 293.076 222.773 244.585Z" fill="white"/>
<path d="M264.83 283.331C259.38 283.332 254.281 282.415 249.587 280.585C236.417 275.45 227.122 263.418 221.96 244.821C219.21 236.604 219.145 213.732 221.808 190.413C223.166 178.516 225.071 167.894 227.317 159.695C229.931 150.15 232.903 144.248 236.15 142.154C238.062 140.921 240.192 140.707 242.48 141.516C248.082 143.499 254.614 151.631 261.894 165.686C267.468 176.448 272.04 188.067 273.515 192.902C276.098 199.953 279.925 214.502 281.62 221.729C303.753 209.453 342.936 195.345 378.052 192.843C390.666 191.381 397.964 191.873 399.746 194.305C400.27 195.018 400.321 195.887 399.893 196.751C398.668 199.218 393.52 201.728 387.527 203.126C397.845 204.05 400.821 205.083 400.995 207.242C401.114 208.753 399.358 210.092 395.189 211.613C397.953 212.796 399.285 214.039 399.263 215.41C399.22 217.914 394.65 219.404 390.922 220.203C392.679 220.95 394.675 222.07 394.459 223.628C394.371 224.27 394.101 226.223 385.301 227.28C370.683 229.42 359.424 232.689 349.888 237.562C342.232 241.475 333.958 247.842 325.197 254.582C316.827 261.022 308.173 267.681 298.966 273.113C293.692 276.225 285.313 280.341 275.348 282.275C271.717 282.98 268.206 283.331 264.83 283.331ZM239.847 142.689C238.874 142.689 237.96 142.969 237.088 143.532C231.616 147.061 226.407 165.095 223.496 190.596C220.855 213.729 220.89 236.327 223.58 244.329L223.593 244.37C228.608 262.45 237.566 274.118 250.219 279.051C257.509 281.892 265.852 282.432 275.015 280.654C284.739 278.767 292.928 274.743 298.085 271.7C307.202 266.321 315.815 259.694 324.144 253.286C332.968 246.497 341.303 240.084 349.099 236.099C358.807 231.137 370.237 227.815 385.07 225.642C390.76 224.959 392.717 223.842 392.777 223.408C392.777 223.402 392.732 222.708 389.764 221.521C389.103 221.257 388.346 220.987 387.513 220.72C387.332 220.662 387.176 220.546 387.071 220.391C386.965 220.237 386.917 220.052 386.932 219.867C386.948 219.682 387.027 219.508 387.157 219.372C387.287 219.236 387.46 219.147 387.648 219.118C387.983 219.068 388.317 219.014 388.649 218.955C388.664 218.952 388.678 218.95 388.693 218.949C395.131 217.841 397.552 216.175 397.565 215.384C397.572 214.943 396.756 214.078 394.43 213.094C393.782 212.823 393.123 212.578 392.455 212.36C392.286 212.304 392.139 212.199 392.035 212.058C391.932 211.917 391.876 211.748 391.877 211.574C391.877 211.401 391.933 211.232 392.038 211.092C392.142 210.951 392.29 210.847 392.459 210.792L392.854 210.664C399.318 208.551 399.303 207.381 399.302 207.37C399.285 207.165 398.947 206.437 395.29 205.75C392.329 205.194 387.737 204.73 379.935 204.2C379.719 204.186 379.516 204.092 379.369 203.937C379.221 203.782 379.14 203.579 379.142 203.368C379.144 203.157 379.229 202.954 379.379 202.802C379.53 202.65 379.734 202.56 379.951 202.55C389.307 202.083 397.229 198.317 398.364 196.032C398.564 195.628 398.476 195.417 398.364 195.264C398.013 194.785 395.392 192.498 378.233 194.486C378.22 194.487 378.207 194.488 378.195 194.489C342.808 197.007 303.25 211.406 281.471 223.718C281.356 223.784 281.226 223.822 281.093 223.829C280.959 223.836 280.826 223.813 280.704 223.761C280.581 223.709 280.473 223.629 280.389 223.528C280.304 223.428 280.245 223.309 280.216 223.182C278.688 216.471 274.605 200.79 271.907 193.436C271.902 193.422 271.898 193.408 271.893 193.393C270.444 188.631 265.913 177.116 260.378 166.43C253.398 152.955 247.009 144.877 241.9 143.069C241.184 142.816 240.502 142.689 239.847 142.689ZM113.312 100.87C138.11 84.6653 164.942 103.616 184.431 93.7759C204.341 83.7256 199.239 64.8048 215.363 54.1625C231.258 43.6704 250.059 51.0094 256.998 59.8773C260.056 78.1196 235.42 99.44 221.94 102.437C219.057 122.937 188.774 182.293 164.222 216.783C153.858 240.686 123.035 251.418 95.1465 240.01C65.756 227.988 49.836 191.528 67.1848 170.243C73.7678 162.167 78.2062 161.572 85.9618 150.93C98.1782 134.167 93.1052 114.075 113.312 100.87Z" fill="#1B1B23"/>
<path d="M202.096 142.653C202.096 142.653 193.524 134.178 194.137 127.872C203.526 127.478 217.2 122.157 221.938 102.465C213.841 98.9563 212.275 91.9503 216.996 88.85C221.013 86.2125 226.213 87.5982 228.612 88.4977C229.507 88.8354 230.498 88.8404 231.396 88.5118C241.925 84.6229 254.471 73.5942 257 59.8789C258.187 61.2742 259.269 62.7502 260.239 64.2955C260.487 64.6745 260.731 65.0563 260.97 65.4408C261.489 66.2843 261.973 67.1476 262.421 68.0285C262.424 68.0381 262.429 68.0475 262.435 68.0558C263.041 69.2423 263.604 70.4463 264.173 71.6447C264.579 72.5061 265.001 73.3602 265.439 74.2068C266.016 75.3082 266.692 76.6562 267.59 77.5649C268.475 78.4617 269.701 78.8914 270.906 79.2382C273.492 79.9298 271.851 83.2942 270.223 84.6047C271.321 89.2676 275.484 103.911 269.092 109.116C266.488 111.239 257.138 111.37 252.574 110.974C252.512 110.993 252.451 111.016 252.392 111.043C251.772 111.256 249.09 113.806 245.806 118.682C241.792 124.644 236.671 134.874 233.528 147.777C233.527 147.778 217.608 153.887 202.096 142.653Z" fill="white"/>
<path d="M257.807 63.6733C258.147 64.16 258.475 64.6548 258.79 65.1571L258.807 65.1835C259.047 65.5505 259.283 65.9201 259.515 66.2924C260 67.0821 260.454 67.89 260.875 68.7143C260.895 68.757 260.916 68.7986 260.939 68.8396C261.433 69.8089 261.909 70.8148 262.371 71.7882L262.631 72.3363C263.046 73.2177 263.478 74.0916 263.926 74.9576L264.036 75.1678C264.621 76.288 265.35 77.6819 266.366 78.7099C267.511 79.8697 268.994 80.4107 270.425 80.8227L270.456 80.8313C270.503 80.8437 270.537 80.8558 270.56 80.8654C270.613 81.2968 270.044 82.6037 269.141 83.3308C268.898 83.526 268.716 83.783 268.615 84.0731C268.513 84.3632 268.497 84.6749 268.567 84.9735C268.645 85.3046 268.738 85.685 268.842 86.1086C270.018 90.91 273.141 103.664 268.002 107.848C266.994 108.67 263.243 109.498 257.135 109.498C255.554 109.498 253.988 109.438 252.725 109.328C252.503 109.309 252.279 109.332 252.066 109.397C251.934 109.437 251.802 109.487 251.675 109.545L251.675 109.545C250.21 110.209 247.197 113.603 244.386 117.776C241.939 121.41 235.916 131.389 232.097 146.503C230.62 146.944 227.24 147.783 222.873 147.783C215.718 147.783 209.105 145.636 203.216 141.403C201.152 139.336 196.45 133.77 195.864 129.408C201.28 128.879 206.534 126.889 210.811 123.72C217.075 119.078 221.375 112.054 223.591 102.841C223.681 102.466 223.635 102.073 223.459 101.729C223.283 101.385 222.989 101.111 222.629 100.954C218.821 99.3047 216.307 96.6223 216.066 93.9544C215.929 92.4321 216.597 91.1056 217.946 90.2195C219.206 89.3923 220.756 88.9729 222.553 88.9729C224.819 88.9729 226.94 89.6411 227.998 90.038C228.644 90.2823 229.331 90.4074 230.024 90.4068C230.699 90.4068 231.362 90.2894 231.999 90.0564C242.335 86.2392 253.93 76.1827 257.807 63.6733ZM257 59.8789C254.471 73.5942 241.925 84.6229 231.396 88.5118C230.498 88.8406 229.507 88.8356 228.612 88.4977C227.251 87.9874 224.99 87.3208 222.553 87.3208C220.695 87.3208 218.734 87.7089 216.996 88.85C212.275 91.9503 213.841 98.9563 221.938 102.465C217.2 122.157 203.526 127.478 194.137 127.872C193.524 134.178 202.096 142.653 202.096 142.653C209.526 148.034 217.05 149.436 222.873 149.436C229.206 149.436 233.527 147.777 233.527 147.777C236.671 134.874 241.792 124.644 245.806 118.682C249.09 113.806 251.772 111.256 252.392 111.043C252.451 111.017 252.512 110.994 252.574 110.975C253.817 111.083 255.414 111.151 257.134 111.151C261.73 111.151 267.197 110.661 269.092 109.116C275.484 103.911 271.321 89.2679 270.222 84.605C271.851 83.2945 273.492 79.9303 270.906 79.2384C269.701 78.8917 268.475 78.462 267.59 77.5652C266.692 76.6565 266.016 75.3088 265.438 74.207C265.001 73.3605 264.579 72.5063 264.173 71.6449C263.604 70.4465 263.04 69.2426 262.435 68.056C262.429 68.0478 262.424 68.0384 262.421 68.0285C261.973 67.1476 261.489 66.2843 260.97 65.4408C260.731 65.0562 260.488 64.6745 260.239 64.2955C259.269 62.7501 258.187 61.2742 257 59.8789Z" fill="#1B1B23"/>
<path d="M246.869 117.098C240.693 113.744 238.399 108.192 239.815 106.831C240.924 105.766 243.571 106.856 245.204 107.368C248.494 108.406 250.714 108.945 253.637 109.39C253.575 109.409 253.514 109.432 253.455 109.459C252.835 109.672 250.153 112.222 246.869 117.098ZM255.882 72.7681C257.052 73.768 256.026 76.6771 253.619 79.3599C251.279 81.9693 248.104 82.902 246.863 81.7385C245.622 80.5754 246.327 77.2952 249.125 75.1468C251.901 73.0147 254.668 71.7317 255.882 72.7681ZM255.433 83.4126C255.413 83.4714 255.406 83.5333 255.412 83.5947C255.417 83.6561 255.435 83.7159 255.464 83.7706C255.493 83.8253 255.534 83.8739 255.582 83.9135C255.631 83.953 255.687 83.9829 255.747 84.0012C257.339 84.4546 261.809 82.553 263.644 80.0724C265.138 78.0538 263.404 76.7154 262.216 76.0888L262.206 76.0838C261.986 75.9697 261.728 75.9449 261.489 76.0149C261.25 76.0849 261.049 76.244 260.929 76.4576C259.16 79.64 256.589 82.1577 255.544 83.2319C255.493 83.2832 255.455 83.3449 255.433 83.4126ZM227.593 98.5527C227.425 98.5528 227.262 98.5046 227.122 98.4142C226.983 98.3238 226.874 98.1953 226.809 98.0448C224.617 92.943 221.242 94.1276 221.1 94.1802C220.89 94.2582 220.657 94.2527 220.452 94.1649C220.247 94.077 220.085 93.9139 220.003 93.7109C219.921 93.5087 219.924 93.2831 220.012 93.0833C220.1 92.8834 220.266 92.7257 220.473 92.6444C222.207 91.9654 226.09 92.0877 228.376 97.4075C228.43 97.5331 228.451 97.6697 228.438 97.8052C228.425 97.9407 228.377 98.0709 228.3 98.1842C228.222 98.2975 228.117 98.3905 227.994 98.4548C227.87 98.5191 227.733 98.5527 227.593 98.5527ZM267.073 95.9887C266.385 96.6528 265.426 96.9332 264.523 96.9676C263.609 97.0007 262.689 96.8079 261.847 96.3297C261.447 96.09 261.083 95.7963 260.767 95.4574C260.46 95.1123 260.192 94.7311 260.007 94.3113C259.625 93.4828 259.524 92.5149 259.811 91.6575C259.851 91.5385 259.932 91.437 260.041 91.3708C260.15 91.3045 260.28 91.2779 260.407 91.2956C260.534 91.3133 260.651 91.3742 260.736 91.4675C260.822 91.5607 260.871 91.6804 260.874 91.8054L260.875 91.8387C260.895 92.4885 261.085 93.0964 261.407 93.6269C261.574 93.8883 261.76 94.1375 261.988 94.3499C262.208 94.5689 262.455 94.7595 262.724 94.917C263.232 95.2203 263.888 95.3985 264.537 95.4533C265.191 95.5029 265.846 95.4216 266.415 95.1555L266.456 95.1365C266.572 95.0828 266.703 95.0706 266.828 95.1022C266.952 95.1338 267.06 95.2071 267.134 95.3091C267.208 95.4112 267.243 95.5354 267.231 95.6598C267.22 95.7841 267.164 95.9007 267.073 95.9887Z" fill="#1B1B23"/>
<path d="M141.675 205.686C141.554 205.686 141.436 205.649 141.338 205.581C127.33 195.89 115.137 185.592 106.076 175.8C98.2627 167.357 93.2127 159.664 92.2201 154.695C91.4009 150.594 92.5962 146.694 95.194 144.99C96.8577 143.898 99.8062 143.193 104.406 146.027C104.47 146.066 104.525 146.117 104.569 146.177C104.612 146.237 104.643 146.305 104.66 146.377C104.676 146.449 104.678 146.523 104.664 146.596C104.651 146.668 104.623 146.737 104.582 146.799C104.499 146.924 104.368 147.013 104.218 147.044C104.068 147.076 103.912 147.05 103.782 146.97C100.562 144.986 97.8175 144.621 95.845 145.915C93.6242 147.371 92.6248 150.814 93.3573 154.482C95.2608 164.012 112.585 184.312 142.012 204.671C142.165 204.776 142.255 204.946 142.255 205.126C142.254 205.2 142.239 205.273 142.21 205.341C142.18 205.409 142.138 205.471 142.084 205.523C142.03 205.575 141.966 205.616 141.896 205.644C141.826 205.672 141.75 205.686 141.675 205.686Z" fill="#1B1B23"/>
<path d="M156.665 196.517C146.248 203.569 139.767 208.835 137.442 210.676C136.796 211.185 136.468 211.176 136.468 211.176L86.0352 180.27C86.0448 180.257 86.0541 180.238 86.0637 180.224C86.4156 179.683 89.9055 174.362 95.4446 168.256C99.4146 163.886 104.435 159.111 110.113 155.406C145.169 132.512 182.174 119.134 193.495 134.725C204.811 150.315 185.464 177.029 156.665 196.517Z" fill="white"/>
<path d="M136.469 212.002L136.443 212.002C136.291 211.998 136.143 211.954 136.015 211.875L85.5821 180.97C85.3919 180.853 85.2569 180.668 85.2068 180.455C85.1568 180.241 85.1958 180.017 85.3152 179.832C85.3291 179.808 85.344 179.785 85.3597 179.762C85.7302 179.191 89.2634 173.821 94.8076 167.709C99.7079 162.315 104.698 157.945 109.639 154.72C127.931 142.774 145.982 133.939 160.467 129.84C177.031 125.154 188.691 126.678 194.188 134.248C197.264 138.485 198.282 143.625 197.216 149.525C194.605 163.973 179.252 182.239 157.15 197.196C147.591 203.666 141.301 208.672 138.616 210.81L137.978 211.317C137.228 211.907 136.72 212.002 136.469 212.002ZM87.213 180.016L136.573 210.264C136.658 210.216 136.77 210.143 136.908 210.034L137.54 209.531C140.241 207.381 146.567 202.347 156.18 195.839C177.924 181.125 193.007 163.269 195.543 149.239C196.528 143.789 195.606 139.066 192.801 135.202C186.434 126.434 171.961 128.31 160.941 131.428C146.619 135.48 128.736 144.239 110.585 156.093C105.764 159.239 100.884 163.516 96.0802 168.804C91.5218 173.829 88.3526 178.332 87.213 180.016Z" fill="#1B1B23"/>
<path d="M97.123 144.261C102.727 142.732 121.681 144.23 145.765 134.374C172.545 123.417 188.227 119.586 197.601 125.61C198.29 126.05 198.929 126.56 199.506 127.132C202.762 130.359 204.199 133.032 202.512 140.222C202.512 140.226 203.297 141.525 203.295 141.529C216.752 149.995 230.947 147.669 234.032 145.507C234.035 145.503 235.39 140.986 236.103 138.86C255.769 138.065 268.812 184.877 291.242 211.783C280.222 201.93 223.018 236.831 223.018 236.831L217.114 282.895L118.607 225.068C118.607 225.068 146.377 203.944 143.112 206.112C133.111 196.259 125.762 184.237 120.253 173.79C113.166 160.36 108.178 145.971 97.123 144.261Z" fill="#BFB6FF"/>
<path d="M223.844 241.152C223.727 241.152 223.611 241.129 223.504 241.083C223.396 241.038 223.3 240.971 223.22 240.887C223.141 240.803 223.08 240.704 223.041 240.597C223.003 240.489 222.988 240.374 222.997 240.261L230.778 144.624C230.815 144.169 231.224 143.824 231.692 143.865C231.803 143.874 231.911 143.904 232.01 143.953C232.11 144.002 232.198 144.07 232.271 144.153C232.343 144.235 232.398 144.331 232.432 144.434C232.467 144.537 232.48 144.646 232.471 144.754L224.69 240.391C224.673 240.598 224.577 240.791 224.42 240.932C224.263 241.073 224.058 241.152 223.844 241.152ZM136.469 211.451C136.289 211.452 136.115 211.396 135.969 211.294C135.824 211.191 135.716 211.046 135.661 210.88C135.605 210.714 135.605 210.535 135.661 210.369C135.716 210.203 135.825 210.059 135.97 209.956C143.569 204.597 160.419 191.139 175.691 176.026C193.655 158.248 203.217 144.356 203.342 135.852C203.345 135.635 203.436 135.428 203.595 135.275C203.754 135.123 203.968 135.038 204.191 135.037H204.203C204.428 135.041 204.643 135.131 204.8 135.288C204.957 135.445 205.043 135.656 205.04 135.876C204.968 140.774 202.08 147.213 196.458 155.015C191.761 161.531 185.182 168.99 176.902 177.184C161.557 192.37 144.612 205.903 136.966 211.295C136.822 211.397 136.648 211.452 136.469 211.451Z" fill="white"/>
<path d="M352.219 225.237C360 216.694 363.687 214.43 370.935 208.354C386.707 195.131 359.579 203.064 347.012 202.441" fill="white"/>
<path d="M352.218 226.063C352.054 226.063 351.894 226.017 351.757 225.93C351.62 225.844 351.511 225.72 351.444 225.575C351.377 225.43 351.354 225.269 351.379 225.112C351.404 224.954 351.474 224.807 351.583 224.688C357.543 218.144 361.139 215.241 365.692 211.566C367.146 210.392 368.65 209.177 370.38 207.727C375.16 203.72 374.938 202.488 374.845 202.282C374.753 202.078 374.17 201.414 370.517 201.473C367.832 201.514 364.363 201.909 360.691 202.327C355.819 202.882 350.781 203.456 346.968 203.266C346.743 203.255 346.532 203.157 346.381 202.994C346.23 202.832 346.152 202.617 346.163 202.399C346.175 202.18 346.276 201.975 346.443 201.828C346.61 201.681 346.829 201.605 347.054 201.616C350.725 201.795 355.691 201.232 360.494 200.685C369.626 199.646 375.28 199.135 376.4 201.618C377.145 203.268 375.676 205.469 371.489 208.98C369.747 210.44 368.237 211.659 366.776 212.838C362.279 216.468 358.728 219.335 352.854 225.785C352.774 225.872 352.676 225.942 352.567 225.99C352.457 226.038 352.338 226.063 352.218 226.063Z" fill="#1B1B23"/>
<path d="M281.844 222.599C279.374 223.801 275.672 226.384 272.926 228.492L281.844 222.599Z" fill="white"/>
<path d="M272.927 229.315C272.75 229.315 272.578 229.262 272.434 229.162C272.291 229.063 272.182 228.922 272.124 228.76C272.066 228.598 272.062 228.422 272.111 228.257C272.161 228.092 272.262 227.946 272.401 227.84C275.107 225.764 278.909 223.103 281.465 221.859C281.666 221.761 281.9 221.745 282.113 221.814C282.327 221.884 282.503 222.033 282.604 222.229C282.705 222.425 282.721 222.652 282.65 222.86C282.579 223.067 282.426 223.239 282.224 223.337C279.783 224.525 276.092 227.112 273.452 229.138C273.303 229.253 273.118 229.316 272.927 229.315ZM264.605 225.767L204.924 192.497C202.814 191.322 200.117 192.019 198.899 194.056L152.058 272.392C150.84 274.428 151.563 277.033 153.673 278.209L213.354 311.479C215.464 312.655 218.161 311.957 219.379 309.92L266.219 231.585C267.438 229.548 266.715 226.943 264.605 225.767Z" fill="#1B1B23"/>
<path d="M222.547 299.851L207.795 291.627L250.693 219.885L262.159 226.277C263.974 227.288 264.596 229.529 263.548 231.282L222.547 299.851Z" fill="white"/>
<path d="M207.78 308.068L146.77 274.058C145.027 273.086 144.43 270.935 145.436 269.252L193.044 189.634C194.05 187.951 196.278 187.374 198.021 188.346L259.031 222.357C260.773 223.328 261.37 225.48 260.364 227.162L212.756 306.781C211.75 308.463 209.522 309.04 207.78 308.068Z" fill="#1B1B23"/>
<path d="M248.914 224.114L189.232 190.844C187.123 189.668 184.426 190.366 183.208 192.403L136.367 270.739C135.149 272.775 135.872 275.38 137.981 276.556L197.663 309.826C199.772 311.001 202.469 310.304 203.687 308.267L250.528 229.931C251.746 227.895 251.023 225.29 248.914 224.114Z" fill="#1B1B23"/>
<path d="M216.172 282.62L201.42 274.396L235.003 218.233L246.469 224.625C248.284 225.636 248.906 227.877 247.858 229.63L216.172 282.62Z" fill="white"/>
<path d="M240.614 219.924L187.487 189.883C185.377 188.707 182.68 189.405 181.462 191.442L134.366 270.775C133.148 272.812 134.126 274.418 136.235 275.594L189.363 305.635C191.472 306.811 194.169 306.113 195.387 304.076L242.228 225.741C243.446 223.704 242.723 221.099 240.614 219.924Z" fill="#C6E3FF"/>
<path d="M191.559 307.031C190.64 307.031 189.738 306.797 188.941 306.352C188.751 306.241 188.613 306.061 188.558 305.852C188.502 305.643 188.532 305.421 188.643 305.234C188.753 305.047 188.934 304.909 189.148 304.85C189.361 304.791 189.59 304.815 189.785 304.918C191.487 305.868 193.672 305.303 194.654 303.661L241.494 225.326C242.007 224.469 242.114 223.105 241.769 221.849C241.473 220.775 240.898 219.933 240.192 219.54C240.002 219.428 239.864 219.249 239.809 219.039C239.753 218.83 239.784 218.609 239.894 218.421C240.004 218.234 240.185 218.096 240.399 218.037C240.612 217.978 240.841 218.002 241.036 218.105C242.148 218.726 242.991 219.903 243.409 221.421C243.88 223.131 243.713 224.902 242.962 226.157L196.121 304.492C195.149 306.12 193.377 307.031 191.559 307.031ZM149.329 283.281C149.181 283.281 149.035 283.243 148.907 283.171C148.778 283.099 148.671 282.996 148.596 282.871C148.522 282.747 148.482 282.606 148.48 282.461C148.479 282.317 148.517 282.175 148.59 282.049L198.218 196.086C198.273 195.991 198.346 195.908 198.433 195.841C198.521 195.774 198.622 195.724 198.729 195.695C198.836 195.666 198.949 195.657 199.059 195.67C199.17 195.683 199.277 195.717 199.374 195.77C199.471 195.824 199.557 195.895 199.626 195.98C199.695 196.065 199.746 196.163 199.776 196.268C199.806 196.372 199.815 196.481 199.801 196.589C199.788 196.697 199.753 196.801 199.699 196.895L150.07 282.859C149.996 282.987 149.889 283.094 149.759 283.168C149.628 283.242 149.48 283.281 149.329 283.281Z" fill="#1B1B23"/>
<path d="M137.444 210.401C137.477 210.428 137.829 210.672 138.362 211.048C140.406 212.476 145.152 215.758 145.208 215.804C162.24 229.788 171.321 243.859 186.132 255.152C191.381 259.151 204.832 264.353 210.204 264.729C232.57 266.29 219.875 270.628 214.212 274.37C208.545 278.116 213.632 281.789 230.112 291.967C231.42 292.775 232.632 301.617 222.837 298.109C222.823 298.109 222.814 298.104 222.799 298.1C225.091 299.078 229.185 301.249 227.63 304.619C226.817 306.382 224.069 307.406 221.206 306.868C222.153 307.479 223.878 309.412 221.92 311.611C219.737 314.072 216.723 312.823 216.304 312.557L216.3 312.552C216.442 313.094 216.452 313.557 216.342 313.943C213.466 324.107 126.841 282.835 91.0814 239.246C72.1962 216.218 78.7764 193.723 86.0367 180.272C86.0463 180.258 86.0557 180.239 86.0653 180.226C88.1052 176.7 89.907 174.363 95.4462 168.257" fill="white"/>
<path d="M212.952 316.319C204.436 316.32 182.811 307.378 159.727 294.169C130.174 277.258 104.912 257.427 90.4191 239.761C81.8922 229.363 77.6825 218.056 77.907 206.152C78.0703 197.493 80.5531 188.656 85.2864 179.887C85.2968 179.868 85.3078 179.849 85.3196 179.831L85.3363 179.804C87.4571 176.14 89.3209 173.762 94.8111 167.71C94.9611 167.549 95.1701 167.452 95.3929 167.44C95.6157 167.428 95.8344 167.502 96.0017 167.646C96.169 167.79 96.2714 167.992 96.2869 168.208C96.3023 168.425 96.2295 168.639 96.0842 168.804C90.6815 174.759 88.8607 177.08 86.8067 180.63C86.7999 180.642 86.7925 180.654 86.7852 180.665L86.7769 180.679C79.0572 194.994 73.6613 216.678 91.7466 238.73C106.115 256.244 131.207 275.931 160.588 292.744C184.613 306.491 207.679 315.87 214.242 314.559C215.351 314.337 215.482 313.875 215.525 313.723C215.597 313.471 215.581 313.146 215.478 312.757C215.436 312.594 215.445 312.422 215.505 312.264C215.565 312.107 215.673 311.971 215.815 311.875C215.956 311.778 216.125 311.726 216.297 311.725C216.47 311.725 216.639 311.775 216.782 311.87C216.969 311.964 219.458 313.122 221.278 311.07C221.806 310.478 222.032 309.884 221.951 309.306C221.833 308.465 221.106 307.794 220.738 307.557C220.575 307.451 220.454 307.294 220.396 307.111C220.338 306.929 220.347 306.732 220.421 306.555C220.495 306.378 220.63 306.232 220.803 306.141C220.976 306.05 221.175 306.02 221.368 306.057C223.778 306.509 226.188 305.729 226.856 304.28C227.176 303.588 227.21 302.948 226.963 302.322C226.627 301.474 225.573 300.185 222.46 298.856C222.264 298.772 222.108 298.619 222.023 298.428C221.938 298.237 221.93 298.021 222.001 297.825C222.073 297.628 222.218 297.465 222.407 297.368C222.597 297.271 222.817 297.248 223.024 297.302C223.061 297.31 223.096 297.321 223.132 297.333C225.408 298.148 228.376 298.727 229.589 296.857C230.561 295.358 230.026 293.048 229.636 292.65C216.533 284.557 211.192 280.917 211.137 277.461C211.115 276.092 211.965 274.857 213.737 273.686C214.699 273.05 215.862 272.396 216.986 271.764C218.708 270.794 222.292 268.779 222.103 267.98C222.039 267.71 221.162 266.322 210.145 265.553C204.347 265.147 190.818 259.771 185.61 255.803C178.013 250.011 171.952 243.535 165.536 236.679C159.368 230.09 152.992 223.277 144.683 216.452C144.532 216.346 143.545 215.661 142.502 214.938C140.956 213.867 139.411 212.794 137.868 211.719L137.266 211.295C137.141 211.209 137.017 211.121 136.896 211.03C136.727 210.889 136.622 210.69 136.603 210.474C136.584 210.259 136.653 210.044 136.794 209.877C136.936 209.711 137.139 209.604 137.36 209.582C137.581 209.559 137.802 209.621 137.977 209.756C138.014 209.783 138.112 209.852 138.258 209.955L138.862 210.38C140.402 211.452 141.944 212.523 143.487 213.592C145.702 215.128 145.708 215.133 145.752 215.168C154.161 222.072 160.582 228.932 166.791 235.566C173.158 242.37 179.173 248.795 186.657 254.502C191.958 258.54 205.255 263.554 210.267 263.905C221.539 264.691 223.413 266.15 223.758 267.609C224.229 269.598 221.266 271.265 217.836 273.194C216.738 273.812 215.602 274.451 214.691 275.053C213.011 276.164 212.827 276.945 212.835 277.436C212.878 280.142 219.885 284.67 230.569 291.268C231.769 292.01 232.341 295.203 231.261 297.33C230.752 298.331 229.611 299.647 227.115 299.744C227.794 300.371 228.272 301.033 228.548 301.728C228.961 302.772 228.913 303.858 228.406 304.957C227.639 306.62 225.578 307.696 223.204 307.824C223.414 308.205 223.571 308.628 223.634 309.083C223.737 309.818 223.635 310.948 222.563 312.152C220.851 314.083 218.678 314.103 217.242 313.773C217.225 313.905 217.199 314.035 217.163 314.163C216.958 314.888 216.343 315.827 214.584 316.178C214.111 316.272 213.565 316.319 212.952 316.319ZM223.054 297.311L223.068 297.316L223.054 297.311ZM222.839 297.283H222.841H222.839Z" fill="#1B1B23"/>
<path d="M116.666 202.549C120.697 203.276 132.807 207.237 137.494 210.407L116.666 202.549Z" fill="white"/>
<path d="M137.492 211.232C137.319 211.232 137.15 211.18 137.008 211.084C132.565 208.079 120.693 204.115 116.51 203.362C116.293 203.317 116.103 203.192 115.98 203.013C115.856 202.833 115.81 202.614 115.85 202.402C115.89 202.19 116.014 202.002 116.196 201.877C116.377 201.753 116.601 201.702 116.819 201.736C121.068 202.502 133.198 206.494 137.977 209.727C138.126 209.828 138.238 209.972 138.296 210.138C138.355 210.305 138.358 210.485 138.303 210.653C138.249 210.821 138.141 210.968 137.995 211.072C137.849 211.176 137.673 211.232 137.492 211.232ZM227.593 299.699H227.578C221.159 299.587 211.347 294.03 210.933 293.794C210.744 293.681 210.607 293.5 210.553 293.29C210.499 293.08 210.532 292.858 210.645 292.672C210.757 292.485 210.94 292.349 211.155 292.292C211.369 292.236 211.598 292.263 211.792 292.369C211.89 292.424 221.634 297.943 227.608 298.047C227.831 298.052 228.042 298.142 228.197 298.298C228.352 298.454 228.438 298.663 228.436 298.88C228.434 299.097 228.345 299.304 228.187 299.457C228.029 299.61 227.816 299.697 227.593 299.699ZM222.762 307.845C219.202 307.845 209.157 303.162 206.077 301.198C205.888 301.078 205.757 300.89 205.711 300.676C205.665 300.461 205.708 300.238 205.832 300.054C205.955 299.871 206.148 299.743 206.369 299.698C206.589 299.653 206.819 299.696 207.008 299.816C210.226 301.868 219.979 306.281 222.832 306.192C222.944 306.187 223.056 306.204 223.161 306.241C223.266 306.279 223.363 306.336 223.445 306.41C223.527 306.484 223.594 306.573 223.641 306.673C223.687 306.772 223.713 306.879 223.717 306.988C223.721 307.097 223.703 307.205 223.664 307.308C223.624 307.41 223.565 307.503 223.488 307.583C223.411 307.662 223.319 307.726 223.217 307.771C223.115 307.816 223.005 307.84 222.892 307.843C222.85 307.845 222.806 307.845 222.762 307.845ZM217.292 313.674C217.215 313.674 217.136 313.663 217.058 313.641C214.318 312.878 206.988 310.216 201.816 306.861C201.722 306.801 201.641 306.724 201.578 306.634C201.515 306.543 201.47 306.442 201.448 306.335C201.425 306.228 201.425 306.117 201.446 306.01C201.468 305.903 201.511 305.801 201.573 305.71C201.635 305.619 201.715 305.541 201.809 305.48C201.902 305.42 202.007 305.378 202.118 305.357C202.228 305.336 202.341 305.337 202.451 305.359C202.561 305.381 202.666 305.424 202.758 305.486C207.715 308.701 214.975 311.342 217.525 312.053C217.722 312.108 217.892 312.23 218.004 312.397C218.115 312.564 218.161 312.765 218.133 312.962C218.104 313.159 218.003 313.34 217.849 313.471C217.694 313.602 217.497 313.674 217.292 313.674Z" fill="#1B1B23"/>
<path d="M352.219 225.237C360 216.694 363.687 214.43 370.935 208.354C386.707 195.131 359.579 203.064 347.012 202.441" fill="white"/>
<path d="M352.218 226.063C352.054 226.063 351.894 226.017 351.757 225.93C351.62 225.844 351.511 225.72 351.444 225.575C351.377 225.43 351.354 225.269 351.379 225.112C351.404 224.954 351.474 224.807 351.583 224.688C357.543 218.144 361.139 215.241 365.692 211.566C367.146 210.392 368.65 209.177 370.38 207.727C375.16 203.72 374.938 202.488 374.845 202.282C374.753 202.078 374.17 201.414 370.517 201.473C367.832 201.514 364.363 201.909 360.691 202.327C355.819 202.882 350.781 203.456 346.968 203.266C346.743 203.255 346.532 203.157 346.381 202.994C346.23 202.832 346.152 202.617 346.163 202.399C346.175 202.18 346.276 201.975 346.443 201.828C346.61 201.681 346.829 201.605 347.054 201.616C350.725 201.795 355.691 201.232 360.494 200.685C369.626 199.646 375.28 199.135 376.4 201.618C377.145 203.268 375.676 205.469 371.489 208.98C369.747 210.44 368.237 211.659 366.776 212.838C362.279 216.468 358.728 219.335 352.854 225.785C352.774 225.872 352.676 225.942 352.567 225.99C352.457 226.038 352.338 226.063 352.218 226.063Z" fill="#1B1B23"/>
<path d="M377.521 213.083C379.462 213.156 389.132 213.011 394.656 211.048L377.521 213.083Z" fill="white"/>
<path d="M378.433 213.922C378.015 213.922 377.693 213.916 377.488 213.909C377.263 213.9 377.051 213.805 376.898 213.644C376.745 213.484 376.664 213.27 376.673 213.051C376.691 212.595 377.085 212.245 377.554 212.257C379.223 212.322 388.86 212.227 394.365 210.272C394.575 210.203 394.805 210.216 395.005 210.31C395.204 210.403 395.359 210.569 395.435 210.772C395.511 210.975 395.502 211.198 395.411 211.395C395.32 211.592 395.154 211.746 394.947 211.825C389.869 213.628 381.526 213.922 378.433 213.922Z" fill="#1B1B23"/>
<path d="M375.1 220.489C377.04 220.562 388.409 220.417 393.933 218.454L375.1 220.489Z" fill="white"/>
<path d="M376.028 221.328C375.582 221.328 375.253 221.323 375.067 221.316C374.955 221.312 374.846 221.287 374.744 221.241C374.643 221.196 374.552 221.132 374.476 221.052C374.4 220.972 374.341 220.879 374.303 220.777C374.264 220.675 374.246 220.567 374.251 220.459C374.26 220.24 374.358 220.033 374.523 219.884C374.688 219.735 374.907 219.656 375.132 219.664C377.607 219.756 388.526 219.496 393.641 217.679C393.852 217.609 394.081 217.622 394.282 217.716C394.482 217.809 394.637 217.975 394.713 218.178C394.789 218.381 394.781 218.605 394.689 218.802C394.598 218.999 394.43 219.154 394.224 219.232C389.106 221.05 379.347 221.328 376.028 221.328Z" fill="#1B1B23"/>
</g>
<g clip-path="url(#clip2_8_4961)">
<path d="M407.916 131.416L355.81 249.533C355.543 250.109 355.052 250.561 354.441 250.793C353.831 251.024 353.15 251.016 352.545 250.771C351.941 250.525 351.461 250.061 351.209 249.48C350.957 248.898 350.954 248.244 351.199 247.66L351.22 247.613L405.97 130.602C406.084 130.355 406.294 130.161 406.556 130.063C406.817 129.965 407.109 129.971 407.366 130.078C407.624 130.186 407.826 130.388 407.929 130.638C408.032 130.889 408.028 131.169 407.916 131.416Z" fill="#1B1B23"/>
</g>
<defs>
<clipPath id="clip0_8_4961">
<rect width="286.002" height="234" fill="white" transform="translate(225 36)"/>
</clipPath>
<clipPath id="clip1_8_4961">
<rect width="341" height="270" fill="white" transform="translate(60 49)"/>
</clipPath>
<clipPath id="clip2_8_4961">
<rect width="57" height="121" fill="white" transform="translate(351 130)"/>
</clipPath>
</defs>
</svg>
