<svg width="658" height="658" viewBox="0 0 658 658" fill="none" xmlns="http://www.w3.org/2000/svg">
<g clip-path="url(#clip0_31_2609)">
<path d="M588.038 217.148C592.23 289.016 584.681 374.934 525.704 416.054L566.069 618.764C566.289 620.25 565.304 621.647 563.831 621.936C562.308 622.235 560.831 621.243 560.532 619.719L513.883 426.06C486.427 440.218 450.673 439.667 420.48 433.205L378.565 623.744C378.269 625.213 376.873 626.192 375.392 625.969C373.857 625.738 372.801 624.306 373.032 622.77L407.824 427.299C399.663 425.023 391.682 422.144 383.947 418.685C382.648 418.097 381.993 416.629 382.424 415.269C382.894 413.786 384.475 412.966 385.956 413.436L385.97 413.44C423.379 425.279 476.56 430.856 511.374 411.497C586.07 368.561 583.352 252.577 577.666 166.999C577.567 165.514 578.641 164.21 580.116 164.023C581.656 163.827 583.063 164.918 583.258 166.459C585.368 183.321 587.018 199.803 588.038 217.148Z" fill="#1B1B23"/>
</g>
<g clip-path="url(#clip1_31_2609)">
<path d="M165.56 42.7832H277.441C280.627 42.7832 283.211 45.3464 283.211 48.5079V122.419C283.211 125.581 280.627 128.144 277.441 128.144H215.006L178.705 164.121C178.451 164.373 178.034 164.083 178.187 163.76L194.974 128.144H165.561C162.374 128.144 159.79 125.581 159.79 122.419V48.5079C159.79 45.3461 162.374 42.7832 165.561 42.7832H165.56Z" fill="white"/>
<path d="M178.481 165.002C178.764 165.002 179.045 164.891 179.263 164.675L215.332 128.927H277.44C281.057 128.927 284 126.008 284 122.419V48.5082C284 44.9195 281.057 42 277.44 42H165.56C161.943 42 159 44.9195 159 48.5082V122.419C159 126.008 161.943 128.927 165.56 128.927H193.732L177.471 163.428C177.238 163.922 177.39 164.485 177.839 164.797C178.036 164.934 178.259 165.002 178.481 165.002ZM277.44 43.5664C280.187 43.5664 282.421 45.7831 282.421 48.5082V122.419C282.421 125.144 280.187 127.361 277.44 127.361H215.005C214.796 127.361 214.595 127.443 214.447 127.59L180.027 161.704L195.688 128.476C195.802 128.233 195.784 127.95 195.639 127.724C195.494 127.498 195.243 127.361 194.973 127.361H165.56C162.813 127.361 160.579 125.144 160.579 122.419V48.5082C160.579 45.7831 162.813 43.5664 165.56 43.5664H277.44Z" fill="#1B1B23"/>
</g>
<g clip-path="url(#clip2_31_2609)">
<path d="M333.424 536.079C336.286 545.245 307.536 565.3 237.02 518.044C237.02 518.044 326.935 508.299 333.424 536.079Z" fill="#1B1B23"/>
<path d="M311.853 549.012C322.37 549.012 327.958 545.897 330.196 544.227C333.484 541.773 335.01 538.575 334.183 535.872C332.626 529.261 326.462 524.187 315.863 520.791C307.531 518.122 296.415 516.462 282.823 515.857C259.74 514.831 237.159 517.237 236.934 517.261C236.605 517.297 236.334 517.534 236.254 517.856C236.175 518.177 236.306 518.513 236.58 518.697C260.372 534.642 281.537 544.425 299.487 547.777C304.207 548.658 308.311 549.012 311.853 549.012L311.853 549.012ZM270.715 517.202C296.741 517.202 328.968 520.466 332.656 536.257C332.661 536.276 332.666 536.295 332.671 536.313C333.312 538.365 332.003 540.915 329.255 542.966C327.154 544.533 321.899 547.444 311.896 547.444C308.443 547.444 304.426 547.098 299.776 546.23C282.5 543.004 262.161 533.715 239.298 518.614C244.156 518.174 256.514 517.201 270.716 517.201L270.715 517.202Z" fill="#1B1B23"/>
<path d="M235.928 506.074C235.812 511.126 235.274 528.808 235.441 535.564C235.802 551.727 236.793 570.765 237.798 582.806C237.81 582.868 239.933 585.806 244.415 589.047C244.567 589.144 244.712 589.252 244.849 589.37C249.988 592.966 256.722 596.683 262.498 596.708C266.651 596.721 278.604 580.063 279.396 578.248C279.399 578.133 279.429 578.025 279.432 577.909C280.387 569.4 281.586 561.163 282.942 553.519C283.334 551.362 283.712 549.259 284.109 547.189C284.885 543.221 290.94 502.64 292.438 498.058L235.928 506.074Z" fill="white"/>
<path d="M235.57 541.203C235.638 544.229 235.722 547.161 235.82 550C235.853 550.956 235.888 551.9 235.924 552.837C236.362 563.973 237.024 573.745 237.779 582.771C237.79 582.834 239.914 585.771 244.394 589.013C244.547 589.108 244.691 589.217 244.83 589.334L262.479 596.673H262.484C266.643 596.673 278.583 580.027 279.376 578.215C279.379 578.098 280.016 577.692 280.019 577.578C280.547 572.868 281.579 565.092 282.481 558.51C282.612 557.554 282.74 556.623 282.862 555.733C283.429 551.663 283.897 548.392 284.088 547.156L235.57 541.203H235.57Z" fill="#BFB6FF"/>
<path d="M235.82 550C235.853 550.955 235.888 551.9 235.923 552.836L282.48 558.509C282.611 557.554 282.739 556.623 282.861 555.733L235.82 550Z" fill="white"/>
<path d="M262.534 597.494C263.329 597.494 265.673 597.357 272.816 588.662C276.397 584.303 279.663 579.603 280.118 578.562C280.158 578.469 280.181 578.369 280.183 578.267C280.184 578.242 280.189 578.217 280.193 578.192C280.203 578.118 280.213 578.044 280.217 577.968C281.147 569.688 282.324 561.508 283.717 553.656L283.898 552.655C284.232 550.817 284.547 549.08 284.882 547.337C285.122 546.111 285.862 541.413 286.8 535.465C288.936 521.908 292.166 501.422 293.186 498.301C293.27 498.043 293.215 497.76 293.041 497.552C292.866 497.343 292.596 497.24 292.327 497.278L235.818 505.294C235.436 505.349 235.15 505.671 235.141 506.055C235.12 506.954 235.086 508.254 235.045 509.82C234.86 516.876 234.516 530.01 234.654 535.583C235.001 551.111 235.948 570.115 237.013 582.87C237.015 582.9 237.019 582.93 237.025 582.959C237.124 583.457 239.74 586.636 243.953 589.684C243.966 589.693 243.979 589.701 243.991 589.71C244.111 589.786 244.227 589.872 244.335 589.966C244.355 589.982 244.376 589.999 244.397 590.014C249.253 593.412 256.333 597.467 262.495 597.494H262.534ZM278.625 578.035C278.121 579.008 275.207 583.272 271.599 587.664C265.308 595.321 263.049 595.921 262.503 595.921H262.5C256.76 595.896 250.001 592.011 245.331 588.746C245.181 588.62 245.022 588.502 244.859 588.396C241.009 585.609 238.998 583.101 238.564 582.528C237.51 569.803 236.572 550.961 236.228 535.546C236.091 530.011 236.434 516.903 236.619 509.861C236.651 508.646 236.679 507.591 236.699 506.759L291.373 499.003C290.086 504.506 287.206 522.773 285.244 535.22C284.309 541.152 283.57 545.838 283.336 547.038C282.999 548.792 282.683 550.532 282.349 552.375L282.167 553.378C280.767 561.276 279.583 569.498 278.649 577.821C278.646 577.844 278.645 577.868 278.644 577.891C278.643 577.916 278.638 577.94 278.634 577.965C278.631 577.988 278.628 578.012 278.625 578.035L278.625 578.035Z" fill="#1B1B23"/>
<path d="M281.369 567.571C281.369 567.571 284.046 602.038 285.32 625.213L196.593 624.819C196.593 624.819 180.163 623.234 174.787 615.619C174.787 615.619 187.631 587.792 226.903 579.271C245.107 575.321 257.726 585.885 269.756 572.737C275.635 566.312 281.369 567.571 281.369 567.571H281.369Z" fill="white"/>
<path d="M285.32 626C285.536 626 285.742 625.912 285.891 625.755C286.04 625.598 286.118 625.387 286.106 625.17C284.846 602.251 282.181 567.854 282.154 567.51C282.127 567.164 281.877 566.877 281.538 566.802C281.285 566.747 275.29 565.524 269.176 572.206C262.104 579.936 255.009 579.18 246.025 578.222C240.368 577.619 233.957 576.936 226.736 578.502C206.265 582.944 193.048 592.688 185.565 600.081C177.437 608.11 174.206 615 174.072 615.289C173.954 615.544 173.982 615.842 174.144 616.072C179.665 623.892 195.832 625.536 196.517 625.602C196.541 625.605 196.565 625.606 196.59 625.606L285.317 626H285.32ZM280.633 568.268C280.999 573.023 283.308 603.275 284.488 624.423L196.635 624.033C195.819 623.947 180.964 622.295 175.707 615.537C176.53 613.937 179.886 607.889 186.726 601.146C194.056 593.92 207.005 584.393 227.07 580.04C234.042 578.527 240.32 579.196 245.859 579.786C254.911 580.752 262.728 581.584 270.338 573.268C274.824 568.364 279.116 568.16 280.633 568.268V568.268Z" fill="#1B1B23"/>
<path d="M203.546 619.659C214.654 619.659 224.223 616.07 230.222 613.821C232.67 612.903 234.603 612.177 235.668 612.063C237.603 611.855 239.308 612.293 241.114 612.758C243.427 613.351 245.818 613.966 248.94 613.368C252.786 612.634 255.497 610.589 258.119 608.612C260.733 606.641 263.202 604.779 266.68 604.243C276.866 602.676 285.713 611.044 285.802 611.129C286.115 611.43 286.613 611.421 286.915 611.108C287.216 610.795 287.207 610.297 286.894 609.996C286.511 609.628 277.408 600.998 266.44 602.688C262.57 603.284 259.825 605.354 257.17 607.356C254.578 609.311 252.13 611.158 248.644 611.823C245.868 612.353 243.65 611.784 241.506 611.234C239.643 610.755 237.718 610.26 235.5 610.499C234.237 610.634 232.321 611.353 229.669 612.347C219.041 616.332 196.927 624.625 175.357 608.571C175.009 608.311 174.516 608.383 174.256 608.732C173.996 609.08 174.068 609.573 174.417 609.833C184.413 617.273 194.491 619.659 203.546 619.659H203.546Z" fill="#1B1B23"/>
<path d="M277.403 598.333C278.961 598.333 280.385 598.116 281.699 597.915C282.418 597.805 283.097 597.701 283.74 597.644C284.173 597.605 284.492 597.223 284.454 596.79C284.415 596.357 284.033 596.04 283.6 596.076C282.908 596.138 282.205 596.245 281.461 596.359C277.77 596.924 273.586 597.564 267.893 593.13C267.158 592.558 266.429 591.903 265.657 591.21C262.971 588.798 259.927 586.064 255.28 585.693C254.846 585.655 254.467 585.982 254.432 586.415C254.398 586.848 254.721 587.227 255.154 587.262C259.271 587.59 261.982 590.026 264.605 592.381C265.397 593.093 266.146 593.765 266.925 594.372C271.005 597.548 274.445 598.333 277.403 598.333L277.403 598.333Z" fill="#1B1B23"/>
<path d="M268.715 620.822C263.972 620.72 260.173 618.517 260.23 615.903C260.286 613.288 264.177 611.252 268.92 611.355C273.663 611.457 277.462 613.659 277.405 616.274C277.349 618.888 273.458 620.925 268.715 620.822Z" fill="#62B2FF"/>
<path d="M236.7 597.381C236.892 597.381 237.087 597.345 237.277 597.27C238.084 596.951 238.482 596.041 238.164 595.233C237.973 594.746 233.312 583.248 219.071 577.948C218.256 577.646 217.35 578.06 217.046 578.874C216.743 579.688 217.157 580.594 217.972 580.898C230.846 585.688 235.192 596.281 235.234 596.388C235.48 597.004 236.073 597.381 236.7 597.381Z" fill="#62B2FF"/>
<path d="M226.565 600.591C226.787 600.591 227.013 600.544 227.227 600.444C228.015 600.078 228.358 599.145 227.993 598.358C227.757 597.849 222.064 585.855 208.104 581.851C207.268 581.613 206.396 582.095 206.157 582.93C205.917 583.765 206.4 584.637 207.236 584.877C219.774 588.472 225.084 599.57 225.136 599.682C225.404 600.254 225.972 600.591 226.565 600.591V600.591Z" fill="#62B2FF"/>
<path d="M215.81 604.553C216.055 604.553 216.305 604.496 216.538 604.374C217.307 603.972 217.606 603.023 217.204 602.253C216.963 601.791 211.162 590.905 199.343 588.753C198.487 588.596 197.668 589.164 197.512 590.019C197.356 590.874 197.923 591.693 198.779 591.849C209.055 593.721 214.361 603.611 214.413 603.711C214.695 604.247 215.243 604.553 215.81 604.553Z" fill="#62B2FF"/>
<path d="M333.617 326.337C259.612 338.133 235.262 390.555 235.589 519.654C235.589 519.654 249.383 525.095 277.583 523.129C314.937 520.524 330.077 526.526 333.303 535.505C333.303 535.505 317.364 481.073 331.639 428.784C333.748 421.058 346.962 398.378 357.636 382.838C377.605 353.765 404.484 323.192 404.484 323.192C404.484 323.192 361.932 323.046 333.617 326.337H333.617Z" fill="white"/>
<path d="M333.302 536.292C333.383 536.292 333.465 536.279 333.546 536.253C333.951 536.121 334.178 535.692 334.058 535.284C334.018 535.148 330.062 521.486 327.896 501.633C325.9 483.33 325.06 455.871 332.398 428.992C334.479 421.372 347.781 398.575 358.284 383.284C377.997 354.584 404.807 324.017 405.076 323.712C405.279 323.48 405.329 323.151 405.202 322.869C405.075 322.588 404.796 322.407 404.487 322.406C404.061 322.407 361.563 322.297 333.526 325.556C333.515 325.557 333.504 325.558 333.493 325.56C314.508 328.586 299.167 334.197 286.592 342.713C273.729 351.424 263.73 363.181 256.023 378.656C248.412 393.94 243.034 412.871 239.582 436.53C236.281 459.152 234.717 486.343 234.801 519.656C234.802 519.979 235 520.268 235.3 520.386C235.87 520.611 249.582 525.87 277.637 523.914C318.489 521.063 330.053 528.789 332.561 535.771C332.676 536.091 332.979 536.292 333.302 536.292L333.302 536.292ZM402.755 323.98C397.42 330.138 374.436 356.989 356.986 382.393C346.39 397.819 333.063 420.581 330.879 428.578C323.473 455.707 324.32 483.392 326.335 501.839C327.745 514.752 329.91 525.07 331.277 530.791C324.117 523.192 306.093 520.353 277.528 522.344C252.781 524.071 239.079 520.009 236.375 519.099C236.241 451.975 242.74 408.862 257.433 379.358C272.223 349.659 296.463 333.059 333.724 327.117C358.453 324.245 394.497 323.998 402.755 323.981V323.98Z" fill="#1B1B23"/>
<path d="M399.992 172.245C399.261 173.637 400.256 293.056 401.146 298.623C414.907 337.522 465.389 335.391 468.842 265.422C473.331 174.464 420.044 134.083 399.992 172.245Z" fill="#D9FF80"/>
<path d="M304.889 257.811C296.664 271.491 286.714 286.044 282.382 283.002C278.288 280.127 291.393 253.128 291.393 253.128L304.889 257.811Z" fill="white"/>
<path d="M283.69 284.196C283.948 284.196 284.215 284.168 284.491 284.109C288.736 283.211 295.629 274.741 305.563 258.216C305.685 258.013 305.71 257.765 305.629 257.543C305.548 257.32 305.371 257.145 305.147 257.067L291.651 252.384C291.274 252.254 290.859 252.425 290.685 252.784C290.652 252.852 287.363 259.644 284.619 266.702C279.463 279.961 280.615 282.722 281.93 283.645C282.452 284.012 283.042 284.196 283.69 284.196V284.196ZM303.713 258.236C292.146 277.354 286.701 282.033 284.165 282.57C283.625 282.684 283.203 282.617 282.835 282.358C282.492 282.117 281.037 280.259 286.083 267.279C288.322 261.523 290.927 255.94 291.8 254.102L303.714 258.236H303.713Z" fill="#1B1B23"/>
<path d="M269.483 261.733C272.416 257.061 279.444 247.987 294.87 246.772C308.762 245.678 400.776 255.815 400.776 255.815L399.389 246.684C399.389 246.684 470.762 239.377 472.941 238.435C473.137 239.178 475.868 255.001 472.764 269.934C467.352 295.975 447.491 324.855 377.149 311.862C360.923 308.859 325.59 294.765 307.836 281.95C306.733 281.153 306.753 278.719 307.025 276.087C298.937 284.743 290.085 291.129 288.501 288.523C287.056 286.146 289.749 277.47 292.423 270.238C290.416 269.983 288.429 272.183 287.55 273.241C273.805 289.787 269.688 284.66 275.732 273.194C269.293 283.807 265.303 287.369 264.548 281.302C263.687 274.385 267.094 265.541 269.483 261.734V261.733Z" fill="white"/>
<path d="M408.871 315.85C425.568 315.85 439.24 312.63 449.716 306.207C462.121 298.6 470.135 286.45 473.534 270.095C476.791 254.423 473.738 238.372 473.702 238.235C473.644 238.013 473.491 237.828 473.285 237.728C473.079 237.627 472.839 237.622 472.629 237.713C470.652 238.415 427.696 242.996 399.309 245.902C399.094 245.924 398.898 246.032 398.766 246.203C398.635 246.372 398.578 246.59 398.611 246.802L399.844 254.921C389.24 253.76 307.989 244.949 294.808 245.987C283.541 246.875 274.553 252.175 268.816 261.315C266.2 265.484 262.903 274.471 263.766 281.398C263.865 282.197 264.168 284.628 265.898 284.998C267.093 285.252 268.81 284.684 272.396 279.733C271.998 281.914 272.327 283.474 273.414 284.199C275.926 285.877 281.161 282.163 288.155 273.744C289.445 272.19 290.466 271.469 291.241 271.176C285.942 285.828 287.355 288.154 287.828 288.932C288.061 289.316 288.525 289.792 289.41 289.883C292.754 290.225 300.093 284.335 306.084 278.209C306.032 280.138 306.29 281.805 307.374 282.587C324.594 295.017 360.054 309.498 377.005 312.635C388.61 314.779 399.243 315.849 408.87 315.849L408.871 315.85ZM472.308 239.372C472.846 242.665 474.76 256.462 471.993 269.775C468.685 285.689 460.913 297.495 448.893 304.866C432.719 314.783 408.629 316.877 377.292 311.089C360.498 307.981 325.361 293.631 308.297 281.313C307.667 280.858 307.502 279.127 307.807 276.168C307.842 275.832 307.658 275.511 307.35 275.371C307.042 275.231 306.679 275.303 306.449 275.55C298.71 283.833 291.791 288.555 289.572 288.319C289.279 288.289 289.208 288.172 289.174 288.116C288.702 287.34 288.147 284.072 293.161 270.512C293.244 270.287 293.22 270.037 293.096 269.831C292.971 269.626 292.76 269.489 292.522 269.459C290.81 269.239 288.933 270.345 286.944 272.74C279.081 282.204 275.228 283.519 274.289 282.892C273.494 282.361 273.372 279.359 276.428 273.561C276.627 273.185 276.49 272.719 276.12 272.51C275.749 272.3 275.279 272.423 275.059 272.787C268.799 283.104 266.717 283.566 266.228 283.46C265.921 283.395 265.523 282.768 265.328 281.205C264.514 274.661 267.657 266.124 270.15 262.152C275.689 253.327 284.027 248.416 294.932 247.557C308.592 246.482 399.77 256.497 400.689 256.598C400.932 256.626 401.174 256.537 401.344 256.361C401.513 256.185 401.591 255.94 401.554 255.698L400.291 247.384C410.034 246.385 464.238 240.799 472.308 239.373V239.372Z" fill="#1B1B23"/>
<path d="M289.376 280.249C289.738 280.249 290.064 279.998 290.144 279.63C290.441 278.272 291.064 276.579 291.723 274.787C293.326 270.431 294.984 265.926 293.06 263.602C292.286 262.668 290.933 262.281 289.148 262.484C284.469 263.015 277.553 267.45 273.952 274.622C273.757 275.011 273.914 275.484 274.302 275.679C274.691 275.873 275.164 275.717 275.359 275.328C278.92 268.236 285.67 264.462 289.326 264.047C290.522 263.91 291.441 264.115 291.846 264.605C293.194 266.232 291.559 270.675 290.245 274.244C289.566 276.088 288.925 277.831 288.605 279.294C288.512 279.719 288.782 280.138 289.207 280.231C289.263 280.243 289.32 280.249 289.375 280.249L289.376 280.249Z" fill="#1B1B23"/>
<path d="M457.501 450.551C478.947 457.689 447.382 500.037 386.877 512.625C386.878 512.625 412.407 439.526 457.501 450.551Z" fill="#1B1B23"/>
<path d="M386.877 513.412C386.932 513.412 386.986 513.406 387.038 513.395C408.222 508.988 428.194 500.316 443.275 488.976C456.389 479.116 464.506 468.282 464.988 459.994C465.275 455.072 462.704 451.454 457.75 449.805C457.73 449.798 457.709 449.792 457.689 449.787C447.225 447.229 436.942 448.94 427.125 454.872C419.319 459.589 411.795 466.974 404.762 476.824C392.868 493.482 386.456 511.452 386.139 512.352C386.098 512.462 386.082 512.582 386.094 512.706C386.136 513.107 386.474 513.412 386.877 513.412V513.412ZM457.283 451.308C461.54 452.735 463.661 455.707 463.416 459.903C462.967 467.617 454.887 478.275 442.328 487.718C427.759 498.673 408.551 507.112 388.108 511.559C389.817 507.039 395.922 491.912 406.043 477.737C421.749 455.741 438.987 446.849 457.283 451.308H457.283Z" fill="#1B1B23"/>
<path d="M361.499 507.523C365.286 510.869 377.209 522.732 382.484 526.962C395.075 537.111 410.27 548.635 420.124 555.634C420.179 555.665 423.796 555.938 429.164 554.606C429.337 554.552 429.513 554.511 429.691 554.482C435.756 552.877 442.94 550.132 446.686 545.736C449.374 542.573 444.348 522.699 443.471 520.924C443.386 520.847 443.322 520.755 443.235 520.678C437.346 514.46 431.82 508.23 426.85 502.265C425.454 500.574 424.089 498.929 422.763 497.291C420.23 494.138 403.107 475.753 400.57 471.653L361.499 507.522V507.523Z" fill="white"/>
<path d="M386.878 530.5C399.468 540.65 410.23 548.628 420.085 555.627C420.14 555.658 423.757 555.931 429.125 554.599C429.297 554.545 429.474 554.504 429.652 554.476L446.647 545.729C449.335 542.566 444.309 522.692 443.432 520.917C443.347 520.84 443.447 520.092 443.36 520.015C437.47 513.797 424.972 499.857 422.725 497.284L386.878 530.5L386.878 530.5Z" fill="#BFB6FF"/>
<path d="M393.72 536.031C394.469 536.608 395.221 537.187 395.97 537.764L430.363 505.84C429.707 505.132 429.07 504.446 428.459 503.788L393.72 536.03V536.031Z" fill="white"/>
<path d="M421.272 556.463C422.992 556.463 425.962 556.211 429.354 555.369C429.369 555.365 429.383 555.361 429.398 555.357C429.535 555.314 429.674 555.282 429.814 555.26C429.841 555.255 429.867 555.25 429.893 555.243C435.623 553.726 443.291 550.934 447.285 546.246C447.775 545.67 449.265 543.917 447.19 532.667C446.167 527.12 444.68 521.594 444.177 520.576C444.133 520.486 444.072 520.406 443.998 520.339C443.978 520.321 443.962 520.3 443.944 520.28C443.894 520.224 443.844 520.169 443.788 520.118C438.051 514.06 432.556 507.884 427.456 501.762L426.754 500.913C425.582 499.495 424.475 498.155 423.375 496.797C422.505 495.714 420.024 492.956 416.884 489.463C410.974 482.891 402.88 473.891 401.239 471.24C401.116 471.04 400.91 470.907 400.677 470.874C400.444 470.84 400.21 470.916 400.037 471.074L360.966 506.943C360.802 507.094 360.71 507.308 360.712 507.53C360.714 507.753 360.81 507.964 360.977 508.112C362.355 509.33 364.82 511.685 367.674 514.413C372.553 519.074 378.624 524.876 381.992 527.576C394.094 537.332 409.236 548.866 419.668 556.276C419.692 556.292 419.716 556.308 419.741 556.322C419.887 556.403 420.43 556.463 421.272 556.463V556.463ZM428.954 553.847C424.338 554.99 421.124 554.908 420.407 554.869C410.004 547.472 394.993 536.035 382.979 526.349C379.663 523.691 373.619 517.915 368.762 513.275C366.297 510.919 364.121 508.839 362.669 507.516L400.431 472.849C402.867 476.229 409.939 484.094 415.713 490.514C418.714 493.851 421.305 496.732 422.15 497.784C423.256 499.151 424.365 500.493 425.54 501.914L426.243 502.766C431.373 508.923 436.897 515.131 442.664 521.219C442.68 521.235 442.696 521.251 442.713 521.267C442.733 521.285 442.75 521.306 442.768 521.326C442.782 521.342 442.797 521.358 442.812 521.374C443.23 522.385 444.611 527.362 445.642 532.952C447.441 542.71 446.437 544.814 446.086 545.227C442.365 549.594 435.035 552.251 429.527 553.712C429.334 553.745 429.142 553.79 428.954 553.847L428.954 553.847Z" fill="#1B1B23"/>
<path d="M435.883 511.824C435.883 511.824 463.522 532.608 481.76 546.98L422.79 613.239C422.79 613.239 410.735 624.508 401.463 623.503C401.463 623.503 389.072 595.472 408.648 560.396C417.721 544.136 433.995 541.662 432.083 523.947C431.147 515.291 435.884 511.824 435.884 511.824H435.883Z" fill="white"/>
<path d="M402.667 624.354C411.941 624.354 422.847 614.263 423.327 613.814C423.345 613.798 423.362 613.78 423.378 613.762L482.348 547.503C482.492 547.341 482.563 547.127 482.544 546.911C482.525 546.695 482.417 546.496 482.247 546.362C464.212 532.149 436.633 511.403 436.357 511.195C436.079 510.987 435.698 510.984 435.418 511.189C435.21 511.342 430.327 515.028 431.3 524.032C432.424 534.445 427.165 539.264 420.506 545.366C416.313 549.208 411.559 553.564 407.96 560.013C397.756 578.297 396.329 594.65 396.929 605.148C397.581 616.552 400.615 623.53 400.744 623.822C400.857 624.079 401.099 624.256 401.379 624.286C401.804 624.332 402.234 624.354 402.667 624.354L402.667 624.354ZM422.227 612.688C421.623 613.244 410.559 623.285 402.011 622.761C401.354 621.085 399.034 614.57 398.496 604.983C397.92 594.709 399.333 578.701 409.336 560.779C412.811 554.552 417.464 550.288 421.57 546.526C428.28 540.378 434.075 535.068 432.865 523.863C432.152 517.257 434.836 513.903 435.921 512.837C439.734 515.709 463.965 533.98 480.616 547.081L422.227 612.688L422.227 612.688Z" fill="#1B1B23"/>
<path d="M396.712 619.973C396.766 619.973 396.82 619.967 396.875 619.956C424.029 614.225 432.636 591.619 436.772 580.755C437.701 578.313 438.436 576.384 439.055 575.51C440.178 573.922 441.635 572.933 443.177 571.886C445.152 570.545 447.193 569.159 448.81 566.423C450.803 563.054 451.061 559.669 451.31 556.396C451.559 553.133 451.794 550.051 453.693 547.089C459.252 538.413 471.384 537.317 471.506 537.307C471.939 537.271 472.261 536.891 472.226 536.458C472.19 536.026 471.81 535.707 471.378 535.739C470.849 535.782 458.352 536.899 452.367 546.24C450.255 549.536 449.994 552.963 449.741 556.277C449.494 559.513 449.26 562.569 447.455 565.623C446.017 568.055 444.123 569.341 442.292 570.585C440.702 571.665 439.057 572.781 437.769 574.601C437.035 575.639 436.307 577.55 435.3 580.196C431.263 590.799 422.863 612.863 396.55 618.416C396.124 618.506 395.852 618.924 395.942 619.349C396.02 619.719 396.347 619.974 396.711 619.974L396.712 619.973Z" fill="#1B1B23"/>
<path d="M432.779 544.72C432.976 544.72 433.173 544.647 433.326 544.499C436.296 541.63 439.918 541.207 443.421 540.799C444.478 540.675 445.477 540.559 446.446 540.377C454.205 538.913 456.794 534.882 458.875 531.643C459.268 531.031 459.639 530.454 460.021 529.934C460.278 529.584 460.203 529.091 459.853 528.834C459.502 528.577 459.01 528.652 458.752 529.002C458.341 529.562 457.957 530.16 457.55 530.793C455.533 533.934 453.247 537.493 446.154 538.83C445.24 539.002 444.267 539.116 443.238 539.236C439.651 539.655 435.585 540.129 432.232 543.368C431.919 543.67 431.911 544.168 432.213 544.481C432.367 544.64 432.573 544.721 432.779 544.721L432.779 544.72Z" fill="#1B1B23"/>
<path d="M458.181 559.635C456.256 557.864 457.301 553.6 460.514 550.112C463.727 546.624 467.893 545.233 469.817 547.004C471.742 548.775 470.698 553.039 467.485 556.527C464.271 560.015 460.106 561.407 458.181 559.635Z" fill="#62B2FF"/>
<path d="M403.22 568.353C403.471 568.353 403.726 568.293 403.962 568.166C416.071 561.683 426.896 565.429 427.004 565.468C427.821 565.76 428.723 565.336 429.017 564.52C429.312 563.704 428.891 562.804 428.075 562.508C427.583 562.329 415.87 558.219 402.476 565.392C401.709 565.802 401.421 566.756 401.831 567.522C402.115 568.052 402.659 568.353 403.221 568.353H403.22Z" fill="#62B2FF"/>
<path d="M399.002 579.095C399.292 579.095 399.586 579.014 399.849 578.847C410.838 571.824 422.68 575.182 422.798 575.216C423.632 575.462 424.507 574.985 424.753 574.153C424.999 573.32 424.526 572.446 423.693 572.199C423.156 572.039 410.389 568.376 398.152 576.195C397.42 576.663 397.206 577.636 397.674 578.369C397.974 578.838 398.483 579.095 399.002 579.095Z" fill="#62B2FF"/>
<path d="M396.834 589.6C397.175 589.6 397.519 589.489 397.808 589.261C406.009 582.795 416.94 585.357 417.05 585.384C417.894 585.589 418.746 585.073 418.952 584.23C419.159 583.387 418.645 582.536 417.802 582.328C417.295 582.203 405.289 579.354 395.857 586.791C395.175 587.329 395.058 588.319 395.597 589.001C395.907 589.395 396.368 589.6 396.834 589.6L396.834 589.6Z" fill="#62B2FF"/>
<path d="M414.482 94.883C460.557 126.653 463.182 107.064 492.535 109.338C520.658 111.515 553.452 132.805 544.06 169.184C532.263 214.877 538.216 213.156 553.759 231.881C577.246 260.177 538.742 304.927 507.543 277.526C452.503 229.184 389.369 94.5681 389.369 94.5681C389.369 94.5681 410.969 92.7275 414.482 94.883H414.482Z" fill="#1B1B23"/>
<path d="M494.793 329.388C531.927 332.329 555.72 306.996 544.06 298.688C532.873 293.137 496.841 320.884 494.793 329.388Z" fill="#1B1B23"/>
<path d="M515.698 300.644C515.698 300.644 557.627 341.019 532.128 386.923C506.056 433.858 439.156 429.147 398.369 422.627C398.369 422.627 424.041 434.335 457.926 450.717C457.926 450.717 432.89 453.744 414.871 471.653C401.525 484.918 395.868 504.06 375.165 520.587C352.583 500.872 256.475 411.183 303.083 351.923C326.296 322.41 389.353 325.977 426.177 329.086C450.283 315.091 462.58 315.447 462.58 315.447L515.698 300.644H515.698Z" fill="white"/>
<path d="M375.165 521.374C375.339 521.374 375.512 521.317 375.656 521.202C388.021 511.331 395.185 500.346 401.506 490.654C405.898 483.919 410.046 477.558 415.426 472.211C433.049 454.696 457.773 451.529 458.021 451.498C458.368 451.456 458.645 451.191 458.703 450.847C458.76 450.502 458.584 450.161 458.269 450.009C433.493 438.031 412.925 428.468 403.785 424.251C430.038 428.072 452.037 428.51 470.887 425.599C500.398 421.041 521.234 408.157 532.817 387.305C538.703 376.709 541.492 365.52 541.105 354.05C540.796 344.885 538.47 335.528 534.19 326.24C526.917 310.456 516.35 300.179 516.244 300.077C516.043 299.884 515.755 299.811 515.486 299.886L462.368 314.69C461.949 314.806 461.704 315.24 461.821 315.659C461.938 316.077 462.372 316.322 462.791 316.205L515.467 301.525C517.263 303.347 526.339 312.941 532.781 326.945C539.346 341.214 544.441 363.135 531.44 386.542C520.105 406.946 499.651 419.563 470.646 424.043C450.649 427.132 427.047 426.414 398.493 421.85C398.105 421.785 397.729 422.023 397.615 422.399C397.501 422.776 397.684 423.179 398.042 423.343C398.293 423.457 422.947 434.712 455.338 450.341C452.73 450.83 448.276 451.833 442.894 453.727C435.052 456.487 423.728 461.741 414.315 471.096C408.817 476.56 404.625 482.989 400.186 489.795C393.718 499.714 387.031 509.966 375.186 519.56C366.427 511.879 345.216 492.396 326.465 468.3C326.198 467.956 325.703 467.895 325.36 468.162C325.017 468.429 324.955 468.923 325.222 469.266C344.421 493.937 366.182 513.79 374.647 521.18C374.795 521.309 374.98 521.374 375.165 521.374H375.165Z" fill="#1B1B23"/>
<path d="M422.406 429.702C423.255 429.702 423.733 429.66 423.801 429.654C424.234 429.613 424.551 429.229 424.51 428.796C424.469 428.364 424.085 428.047 423.653 428.087C423.592 428.093 417.476 428.61 407.806 425.495C398.872 422.615 384.992 415.957 369.607 400.587C369.299 400.28 368.801 400.281 368.493 400.587C368.186 400.895 368.186 401.393 368.493 401.7C384.145 417.336 398.306 424.103 407.429 427.026C414.756 429.373 420.031 429.701 422.405 429.701L422.406 429.702Z" fill="#1B1B23"/>
<path d="M496.64 342.099C496.825 342.099 497.012 342.023 497.16 341.868C497.475 341.537 497.498 340.976 497.21 340.614C487.981 328.99 469.985 328.143 469.224 328.112C468.799 328.094 468.44 328.478 468.425 328.968C468.41 329.458 468.744 329.869 469.17 329.886C469.35 329.893 487.282 330.743 496.069 341.81C496.221 342.002 496.43 342.099 496.64 342.099L496.64 342.099Z" fill="#1B1B23"/>
<path d="M440.84 147.81C434.108 164.992 424.974 171.278 400.098 178.207C402.839 162.251 396.057 147.827 394.968 145.125C392.744 139.603 391.014 135.764 389.544 134.215C383.023 141.997 374.188 148.163 369.787 148.093C358.99 147.919 349.569 129.18 346.722 123.456C343.986 123.428 339.497 121.286 341.5 118.456C342.412 117.115 343.274 115.667 343.403 114.018C343.819 108.556 338.278 98.961 339.097 83.1356C340.063 68.1699 348.967 55.571 366.44 50.5208C392.475 43.2421 414.197 64.4287 411.055 86.4674L412.483 99.9605C413.66 107.219 420.214 131.273 440.84 147.809L440.84 147.81Z" fill="white"/>
<path d="M400.098 178.993C400.169 178.993 400.24 178.984 400.31 178.964C426.015 171.805 434.884 165.17 441.573 148.096C441.698 147.776 441.601 147.411 441.332 147.196C432.551 140.156 425.399 131.027 420.076 120.062C415.045 109.701 413.525 101.46 413.263 99.8562L411.848 86.4815C413.355 75.6675 409.092 64.6916 400.432 57.1035C391.138 48.9602 378.671 46.2851 366.228 49.7635C349.54 54.5866 339.367 66.731 338.311 83.0851C337.796 93.0462 339.774 100.6 341.219 106.115C342.083 109.415 342.766 112.021 342.618 113.958C342.5 115.473 341.643 116.846 340.849 118.014C339.93 119.313 340.17 120.439 340.535 121.153C341.427 122.898 344.071 124.046 346.224 124.22C354.365 140.464 362.287 148.76 369.775 148.88C369.803 148.88 369.831 148.881 369.859 148.881C374.444 148.881 382.932 143.061 389.529 135.447C390.919 137.404 392.604 141.362 394.239 145.419C394.314 145.607 394.418 145.851 394.543 146.148C399.382 157.621 400.99 168.362 399.323 178.073C399.277 178.339 399.371 178.61 399.571 178.79C399.717 178.922 399.906 178.993 400.099 178.993L400.098 178.993ZM439.895 148.057C433.556 163.905 425.004 170.324 401.067 177.117C402.455 167.432 400.75 156.815 395.993 145.537C395.872 145.25 395.772 145.013 395.699 144.831C393.42 139.173 391.691 135.333 390.115 133.674C389.961 133.511 389.746 133.421 389.52 133.429C389.296 133.436 389.085 133.538 388.941 133.71C382.742 141.107 374.036 147.307 369.865 147.307C369.843 147.307 369.821 147.307 369.8 147.307C362.885 147.195 355.358 139.053 347.427 123.106C347.295 122.841 347.026 122.672 346.73 122.669C344.997 122.652 342.579 121.693 341.936 120.436C341.779 120.129 341.629 119.636 342.143 118.911C343.126 117.465 344.046 115.889 344.188 114.079C344.356 111.877 343.643 109.159 342.742 105.717C341.323 100.301 339.38 92.8839 339.882 83.1767C340.893 67.5336 350.652 55.9031 366.659 51.277C378.573 47.946 390.507 50.5005 399.394 58.2869C407.679 65.5461 411.747 76.0394 410.276 86.3569C410.266 86.4209 410.265 86.4859 410.272 86.5504L411.699 100.043C411.701 100.058 411.703 100.072 411.705 100.086C412.452 104.689 414.67 112.534 418.659 120.75C423.994 131.737 431.136 140.921 439.895 148.057Z" fill="#1B1B23"/>
<path d="M341.744 104.802C369.102 104.59 391.102 94.8828 391.102 94.8828L355.625 98.1947L341.439 99.5291L340.437 99.6246L340.446 99.6681C340.842 101.387 341.301 103.091 341.743 104.802H341.744Z" fill="#1B1B23"/>
<path d="M394.968 145.125C394.023 142.397 392.006 136.074 389.544 134.216C391.729 131.197 392.819 130.221 395.172 126.531C396.365 124.66 398.344 124.152 399.866 125.443C401.577 127.505 403.97 134.26 394.968 145.125Z" fill="#1B1B23"/>
<path d="M394.969 145.911C395.201 145.911 395.424 145.809 395.575 145.626C406.29 132.694 401.099 125.696 400.472 124.941C400.443 124.906 400.411 124.873 400.376 124.844C399.539 124.133 398.521 123.826 397.509 123.978C396.337 124.155 395.272 124.911 394.509 126.108C393.046 128.401 392.062 129.653 391.019 130.978C390.382 131.788 389.724 132.625 388.906 133.754C388.655 134.101 388.728 134.585 389.07 134.843C391.156 136.418 393.074 142.022 393.995 144.715C394.077 144.955 394.154 145.179 394.224 145.382C394.317 145.65 394.548 145.848 394.828 145.899C394.874 145.907 394.921 145.911 394.968 145.911H394.969ZM399.305 126C401.169 128.32 402.26 134.484 395.249 143.518C393.976 139.85 392.482 135.999 390.603 134.103C391.216 133.275 391.744 132.604 392.257 131.951C393.324 130.594 394.332 129.312 395.836 126.954C396.352 126.146 397.029 125.642 397.744 125.534C398.287 125.452 398.825 125.613 399.304 126H399.305Z" fill="#1B1B23"/>
<path d="M358.864 99.1191C363.48 99.0598 366.959 101.879 366.701 104.096C366.444 106.312 362.481 107.94 357.932 107.148C348.329 105.478 346.285 99.2814 358.864 99.1191H358.864Z" fill="#1B1B23"/>
<path d="M359.363 130.699C362.816 130.433 365.462 126.525 363.617 123.088L363.599 123.053C363.223 122.363 364.114 121.678 364.685 122.219C367.332 124.808 366.535 129.659 362.755 131.56C361.668 132.123 360.38 132.379 359.164 132.056C358.412 131.842 358.54 130.738 359.318 130.697L359.363 130.698V130.699Z" fill="#1B1B23"/>
<path d="M348.26 107.313C347.639 107.054 346.925 107.348 346.666 107.969V107.97L346.662 107.982C346.003 109.6 345.402 112.402 348.603 113.272C353.945 114.725 361.583 111.301 359.646 110.029C359.238 109.761 353.758 109.594 348.26 107.313Z" fill="#1B1B23"/>
<path d="M462.902 93.2337C459.774 106.263 411.738 101.231 401.557 99.2131C401.16 99.1362 401.073 99.5794 400.785 99.4976L408.234 71.1328C408.418 71.1653 409.462 71.3476 410.462 71.5273C410.465 71.5262 410.469 71.5267 410.472 71.5283C422.903 73.2325 465.83 81.0412 462.902 93.2337Z" fill="white"/>
<path d="M433.529 102.659C433.981 102.659 434.43 102.657 434.881 102.653C452.547 102.5 462.233 99.3924 463.667 93.4175C464.08 91.6967 463.716 89.9857 462.585 88.3313C459.643 84.0281 451.373 79.9931 438.007 76.3385C428.103 73.6308 417.046 71.6355 410.583 70.7493C409.774 70.6038 408.938 70.4574 408.556 70.3903L408.371 70.3578C407.967 70.2867 407.576 70.5366 407.472 70.9326L400.023 99.2974C399.915 99.7116 400.157 100.136 400.569 100.254C401.052 100.392 401.399 100.154 401.568 100.017C406.078 100.888 419.791 102.658 433.53 102.658L433.529 102.659ZM410.364 72.3077C416.779 73.1873 427.759 75.168 437.592 77.8565C450.405 81.3593 458.598 85.2885 461.285 89.2191C462.167 90.5089 462.445 91.7618 462.136 93.0498C460.927 98.0855 451.243 100.937 434.867 101.079C420.805 101.198 406.476 99.3625 401.868 98.4721L408.811 72.0326C409.233 72.1068 409.784 72.2044 410.322 72.3009C410.336 72.3035 410.35 72.3059 410.364 72.3072V72.3077Z" fill="#1B1B23"/>
<path d="M417.394 72.6505C418.352 91.264 406.136 99.449 401.849 101.31C401.452 101.233 401.104 101.155 400.815 101.073C408.278 92.5323 408.488 74.1519 408.473 71.1763C409.024 71.2728 410.341 71.5075 410.46 71.529C410.463 71.5282 410.467 71.5288 410.47 71.5301C412.604 71.8346 415.308 72.2807 417.394 72.6507V72.6505Z" fill="#1B1B23"/>
<path d="M340.449 99.6653C352.952 101.255 379.328 99.3655 391.104 94.8826C393.823 93.8459 403.863 89.6772 409.925 86.6965C409.927 86.6973 409.929 86.6957 409.929 86.6926C410.006 86.6553 410.653 86.3293 410.993 86.1623C414.149 63.9838 392.152 42.5423 365.511 50.47C364.619 50.807 359.146 52.122 352.942 56.584C339.381 66.5293 336.692 83.2611 340.449 99.6655L340.449 99.6653Z" fill="white"/>
<path d="M351.165 101.005C364.651 101.005 382.352 99.0563 391.384 95.618C394.201 94.5438 404.307 90.3352 410.272 87.4028V87.402C410.283 87.3965 410.294 87.3905 410.306 87.3844C410.362 87.3566 410.471 87.3018 410.603 87.2357C410.836 87.1193 411.141 86.9664 411.34 86.8683C411.573 86.7534 411.735 86.5308 411.771 86.2735C413.331 75.3121 408.992 64.2277 400.164 56.6228C390.686 48.4579 377.973 45.941 365.285 49.716C365.267 49.7215 365.249 49.7276 365.231 49.7344C365.135 49.7708 364.937 49.8325 364.686 49.9106C362.847 50.4829 357.963 52.0027 352.481 55.9456C345.893 60.7773 341.507 67.3581 339.437 75.5093C337.605 82.73 337.689 91.1437 339.681 99.8413C339.755 100.163 340.021 100.404 340.349 100.446C343.316 100.823 347.043 101.005 351.165 101.005L351.165 101.005ZM409.539 86.0091C403.613 88.9203 393.614 93.0837 390.823 94.1477C379.393 98.4992 353.798 100.419 341.095 98.9514C337.15 81.0489 341.623 65.8608 353.407 57.2184C358.676 53.4292 363.382 51.9644 365.154 51.4131C365.422 51.3297 365.62 51.2678 365.76 51.2167C377.915 47.6082 390.079 50.0121 399.137 57.8145C407.447 64.9728 411.588 75.3491 410.268 85.6438C410.141 85.707 410.011 85.772 409.898 85.8287C409.74 85.9079 409.616 85.97 409.586 85.985C409.57 85.9926 409.555 86.0007 409.54 86.0091H409.539Z" fill="#1B1B23"/>
<path d="M391.103 94.883C391.103 94.883 394.994 84.6315 404.63 83.6596C413.72 82.7427 417.983 96.2111 407.591 108.412C405.901 110.397 402.69 113.39 399.794 115.03L391.103 94.883Z" fill="white"/>
<path d="M340.45 99.6657C345.534 100.312 351 100.307 356.178 100.131C356.595 96.7296 355.254 91.002 352.077 87.9906C348.9 84.9793 344.409 83.7975 338.947 85.0116C338.89 89.8255 339.376 94.9771 340.45 99.6657Z" fill="#1B1B23"/>
<path d="M397.902 104.923C398.311 104.923 398.657 104.606 398.686 104.192C399.413 93.7662 406.349 91.6717 406.644 91.5876C407.061 91.4688 407.305 91.035 407.187 90.6177C407.07 90.2004 406.638 89.9565 406.221 90.0722C405.882 90.1658 397.923 92.5029 397.116 104.082C397.085 104.515 397.412 104.892 397.846 104.922C397.865 104.923 397.883 104.923 397.902 104.923H397.902Z" fill="#1B1B23"/>
<path d="M407.589 109.199C407.812 109.199 408.033 109.106 408.189 108.922C415.048 100.869 415.56 92.3911 413.026 87.5612C411.271 84.2181 408.182 82.5092 404.549 82.8774C394.544 83.8866 390.531 94.1674 390.365 94.6043C390.211 95.0108 390.415 95.4651 390.822 95.619C391.228 95.7727 391.682 95.569 391.837 95.1632C391.874 95.0654 395.682 85.3534 404.707 84.4429C407.667 84.1441 410.191 85.5473 411.631 88.2924C413.92 92.6536 413.373 100.409 406.99 107.903C406.708 108.234 406.748 108.73 407.079 109.012C407.227 109.138 407.409 109.2 407.589 109.2L407.589 109.199Z" fill="#1B1B23"/>
<path d="M399.857 171.781C399.863 171.718 399.911 171.668 399.973 171.659C414.149 169.654 420.501 156.675 420.563 156.544C420.581 156.507 420.615 156.479 420.655 156.47C420.695 156.46 420.737 156.47 420.77 156.495L496.954 216.078C496.977 216.096 496.993 216.12 497.001 216.147C502.397 234.775 512.097 261.297 527.664 281.861C536.973 294.157 544.061 298.529 544.132 298.572C544.193 298.609 544.215 298.688 544.182 298.752C544.148 298.816 544.071 298.842 544.005 298.813C538.526 296.344 532.026 301.091 523.031 307.66C510.986 316.457 494.49 328.505 470.788 329.313C465.253 329.502 460.131 329.589 455.374 329.589C423.766 329.589 408.412 325.774 396.792 322.887C392.944 321.931 389.62 321.106 386.251 320.556C386.18 320.545 386.13 320.48 386.137 320.408C389.199 289.554 399.75 172.956 399.857 171.781L399.857 171.781Z" fill="#BFB6FF"/>
<path d="M536.509 208.161C550.07 214.528 523.721 243.879 481.604 255.933C481.603 255.933 521.237 201.243 536.509 208.161Z" fill="#1B1B23"/>
<path d="M487.854 264.345C488.083 264.345 488.306 264.245 488.458 264.062C493.908 257.545 499.488 251.485 512.628 243.32C538.121 227.479 541.232 217.576 540.818 213.083C540.569 210.38 538.97 208.261 536.431 207.27C532.882 205.884 528.215 207.086 522.561 210.843C515.086 215.811 506.306 225.11 499.076 235.719C491.611 246.674 487.234 256.813 487.067 263.538C487.059 263.873 487.263 264.176 487.577 264.294C487.667 264.328 487.761 264.345 487.854 264.345ZM536.145 208.003L535.858 208.735C537.821 209.502 539.058 211.139 539.25 213.227C539.557 216.554 537.496 226.015 511.796 241.984C499.758 249.464 493.966 255.209 488.88 261.128C489.897 254.803 494.053 245.886 500.377 236.605C507.499 226.155 516.118 217.014 523.433 212.154C528.561 208.745 532.857 207.564 535.858 208.735L536.144 208.003H536.145Z" fill="#80F5BD"/>
<path d="M325.245 261.697C347.246 256.763 411.46 270.303 437.961 274.556C437.961 274.556 415.533 185.358 425.471 160.031C441.031 120.375 502.062 170.579 508.86 257.734C508.86 257.733 508.862 257.733 508.862 257.733C508.923 261.132 510.663 270.651 507.582 288.946C503.204 314.953 476.359 352.586 419.474 332.349C397.493 324.529 334.348 297.161 329.116 291.62C327.227 298.245 321.732 299.599 319.792 292.272C317.145 303.235 310.882 297.199 310.446 291.086C292.675 321.996 295.8 268.313 325.246 261.697H325.245Z" fill="white"/>
<path d="M449.64 340.193C450.957 340.193 452.26 340.155 453.548 340.081C462.996 339.531 471.678 336.971 479.354 332.473C497.037 322.109 505.791 303.711 508.086 289.949C510.635 274.669 509.915 265.575 509.528 260.69C509.449 259.691 509.386 258.902 509.376 258.319C509.376 258.281 509.372 258.245 509.366 258.208C507.096 228.949 498.418 200.833 484.928 179.031C473.031 159.803 458.401 147.211 445.793 145.348C436.164 143.924 428.604 148.948 424.505 159.491C420.334 170.221 421.167 193.019 426.98 227.252C430.742 249.4 435.481 269.4 436.676 274.335C431.883 273.542 426.034 272.488 419.342 271.281C388.893 265.791 342.878 257.493 324.889 261.564H324.889C306.98 265.625 298.777 286.533 298.545 296.302C298.464 299.701 299.325 301.824 300.968 302.28C303.232 302.911 306.221 300.199 309.862 294.223C310.668 297.19 312.61 299.886 315.003 300.083C316.431 300.203 318.303 299.459 319.687 295.687C320.696 297.763 322.155 298.921 323.861 298.937H323.896C326.093 298.937 328.142 296.991 329.313 293.878C338.965 301.14 398.329 326.928 418.979 334.342C429.807 338.23 440.101 340.192 449.64 340.193L449.64 340.193ZM507.803 258.413C507.818 259.035 507.88 259.824 507.959 260.815C508.34 265.633 509.051 274.601 506.533 289.691C504.296 303.102 495.772 321.027 478.558 331.116C462.447 340.558 442.581 341.145 419.511 332.862C396.302 324.529 334.433 297.246 329.506 291.98C329.313 291.772 329.021 291.685 328.746 291.752C328.47 291.819 328.251 292.03 328.174 292.303C327.315 295.346 325.596 297.38 323.876 297.364C322.4 297.35 321.091 295.709 320.373 292.975C320.282 292.626 319.966 292.385 319.603 292.388C319.242 292.392 318.93 292.641 318.846 292.992C317.977 296.625 316.625 298.637 315.132 298.516C313.266 298.363 311.285 295.159 311.056 291.924C311.031 291.578 310.783 291.289 310.445 291.212C310.107 291.136 309.758 291.289 309.586 291.59C304.226 301 301.818 300.885 301.389 300.765C300.759 300.59 300.048 299.327 300.119 296.341C300.217 292.202 301.939 284.797 306.469 277.552C309.857 272.132 315.864 265.226 325.237 263.099C342.914 259.1 388.739 267.362 419.062 272.83C426.318 274.139 432.584 275.269 437.597 276.081C437.859 276.124 438.123 276.031 438.303 275.837C438.481 275.642 438.551 275.371 438.487 275.114C438.263 274.217 416.243 185.086 425.972 160.061C429.833 150.132 436.607 145.583 445.562 146.905C457.717 148.701 471.932 161.02 483.589 179.859C496.959 201.468 505.558 229.358 507.802 258.395C507.802 258.401 507.803 258.407 507.803 258.413Z" fill="#1B1B23"/>
<path d="M319.644 294.426C319.675 294.426 319.707 294.424 319.738 294.42C320.17 294.369 320.478 293.977 320.427 293.545C319.468 285.533 320.603 279.888 323.799 276.768C326.43 274.2 330.509 273.292 335.923 274.068C336.353 274.129 336.752 273.831 336.814 273.401C336.876 272.971 336.577 272.572 336.147 272.51C330.223 271.662 325.698 272.714 322.699 275.642C319.134 279.122 317.844 285.208 318.863 293.732C318.911 294.132 319.251 294.426 319.644 294.426H319.644Z" fill="#1B1B23"/>
<path d="M327.681 296.25C327.947 296.25 328.207 296.116 328.355 295.871C329.438 294.085 330.354 290.76 330.747 288.425C330.819 287.997 330.53 287.591 330.101 287.519C329.673 287.447 329.266 287.736 329.194 288.165C328.751 290.801 327.832 293.699 327.009 295.056C326.783 295.427 326.902 295.911 327.274 296.136C327.402 296.214 327.542 296.25 327.681 296.25H327.681Z" fill="#1B1B23"/>
<path d="M310.271 292.765C310.296 292.765 310.32 292.764 310.345 292.762C310.778 292.721 311.096 292.338 311.056 291.905C310.068 281.354 311.797 273.527 316.193 268.642C320.153 264.241 326.104 262.14 334.924 262.029C335.358 262.024 335.707 261.667 335.701 261.232C335.696 260.801 335.344 260.456 334.914 260.456H334.904C329.059 260.529 320.638 261.348 315.022 267.589C310.32 272.815 308.458 281.045 309.488 292.051C309.527 292.459 309.87 292.765 310.271 292.765V292.765Z" fill="#1B1B23"/>
<path d="M417.966 162.992C413.122 183.448 420.126 219.899 435.163 270.163C435.163 270.163 476.607 263.483 496.777 241.607C522.28 213.947 526.266 206.953 536.395 207.818C536.395 207.818 500.385 193.508 468.747 157.221C455.027 141.486 441.165 139.046 430.117 145.857C423.939 149.666 419.644 155.903 417.966 162.992Z" fill="#BFB6FF"/>
<path d="M436.259 269.952C436.334 269.952 436.411 269.942 436.486 269.919C436.903 269.793 437.138 269.355 437.013 268.939C429.792 244.952 422.632 220.001 419.161 200.016C415.769 180.49 416.058 166.961 420.069 157.44C420.238 157.04 420.05 156.578 419.649 156.41C419.249 156.241 418.787 156.429 418.618 156.83C414.485 166.64 414.164 180.449 417.61 200.285C421.095 220.352 428.271 245.358 435.506 269.392C435.608 269.733 435.921 269.952 436.259 269.952H436.259Z" fill="white"/>
<path d="M325.844 469.569C326.03 469.569 326.216 469.504 326.366 469.371C326.692 469.083 326.722 468.586 326.433 468.26C308.838 448.42 296.421 429.865 289.528 413.112C283.019 397.293 281.379 382.96 284.653 370.512C289.739 351.177 306.299 336.565 333.873 327.081C334.284 326.94 334.503 326.492 334.361 326.081C334.22 325.67 333.772 325.452 333.361 325.593C319.7 330.292 308.529 336.37 300.159 343.657C291.492 351.203 285.762 360.104 283.13 370.112C279.767 382.898 281.429 397.567 288.071 413.71C295.032 430.627 307.542 449.332 325.255 469.304C325.41 469.48 325.627 469.569 325.844 469.569L325.844 469.569Z" fill="#1B1B23"/>
</g>
<g clip-path="url(#clip3_31_2609)">
<path d="M88.484 610.907H115.069V323.028H128.114V610.907H159.566V322.209H171.57V610.907H258.04C260.882 610.907 263.186 613.213 263.186 616.056V620.917C263.186 623.76 260.882 626.066 258.04 626.066H157.098L88.0876 626.208C83.865 626.208 80.8381 622.783 80.8381 618.558C80.8381 614.333 84.2614 610.907 88.484 610.907Z" fill="white"/>
<path d="M88.0873 626.997L157.099 626.855H258.04C261.312 626.855 263.975 624.191 263.975 620.917V616.056C263.975 612.782 261.312 610.118 258.04 610.118H172.359V322.21C172.359 321.774 172.005 321.42 171.569 321.42H159.566C159.13 321.42 158.777 321.774 158.777 322.21V610.118H128.903V323.028C128.903 322.592 128.55 322.238 128.114 322.238H115.069C114.633 322.238 114.28 322.592 114.28 323.028V610.118H88.484C83.8329 610.118 80.049 613.904 80.049 618.557C80.049 623.369 83.5049 626.997 88.0876 626.997L88.0873 626.997ZM258.039 611.697C260.442 611.697 262.396 613.653 262.396 616.056V620.916C262.396 623.32 260.442 625.276 258.039 625.276H157.097L88.0855 625.418C84.4042 625.418 81.6266 622.469 81.6266 618.557C81.6266 614.774 84.7024 611.697 88.4834 611.697H115.069C115.504 611.697 115.858 611.343 115.858 610.907V323.817H127.324V610.907C127.324 611.343 127.678 611.697 128.113 611.697H159.565C160.001 611.697 160.354 611.343 160.354 610.907V322.999H170.78V610.907C170.78 611.343 171.133 611.697 171.569 611.697H258.039H258.039Z" fill="#1B1B23"/>
<path d="M74.7961 313H398.204C401.405 313 404 315.596 404 318.799V324.677C404 327.88 401.405 330.476 398.204 330.476H74.7961C71.595 330.476 69 327.88 69 324.677V318.799C69 315.596 71.595 313 74.7961 313Z" fill="#62B2FF"/>
</g>
<g clip-path="url(#clip4_31_2609)">
<path d="M194.074 300.448L115.815 157.739C115.144 156.5 113.779 156.137 113.164 157.033L108.135 164.357C107.14 165.807 107.207 168.105 108.303 170.103L178.361 297.8C179.796 300.415 182.677 301.887 185.631 301.514L194.074 300.449V300.448Z" fill="#1B1B23"/>
<path d="M108.757 311.812H111.85C113.006 311.232 114.166 307.302 114.586 306.077L142.133 225.673L136.862 221.585L107.549 307.213C106.778 309.082 106.534 311.718 108.757 311.812L108.757 311.812Z" fill="#1B1B23"/>
<path d="M203.871 311.703L218.456 312C220.369 312.038 221.609 309.989 220.691 308.305L122.436 128.298C121.605 126.775 119.516 126.547 118.377 127.854L109.07 138.537C107.228 140.651 106.907 143.697 108.268 146.151L198.203 308.282C199.351 310.352 201.509 311.654 203.871 311.702V311.703Z" fill="#BFB6FF"/>
<path d="M199.805 292.952C199.975 292.952 200.148 292.91 200.308 292.821C200.806 292.542 200.985 291.91 200.707 291.411L192.58 276.812C192.302 276.312 191.672 276.133 191.173 276.412C190.675 276.691 190.496 277.322 190.774 277.822L198.901 292.421C199.09 292.761 199.442 292.952 199.805 292.952Z" fill="#1B1B23"/>
<path d="M187.705 271.095C187.878 271.095 188.052 271.052 188.213 270.96C188.71 270.679 188.885 270.046 188.604 269.548L185.353 263.788C185.072 263.29 184.442 263.114 183.944 263.396C183.447 263.678 183.272 264.311 183.554 264.809L186.804 270.569C186.995 270.906 187.345 271.095 187.705 271.095V271.095Z" fill="#1B1B23"/>
</g>
<g clip-path="url(#clip5_31_2609)">
<path d="M269.145 306.119H277.483V300.067C277.483 299.476 277.01 298.995 276.427 298.995H270.201C269.618 298.995 269.145 299.476 269.145 300.067V306.119H269.145Z" fill="#1B1B23"/>
<path d="M283.389 306.119H291.727V300.067C291.727 299.476 291.254 298.995 290.671 298.995H284.445C283.862 298.995 283.389 299.476 283.389 300.067V306.119H283.389Z" fill="#1B1B23"/>
<path d="M297.578 307.646H305.916V301.595C305.916 301.003 305.443 300.523 304.86 300.523H298.634C298.051 300.523 297.578 301.003 297.578 301.595V307.646H297.578Z" fill="#1B1B23"/>
<path d="M254.602 306.119H262.94V300.067C262.94 299.476 262.467 298.995 261.884 298.995H255.658C255.075 298.995 254.602 299.476 254.602 300.067V306.119H254.602Z" fill="#1B1B23"/>
<path d="M243 312.995H316V306.552C316 305.19 314.911 304.085 313.57 304.085H245.43C244.089 304.085 243 305.19 243 306.552V312.995Z" fill="#80F5BD"/>
</g>
<g clip-path="url(#clip6_31_2609)">
<path d="M178 79.1182L178.284 73.9836L182.136 73.5995C182.551 72.2494 183.136 70.9088 183.966 69.7537L181.85 66.4582L185.703 62.9838L188.719 65.3856C189.95 64.6823 191.336 64.2454 192.713 63.9795L193.515 60.2476L198.607 60.5343L198.987 64.4187C200.326 64.8374 201.655 65.4274 202.801 66.2645L206.068 64.1306L209.513 68.0161L207.132 71.0581C207.829 72.2991 208.263 73.6971 208.526 75.0855L212.227 75.8949L211.942 81.0295L208.091 81.4135C207.675 82.7637 207.09 84.1043 206.26 85.2594L208.376 88.5549L204.524 92.0293L201.507 89.6275C200.277 90.3308 198.891 90.7677 197.514 91.0336L196.711 94.7655L191.62 94.4787L191.239 90.5943C189.901 90.1757 188.571 89.5857 187.426 88.7486L184.163 90.7968L180.798 87.0017L183.18 83.9597C182.482 82.7187 182.049 81.3208 181.785 79.9323L178 79.1182ZM194.734 84.353C198.468 84.5634 201.693 81.6546 201.902 77.8891C202.11 74.1237 199.226 70.871 195.492 70.6606C191.759 70.4502 188.534 73.359 188.325 77.1245C188.116 80.8899 191.001 84.1426 194.734 84.353Z" fill="#62B2FF"/>
<path d="M195.112 89.1923C188.713 89.1923 183.525 83.9604 183.525 77.5065C183.525 71.0527 188.713 65.8208 195.112 65.8208C201.512 65.8208 206.699 71.0527 206.699 77.5065C206.699 83.9604 201.512 89.1923 195.112 89.1923Z" fill="white"/>
<path d="M210.088 92.1266L209.456 84.1223L215.335 82.7106C215.696 80.5337 216.321 78.3353 217.364 76.372L213.403 71.7226L218.638 65.5294L223.806 68.605C225.563 67.2557 227.617 66.2854 229.691 65.5818L230.154 59.6375L238.09 59L239.49 64.9289C241.648 65.2926 243.828 65.923 245.775 66.975L250.385 62.9801L256.526 68.2598L253.476 73.4722C254.814 75.2441 255.776 77.3151 256.474 79.4071L262.368 79.8737L263 87.8777L257.121 89.2894C256.761 91.4663 256.135 93.6647 255.092 95.628L259.054 100.277L253.818 106.471L248.65 103.395C246.893 104.744 244.84 105.715 242.765 106.418L242.303 112.362L234.366 113L232.966 107.071C230.808 106.707 228.628 106.077 226.681 105.025L222.06 108.886L216.062 103.73L219.112 98.5173C217.774 96.7453 216.812 94.6744 216.114 92.5823L210.088 92.1264L210.088 92.1266ZM237.071 96.6726C242.891 96.2053 247.274 91.0202 246.811 85.1502C246.347 79.2803 241.206 74.8601 235.386 75.3274C229.565 75.7947 225.182 80.9798 225.646 86.8498C226.109 92.7197 231.25 97.1399 237.071 96.6726Z" fill="#62B2FF"/>
<path d="M195.113 89.9855C201.936 89.9855 207.486 84.3875 207.486 77.5068C207.486 70.6261 201.936 65.0278 195.113 65.0278C188.29 65.0278 182.74 70.6258 182.74 77.5068C182.74 84.3877 188.29 89.9855 195.113 89.9855ZM195.113 66.6137C201.069 66.6137 205.914 71.5002 205.914 77.5068C205.914 83.5134 201.069 88.3995 195.113 88.3995C189.157 88.3995 184.312 83.5131 184.312 77.5068C184.312 71.5004 189.157 66.6137 195.113 66.6137Z" fill="#62B2FF"/>
<path d="M195.113 80.3945C193.532 80.3945 192.249 79.1015 192.249 77.5066C192.249 75.9116 193.532 74.6187 195.113 74.6187C196.695 74.6187 197.977 75.9116 197.977 77.5066C197.977 79.1015 196.695 80.3945 195.113 80.3945Z" fill="#62B2FF"/>
<path d="M195.112 81.1877C197.124 81.1877 198.762 79.5365 198.762 77.5068C198.762 75.4771 197.124 73.8257 195.112 73.8257C193.099 73.8257 191.462 75.4769 191.462 77.5068C191.462 79.5368 193.099 81.1877 195.112 81.1877ZM195.112 75.4116C196.257 75.4116 197.189 76.3515 197.189 77.5068C197.189 78.6622 196.257 79.6018 195.112 79.6018C193.967 79.6018 193.035 78.6619 193.035 77.5068C193.035 76.3518 193.967 75.4116 195.112 75.4116Z" fill="#62B2FF"/>
</g>
<defs>
<clipPath id="clip0_31_2609">
<rect width="216" height="462" fill="white" transform="matrix(-1 0 0 1 589 164)"/>
</clipPath>
<clipPath id="clip1_31_2609">
<rect width="125" height="123" fill="white" transform="matrix(-1 0 0 1 284 42)"/>
</clipPath>
<clipPath id="clip2_31_2609">
<rect width="387" height="578" fill="white" transform="matrix(-1 0 0 1 561 48)"/>
</clipPath>
<clipPath id="clip3_31_2609">
<rect width="335" height="313.998" fill="white" transform="matrix(-1 0 0 1 404 313)"/>
</clipPath>
<clipPath id="clip4_31_2609">
<rect width="114" height="185" fill="white" transform="matrix(-1 0 0 1 221 127)"/>
</clipPath>
<clipPath id="clip5_31_2609">
<rect width="73" height="14" fill="white" transform="matrix(-1 0 0 1 316 298.995)"/>
</clipPath>
<clipPath id="clip6_31_2609">
<rect width="85" height="54" fill="white" transform="matrix(-1 0 0 1 263 59)"/>
</clipPath>
</defs>
</svg>
