<svg width="184" height="176" viewBox="0 0 184 176" fill="none" xmlns="http://www.w3.org/2000/svg">
<g clip-path="url(#clip0_1116_55428)">
<path d="M109.74 44C109.74 30.8795 96.64 20.2432 80.4808 20.2432C64.3215 20.2432 51.2217 30.8796 51.2217 44C51.2217 57.1205 64.3214 67.7569 80.4808 67.7569C90.4531 67.7569 99.2587 63.7049 104.541 57.5194C104.541 57.5194 109.74 52.5095 109.74 44.0001V44Z" fill="white"/>
<path d="M80.4805 68C72.6181 68 65.2237 65.5119 59.6596 60.9942C56.9476 58.7922 54.8176 56.2264 53.3286 53.368C51.7834 50.4019 51 47.2501 51 44C51 40.75 51.7834 37.5982 53.3286 34.6321C54.8176 31.7737 56.9476 29.2079 59.6596 27.0059C65.2237 22.4881 72.6181 20 80.4805 20C88.3428 20 95.7372 22.488 101.301 27.0058C104.013 29.2077 106.143 31.7736 107.632 34.632C109.178 37.5981 109.961 40.75 109.961 44C109.961 48.4528 108.53 51.9384 107.329 54.0783C106.066 56.3282 104.819 57.5729 104.695 57.6941C102.032 60.8093 98.4553 63.3992 94.3508 65.1837C90.1132 67.0262 85.317 68 80.4805 68ZM80.4805 20.4864C72.7122 20.4864 65.4113 22.9406 59.9228 27.3971C54.4543 31.8371 51.4428 37.7335 51.4428 44C51.4428 50.2666 54.4544 56.1629 59.9228 60.603C65.4113 65.0594 72.7122 67.5136 80.4805 67.5136C90.0116 67.5136 98.9458 63.7153 104.38 57.353C104.384 57.3473 104.39 57.3418 104.395 57.3366C104.408 57.3242 105.693 56.0712 106.96 53.8076C108.127 51.7239 109.518 48.3309 109.518 44C109.518 37.7334 106.507 31.8371 101.038 27.397C95.5496 22.9406 88.2489 20.4864 80.4805 20.4864Z" fill="#1B1B23"/>
<path d="M99.3574 61.867L110.535 67.4398C110.702 67.5231 110.856 67.2991 110.737 67.146L103.712 58.1172" fill="white"/>
<path d="M110.607 67.7004C110.552 67.7004 110.497 67.6877 110.444 67.6613L99.2657 62.0885C99.1543 62.0329 99.105 61.8888 99.1556 61.7664C99.2061 61.6442 99.3373 61.5899 99.4488 61.6455L110.422 67.1162L103.544 58.2752C103.464 58.173 103.475 58.0195 103.568 57.9322C103.661 57.845 103.801 57.857 103.88 57.9591L110.905 66.9879C111.025 67.1428 111.032 67.3647 110.92 67.5276C110.844 67.6394 110.727 67.7003 110.607 67.7003L110.607 67.7004Z" fill="#1B1B23"/>
</g>
<g clip-path="url(#clip1_1116_55428)">
<path d="M125.15 83.6864C123.332 83.0662 119.1 85.4582 115.931 89.1931C111.165 94.8107 107.288 102.719 107.288 102.719L103.735 109.795L103.634 109.85C97.1708 108.34 84.5337 109.248 75.3514 110.945C73.471 111.296 70.7323 112.12 69.6952 112.454C65.8809 113.68 63.1126 116.151 67.4006 116.467C63.1721 117.079 63.715 119.22 65.8364 119.193C64.1675 119.691 65.1643 120.914 68.0944 121.061C67.3618 121.355 66.886 122.236 69.1591 122.644C71.553 123.076 76.5144 121.95 81.4606 122.79C89.5031 124.152 96.8556 126.706 107.002 127.255C113.465 127.605 117.46 126.632 119.926 121.874C121.629 119.97 125.156 115.093 126.66 110.514C130.307 99.4169 128.489 84.8252 125.15 83.6864H125.15Z" fill="white"/>
<path d="M109.228 127.56C108.511 127.56 107.766 127.536 106.991 127.494C100.26 127.13 94.7771 125.891 89.4751 124.692C86.7322 124.072 84.1414 123.487 81.4263 123.027C78.5597 122.54 75.6452 122.721 73.3034 122.867C71.6072 122.973 70.1422 123.064 69.1225 122.88C67.9392 122.667 67.3157 122.295 67.2695 121.774C67.2532 121.591 67.3155 121.409 67.4405 121.248C65.9078 121.072 64.8774 120.564 64.8104 119.919C64.7952 119.772 64.8235 119.549 65.0504 119.337C64.4389 119.166 64.0357 118.78 64.0021 118.281C63.9614 117.675 64.5164 116.948 66.0882 116.497C65.4143 116.301 65.061 115.984 65.0153 115.54C64.8956 114.376 67.2471 112.991 69.6318 112.224C70.7987 111.849 73.4877 111.049 75.3134 110.709C84.4374 109.023 97.0456 108.104 103.584 109.593L107.093 102.605C107.131 102.527 111.037 94.607 115.768 89.0313C118.905 85.3333 123.233 82.7812 125.217 83.458C125.902 83.6916 126.526 84.4099 127.071 85.5929C128.157 87.9484 128.835 92.0099 128.886 96.4574C128.943 101.443 128.226 106.463 126.869 110.594C125.403 115.055 122.029 119.859 120.105 122.018C117.823 126.398 114.215 127.56 109.227 127.56L109.228 127.56ZM77.2392 122.231C78.6163 122.231 80.0589 122.31 81.4951 122.554C84.2212 123.016 86.8174 123.602 89.5659 124.224C94.8513 125.418 100.317 126.654 107.014 127.016C113.014 127.341 117.236 126.575 119.732 121.758C119.742 121.74 119.753 121.723 119.766 121.708C121.588 119.67 125.015 114.808 126.452 110.434C129.29 101.795 128.847 90.5211 126.674 85.8064C126.192 84.759 125.642 84.1049 125.084 83.9146C123.479 83.3675 119.394 85.4672 116.095 89.3548C111.403 94.8844 107.523 102.752 107.484 102.831L103.93 109.91C103.908 109.953 103.874 109.988 103.834 110.01L103.733 110.064C103.688 110.088 103.636 110.095 103.587 110.084C97.1325 108.575 84.5158 109.494 75.389 111.181C73.584 111.517 70.9168 112.311 69.7588 112.683C67.1004 113.538 65.388 114.823 65.4564 115.487C65.4708 115.628 65.655 116.098 67.416 116.228C67.5295 116.236 67.6188 116.336 67.6224 116.459C67.6262 116.582 67.5432 116.688 67.4303 116.704C65.3282 117.008 64.409 117.717 64.4445 118.246C64.4681 118.597 64.9601 118.965 65.8341 118.954H65.8367C65.9469 118.954 66.0406 119.042 66.0562 119.16C66.0717 119.279 66.003 119.392 65.8956 119.424C65.4332 119.562 65.2388 119.745 65.2512 119.866C65.2808 120.151 66.1482 120.724 68.1048 120.822C68.2101 120.827 68.2974 120.912 68.3136 121.024C68.3298 121.137 68.2705 121.246 68.1717 121.286C67.9009 121.394 67.6985 121.589 67.711 121.728C67.7147 121.771 67.7887 122.155 69.1956 122.407C70.1666 122.583 71.6084 122.493 73.2781 122.389C74.4762 122.315 75.823 122.231 77.2393 122.231H77.2392Z" fill="#1B1B23"/>
<path d="M65.9284 116.914C65.8183 116.914 65.7229 116.825 65.7088 116.704C65.6936 116.573 65.7796 116.453 65.9012 116.437L71.129 115.729C71.2494 115.712 71.3613 115.805 71.3765 115.936C71.3917 116.068 71.3057 116.187 71.1841 116.204L65.9563 116.912C65.947 116.913 65.9377 116.914 65.9284 116.914Z" fill="#1B1B23"/>
<path d="M64.7772 119.492C64.6595 119.492 64.5614 119.392 64.5559 119.264C64.5502 119.132 64.6447 119.02 64.767 119.013C64.8229 119.011 70.3765 118.727 72.4904 118.345C72.611 118.324 72.7253 118.412 72.7455 118.542C72.7657 118.672 72.6842 118.796 72.5634 118.818C70.4235 119.204 65.0167 119.48 64.7876 119.492C64.7841 119.492 64.7806 119.492 64.7771 119.492L64.7772 119.492Z" fill="#1B1B23"/>
<path d="M66.8881 121.305C66.791 121.305 66.7295 121.305 66.7102 121.305C66.5878 121.304 66.4894 121.196 66.4902 121.063C66.4912 120.932 66.5903 120.826 66.7119 120.826H66.7136C66.7613 120.826 71.4863 120.858 73.1422 120.175C73.2566 120.128 73.3847 120.19 73.4283 120.314C73.4719 120.437 73.4145 120.576 73.3002 120.623C71.7355 121.268 67.7876 121.305 66.8881 121.305Z" fill="#1B1B23"/>
<path d="M130.581 71.2611C130.31 69.5605 129.685 66.2865 129.926 66.2625L130.033 66.2551C130.374 66.2302 131.972 65.9613 131.998 65.9686C132.072 65.9602 132.151 65.9414 132.215 65.9263C134.384 56.9135 127.325 54.6507 123.824 54.9345C121.327 55.1369 116.931 57.2449 116.066 59.7532C115.632 61.0647 115.336 62.4877 115.235 63.9811L115.229 63.9916C115.165 64.8431 115.184 66.8973 114.926 67.6623C114.789 68.0546 114.483 68.3522 114.188 68.6202C113.534 69.1712 114.407 70.0257 115.033 70.237C115.318 71.8428 115.917 77 118.356 77.8519C119.083 78.1006 120.678 77.5272 122 76.9647C122.742 79.9027 121.689 86.3334 121.689 86.3334C121.689 86.3334 125.563 90.1792 134.203 85.9568C134.203 85.9568 131.191 74.1532 130.581 71.261L130.581 71.2611Z" fill="white"/>
<path d="M126.751 88.1719C125.935 88.1719 125.239 88.0855 124.663 87.9636C122.577 87.522 121.58 86.551 121.539 86.5099C121.483 86.4546 121.457 86.3724 121.47 86.2919C121.48 86.23 122.447 80.2465 121.845 77.287C120.037 78.0385 118.904 78.2908 118.289 78.0803C115.95 77.2633 115.244 72.9086 114.904 70.8159C114.88 70.6692 114.859 70.5352 114.838 70.416C114.354 70.2054 113.831 69.7219 113.747 69.2218C113.696 68.9219 113.803 68.6424 114.048 68.4344C114.324 68.1841 114.602 67.9117 114.718 67.5781C114.892 67.0641 114.934 65.8254 114.965 64.9209C114.979 64.542 114.99 64.2149 115.008 63.9724C115.009 63.9552 115.012 63.9382 115.017 63.9218C115.117 62.4842 115.4 61.0549 115.857 59.6728C116.749 57.086 121.224 54.9051 123.807 54.6958C125.581 54.5521 129.151 55.0469 131.289 57.8128C132.861 59.8469 133.245 62.5969 132.429 65.9866C132.408 66.0738 132.343 66.1409 132.262 66.1602C132.193 66.1767 132.107 66.197 132.021 66.2068C132.015 66.2075 132.009 66.208 132.002 66.208C131.95 66.2138 131.699 66.2531 131.456 66.2913C130.957 66.3697 130.343 66.466 130.09 66.4903C130.086 67.0096 130.395 68.8237 130.586 69.9455C130.665 70.4091 130.74 70.8472 130.798 71.2143C131.404 74.079 134.386 85.7755 134.417 85.8934C134.446 86.007 134.394 86.1266 134.294 86.1751C131.146 87.7138 128.63 88.1719 126.751 88.1719ZM121.929 86.2367C122.21 86.4708 123.149 87.1621 124.784 87.5011C126.592 87.8761 129.641 87.8836 133.939 85.8225C133.541 84.2611 130.926 73.9726 130.365 71.3144C130.364 71.3103 130.363 71.3061 130.362 71.3018C130.304 70.9362 130.229 70.497 130.15 70.0322C129.642 67.0521 129.567 66.3598 129.726 66.1334C129.77 66.07 129.834 66.0312 129.905 66.0242L130.018 66.0163C130.218 66.0017 130.897 65.8952 131.392 65.8175C131.761 65.7594 131.906 65.7368 131.975 65.7311V65.7306C131.994 65.7285 132.014 65.7253 132.034 65.7216C132.767 62.5569 132.402 59.9999 130.949 58.1198C129.188 55.8422 126.029 54.9959 123.84 55.1734C122.588 55.2748 120.901 55.8564 119.436 56.691C117.769 57.6414 116.646 58.7587 116.274 59.8369C115.827 61.1888 115.551 62.5901 115.456 63.9987C115.455 64.0168 115.452 64.0347 115.447 64.0519C115.431 64.2803 115.421 64.5869 115.409 64.9387C115.375 65.9271 115.332 67.1572 115.134 67.7444C114.979 68.1899 114.652 68.5119 114.331 68.8037C114.329 68.8055 114.327 68.8073 114.324 68.8092C114.172 68.9377 114.169 69.0514 114.183 69.1361C114.239 69.4724 114.722 69.8812 115.099 70.0087C115.177 70.035 115.236 70.1055 115.251 70.1922C115.278 70.3434 115.307 70.5259 115.341 70.7333C115.64 72.5776 116.341 76.8965 118.424 77.6243C118.947 77.8032 120.123 77.5065 121.918 76.7421C121.977 76.7171 122.043 76.7203 122.099 76.7508C122.155 76.7813 122.197 76.8362 122.214 76.9019C122.908 79.6526 122.082 85.2586 121.929 86.2368L121.929 86.2367ZM131.945 66.2009C131.945 66.2009 131.945 66.201 131.945 66.2011C131.945 66.2011 131.945 66.201 131.945 66.2009ZM131.944 66.2007C131.944 66.2007 131.944 66.2009 131.944 66.2009C131.944 66.2009 131.944 66.2007 131.944 66.2007Z" fill="#1B1B23"/>
<path d="M121.873 77.0371C122.173 77.766 122.283 79.0312 122.287 79.9629C124.278 79.2644 126.453 76.9474 126.14 76.4315C125.851 75.9446 124.861 76.0473 124.341 76.1611C123.304 76.3804 121.873 77.0371 121.873 77.0371Z" fill="#1B1B23"/>
<path d="M122.287 80.2024C122.24 80.2024 122.195 80.1869 122.157 80.157C122.099 80.1122 122.065 80.0405 122.065 79.964C122.061 79.0502 121.956 77.8271 121.671 77.1345C121.646 77.0758 121.645 77.0091 121.667 76.9494C121.689 76.8897 121.732 76.8419 121.786 76.8168C121.846 76.7896 123.251 76.1478 124.299 75.9262C124.672 75.8444 125.927 75.629 126.326 76.3024C126.406 76.4334 126.413 76.6038 126.347 76.8068C126.059 77.6911 124.156 79.5589 122.355 80.1908C122.333 80.1986 122.309 80.2025 122.286 80.2025L122.287 80.2024ZM122.159 77.1691C122.379 77.8466 122.479 78.811 122.503 79.6255C124.357 78.8454 125.989 76.9262 125.949 76.5538C125.755 76.2519 125.006 76.2599 124.385 76.3958C123.607 76.5605 122.585 76.9843 122.159 77.1691ZM125.954 76.5619C125.954 76.5619 125.954 76.5625 125.954 76.5628C125.954 76.5625 125.954 76.5622 125.954 76.5619Z" fill="#1B1B23"/>
<path d="M118.992 64.1426C119.895 64.8188 120.176 65.9128 119.831 66.3456C119.486 66.7784 118.486 66.5299 117.715 65.6872C116.923 64.8225 116.534 63.8531 116.875 63.4842C117.233 63.1114 118.099 63.4817 118.992 64.1426Z" fill="#1B1B23"/>
<path d="M116.894 72.8637C117.316 73.4386 118.216 73.5733 118.886 72.9829C119.456 72.4802 119.515 71.4678 119.154 71.5641C119.101 71.5736 118.786 71.8034 118.437 72.0327C117.685 72.527 116.967 72.4897 116.879 72.6473C116.852 72.7119 116.846 72.7926 116.894 72.8637H116.894Z" fill="#1B1B23"/>
<path d="M119.024 67.7875C118.592 67.5843 117.55 67.1298 116.658 66.3516C116.537 66.2454 116.357 66.2612 116.252 66.403L116.244 66.4049C115.99 66.7531 115.665 67.4061 116.338 67.8492C117.163 68.3822 118.659 68.4052 119.055 68.0593C119.119 68.008 119.132 67.9061 119.076 67.8383L119.075 67.8296C119.067 67.8316 119.046 67.8095 119.024 67.7876V67.7875Z" fill="#1B1B23"/>
<path d="M127.022 66.5647C127.022 66.5647 128.594 64.4047 130.734 64.8507C132.752 65.2715 132.868 68.5692 129.7 70.8865C129.05 71.3376 128.336 71.6779 127.587 71.8828L127.021 66.5647H127.022Z" fill="white"/>
<path d="M174.824 105.669C173.047 91.6997 163.99 93.9922 163.276 85.9207C162.156 73.2404 150.774 69.6946 143.732 70.0813C141.391 70.2097 139.677 69.8663 138.372 69.2164C138.375 69.2125 138.379 69.2081 138.381 69.205C135.897 67.0791 137.134 62.4503 135.132 58.7631C129.491 48.3799 116.431 53.7868 115.474 61.2C115.474 61.2 118.844 65.8409 126.875 66.7874C127.732 65.0231 129.75 64.0468 131.066 64.8116C131.066 64.8116 132.226 65.4049 132.123 67.0339C132.001 68.9583 130.395 70.3077 130.395 70.3077L132.886 81.8319C132.886 81.8319 133.507 121.155 137.121 123.004C154.599 134.131 177.228 124.577 174.823 105.669L174.824 105.669Z" fill="#1B1B23"/>
<path d="M129.457 71.5176C129.375 71.5176 129.296 71.4679 129.258 71.3825C129.204 71.2635 129.25 71.1203 129.36 71.0626C129.498 70.9904 131.19 69.8677 131.588 68.9743C131.641 68.8551 131.773 68.805 131.884 68.8622C131.994 68.9195 132.04 69.0626 131.987 69.1818C131.524 70.2231 129.732 71.4003 129.554 71.4936C129.523 71.5099 129.49 71.5176 129.457 71.5176Z" fill="#1B1B23"/>
<path d="M127.456 69.9669C127.428 69.9669 127.399 69.9611 127.372 69.9488C127.259 69.8984 127.204 69.7585 127.251 69.6362C127.752 68.322 128.504 66.9534 130.287 66.7686C130.408 66.756 130.517 66.8524 130.529 66.984C130.54 67.1156 130.451 67.2326 130.329 67.2453C128.785 67.4053 128.134 68.5766 127.661 69.8185C127.626 69.9109 127.543 69.9669 127.456 69.9669Z" fill="#1B1B23"/>
<path d="M161.014 112.449C160.442 110.423 159.608 108.222 158.657 106.189C159.616 104.457 159.887 102.262 159.082 99.4797C157.323 94.0757 141.695 77.5433 132.964 81.7545L132.886 81.8317C130.886 84.0293 124.683 88.3543 122.661 86.8791C121.794 86.2464 122.048 83.534 122.048 83.534C121.896 83.5799 120.136 83.6959 117.25 85.1996C115.714 85.9996 107.936 89.9568 104.249 100.277C103.482 102.424 103.546 105.183 104.871 105.838C104.958 105.88 105.086 105.944 105.251 106.025L103.557 109.832C103.557 109.832 107.052 110.721 109.867 112.758C110.375 113.126 111.294 113.884 112.099 114.562L108.439 134.595C108.439 134.595 123.628 140.661 149.325 134.696C148.957 133.161 147.43 123.141 146.236 115.158C154.04 111.644 161.014 112.449 161.014 112.449L161.014 112.449Z" fill="white"/>
<path d="M127.508 137.561C124.66 137.561 121.888 137.414 119.223 137.121C112.267 136.355 108.401 134.835 108.363 134.819C108.26 134.779 108.201 134.664 108.222 134.549L111.855 114.661C110.871 113.834 110.142 113.245 109.744 112.957C106.996 110.969 103.54 110.074 103.506 110.065C103.44 110.048 103.386 110 103.357 109.935C103.328 109.869 103.328 109.793 103.357 109.728L104.954 106.142L104.779 106.055C104.09 105.715 103.655 104.857 103.555 103.638C103.466 102.563 103.644 101.306 104.043 100.191C105.598 95.8366 108.049 92.0928 111.329 89.0631C113.926 86.6638 116.233 85.4628 117.102 85.0107L117.153 84.984C118.846 84.1021 120.437 83.5424 121.882 83.3205C121.93 83.3132 121.979 83.3057 121.992 83.3024C122.063 83.2812 122.137 83.2994 122.193 83.3504C122.249 83.4014 122.276 83.4794 122.269 83.558C122.202 84.2731 122.165 86.2281 122.785 86.6807C123.583 87.2627 125.366 86.8401 127.678 85.521C129.878 84.2661 131.838 82.6418 132.728 81.6638C132.731 81.6611 132.733 81.6585 132.736 81.6559L132.813 81.5788C132.831 81.561 132.851 81.5466 132.873 81.5359C135.252 80.3885 138.266 80.6468 141.831 82.3038C146.602 84.5213 150.893 88.5466 153.027 90.7488C156.181 94.0047 158.64 97.4006 159.291 99.4003C159.292 99.4029 159.293 99.4057 159.294 99.4084C160.047 102.014 159.917 104.297 158.909 106.198C159.851 108.225 160.672 110.416 161.226 112.38C161.248 112.456 161.232 112.54 161.185 112.602C161.137 112.664 161.064 112.696 160.99 112.687C160.922 112.679 154.076 111.941 146.482 115.307C147.684 123.337 149.178 133.127 149.54 134.636C149.555 134.699 149.546 134.766 149.514 134.822C149.482 134.877 149.431 134.916 149.372 134.93C143.499 136.293 137.69 137.136 132.107 137.436C130.556 137.519 129.021 137.561 127.508 137.561L127.508 137.561ZM108.694 134.437C109.523 134.737 113.215 135.98 119.289 136.647C125.629 137.342 135.928 137.532 149.057 134.513C148.612 132.37 147.173 122.925 146.017 115.196C146 115.087 146.055 114.98 146.15 114.937C152.96 111.871 159.218 112.08 160.705 112.183C160.15 110.295 159.359 108.219 158.459 106.297C158.425 106.224 158.427 106.137 158.467 106.066C159.463 104.266 159.6 102.075 158.872 99.5553C158.24 97.6207 155.826 94.3008 152.72 91.0951C150.609 88.9152 146.363 84.9316 141.656 82.7438C138.226 81.1497 135.343 80.8852 133.087 81.9575L133.041 82.0037C130.967 84.278 124.7 88.6555 122.537 87.0776C121.742 86.4977 121.762 84.5935 121.805 83.8171C120.442 84.046 118.943 84.5833 117.346 85.4154L117.295 85.4422C111.347 88.5374 106.788 93.8364 104.456 100.363C103.737 102.376 103.768 105.03 104.963 105.62L105.343 105.808C105.398 105.835 105.44 105.884 105.46 105.944C105.48 106.005 105.477 106.071 105.451 106.129L103.873 109.673C104.75 109.927 107.623 110.846 109.99 112.559C110.418 112.869 111.173 113.479 112.236 114.374C112.302 114.429 112.333 114.52 112.317 114.609L108.694 134.437L108.694 134.437Z" fill="#1B1B23"/>
<path d="M124.326 92.0385C124.204 92.0385 124.098 92.0182 124.008 91.9813C123.113 91.6146 122.786 89.5432 122.667 88.1883C122.531 88.5597 122.363 88.9892 122.172 89.4146C121.444 91.0394 120.786 91.7273 120.162 91.5175C120.028 91.4724 119.841 91.3551 119.711 91.0527C119.237 89.9466 119.808 87.0051 121.165 83.5588C121.213 83.437 121.343 83.3805 121.456 83.4322C121.569 83.484 121.621 83.6245 121.573 83.7463C120.091 87.5096 119.778 90.0675 120.114 90.8516C120.163 90.9664 120.224 91.0366 120.294 91.0603C120.322 91.0697 120.351 91.0743 120.38 91.0743C121.057 91.0745 122.096 88.6703 122.612 86.957C122.645 86.846 122.748 86.7773 122.855 86.7942C122.962 86.8111 123.042 86.9087 123.044 87.0253C123.08 88.6051 123.415 91.226 124.165 91.5336C124.496 91.6692 125.335 91.3871 126.611 90.1466C128.205 88.5971 130.087 85.9222 132.055 82.4112C132.118 82.298 132.254 82.2619 132.359 82.3304C132.464 82.3988 132.497 82.546 132.434 82.6592C128.265 90.0988 125.522 92.0382 124.326 92.0384V92.0385Z" fill="#1B1B23"/>
<path d="M113.102 110.25C113.036 110.25 112.97 110.218 112.926 110.156C111.238 107.792 105.176 106.236 105.115 106.22C104.995 106.19 104.921 106.061 104.949 105.933C104.977 105.804 105.097 105.724 105.216 105.754C105.471 105.819 111.492 107.365 113.277 109.864C113.352 109.969 113.334 110.119 113.237 110.2C113.197 110.233 113.149 110.25 113.102 110.25Z" fill="#1B1B23"/>
<path d="M80.9201 110.076C75.9929 110.12 69.6705 112.604 74.7782 113.765C76.814 114.228 79.9315 114.324 83.4831 117.135" fill="white"/>
<path d="M83.4832 117.375C83.4377 117.375 83.3919 117.36 83.3523 117.328C80.466 115.044 77.8322 114.572 75.9092 114.227C75.4902 114.152 75.0944 114.081 74.7328 113.999C73.2835 113.67 72.6083 113.204 72.6688 112.577C72.7562 111.67 74.5412 110.99 75.5974 110.666C77.2873 110.146 79.3265 109.836 81.0521 109.836C81.1746 109.836 81.2738 109.944 81.2738 110.076C81.2738 110.208 81.1746 110.315 81.0521 110.315C79.3651 110.315 77.3714 110.618 75.7187 111.126C73.9643 111.665 73.1441 112.268 73.1096 112.627C73.0862 112.87 73.5242 113.235 74.824 113.53C75.1763 113.611 75.5675 113.681 75.9816 113.755C77.9487 114.107 80.6427 114.59 83.6143 116.942C83.713 117.02 83.7345 117.17 83.6621 117.277C83.6186 117.341 83.5513 117.375 83.4831 117.375H83.4832Z" fill="#1B1B23"/>
<path d="M117.031 94.7806L112.1 114.563L117.031 94.7806Z" fill="white"/>
<path d="M112.1 114.802C112.081 114.802 112.061 114.799 112.042 114.794C111.924 114.759 111.854 114.628 111.886 114.5L116.817 94.7182C116.849 94.5905 116.97 94.515 117.089 94.5493C117.207 94.5837 117.277 94.7151 117.245 94.8427L112.314 114.625C112.287 114.732 112.198 114.802 112.1 114.802Z" fill="#1B1B23"/>
<path d="M121.523 107.596L101.16 125.86C101.003 126.001 100.982 126.253 101.112 126.422L122.202 153.856C122.333 154.026 122.566 154.049 122.723 153.909L143.085 135.644C143.242 135.503 143.264 135.252 143.133 135.082L122.043 107.648C121.913 107.478 121.68 107.455 121.523 107.596Z" fill="#1B1B23"/>
<path d="M107.896 115.219L104.964 117.849C104.807 117.99 104.785 118.242 104.916 118.411L108.711 123.348C108.842 123.518 109.074 123.541 109.231 123.4L112.164 120.77C112.321 120.63 112.342 120.378 112.212 120.208L108.416 115.271C108.286 115.102 108.053 115.078 107.896 115.219Z" fill="#1B1B23"/>
<path d="M124.135 105.252L103.772 123.516C103.616 123.657 103.594 123.909 103.724 124.078L124.815 151.513C124.945 151.682 125.178 151.706 125.335 151.565L145.698 133.3C145.854 133.159 145.876 132.908 145.746 132.738L124.655 105.304C124.525 105.134 124.292 105.111 124.135 105.252Z" fill="#62B2FF"/>
<path d="M123.327 114.251L112.53 123.935C112.373 124.076 112.352 124.328 112.482 124.497L118.713 132.603C118.844 132.772 119.077 132.796 119.234 132.655L130.03 122.971C130.187 122.83 130.209 122.578 130.078 122.409L123.847 114.303C123.717 114.134 123.484 114.11 123.327 114.251Z" fill="white"/>
<path d="M116.442 124.911L124.022 118.216L116.442 124.911Z" fill="white"/>
<path d="M116.442 125.151C116.378 125.151 116.315 125.121 116.271 125.063C116.193 124.961 116.207 124.81 116.302 124.726L123.881 118.03C123.976 117.947 124.116 117.962 124.193 118.064C124.271 118.167 124.257 118.317 124.162 118.401L116.583 125.097C116.541 125.133 116.492 125.151 116.443 125.151H116.442Z" fill="#1B1B23"/>
<path d="M161.689 115.888L161.681 115.889C161.681 115.848 161.68 115.807 161.675 115.765C160.803 108.212 155.351 100.239 150.777 94.4092C140.032 80.7213 134.856 80.7324 131.919 85.3717C129.257 89.5771 133.738 101.241 137.312 109.095C139.893 114.77 140.48 115.4 141.515 117.833C136.545 120.748 131.84 126.477 126.931 129.505C125.247 130.544 121.09 131.727 119.443 131.739C112.82 131.588 110.821 133.047 117.422 135.226C119.497 135.911 117.498 136.966 112.27 139.301C110.804 139.955 110.264 142.615 114.45 141.813C110.314 143.425 112.232 145.304 114.148 145.149C112.782 145.83 113.746 147.866 115.792 147.558C115.162 148.238 115.615 149.734 119.382 148.446C128.924 145.182 148.384 136.872 154.557 131.751C162.297 125.331 161.728 117.891 161.689 115.889L161.689 115.888Z" fill="white"/>
<path d="M116.943 149.188C115.949 149.188 115.582 148.805 115.451 148.572C115.324 148.347 115.304 148.081 115.38 147.829C115.378 147.829 115.377 147.829 115.375 147.829C114.28 147.829 113.536 147.185 113.34 146.466C113.23 146.061 113.3 145.676 113.522 145.371C112.641 145.253 111.919 144.753 111.79 144.105C111.709 143.691 111.815 142.965 113.092 142.2C111.51 142.208 111.114 141.493 111.016 141.13C110.813 140.378 111.338 139.458 112.185 139.079C114.123 138.214 115.618 137.524 116.617 136.968C117.921 136.242 118.011 135.931 118.008 135.853C118.007 135.834 117.981 135.661 117.357 135.455C115.938 134.986 114.863 134.534 114.162 134.11C113.416 133.658 113.084 133.231 113.147 132.804C113.324 131.611 116.671 131.436 119.448 131.499C120.999 131.488 125.153 130.327 126.821 129.297C129.189 127.836 131.56 125.697 133.853 123.628C136.244 121.47 138.715 119.24 141.227 117.731C140.808 116.764 140.459 116.083 139.987 115.162C139.379 113.976 138.546 112.35 137.113 109.201C133.194 100.585 129.079 89.4343 131.736 85.2365C132.906 83.3884 134.291 82.4444 135.969 82.3503C139.601 82.147 144.499 86.0409 150.946 94.2542C153.848 97.953 156.091 101.245 157.804 104.317C160.125 108.48 161.501 112.321 161.895 115.736C161.899 115.763 161.901 115.792 161.902 115.822C161.907 115.842 161.91 115.862 161.91 115.883C161.912 115.97 161.915 116.068 161.918 116.175C161.984 118.538 162.183 125.727 154.692 131.941C151.178 134.855 143.849 138.484 138.32 141.015C131.993 143.911 124.585 146.917 119.449 148.674C118.34 149.053 117.531 149.188 116.942 149.188L116.943 149.188ZM115.792 147.318C115.875 147.318 115.953 147.369 115.99 147.451C116.033 147.543 116.016 147.654 115.949 147.727C115.818 147.868 115.709 148.109 115.83 148.324C116.067 148.744 117.121 148.968 119.316 148.218C124.44 146.465 131.832 143.465 138.147 140.574C145.93 137.012 151.71 133.811 154.422 131.561C161.734 125.497 161.539 118.492 161.475 116.19C161.473 116.106 161.471 116.028 161.469 115.956C161.463 115.934 161.46 115.911 161.46 115.887C161.46 115.851 161.459 115.822 161.456 115.795C160.781 109.953 157.233 103.008 150.609 94.564C147.295 90.3434 144.342 87.2249 141.832 85.2952C139.584 83.5673 137.618 82.7375 135.992 82.8286C134.461 82.9143 133.189 83.7904 132.103 85.5069C130.959 87.3139 131.089 90.7756 132.49 95.796C133.522 99.4965 135.212 103.936 137.511 108.99C138.939 112.129 139.769 113.748 140.375 114.93C140.884 115.923 141.252 116.64 141.717 117.733C141.765 117.847 141.724 117.983 141.621 118.043C139.085 119.531 136.57 121.8 134.137 123.995C131.83 126.078 129.443 128.231 127.041 129.713C125.291 130.793 121.085 131.967 119.445 131.978C114.929 131.875 113.638 132.523 113.585 132.88C113.573 132.961 113.58 133.708 117.487 134.997C117.891 135.13 118.43 135.362 118.451 135.83C118.487 136.644 116.96 137.466 112.355 139.522C111.732 139.8 111.305 140.489 111.442 140.996C111.627 141.681 112.737 141.898 114.412 141.577C114.525 141.555 114.635 141.631 114.664 141.751C114.694 141.871 114.634 141.996 114.525 142.038C112.961 142.648 112.101 143.383 112.224 144.005C112.334 144.56 113.224 144.984 114.132 144.91C114.238 144.901 114.336 144.977 114.363 145.089C114.39 145.201 114.339 145.318 114.241 145.366C113.828 145.572 113.655 145.924 113.766 146.332C113.929 146.932 114.684 147.483 115.761 147.321C115.772 147.319 115.782 147.318 115.792 147.318Z" fill="#1B1B23"/>
<path d="M113.843 145.425C113.735 145.425 113.641 145.339 113.624 145.22C113.607 145.089 113.69 144.968 113.811 144.948C116.258 144.556 117.797 143.931 118.815 143.518C118.929 143.472 119.057 143.534 119.1 143.658C119.143 143.782 119.085 143.92 118.971 143.966C117.935 144.387 116.37 145.022 113.876 145.422C113.865 145.424 113.854 145.425 113.843 145.425V145.425Z" fill="#1B1B23"/>
<path d="M113.539 142.192C113.429 142.192 113.334 142.104 113.319 141.983C113.303 141.852 113.389 141.732 113.511 141.715C115.542 141.43 116.824 140.946 117.672 140.626C117.788 140.583 117.914 140.649 117.954 140.773C117.995 140.898 117.934 141.035 117.818 141.078C116.953 141.405 115.645 141.899 113.568 142.19C113.558 142.191 113.548 142.192 113.539 142.192L113.539 142.192Z" fill="#1B1B23"/>
<path d="M115.204 147.918C115.098 147.918 115.005 147.837 114.986 147.721C114.965 147.59 115.045 147.466 115.166 147.443C117.439 147.01 118.863 146.36 119.805 145.93C119.917 145.878 120.047 145.935 120.095 146.057C120.143 146.179 120.09 146.319 119.977 146.371C119.017 146.809 117.566 147.472 115.243 147.915C115.23 147.917 115.217 147.918 115.204 147.918L115.204 147.918Z" fill="#1B1B23"/>
<path d="M158.657 106.189C159.616 104.456 159.887 102.262 159.082 99.4796C157.323 94.0757 142.023 77.6199 133.291 81.8306C133.037 81.941 132.172 82.8148 131.888 83.1315C126.348 91.3654 135.806 109.516 141.509 117.82C151.012 111.26 160.98 112.459 161.014 112.449C160.442 110.423 159.608 108.222 158.657 106.189H158.657Z" fill="white"/>
<path d="M141.509 118.06C141.441 118.06 141.374 118.026 141.331 117.963C139.964 115.973 135.272 108.834 132.276 100.537C130.97 96.9206 130.215 93.6698 130.031 90.8745C129.816 87.6164 130.381 84.9639 131.708 82.9907C131.714 82.9815 131.721 82.9728 131.729 82.9648C131.859 82.8195 132.856 81.7667 133.203 81.6105C135.572 80.4699 138.547 80.7167 142.047 82.3438C146.761 84.535 150.998 88.5527 153.104 90.7527C156.208 93.9949 158.636 97.3892 159.291 99.4002C159.292 99.4028 159.292 99.4055 159.293 99.4083C160.047 102.014 159.917 104.297 158.908 106.198C159.851 108.226 160.672 110.417 161.226 112.38C161.243 112.442 161.237 112.51 161.207 112.567C161.177 112.624 161.127 112.665 161.068 112.681C161.031 112.692 161.012 112.69 160.946 112.684C159.235 112.53 150.259 112.064 141.628 118.022C141.591 118.048 141.55 118.06 141.509 118.06H141.509ZM132.058 83.286C130.8 85.1641 130.267 87.7057 130.473 90.8405C130.654 93.5878 131.399 96.7914 132.689 100.362C135.581 108.373 140.067 115.299 141.565 117.499C149.868 111.851 158.446 112.022 160.706 112.184C160.151 110.297 159.359 108.22 158.459 106.297C158.424 106.224 158.427 106.137 158.466 106.066C159.463 104.266 159.6 102.075 158.872 99.555C158.236 97.6084 155.852 94.2892 152.796 91.0969C150.712 88.9198 146.521 84.9447 141.872 82.7837C138.489 81.211 135.632 80.9639 133.381 82.0493C133.379 82.0505 133.376 82.0517 133.374 82.0528C133.194 82.1308 132.433 82.8701 132.058 83.2861V83.286Z" fill="#1B1B23"/>
<path d="M138.915 113.804C138.86 113.804 138.805 113.782 138.762 113.738C138.674 113.647 138.67 113.496 138.754 113.4C141.12 110.713 150.869 105.003 159.025 106.14C159.146 106.157 159.232 106.277 159.216 106.409C159.201 106.54 159.09 106.632 158.968 106.615C154.548 105.999 149.946 107.461 146.863 108.796C143.039 110.453 140.145 112.515 139.076 113.73C139.032 113.779 138.974 113.804 138.915 113.804H138.915Z" fill="#1B1B23"/>
<path d="M156.347 109.663C156.501 109.663 156.627 109.528 156.627 109.361C156.627 109.195 156.501 109.059 156.347 109.059C156.193 109.059 156.067 109.195 156.067 109.361C156.067 109.528 156.193 109.663 156.347 109.663Z" fill="#1B1B23"/>
<path d="M156.347 109.903C156.08 109.903 155.857 109.674 155.846 109.383C155.841 109.239 155.888 109.101 155.978 108.994C156.069 108.888 156.193 108.826 156.327 108.82C156.603 108.808 156.837 109.041 156.848 109.339C156.853 109.484 156.806 109.622 156.716 109.728C156.625 109.835 156.501 109.897 156.367 109.902C156.36 109.903 156.354 109.903 156.347 109.903L156.347 109.903ZM156.347 109.299C156.346 109.299 156.345 109.299 156.345 109.299C156.325 109.3 156.312 109.31 156.304 109.319C156.297 109.327 156.288 109.342 156.289 109.364C156.29 109.398 156.319 109.425 156.349 109.424C156.369 109.423 156.382 109.412 156.39 109.404C156.397 109.395 156.406 109.38 156.405 109.359C156.404 109.325 156.378 109.299 156.347 109.299Z" fill="#1B1B23"/>
<path d="M141.573 118.016C141.506 118.016 141.439 117.983 141.396 117.92C137.338 112.079 133.751 105.088 131.801 99.2186C130.6 95.6036 129.986 92.3819 129.977 89.6431C129.966 86.5031 130.753 83.997 132.316 82.1945C132.621 81.8413 133.212 81.3769 133.844 81.1365C133.959 81.0925 134.086 81.1581 134.127 81.2828C134.167 81.4075 134.106 81.5442 133.991 81.5881C133.433 81.8004 132.899 82.2207 132.64 82.5214C131.156 84.2322 130.41 86.6276 130.42 89.6413C130.429 92.3255 131.034 95.4934 132.218 99.0569C134.154 104.884 137.718 111.828 141.75 117.633C141.824 117.739 141.804 117.889 141.706 117.968C141.666 118 141.62 118.016 141.573 118.016H141.573Z" fill="#1B1B23"/>
</g>
<g clip-path="url(#clip2_1116_55428)">
<path d="M47.7696 47.529C46.9709 46.8516 45.6413 46.4334 44.2955 46.9263C43.7713 42.4392 38.6149 41.8246 37.4192 44.946C34.3657 41.3152 29.3288 45.3469 30.2167 49.188C30.5426 50.5981 31.0312 53.9777 30.5559 56.2013C32.1386 57.3827 34.1785 62.0775 34.1785 62.0775C34.1785 62.0775 41.4603 54.1171 44.5586 54.3722C49.4307 54.7733 49.8764 49.3156 47.7695 47.5289L47.7696 47.529Z" fill="#1B1B23"/>
<path d="M44.928 61.4876C45.2545 61.2644 45.8388 60.7257 45.8835 60.2184C45.9357 59.6267 45.2784 59.6889 44.7524 58.6983C44.4534 58.1337 44.4314 56.8096 44.4692 55.7738C44.4977 54.9903 44.5591 54.3722 44.5591 54.3722C44.5591 54.3722 40.3398 53.5246 38.2978 54.9411C37.3944 55.5673 36.7806 56.8492 36.2466 57.9822C35.4154 59.7465 34.7801 61.1499 33.5549 59.1582C32.4712 57.3963 31.7443 56.2056 30.1004 55.6474C28.4997 55.1039 26.6418 56.0424 26.1178 57.7657C25.1994 60.7869 27.66 64.437 30.2662 64.3441L30.3186 64.3856C27.5162 71.3011 25.2949 75.7472 25.2949 75.7472C33.7844 79.5371 39.6562 76.6012 39.6562 76.6012C39.5865 76.0228 39.5641 75.399 39.5727 74.7667C39.5865 73.7569 39.6812 72.7254 39.7956 71.8242C39.8323 71.5349 39.8711 71.259 39.9098 71.0015C39.9267 71.0055 39.9435 71.01 39.9604 71.0139C41.4099 71.3475 43.3879 71.5429 45.1029 70.8009C46.3159 70.2761 47.0469 69.1307 47.1198 67.932C47.29 65.1347 44.6981 64.9612 44.9279 61.4876H44.928Z" fill="white"/>
<path d="M33.9088 77.9249C31.6464 77.9249 28.645 77.5036 25.2114 75.9707C25.1533 75.9447 25.108 75.8928 25.0869 75.8279C25.0659 75.763 25.0711 75.6913 25.1013 75.6309C25.1231 75.5872 27.2868 71.2416 29.9971 64.5821C28.8183 64.5137 27.6299 63.7466 26.7714 62.4847C25.7669 61.0083 25.4444 59.2156 25.9084 57.6891C26.4639 55.8622 28.4133 54.8216 30.1653 55.4164C31.8763 55.9974 32.6512 57.2571 33.7235 59.0007L33.7372 59.0229C34.1011 59.6144 34.4187 59.9057 34.6711 59.8894C35.1131 59.8611 35.5542 58.9246 36.0212 57.9332L36.0505 57.8711C36.5676 56.7737 37.2113 55.4079 38.1795 54.7367C40.2704 53.2864 44.4226 54.099 44.5984 54.1343C44.712 54.1571 44.7902 54.2723 44.7778 54.3981C44.7771 54.4042 44.7167 55.018 44.6889 55.7832C44.638 57.1798 44.7281 58.1719 44.9426 58.5767C45.1748 59.0141 45.4357 59.2265 45.6454 59.3971C45.8892 59.5955 46.1413 59.8007 46.1024 60.2414C46.053 60.8016 45.5133 61.3432 45.1406 61.623C45.0612 63.2839 45.6773 64.1308 46.2734 64.9502C46.8397 65.7287 47.4253 66.5337 47.3393 67.9479C47.2568 69.3065 46.4307 70.4857 45.1835 71.0254C43.4641 71.7692 41.4962 71.5922 40.0904 71.2892C40.0628 71.4812 40.037 71.6715 40.0135 71.8573C39.8788 72.9173 39.8045 73.8973 39.7926 74.77C39.7835 75.439 39.8109 76.0443 39.8742 76.5693C39.8868 76.6747 39.8353 76.7767 39.7472 76.8207C39.6858 76.8514 38.2162 77.5746 35.6792 77.8357C35.156 77.8896 34.5631 77.9248 33.9087 77.9248L33.9088 77.9249ZM25.6057 75.6236C29.8388 77.4625 33.3776 77.5843 35.616 77.357C37.6387 77.1516 38.987 76.633 39.4168 76.448C39.3654 75.9446 39.3436 75.3788 39.352 74.7629C39.3642 73.8703 39.4398 72.8704 39.577 71.7907C39.6113 71.521 39.65 71.2422 39.6921 70.962C39.7019 70.8967 39.7357 70.8387 39.7856 70.8015C39.8355 70.7643 39.897 70.7512 39.9562 70.7652L40.0053 70.7773C41.3606 71.0892 43.3312 71.3074 45.0216 70.576C46.1088 70.1056 46.8285 69.0863 46.8995 67.9158C46.9741 66.6886 46.4897 66.0227 45.9287 65.2516C45.2967 64.3827 44.5802 63.3978 44.7077 61.4699C44.7128 61.3929 44.7512 61.3233 44.8109 61.2824C45.1223 61.0694 45.6292 60.5858 45.6636 60.195C45.6773 60.0406 45.6262 59.9835 45.3826 59.7852C45.1534 59.5986 44.8393 59.343 44.5614 58.8197C44.2979 58.3223 44.1926 57.2943 44.2483 55.764C44.2668 55.2581 44.2984 54.8245 44.3191 54.5741C43.468 54.4317 40.1134 53.967 38.4151 55.1451C37.5477 55.7463 36.9346 57.0474 36.4419 58.093L36.4127 58.155C35.8636 59.3208 35.3893 60.3276 34.6967 60.3719C34.2613 60.3996 33.8414 60.0568 33.3717 59.2931L33.358 59.2709C32.2979 57.5474 31.5975 56.4087 30.0347 55.8781C28.5328 55.368 26.7996 56.2857 26.3264 57.8421C25.908 59.2186 26.2064 60.8463 27.1246 62.196C27.964 63.4298 29.1352 64.1426 30.2585 64.1026C30.3073 64.1008 30.3551 64.1169 30.3947 64.1481L30.4472 64.1896C30.5317 64.2565 30.5619 64.3792 30.5196 64.4836C28.1071 70.4366 26.102 74.6081 25.6055 75.6238L25.6057 75.6236Z" fill="#1B1B23"/>
<path d="M40.0162 70.7818C39.9016 71.683 39.704 72.6933 39.6174 73.7224C39.2125 73.7526 38.6916 73.5479 38.0236 73.1327C35.3214 71.4539 36.1863 68.3727 36.7183 68.0717C37.9553 70.0223 39.8045 70.7101 40.0162 70.7818H40.0162Z" fill="#1B1B23"/>
<path d="M38.6008 56.1639C38.847 54.818 40.08 53.7278 41.3565 53.8559C41.7853 53.9019 42.2018 54.0841 42.5038 54.421C42.7415 54.6836 42.5916 55.1325 42.2624 55.1815C41.77 55.3082 41.4769 55.3684 41.0712 55.5292C40.4263 55.7526 39.8357 56.2158 39.2316 56.5766L39.0488 56.6301C38.7948 56.7119 38.5406 56.444 38.6007 56.1639H38.6008Z" fill="#1B1B23"/>
<path d="M40.3352 58.0468C40.8248 57.945 42.004 57.7306 43.1077 57.1446C43.263 57.0621 43.4465 57.1349 43.5182 57.3071C43.7026 57.7498 43.8858 58.5244 43.0887 58.817C42.1093 59.1765 40.558 58.7993 40.2335 58.3229C40.1638 58.2206 40.2209 58.0705 40.3353 58.0468L40.3352 58.0468Z" fill="#1B1B23"/>
<path d="M43.7091 64.5314C43.0918 65.012 42.2255 64.8778 41.6352 64.3912C41.0557 63.8967 40.757 62.9762 41.0465 62.2175C41.1218 62.024 41.3883 62.1073 41.3609 62.3134C41.2729 62.9331 41.5112 63.5663 41.9541 63.9499C42.3756 64.307 43.0341 64.4571 43.5387 64.2253C43.7166 64.1364 43.8621 64.3998 43.709 64.5314H43.7091Z" fill="#1B1B23"/>
<path d="M31.2888 61.1779C31.1818 61.1779 31.0879 61.0923 31.0712 60.9727C30.6359 57.8431 28.3858 57.6456 28.2903 57.6386C28.1691 57.6299 28.0769 57.5153 28.0844 57.3824C28.0921 57.2495 28.197 57.1484 28.3173 57.1563C28.3442 57.1581 31.0166 57.3747 31.507 60.8998C31.5253 61.0317 31.4426 61.155 31.3223 61.1751C31.3111 61.1769 31.2998 61.1779 31.2888 61.1779Z" fill="#1B1B23"/>
<path d="M42.2543 48.5845C42.21 48.5845 42.1653 48.57 42.1265 48.5395C42.0274 48.462 42.0045 48.3111 42.0752 48.2025C43.5297 45.9689 45.9483 46.115 46.0501 46.1223C46.1715 46.131 46.2635 46.246 46.2556 46.3791C46.2478 46.5121 46.1426 46.6131 46.0216 46.6044C45.992 46.6025 43.7411 46.4757 42.4339 48.4831C42.3909 48.5492 42.3231 48.5844 42.2543 48.5844V48.5845Z" fill="white"/>
<path d="M30.0836 64.5895C29.6299 64.5895 29.2029 64.515 28.8705 64.3623C28.7584 64.3107 28.7055 64.1692 28.7526 64.0461C28.7996 63.923 28.9288 63.8651 29.041 63.9167C29.7082 64.2233 30.8805 64.1521 31.7099 63.7546C31.8216 63.701 31.9514 63.757 32.0001 63.8792C32.0488 64.0014 31.9979 64.1439 31.8863 64.1973C31.3471 64.4557 30.6914 64.5894 30.0836 64.5894V64.5895Z" fill="#1B1B23"/>
<path d="M61.4066 135.189C58.9039 113.834 56.8623 102.488 51.4836 91.5285C46.2541 80.8735 39.6329 76.3819 39.6329 76.3819C29.74 78.6214 25.7132 74.8868 25.7132 74.8868C25.7132 74.8868 10.9431 89.8648 10 135.503C10 135.503 17.6585 138 36.1295 138C45.3746 138 61.4067 135.189 61.4067 135.189H61.4066Z" fill="#BFB6FF"/>
<path d="M28.8394 108.493C25.2968 109.049 20.3373 110.664 20.1576 112.409C19.9764 114.169 25.4112 120.779 51.0052 109.936C51.0052 109.936 47.4475 105.575 28.8394 108.493V108.493Z" fill="#1B1B23"/>
<path d="M51.7757 112.407C51.359 111.258 50.6877 109.407 49.6026 106.414C49.6026 106.414 41.0439 80.6247 33.9807 79.6774C22.4297 78.1273 25.9366 108.292 26.1941 109.949C27.6861 119.293 31.8154 125.996 36.1739 129.386C38.4462 131.18 41.944 132.563 46.0335 132.667C56.1599 132.923 66.351 127.114 71.25 127.083C72.0123 129.668 76.8871 130.421 79.2417 127.713C80.867 127.82 81.7356 126.512 81.9019 125.526C83.0665 125.783 84.4034 124.831 84.6005 123.887C85.3915 124.594 87.6874 124.316 87.6874 122.721C87.6866 118.35 76.638 109.171 51.7757 112.407Z" fill="white"/>
<path d="M46.6867 132.917C46.4673 132.917 46.248 132.914 46.0288 132.909C42.2397 132.812 38.601 131.6 36.0456 129.582C33.7391 127.788 31.6203 125.174 29.9198 122.023C28.0152 118.495 26.6889 114.446 25.9774 109.99C25.9441 109.775 23.1288 88.0825 28.997 81.3397C30.3284 79.81 32.0143 79.17 34.0078 79.4375C37.0147 79.8407 40.591 84.502 44.6374 93.2919C47.6313 99.7952 49.7886 106.267 49.81 106.331L51.9183 112.146C60.2494 111.077 67.663 111.305 73.9576 112.823C78.9276 114.021 83.0621 116.042 85.5995 118.512C87.088 119.961 87.9078 121.456 87.9081 122.721C87.9081 123.372 87.5768 123.903 86.9751 124.216C86.2774 124.58 85.3211 124.58 84.716 124.251C84.3379 125.127 83.1823 125.921 82.07 125.798C81.8208 126.757 80.9774 127.961 79.4322 127.961C79.3987 127.961 79.3651 127.96 79.3309 127.959C77.7521 129.701 75.3965 129.873 73.8417 129.484C72.4866 129.145 71.4752 128.346 71.0973 127.328C69.1796 127.387 66.4305 128.303 63.2604 129.36C58.4873 130.951 52.5888 132.917 46.6866 132.917H46.6867ZM33.1528 79.8621C31.6517 79.8621 30.3638 80.4693 29.316 81.6734C27.0526 84.2741 25.8098 89.7905 25.7219 97.6262C25.6542 103.671 26.2848 109.091 26.4118 109.908C27.7345 118.192 31.4318 125.4 36.302 129.189C38.7882 131.152 42.3368 132.331 46.0391 132.426C52.0887 132.578 58.212 130.538 63.1324 128.897C66.4214 127.801 69.2619 126.854 71.2492 126.842H71.2505C71.3461 126.842 71.4308 126.909 71.4602 127.009C71.7362 127.945 72.6631 128.694 73.9399 129.013C75.5211 129.408 77.7247 129.108 79.0826 127.546C79.1274 127.495 79.1896 127.467 79.2555 127.472C80.7753 127.572 81.5415 126.337 81.6857 125.482C81.6965 125.418 81.7301 125.362 81.779 125.326C81.8279 125.29 81.8878 125.276 81.946 125.289C82.9787 125.517 84.2161 124.648 84.3862 123.833C84.4032 123.752 84.4574 123.686 84.5294 123.659C84.6013 123.632 84.681 123.647 84.7403 123.7C85.1642 124.079 86.1394 124.117 86.7862 123.78C87.0969 123.618 87.4674 123.303 87.4674 122.721C87.4672 121.612 86.6798 120.21 85.3071 118.873C82.825 116.457 78.7607 114.475 73.8631 113.294C67.5747 111.778 60.1522 111.56 51.8022 112.647C51.7028 112.66 51.6083 112.598 51.5714 112.496L49.3983 106.503C49.3109 106.24 40.8037 80.8355 33.9544 79.917C33.681 79.8803 33.4137 79.862 33.1529 79.862L33.1528 79.8621Z" fill="#1B1B23"/>
<path d="M46.748 114.223C46.6681 114.223 46.5909 114.175 46.5519 114.092C46.4961 113.973 46.5386 113.828 46.6469 113.766C48.9533 112.464 52.3508 112.078 53.8015 111.913C54.0894 111.881 54.3613 111.85 54.4169 111.832C54.5322 111.792 54.6563 111.862 54.6935 111.989C54.7307 112.116 54.6664 112.252 54.5505 112.293C54.4654 112.323 54.2844 112.344 53.847 112.394C52.421 112.556 49.0814 112.936 46.8487 114.196C46.8165 114.214 46.782 114.223 46.7481 114.223L46.748 114.223Z" fill="#1B1B23"/>
<path d="M84.4771 124.99C84.457 124.99 84.4367 124.987 84.4165 124.981C84.2994 124.944 84.2316 124.81 84.265 124.682C84.5351 123.644 84.4454 121.524 82.3962 120.162C82.2921 120.093 82.2589 119.944 82.322 119.83C82.3851 119.716 82.5207 119.679 82.6247 119.749C84.9009 121.262 84.9932 123.645 84.6888 124.815C84.6612 124.921 84.573 124.99 84.4771 124.99V124.99Z" fill="#1B1B23"/>
<path d="M81.8757 126.118C81.8674 126.118 81.8591 126.118 81.8507 126.117C81.7298 126.102 81.6428 125.982 81.6564 125.85C81.8316 124.151 81.2603 122.813 79.9585 121.872C79.8569 121.798 79.8288 121.648 79.8958 121.537C79.9629 121.425 80.0995 121.395 80.2011 121.468C82.0091 122.775 82.2287 124.602 82.0944 125.904C82.0816 126.027 81.9862 126.118 81.8756 126.118H81.8757Z" fill="#1B1B23"/>
<path d="M79.0924 129.149C79.0723 129.149 79.052 129.146 79.0318 129.14C78.9147 129.103 78.8469 128.969 78.8803 128.841C79.2571 127.393 79.4179 125.537 77.3009 124.017C77.199 123.944 77.1705 123.795 77.2372 123.683C77.3038 123.571 77.4407 123.54 77.5422 123.613C80.2023 125.522 79.5498 128.03 79.3041 128.974C79.2765 129.08 79.1882 129.149 79.0923 129.149H79.0924Z" fill="#1B1B23"/>
<path d="M75.4147 127.532C75.3858 127.532 75.3565 127.526 75.3283 127.512C73.3472 126.587 71.0111 127.413 70.9878 127.421C70.8725 127.463 70.7476 127.394 70.7095 127.267C70.6713 127.141 70.7338 127.004 70.8493 126.962C70.951 126.925 73.3638 126.069 75.5011 127.068C75.613 127.12 75.6651 127.262 75.6174 127.385C75.5817 127.477 75.5003 127.532 75.4146 127.532H75.4147Z" fill="#1B1B23"/>
<path d="M51.0907 110.088C47.161 107.755 36.5264 107.117 28.5586 108.6C25.2649 109.213 22.1203 110.236 20.9929 111.451C20.8562 111.598 20.7164 111.795 20.607 111.96C20.5065 112.111 20.5636 111.996 20.5679 111.846C20.6608 108.648 21.7943 80.5233 32.3064 78.8766C38.1773 77.957 46.4449 84.837 51.0907 110.088Z" fill="#BFB6FF"/>
<path d="M20.3923 112.799C20.3908 112.799 20.3894 112.799 20.3878 112.799C20.2662 112.796 20.1694 112.686 20.1719 112.553C20.1738 112.447 20.8921 99.9739 23.4908 89.8602C25.1396 83.4435 27.5559 79.7666 30.6724 78.9318C33.6271 78.1402 37.2057 79.9826 40.7486 84.1196C40.7821 84.1587 40.8105 84.1918 40.8338 84.2187C45.6282 89.7482 49.0182 98.2601 51.1979 110.241C51.2216 110.372 51.1442 110.499 51.0249 110.525C50.9053 110.551 50.7894 110.466 50.7656 110.335C48.6029 98.4469 45.2496 90.013 40.5143 84.5517C40.4906 84.5242 40.4615 84.4903 40.4273 84.4504C36.9978 80.446 33.5705 78.6529 30.7771 79.4012C27.8263 80.1916 25.5176 83.7546 23.9151 89.9912C21.3291 100.055 20.6145 112.458 20.6126 112.562C20.6103 112.694 20.512 112.799 20.3924 112.799L20.3923 112.799Z" fill="white"/>
</g>
<g clip-path="url(#clip3_1116_55428)">
<path d="M81.9733 110.255C76.6176 110.301 69.7453 112.937 75.2972 114.169C77.5101 114.66 80.8988 114.762 84.7593 117.746" fill="white"/>
<path d="M84.7593 118C84.7098 118 84.66 117.984 84.617 117.951C81.4797 115.526 78.6167 115.025 76.5264 114.66C76.0709 114.58 75.6408 114.505 75.2477 114.418C73.6722 114.068 72.9383 113.574 73.0041 112.908C73.099 111.946 75.0392 111.224 76.1875 110.88C78.0243 110.329 80.2408 110 82.1167 110C82.2498 110 82.3576 110.114 82.3576 110.254C82.3576 110.394 82.2498 110.508 82.1167 110.508C80.2829 110.508 78.1157 110.83 76.3193 111.369C74.4123 111.941 73.5208 112.581 73.4833 112.961C73.4578 113.219 73.9339 113.607 75.3468 113.92C75.7298 114.005 76.1549 114.08 76.6052 114.158C78.7433 114.532 81.6717 115.045 84.9018 117.541C85.0091 117.624 85.0324 117.783 84.9537 117.896C84.9065 117.964 84.8333 118 84.7592 118H84.7593Z" fill="#1B1B23"/>
</g>
<g clip-path="url(#clip4_1116_55428)">
<path d="M70.4405 26.2388C70.3402 26.2336 70.2574 26.3199 70.2593 26.4271C70.3224 29.9952 69.679 35.5306 68.9603 41.7615C67.9157 50.8192 66.5127 56.8982 66.2291 58.0768C66.2026 58.187 66.275 58.2956 66.3812 58.3059L91.6197 60.7606C91.7074 60.7691 91.7868 60.7068 91.8047 60.6148C91.9858 59.6805 92.9294 54.5878 94.3045 43.1544C95.5526 32.7769 95.7483 27.867 95.7767 26.8815C95.7796 26.7776 95.7026 26.6923 95.6052 26.6918C93.7188 26.6817 77.1721 26.5841 70.4406 26.2387L70.4405 26.2388Z" fill="white"/>
<path d="M91.6356 61C91.6236 61 91.6114 60.9995 91.5992 60.9983L66.3607 58.5435C66.2446 58.5322 66.1395 58.4675 66.0724 58.366C66.0055 58.2647 65.9836 58.1377 66.0124 58.0175C66.2842 56.8878 67.6932 50.7937 68.7384 41.7323L68.7613 41.5341C69.4784 35.3156 70.0979 29.945 70.0357 26.4315C70.0337 26.3146 70.0775 26.2008 70.1559 26.1194C70.2343 26.0383 70.3438 25.9952 70.451 26.0005C77.1761 26.3456 93.7396 26.4433 95.606 26.4533C95.7139 26.4539 95.8145 26.4997 95.8891 26.5823C95.9638 26.6649 96.0031 26.7738 95.9998 26.8888C95.9741 27.7767 95.7827 32.7347 94.5258 43.1849C93.148 54.6413 92.1995 59.7546 92.0232 60.6632C91.9849 60.8609 91.8218 61 91.6356 61H91.6356ZM66.4602 58.0741L91.5949 60.5188C91.7922 59.4924 92.7293 54.3762 94.0826 43.1241C95.3125 32.8976 95.5199 27.9513 95.5514 26.9301C93.4517 26.9187 77.1928 26.8201 70.4836 26.4798C70.5387 30.0276 69.9203 35.3894 69.2049 41.5924L69.182 41.7906C68.1513 50.7268 66.7662 56.793 66.4602 58.0741Z" fill="#1B1B23"/>
<path d="M73.5721 28.7665C73.3336 28.7594 73.1366 28.9602 73.1283 29.2148C73.1007 30.0569 72.9453 31.5118 72.8442 32.7723C72.7168 34.3617 72.5937 35.5593 72.4953 36.2137C72.4464 36.5395 72.6264 36.7601 72.8936 36.7758L81.209 37.2649C81.4263 37.2777 81.6187 37.1167 81.6581 36.8882C81.7554 36.3226 81.8584 35.1201 82.1063 33.0587C82.3196 31.2851 82.4048 30.177 82.4387 29.6007C82.4543 29.3341 82.2564 29.1096 82.0062 29.1104C80.4928 29.1156 75.4771 28.8236 73.5721 28.7666V28.7665Z" fill="#BFB6FF"/>
<path d="M79.3129 35.7208C79.3129 35.759 79.3122 35.7973 79.3108 35.8363L79.2914 36.2982L74.5244 36.0121L74.5409 35.6099C74.5997 34.2041 75.8485 33.1255 77.1662 33.1882C78.4466 33.2486 79.3129 34.3654 79.3129 35.7208Z" fill="white"/>
<path d="M77.4813 32.5956C78.1042 32.5956 78.6091 32.0566 78.6091 31.3917C78.6091 30.7268 78.1042 30.1878 77.4813 30.1878C76.8584 30.1878 76.3535 30.7268 76.3535 31.3917C76.3535 32.0566 76.8584 32.5956 77.4813 32.5956Z" fill="white"/>
<path d="M91.6702 40.7681C91.6663 40.7681 91.6623 40.7681 91.6584 40.7678L71.8994 39.666C71.7761 39.6591 71.6814 39.5468 71.6878 39.4153C71.6942 39.2837 71.8013 39.1823 71.9226 39.1896L91.6816 40.2914C91.8049 40.2983 91.8996 40.4106 91.8932 40.5421C91.8869 40.6694 91.7883 40.7682 91.6702 40.7682V40.7681Z" fill="#1B1B23"/>
<path d="M91.1897 44.948C91.185 44.948 91.1804 44.9478 91.1757 44.9475L71.4314 43.6434C71.3082 43.6353 71.2145 43.5221 71.2221 43.3906C71.2297 43.2591 71.336 43.159 71.459 43.1672L91.2033 44.4713C91.3265 44.4795 91.4202 44.5926 91.4126 44.7242C91.4052 44.8507 91.3069 44.948 91.1898 44.948H91.1897Z" fill="#1B1B23"/>
<path d="M88.5977 55.1931C88.5917 55.1931 88.5856 55.1928 88.5795 55.1923L76.5648 54.1552C76.4418 54.1446 76.3501 54.0295 76.3601 53.8982C76.37 53.7669 76.4763 53.669 76.6009 53.6796L88.6155 54.7167C88.7385 54.7273 88.8302 54.8424 88.8202 54.9737C88.8108 55.0984 88.713 55.1931 88.5977 55.1931Z" fill="#1B1B23"/>
<path d="M87.7689 54.1566C87.6407 54.1566 87.5208 54.1336 87.4087 54.0878C87.0549 53.9431 86.8122 53.5831 86.6843 53.0151C86.144 53.5863 85.6287 53.7512 85.2672 53.7813C84.8056 53.8196 84.4149 53.653 84.2317 53.471C84.2206 53.4599 84.2098 53.4484 84.1993 53.4366C83.5836 53.8015 82.9005 53.8655 82.2944 53.5981C81.9715 53.4556 81.7565 53.2183 81.6555 52.8929C81.5927 52.6907 81.5823 52.4724 81.6023 52.2576C80.9213 52.9234 79.8265 53.542 78.3775 52.8938C76.5199 52.0628 76.3192 50.7366 76.3649 50.02C76.4305 48.9922 77.0997 47.9806 77.8568 47.7649C78.4652 47.5914 79.2717 48.0432 79.6551 48.7716C79.8709 49.1817 80.2455 50.2656 79.0646 51.4706C78.9755 51.5617 78.834 51.5583 78.7486 51.4631C78.6633 51.3678 78.6665 51.2168 78.7558 51.1258C79.6761 50.1866 79.4702 49.3941 79.2655 49.0053C78.9559 48.417 78.3357 48.1224 77.9721 48.2258C77.4583 48.3723 76.869 49.1412 76.8108 50.0525C76.7459 51.0701 77.3637 51.9229 78.5503 52.4538C80.5834 53.3633 81.7889 51.3838 81.9897 51.0194C82.0076 50.9844 82.0196 50.9628 82.0228 50.9572C82.085 50.8459 82.2193 50.8081 82.3248 50.872C82.4305 50.936 82.469 51.0783 82.4115 51.1925C82.4104 51.1945 82.402 51.2109 82.3863 51.2392C82.2336 51.5284 81.9302 52.2626 82.08 52.7434C82.1393 52.9335 82.2653 53.0688 82.4653 53.1571C82.9506 53.3713 83.5056 53.3108 84.01 53.0025C83.975 52.7743 84.0044 52.5016 84.0999 52.2034C84.2661 51.6848 84.6227 51.1416 84.9825 51.1068C85.1534 51.0901 85.3035 51.1821 85.3961 51.3586C85.4065 51.3782 85.4141 51.3994 85.4189 51.4213C85.5259 51.9146 85.2199 52.588 84.6576 53.0968C84.6335 53.1187 84.6091 53.14 84.5846 53.1608C84.7011 53.241 84.9383 53.33 85.2327 53.3055C85.5758 53.2771 86.1006 53.0857 86.6524 52.3357C86.7087 52.2592 86.803 52.2269 86.8903 52.2539C86.9778 52.2809 87.0411 52.3619 87.0504 52.4586C87.0947 52.92 87.2207 53.4998 87.5687 53.6421C87.9646 53.8039 88.6696 53.4202 89.5555 52.5623C89.647 52.4737 89.7883 52.4812 89.8711 52.5787C89.954 52.6763 89.9472 52.8272 89.8558 52.9157C88.9976 53.7467 88.3101 54.1564 87.769 54.1565L87.7689 54.1566ZM84.9925 51.5934C84.8779 51.6565 84.6393 51.9665 84.5107 52.3966C84.4839 52.4864 84.465 52.5721 84.4539 52.6518C84.8005 52.3063 85.0147 51.8855 84.9924 51.5934H84.9925Z" fill="#62B2FF"/>
<path d="M92.1711 30.0847C92.1696 30.0847 92.1683 30.0847 92.1669 30.0847L84.315 29.9316C84.1917 29.9292 84.0934 29.8205 84.0957 29.6888C84.0979 29.5571 84.2002 29.4532 84.3232 29.4546L92.1751 29.6077C92.2984 29.6101 92.3967 29.7188 92.3944 29.8505C92.3922 29.9808 92.2926 30.0847 92.1711 30.0847Z" fill="#1B1B23"/>
<path d="M90.633 32.3903C90.6315 32.3903 90.63 32.3903 90.6285 32.3903L84.1683 32.2552C84.0449 32.2527 83.9467 32.1438 83.9493 32.0121C83.9516 31.8804 84.056 31.7763 84.1771 31.7782L90.6373 31.9133C90.7607 31.9159 90.8589 32.0248 90.8563 32.1565C90.854 32.2866 90.7544 32.3903 90.633 32.3903Z" fill="#1B1B23"/>
</g>
<defs>
<clipPath id="clip0_1116_55428">
<rect width="60" height="48" fill="white" transform="translate(51 20)"/>
</clipPath>
<clipPath id="clip1_1116_55428">
<rect width="111" height="101" fill="white" transform="translate(64 53)"/>
</clipPath>
<clipPath id="clip2_1116_55428">
<rect width="78" height="95" fill="white" transform="translate(10 43)"/>
</clipPath>
<clipPath id="clip3_1116_55428">
<rect width="12" height="8" fill="white" transform="translate(73 110)"/>
</clipPath>
<clipPath id="clip4_1116_55428">
<rect width="30" height="35" fill="white" transform="translate(66 26)"/>
</clipPath>
</defs>
</svg>
