<svg width="24" height="24" viewBox="0 0 24 24" fill="none" xmlns="http://www.w3.org/2000/svg">
<path d="M7 9C7 8.44772 7.44772 8 8 8H16C16.5523 8 17 8.44772 17 9C17 9.55228 16.5523 10 16 10H8C7.44772 10 7 9.55228 7 9Z" fill="#1B1B23"/>
<path d="M8 12C7.44772 12 7 12.4477 7 13C7 13.5523 7.44772 14 8 14H16C16.5523 14 17 13.5523 17 13C17 12.4477 16.5523 12 16 12H8Z" fill="#1B1B23"/>
<path fill-rule="evenodd" clip-rule="evenodd" d="M2 23V8C2 5.23858 4.23858 3 7.00001 3H17C19.7614 3 22 5.23858 22 8V14C22 16.7614 19.7614 19 17 19H6L2 23ZM5.17157 17H17C18.6569 17 20 15.6569 20 14V8C20 6.34315 18.6569 5 17 5L7.00001 5C5.34315 5 4 6.34315 4 8V18.1716L5.17157 17Z" fill="#1B1B23"/>
</svg>
