<svg width="184" height="176" viewBox="0 0 184 176" fill="none" xmlns="http://www.w3.org/2000/svg">
<g clip-path="url(#clip0_1116_54395)">
<path d="M93.6309 26.4435L94.156 31.537V31.5386C94.1604 31.621 94.1281 31.7018 94.0693 31.7537L94.0539 31.7673C94.051 31.7697 94.048 31.7729 94.0451 31.7753C94.0444 31.7753 94.0356 31.7841 94.0348 31.7841C94.0312 31.7881 94.0275 31.7913 94.0238 31.7945C94.0187 31.7993 94.0135 31.8033 94.0084 31.8081C93.4121 32.3431 92.6938 33.2468 91.8713 34.4944C91.8522 34.5232 91.8331 34.552 91.814 34.5816C90.8769 36.0115 89.804 37.8893 88.6208 40.1685C88.5371 40.3301 88.4527 40.4932 88.3675 40.6588C88.1046 41.1706 87.8343 41.708 87.5611 42.2567C87.542 42.2958 87.5222 42.335 87.5031 42.3742C87.1477 43.0924 86.7885 43.8329 86.4353 44.5751C85.4336 46.6784 84.6676 48.3978 84.3849 49.04C84.2776 49.2847 84.2196 49.4183 84.2196 49.4191C84.191 49.4839 84.1388 49.5334 84.0757 49.5542C84.0529 49.5622 84.0294 49.5654 84.0066 49.5654C83.9648 49.5654 83.9237 49.5534 83.8869 49.5302C83.8186 49.4862 77.0688 45.1613 74.3317 45.0413C74.2164 45.0365 74.1217 44.9422 74.107 44.8182C74.0783 44.5775 74.0387 44.336 73.988 44.1C73.988 44.0984 73.988 44.096 73.9873 44.0944C73.9697 44.0105 73.9506 43.9265 73.93 43.8433L73.9293 43.8425C73.6921 42.8676 73.2896 41.9248 72.8174 41.0578C71.801 39.1889 70.4629 37.6718 69.7689 36.9464C68.8245 35.9635 68.2744 34.6616 68.1789 33.1805C68.0901 31.8177 68.4015 30.3734 69.0558 29.1138C69.7454 27.7839 70.7457 26.7578 71.9471 26.1468C73.1868 25.5166 74.5917 25.3727 76.0296 25.7237C75.8806 23.4629 77.2407 21.206 79.4409 20.1384C81.3276 19.2235 84.0456 19.1875 86.1254 21.7507C86.1489 21.7211 86.1709 21.6915 86.1937 21.6627C87.2505 20.2999 88.0855 19.2227 90.4194 19.2227C90.4429 19.2227 90.4664 19.2219 90.4892 19.2267C92.1915 19.5746 93.3533 20.3775 93.9438 21.6139C94.8882 23.5925 94.0987 25.8477 93.6405 26.4315C93.6368 26.4355 93.6338 26.4395 93.6309 26.4435Z" fill="#1B1B23"/>
<path d="M102.534 51.6961C100.264 56.8228 94.0789 57.4866 93.4427 57.5429C93.4369 57.5439 93.4341 57.5439 93.4341 57.5439C93.7445 59.2827 94.1007 61.0817 94.5097 62.9339C94.7198 63.886 94.9358 64.8182 95.1572 65.7309C95.2614 66.1586 95.3654 66.582 95.4725 67.0013C95.5039 67.1272 95.5355 67.2532 95.5689 67.379C95.5975 67.4936 95.6262 67.6069 95.6558 67.7204C95.3768 68.6162 94.9928 69.2915 94.605 69.8014C93.8417 70.8065 92.8501 71.4568 91.7756 71.8615C91.5569 71.9437 91.3334 72.0166 91.1079 72.08C87.7245 73.0269 83.8291 71.876 83.5636 71.7929C83.5636 71.7929 80.6234 70.7378 79.203 68.6983C78.9183 68.2904 78.6939 67.8845 78.5162 67.5048C78.2888 67.0179 78.137 66.5725 78.0357 66.2166C78.0309 66.2021 78.0271 66.1885 78.0232 66.174C78.0375 65.9607 78.0528 65.7463 78.0662 65.5321C78.2811 62.3116 78.4493 58.9153 78.5543 55.6637C78.56 55.4639 78.5668 55.263 78.5725 55.0643V55.0633C78.5734 55.029 78.5744 54.9957 78.5752 54.9613C67.7201 56.3785 67.1068 43.4779 74.2328 44.1168C75.6982 44.247 77.4911 44.9524 79.5907 46.4716C83.3762 48.8055 81.1983 42.042 84.9333 36.7468C85.3631 36.1361 85.8723 35.545 86.4788 34.9894C87.9126 33.6752 89.8899 32.5608 92.6505 31.8605C93.0459 31.7596 93.4576 31.668 93.8865 31.5859C93.9018 31.5829 93.9181 31.5797 93.9343 31.5765C94.0049 31.7992 94.0766 32.0208 94.1502 32.2425C94.2084 32.4225 94.2686 32.6014 94.3297 32.7805C94.3526 32.8512 94.3775 32.9219 94.4013 32.9917C94.4663 33.1831 94.5332 33.3746 94.6009 33.566C94.6602 33.7345 94.7194 33.9022 94.7805 34.0686C94.7986 34.1206 94.8167 34.1717 94.8358 34.2237C95.4224 35.8334 96.0709 37.415 96.7798 38.9643C98.9138 43.6227 102.943 44.2128 103.301 47.8546C103.471 49.5776 102.871 50.9355 102.533 51.6962L102.534 51.6961Z" fill="white"/>
<path d="M88.1359 72.6951C85.6845 72.6951 83.6222 72.061 83.5026 72.0236C83.4998 72.0228 83.4972 72.0218 83.4946 72.0209C83.3718 71.9768 80.4727 70.9186 79.0274 68.8434C78.7611 68.4618 78.523 68.048 78.3199 67.6139C78.1216 67.1894 77.9557 66.7449 77.8266 66.2926C77.8209 66.2751 77.8162 66.2586 77.8115 66.2409C77.8042 66.2135 77.8015 66.185 77.8034 66.1566L77.8169 65.9589C77.8271 65.8114 77.8371 65.6636 77.8463 65.5158C78.061 62.2996 78.2296 58.8904 78.3341 55.6552L78.343 55.3613C78.3444 55.3176 78.3457 55.2739 78.3471 55.2302C74.6905 55.6372 71.7414 54.4304 70.2319 51.898C69.1189 50.0308 69.0036 47.7238 69.9383 46.0204C70.779 44.4883 72.3511 43.7075 74.2509 43.8777C75.8775 44.0221 77.713 44.8259 79.706 46.2669C80.3706 46.6755 80.8484 46.797 81.1666 46.6384C81.7117 46.3665 81.923 45.2102 82.1905 43.7464C82.5554 41.7498 83.0551 39.0155 84.7585 36.6006C85.2172 35.9489 85.7483 35.3449 86.3369 34.8057C87.9285 33.3469 90.0358 32.2774 92.6004 31.6268C92.9992 31.525 93.4191 31.4317 93.8484 31.3495L93.8963 31.3402C94.0033 31.3198 94.1071 31.3869 94.1425 31.4982C94.2128 31.7198 94.2842 31.9404 94.3574 32.1609C94.4158 32.3415 94.4756 32.5192 94.5363 32.697C94.5544 32.7529 94.5724 32.8052 94.5903 32.8569L94.6077 32.9078C94.6727 33.0989 94.7391 33.2894 94.8065 33.4798C94.8656 33.6477 94.9243 33.8142 94.9851 33.9795C95.0042 34.0341 95.0217 34.0837 95.0404 34.1344C95.6225 35.732 96.274 37.3207 96.977 38.8573C97.9724 41.0302 99.3988 42.3083 100.657 43.4358C102.088 44.7175 103.323 45.8243 103.52 47.8291C103.697 49.6222 103.069 51.0392 102.732 51.8005C100.587 56.6446 95.0493 57.5952 93.6968 57.7571C94.0051 59.4648 94.3503 61.1861 94.7238 62.8779C94.9322 63.8219 95.1496 64.7612 95.3702 65.6696C95.4631 66.0508 95.5731 66.4996 95.6846 66.9372C95.7162 67.063 95.7474 67.1879 95.7805 67.3125C95.8098 67.4299 95.8383 67.5423 95.8677 67.6549C95.8799 67.7017 95.8787 67.7515 95.8644 67.7976C95.6109 68.6116 95.2443 69.3374 94.7747 69.9546C94.0469 70.913 93.0621 71.631 91.8477 72.0885C91.6265 72.1716 91.3962 72.2469 91.1632 72.3125C90.1582 72.5938 89.116 72.6951 88.1361 72.6951L88.1359 72.6951ZM83.6285 71.5637C83.7785 71.6096 87.6983 72.7866 91.053 71.8478C91.2746 71.7854 91.4936 71.7138 91.7036 71.6349C92.8404 71.2067 93.7594 70.5383 94.4351 69.6486C94.857 69.094 95.1897 68.4433 95.4249 67.7133C95.4017 67.6232 95.3789 67.533 95.3562 67.4421C95.3233 67.3187 95.2915 67.1915 95.2597 67.0644C95.1479 66.6256 95.0374 66.1751 94.9442 65.7923C94.7227 64.8801 94.5045 63.9373 94.2953 62.9899C93.9015 61.2058 93.5388 59.3889 93.2176 57.5896C93.2042 57.5144 93.2117 57.436 93.2595 57.3798C93.3062 57.3251 93.3612 57.2964 93.4284 57.3032C94.1265 57.241 100.134 56.5635 102.335 51.5918C102.335 51.5918 102.335 51.5918 102.335 51.5917C102.676 50.8232 103.246 49.5371 103.082 47.8802C102.904 46.0702 101.789 45.0711 100.377 43.8063C99.0846 42.6482 97.6198 41.3357 96.5825 39.0713C95.8739 37.5226 95.2173 35.9214 94.6309 34.312C94.6116 34.2594 94.593 34.207 94.5743 34.1536C94.5142 33.99 94.4545 33.8213 94.395 33.6516C94.327 33.4596 94.2598 33.2671 94.1945 33.0746L94.1776 33.0254C94.1587 32.9706 94.1397 32.9154 94.1218 32.8601C94.0616 32.6835 94.0009 32.5033 93.9423 32.322C93.8902 32.165 93.8387 32.0071 93.7878 31.8486C93.4135 31.9227 93.0488 32.005 92.7006 32.0939C90.204 32.7272 88.1584 33.763 86.6205 35.1727C86.0563 35.6896 85.5474 36.2682 85.108 36.8926C83.4671 39.2189 82.979 41.8897 82.6225 43.8399C82.319 45.5006 82.0998 46.7004 81.35 47.0745C80.8866 47.3056 80.2931 47.1803 79.4819 46.6802C79.4773 46.6774 79.4729 46.6743 79.4685 46.6712C77.5358 45.2727 75.7681 44.4937 74.2147 44.3558C72.4638 44.1987 71.0786 44.8773 70.3164 46.2664C69.4672 47.8139 69.5791 49.9218 70.6013 51.6366C72.0508 54.0682 74.9473 55.193 78.5488 54.7229C78.6126 54.7147 78.6763 54.7369 78.7236 54.7838C78.7709 54.8308 78.7971 54.8979 78.7954 54.9677L78.7926 55.0702C78.7896 55.1731 78.7865 55.2752 78.7833 55.3774L78.7744 55.671C78.6697 58.9128 78.5007 62.3283 78.2859 65.5493C78.2767 65.6969 78.2665 65.8458 78.2563 65.9943L78.246 66.1452V66.1454C78.368 66.5735 78.5249 66.9942 78.7125 67.3959C78.9038 67.8046 79.1278 68.1939 79.3783 68.553C80.7166 70.4745 83.5059 71.5184 83.6285 71.5634V71.5637Z" fill="#1B1B23"/>
<path d="M77.1464 55.3395C76.7038 55.3395 76.2221 55.3072 75.694 55.2353C75.5732 55.2189 75.4875 55.099 75.5027 54.9675C75.5178 54.836 75.6278 54.7426 75.7487 54.7592C78.3607 55.1146 79.719 54.4738 80.7869 53.8453C80.8941 53.7823 81.0277 53.8257 81.0855 53.9423C81.1433 54.0589 81.1034 54.2045 80.9964 54.2675C80.0305 54.836 78.8927 55.3396 77.1465 55.3396L77.1464 55.3395Z" fill="#1B1B23"/>
<path d="M84.6891 39.8999L84.6139 39.6357C84.595 39.551 84.5784 39.4737 84.5618 39.3964C84.5355 39.2392 84.5138 39.0721 84.5104 38.9148C84.4922 38.5878 84.5129 38.2628 84.5657 37.9427C84.6759 37.2674 84.9352 36.6283 85.3101 36.0883C85.5099 35.7969 85.7445 35.5427 86.0044 35.3208C86.2712 35.0964 86.5682 34.9191 86.8816 34.794C87.1881 34.6715 87.5134 34.6089 87.8412 34.6037C88.16 34.5936 88.486 34.6559 88.7805 34.7883C89.1578 34.965 89.3376 35.4406 89.1775 35.8591C89.1482 35.9367 89.1029 36.012 89.0529 36.0724L88.9597 36.1906C88.7777 36.4169 88.6138 36.5781 88.4726 36.7391C88.3292 36.8926 88.2087 37.046 88.0948 37.1718C87.865 37.4409 87.6693 37.6723 87.4555 37.9437C87.2394 38.2077 87.0214 38.5144 86.7851 38.8609L86.4058 39.411C86.3445 39.5089 86.2764 39.6094 86.1991 39.7049C86.0448 39.946 85.835 40.1325 85.5905 40.257C85.4647 40.3205 85.3204 40.3492 85.1805 40.3428C84.9899 40.3218 84.824 40.2083 84.7288 40.0267C84.7217 39.9795 84.7007 39.9372 84.689 39.8998L84.6891 39.8999Z" fill="#1B1B23"/>
<path d="M86.5672 41.6378C87.1836 41.2331 88.6865 40.3066 89.9181 38.9303C90.0888 38.7416 90.3708 38.7367 90.551 38.9201L90.5534 38.9276C91.0062 39.4184 91.618 40.3425 90.6648 41.1646C89.5019 42.1732 87.2175 42.5141 86.554 42.0601C86.4458 41.9834 86.4194 41.8264 86.492 41.7159C86.5124 41.6832 86.5351 41.658 86.5671 41.6378H86.5672Z" fill="#1B1B23"/>
<path d="M95.2179 36.7912C94.5689 37.1412 94.056 37.2653 92.7714 37.5681C92.5287 37.625 92.3698 37.8761 92.4221 38.1405C92.5505 38.8187 93.0543 39.3741 94.0503 39.1286C95.1677 38.8546 95.5615 37.74 95.5497 37.0182C95.5442 36.8784 95.4402 36.7669 95.3187 36.7704C95.2797 36.7682 95.2522 36.7784 95.218 36.7912H95.2179Z" fill="#1B1B23"/>
<path d="M91.6224 34.4331C91.6575 34.4499 91.6941 34.4637 91.7319 34.4742C91.7987 34.491 91.8697 34.4984 91.945 34.495L92.0716 34.4816C92.3187 34.4645 92.5114 34.4181 92.6971 34.3991C92.878 34.3649 93.0428 34.3537 93.1919 34.3397C93.4965 34.3096 93.7554 34.2803 94.0467 34.2551C94.2881 34.2349 94.5502 34.229 94.8362 34.2235C94.5174 33.3496 94.2167 32.467 93.9344 31.5763C93.9167 31.581 93.8996 31.5853 93.882 31.59C93.8889 31.5835 93.8953 31.5772 93.9024 31.5714C93.9085 31.5659 93.9149 31.5602 93.921 31.5547C93.64 31.5611 93.3585 31.606 93.0866 31.6832C92.8313 31.7639 92.592 31.8764 92.3638 32.0231L92.3633 32.0233C92.3299 32.0448 92.297 32.0669 92.264 32.0895C92.0125 32.2664 91.7985 32.4884 91.6169 32.7394C91.4348 32.9905 91.3085 33.2717 91.2369 33.5819C91.1558 33.9335 91.3275 34.2904 91.6224 34.433V34.4331Z" fill="#1B1B23"/>
<path d="M94.2876 62.0713C94.2037 61.6953 94.1219 61.3142 94.0423 60.9275C93.8022 59.7622 93.6014 58.6324 93.4339 57.5442C93.4339 57.5442 93.4367 57.5439 93.4425 57.543C93.4416 57.5421 93.4408 57.5418 93.4408 57.5418C93.4408 57.5418 89.6462 57.6856 87.2314 56.3638C86.6743 57.0797 88.1771 62.3375 94.2876 62.0714V62.0713Z" fill="#1B1B23"/>
<path d="M93.8409 62.3211C92.1979 62.3211 90.7672 61.9204 89.5826 61.1275C88.595 60.4665 87.7884 59.5161 87.3114 58.4514C86.8825 57.4941 86.7804 56.5719 87.063 56.2087C87.1288 56.1242 87.2391 56.0998 87.3301 56.1494C89.6656 57.4278 93.3954 57.3034 93.433 57.302C93.4657 57.3008 93.5002 57.3079 93.531 57.323C93.5527 57.3336 93.5742 57.3492 93.5917 57.3668C93.644 57.4193 93.6691 57.4954 93.6611 57.5706C93.8321 58.674 94.0326 59.7853 94.257 60.8751C94.334 61.2491 94.4162 61.6325 94.5014 62.0148C94.517 62.0847 94.5029 62.1585 94.4631 62.2159C94.4234 62.2733 94.3621 62.3083 94.2961 62.3111C94.1426 62.3178 93.9908 62.3211 93.8409 62.3211V62.3211ZM87.3513 56.6925C87.3233 56.9656 87.3827 57.5162 87.7074 58.241C88.094 59.1039 89.6554 61.8411 93.8447 61.8411C93.8991 61.8411 93.9543 61.8407 94.0096 61.8398C93.9464 61.5508 93.8852 61.2627 93.8271 60.98C93.6101 59.9267 93.4154 58.8532 93.2478 57.786C92.4489 57.7959 89.4867 57.7558 87.3513 56.6925Z" fill="#1B1B23"/>
<path d="M96.3076 45.6415C96.0578 45.9932 95.7292 46.2656 95.3403 46.4187C94.963 46.5841 94.5553 46.6524 94.1536 46.6183C93.7543 46.5666 93.3747 46.4075 93.0427 46.1553C92.7084 45.8958 92.4445 45.5434 92.2858 45.135L92.2835 45.1276C92.2344 44.9956 92.0941 44.9393 91.973 44.9928C91.8724 45.0385 91.8157 45.1513 91.8304 45.2712C91.926 45.8449 92.2047 46.3672 92.6202 46.7384C92.8256 46.9291 93.0491 47.0796 93.2998 47.1948C94.0453 47.5434 94.8981 47.5014 95.6132 47.0934C95.8485 46.9641 96.0653 46.8 96.2567 46.6035C96.4549 46.4046 96.6069 46.1561 96.7128 45.8829C96.7624 45.7476 96.7017 45.6033 96.5776 45.5493C96.4786 45.5026 96.362 45.5461 96.2984 45.6365L96.3077 45.6415H96.3076Z" fill="#1B1B23"/>
<path d="M94.9346 42.7804C94.9941 42.775 95.0443 42.7396 95.0831 42.6918C95.5918 41.9433 95.7786 41.4148 95.6839 40.9659C95.5677 40.3999 95.0197 40.0947 94.3935 39.7351C92.9845 38.9324 92.9396 38.0562 92.9372 38.0486C92.9363 37.9237 92.8371 37.8272 92.7224 37.8281C92.6077 37.829 92.5167 37.9297 92.5176 38.0545C92.5179 38.1045 92.5415 39.2057 94.1991 40.1413C94.823 40.4933 95.2053 40.7349 95.2787 41.0666C95.3403 41.3607 95.1712 41.7993 94.7511 42.4147C94.6829 42.5152 94.7045 42.6573 94.7968 42.7316C94.8268 42.7787 94.8842 42.7907 94.9347 42.7803L94.9346 42.7804Z" fill="#1B1B23"/>
<path d="M78.5459 50.5183C78.4698 50.5183 78.3958 50.4753 78.355 50.3985C77.4776 48.7467 75.2172 47.4292 72.7559 48.241C72.6396 48.2795 72.5164 48.2078 72.4812 48.081C72.4459 47.9542 72.5117 47.8203 72.6281 47.7818C75.3066 46.8985 77.7742 48.3468 78.7364 50.1582C78.7974 50.2729 78.7614 50.4198 78.656 50.4861C78.6213 50.5079 78.5834 50.5184 78.5459 50.5184V50.5183Z" fill="#1B1B23"/>
<path d="M20.4229 89.1704C41.4034 110.339 49.18 113.716 51.8496 111.542C54.3717 109.488 52.7104 102.176 50.3213 97.8068C45.3956 88.7984 33.2204 84.6993 20.4229 89.1704Z" fill="#1B1B23"/>
<path d="M144.793 79.7015C142.677 81.2336 119.492 98.2686 122.823 107.796C123.457 109.61 125.125 111.358 127.026 111.542C133.46 112.163 140.191 94.6311 144.793 79.7015H144.793Z" fill="#1B1B23"/>
<path d="M165.259 112.734C167.47 110.687 168.199 109.599 168.483 107.379C169.969 95.7294 157.689 85.1119 136.674 73.5617C131.611 82.2335 124.065 93.8178 119.002 102.489C124.909 104.214 154.75 124.457 165.259 112.734L165.259 112.734Z" fill="white"/>
<path d="M155.873 116.606C153.196 116.606 150.084 116.093 146.596 115.073C139.143 112.895 131.395 108.882 125.736 105.951C122.651 104.353 120.214 103.091 118.946 102.72C118.878 102.7 118.823 102.647 118.797 102.576C118.772 102.504 118.779 102.424 118.817 102.36C121.349 98.0236 124.553 92.8763 127.651 87.8984C130.752 82.918 133.957 77.7681 136.488 73.4329C136.549 73.3289 136.672 73.2919 136.773 73.3474C148.044 79.5416 156.023 85.0728 161.166 90.2569C166.964 96.1 169.429 101.712 168.702 107.412C168.401 109.767 167.578 110.901 165.41 112.909C163.454 115.087 160.697 116.316 157.218 116.561C156.783 116.591 156.334 116.606 155.873 116.606ZM119.346 102.348C120.708 102.815 123.034 104.02 125.926 105.518C131.569 108.44 139.296 112.443 146.711 114.61C150.142 115.613 153.182 116.113 155.82 116.114C159.877 116.114 162.983 114.93 165.102 112.566C165.107 112.561 165.112 112.556 165.117 112.551C167.381 110.454 167.999 109.433 168.265 107.346C168.971 101.813 166.551 96.3378 160.867 90.6091C155.781 85.4832 147.892 80.0077 136.753 73.8737C134.236 78.1762 131.075 83.2543 128.016 88.1676C124.983 93.0399 121.849 98.0747 119.346 102.348Z" fill="#1B1B23"/>
<path d="M132.758 93.8522C129.314 98.172 121.469 108.131 125.881 111.213C121.161 108.362 117.299 106.16 112.316 103.946C112.316 103.946 103.759 96.6774 99.1773 78.2985V78.2963C98.6327 76.1161 97.9395 72.7694 97.7731 71.4038C97.6232 70.177 97.6069 68.586 98.3702 67.1106C99.2423 65.4259 100.823 64.2323 102.475 63.6672C120.731 59.2223 142.324 76.3741 146.028 78.7349C146.028 78.7349 136.27 89.4476 132.758 93.8522V93.8522Z" fill="#62B2FF"/>
<path d="M124.401 155.987C124.401 155.987 79.8116 170.518 43.4443 154.402C44.5033 150.162 54.6106 109.878 54.6797 109.357C55.0706 104.853 55.2528 102.967 55.5581 100.244C56.9641 87.8906 58.9809 78.947 59.108 78.2313C60.7943 70.1383 62.9272 62.3068 63.0481 61.9656C68.3628 61.999 73.5094 63.401 78.0422 65.8998C81.7999 73.9948 93.1206 73.9948 95.4509 67.5866C95.4803 67.4509 95.6102 66.8515 95.6419 66.7153C97.8517 65.3943 100.148 64.3692 102.594 63.6308C105.576 68.0044 117.349 101.017 117.897 103.777C117.897 103.779 117.898 103.782 117.899 103.784C119.722 112.966 124.853 147.747 124.401 155.987V155.987Z" fill="#62B2FF"/>
<path d="M95.3248 66.4151C96.239 70.0873 99.6757 81.139 97.1445 81.7248C96.3114 81.9808 95.4727 81.0266 94.1667 78.7218C93.582 77.724 91.6318 73.6306 90.9992 71.6002C91.6885 75.6922 90.842 85.7329 87.5516 85.7329C82.6796 85.7329 79.1517 71.0781 78.0127 65.6516" fill="#62B2FF"/>
<path d="M87.5523 85.9728C82.5886 85.9728 79.0776 71.7989 77.7986 65.705C77.7715 65.5759 77.8456 65.4472 77.9642 65.4177C78.0831 65.3882 78.201 65.469 78.2282 65.5981C79.2078 70.2652 82.7753 85.493 87.5523 85.493C88.0609 85.493 88.5348 85.2106 88.9609 84.6537C90.838 82.2005 91.3604 75.07 90.7832 71.6435C90.7624 71.5198 90.8328 71.3996 90.9445 71.368C91.0565 71.3364 91.1715 71.404 91.2085 71.5231C91.8392 73.5472 93.7861 77.6252 94.3532 78.5928C95.6528 80.8862 96.4182 81.6991 97.0853 81.4939C97.09 81.4924 97.0947 81.4912 97.0993 81.4901C97.2907 81.4458 97.4402 81.3214 97.5562 81.1096C98.5571 79.2821 96.6614 72.2575 95.6429 68.4836C95.4297 67.6934 95.2456 67.0111 95.1128 66.4778C95.0809 66.3499 95.1504 66.2182 95.2678 66.1835C95.3851 66.1488 95.5062 66.2244 95.5381 66.3524C95.6696 66.8807 95.8532 67.5608 96.0657 68.3483C97.5677 73.9141 98.9492 79.503 97.9346 81.3554C97.7561 81.6812 97.5083 81.8838 97.1981 81.9578C97.0897 81.9904 96.9824 82.0064 96.876 82.0064C95.961 82.0066 95.0997 80.8242 93.9799 78.8478C93.5367 78.0917 92.2563 75.4487 91.402 73.3385C91.4884 74.8997 91.4328 76.7691 91.2342 78.5177C91.0391 80.2345 90.5284 83.3546 89.2993 84.9609C88.7856 85.6323 88.1977 85.9728 87.5522 85.9728H87.5523Z" fill="white"/>
<path d="M92.6549 86.5845C93.0505 86.5845 93.3713 86.2352 93.3713 85.8044C93.3713 85.3735 93.0505 85.0242 92.6549 85.0242C92.2592 85.0242 91.9385 85.3735 91.9385 85.8044C91.9385 86.2352 92.2592 86.5845 92.6549 86.5845Z" fill="white"/>
<path d="M93.8971 92.5162C94.2927 92.5162 94.6135 92.1669 94.6135 91.736C94.6135 91.3052 94.2927 90.9559 93.8971 90.9559C93.5014 90.9559 93.1807 91.3052 93.1807 91.736C93.1807 92.1669 93.5014 92.5162 93.8971 92.5162Z" fill="white"/>
<path d="M118.845 107.597C118.746 107.597 118.655 107.522 118.631 107.412C116.595 98.0727 115.49 95.0036 114.829 93.1698C114.693 92.7917 114.575 92.4648 114.477 92.1555C112.149 85.8054 109.25 79.6687 105.861 73.9171C105.795 73.8055 105.825 73.6572 105.928 73.5856C106.03 73.5139 106.166 73.5465 106.232 73.658C109.637 79.437 112.55 85.6024 114.888 91.9829C114.89 91.9864 114.891 91.99 114.892 91.9936C114.988 92.2952 115.104 92.6194 115.239 92.9947C115.904 94.8402 117.016 97.9291 119.06 107.301C119.088 107.43 119.015 107.56 118.896 107.59C118.879 107.595 118.862 107.597 118.845 107.597L118.845 107.597Z" fill="white"/>
<path d="M94.9926 96.8168C94.842 96.8168 94.6763 96.7885 94.4957 96.7317C94.3788 96.6949 94.3114 96.5619 94.3452 96.4346C94.3789 96.3073 94.5012 96.2338 94.6179 96.2706C95.1246 96.4299 95.2848 96.2626 95.3375 96.2076C96.0606 95.4527 95.1914 91.5713 93.8756 85.6962C93.1141 82.2961 92.1665 78.0645 91.2088 73.0675C91.1839 72.9378 91.2604 72.8107 91.3794 72.7836C91.4987 72.7567 91.6154 72.8398 91.6401 72.9695C92.5963 77.9586 93.5429 82.1858 94.3037 85.5825C95.7985 92.2572 96.5488 95.6076 95.6425 96.554C95.4749 96.729 95.2572 96.8167 94.9925 96.8167L94.9926 96.8168Z" fill="white"/>
<path d="M85.6452 26.691C85.6263 26.7027 85.6073 26.7145 85.5848 26.7192C85.4281 26.7705 85.271 26.6766 85.224 26.5061C85.209 26.461 84.9393 25.4291 85.0028 24.0921C85.0933 22.2937 85.7609 20.8202 86.9413 19.8201C87.0694 19.7139 87.2492 19.7391 87.3467 19.8787C87.4443 20.0184 87.421 20.2141 87.2928 20.3203C84.7669 22.4676 85.7662 26.2987 85.7742 26.33C85.8232 26.4723 85.7587 26.621 85.6452 26.691Z" fill="white"/>
<path d="M81.021 144.166C81.0202 144.166 81.0195 144.166 81.0187 144.165C80.3682 143.771 79.6407 143.35 78.8247 142.902C78.8281 142.902 78.8581 142.911 78.8609 142.911C85.1653 144.495 89.0541 142.675 81.7322 140.242C73.7689 137.596 69.852 133.587 73.0235 133.858C77.4383 134.234 78.7039 132.764 69.6743 128.475C66.9139 127.163 66.6794 127.001 57.5683 121.97C46.994 115.512 41.0365 111.283 40.709 111.067C46.3083 107.427 64.9873 96.0211 66.9701 94.7557L61.1278 62.3372C48.4082 62.3372 22.5373 78.151 10.15 99.5607C8.2747 102.801 6.98224 106.817 6.46493 110.427C6.46111 110.428 6.45714 110.43 6.4534 110.431C5.61332 117.228 6.96975 122.912 11.8025 128.276C13.9299 130.89 17.0532 133.254 20.7083 135.367C26.1241 138.656 32.2773 141.066 38.2095 142.866C41.3465 143.904 44.4115 144.804 47.2149 145.565C53.6343 147.277 83.8404 155.108 78.4878 150.859C78.4879 150.859 78.4878 150.859 78.4879 150.859C82.7334 151.619 85.9605 150.012 83.9087 148.923C83.9087 148.923 83.9087 148.923 83.9087 148.923C86.3086 149.068 86.8039 147.672 81.021 144.166Z" fill="white"/>
<path d="M77.7172 152.345C77.0188 152.345 76.014 152.262 74.5618 152.053C72.2355 151.718 69.0133 151.092 64.9849 150.194C57.1868 148.454 48.7699 146.227 47.1619 145.798C44.017 144.944 40.9834 144.035 38.1447 143.096C31.2984 141.018 25.394 138.488 20.6003 135.576C16.6546 133.295 13.6389 130.894 11.6407 128.44C9.24362 125.778 7.65674 123.005 6.78949 119.962C5.97416 117.101 5.79262 113.973 6.23429 110.399C6.23767 110.372 6.24516 110.346 6.25625 110.323C6.81138 106.513 8.16068 102.547 9.96289 99.4328C15.6541 89.5964 24.6863 80.1087 35.3957 72.7177C40.1073 69.466 44.9706 66.7689 49.4597 64.9183C53.9363 63.0728 57.9709 62.0973 61.1271 62.0973C61.2325 62.0973 61.3231 62.1785 61.3433 62.291L67.1857 94.7095C67.2037 94.8095 67.1617 94.9111 67.0808 94.9627C66.4354 95.3746 63.9849 96.8832 60.8824 98.793C54.5679 102.68 45.1093 108.503 41.1294 111.074C45.7479 114.275 51.4662 117.969 57.6716 121.758C58.8618 122.416 59.9005 122.99 60.813 123.494C66.8733 126.844 67.3683 127.118 69.7617 128.255C72.1898 129.408 74.0013 130.419 75.1461 131.258C76.2785 132.089 76.7475 132.731 76.6218 133.279C76.4538 134.012 75.2373 134.287 73.0056 134.097C72.4411 134.049 72.166 134.152 72.1445 134.276C72.0947 134.562 72.6916 135.428 74.5397 136.643C76.4384 137.892 79.0154 139.089 81.7958 140.013C84.7349 140.989 86.1175 141.922 85.9052 142.786C85.6657 143.761 83.3168 144.012 80.3033 143.468C80.5823 143.63 80.8556 143.792 81.122 143.953C81.1238 143.954 81.1257 143.955 81.1275 143.957C84.4759 145.987 86.0457 147.497 85.7934 148.446C85.7127 148.749 85.4273 149.088 84.5793 149.159C84.7976 149.443 84.7794 149.708 84.7311 149.873C84.4464 150.847 82.0698 151.559 79.1645 151.203C79.3154 151.412 79.3943 151.639 79.299 151.863C79.1907 152.116 78.8776 152.344 77.7171 152.345H77.7172ZM6.66281 110.531C5.79593 117.659 7.43091 123.082 11.9591 128.108C11.9617 128.111 11.9643 128.114 11.9668 128.117C13.9299 130.529 16.9056 132.897 20.8109 135.155C25.5782 138.05 31.4503 140.566 38.268 142.635C41.1048 143.574 44.1311 144.481 47.2676 145.332C48.8725 145.76 57.2775 147.984 65.0667 149.722C69.0839 150.618 72.2955 151.242 74.6123 151.576C78.5666 152.146 78.8771 151.712 78.8995 151.661C78.9219 151.609 78.903 151.486 78.3573 151.053C78.2748 150.987 78.2444 150.869 78.2839 150.766C78.3233 150.664 78.4222 150.604 78.5229 150.622C81.7809 151.205 84.1223 150.374 84.3114 149.727C84.3852 149.475 83.9863 149.231 83.8114 149.138C83.7171 149.088 83.6683 148.973 83.6947 148.862C83.7211 148.752 83.8143 148.677 83.9202 148.683C84.9006 148.743 85.3121 148.53 85.3701 148.312C85.4174 148.135 85.4243 147.111 80.9157 144.377C80.9141 144.376 80.9125 144.375 80.911 144.374C80.222 143.958 79.4865 143.534 78.7248 143.116C78.6267 143.062 78.58 142.938 78.6155 142.824C78.6509 142.711 78.7579 142.643 78.8655 142.666C78.8676 142.666 78.8755 142.668 78.8853 142.671L78.8989 142.674C78.9025 142.675 78.9062 142.676 78.9097 142.677C82.9111 143.682 85.3487 143.194 85.4796 142.662C85.5521 142.366 84.8487 141.528 81.6672 140.471C78.8531 139.536 76.2409 138.323 74.3119 137.054C73.2732 136.371 71.5543 135.09 71.7116 134.186C71.789 133.741 72.2363 133.55 73.04 133.618C75.2478 133.806 76.1192 133.49 76.1943 133.163C76.2402 132.963 76.1372 131.807 69.5856 128.694C67.1804 127.552 66.6845 127.278 60.6136 123.922C59.7001 123.417 58.6599 122.842 57.4681 122.184C57.4653 122.182 57.4627 122.181 57.4599 122.179C51.23 118.374 45.4883 114.665 40.8559 111.452C40.714 111.354 40.6264 111.293 40.5942 111.272C40.5282 111.228 40.4879 111.15 40.4882 111.066C40.4885 110.982 40.5293 110.904 40.5956 110.861C44.3785 108.401 54.1799 102.368 60.6657 98.3751C63.5802 96.5809 65.9192 95.141 66.7231 94.6341L60.9461 62.5779C47.6157 62.7265 22.1763 79.2238 10.3357 99.6884C8.55373 102.768 7.22205 106.695 6.68197 110.463C6.6786 110.487 6.67206 110.51 6.66281 110.53V110.531Z" fill="#1B1B23"/>
<path d="M66.0617 98.8896C62.9715 102.226 59.9579 104.829 58.2499 106.443C56.0363 108.535 54.7326 109.546 51.5634 111.75C52.1945 111.253 52.5397 110.828 52.6142 109.669C52.842 106.118 47.9739 103.849 41.1515 100.408C35.5559 97.5861 18.1259 90.1177 16.752 89.7125C18.4819 87.4794 22.8696 82.809 26.8989 79.3273C48.9424 60.2821 59.8368 61.8673 62.9976 61.9662C67.2211 61.9604 70.9698 64.4449 72.1543 65.5832C75.5873 68.8848 76.1748 73.689 76.3659 75.4412C77.3678 84.6177 71.5906 92.9254 66.0618 98.8897L66.0617 98.8896Z" fill="#62B2FF"/>
<path d="M75.8079 92.5172C70.9559 100.459 62.3567 106.353 54.416 110.481C54.4955 110.162 54.5549 109.838 54.6418 109.531C54.9529 109.679 69.5525 101.67 75.0845 92.3472C75.5171 91.6182 76.2086 91.8613 75.8079 92.5172Z" fill="white"/>
<path d="M162.312 50.8661C162.233 50.8512 162.154 50.8362 162.075 50.8211C156.583 49.7789 152.325 53.9175 151.713 60.3128C151.02 67.5542 150.151 76.7207 150.151 81.6933C150.174 81.7296 150.265 86.8641 152.907 99.0581C154.861 108.082 158.781 116.135 158.781 116.135C158.781 116.135 174.756 116.406 174.78 91.2095C174.787 83.3699 171.593 68.8494 169.798 58.8523C169.063 54.7584 166.086 51.5835 162.312 50.8662V50.8661Z" fill="#BFB6FF"/>
<path d="M158.807 116.375C158.791 116.375 158.781 116.375 158.777 116.375C158.696 116.373 158.623 116.324 158.586 116.247C158.546 116.166 154.63 108.063 152.692 99.1132C150.524 89.1052 150.046 83.7065 149.941 81.8499C149.938 81.7933 149.936 81.7555 149.934 81.736C149.932 81.7219 149.931 81.7077 149.931 81.6933C149.931 76.619 150.834 67.1799 151.494 60.2878C151.821 56.8626 153.181 54.0061 155.321 52.2446C157.225 50.6769 159.574 50.103 162.112 50.5847L162.35 50.6298C164.245 50.9902 165.974 51.9555 167.348 53.4215C168.723 54.8878 169.644 56.7497 170.014 58.8061C170.403 60.9745 170.855 63.3367 171.333 65.8376C173.054 74.8415 175.005 85.0469 175 91.2097C174.991 100.335 172.915 107.18 168.828 111.557C166.46 114.093 163.858 115.268 162.092 115.806C160.309 116.35 159.024 116.375 158.807 116.375H158.807ZM150.371 81.6787C150.375 81.7117 150.377 81.756 150.381 81.8204C150.485 83.6647 150.961 89.031 153.121 99.003C154.912 107.273 158.405 114.819 158.913 115.892C159.753 115.864 164.512 115.512 168.526 111.208C172.521 106.924 174.551 100.196 174.559 91.2092C174.565 85.096 172.619 74.9165 170.902 65.9353C170.423 63.433 169.971 61.0695 169.581 58.8982C168.869 54.931 165.932 51.7981 162.274 51.1025L162.037 51.0574C159.622 50.5992 157.391 51.1421 155.586 52.6275C153.545 54.308 152.247 57.0461 151.932 60.3376C151.274 67.2126 150.373 76.6259 150.371 81.6788V81.6787ZM149.967 81.8257C149.967 81.8257 149.968 81.8263 149.968 81.8266C149.968 81.8263 149.968 81.826 149.967 81.8257ZM149.967 81.8247C149.967 81.8247 149.967 81.8253 149.967 81.8255C149.967 81.8253 149.967 81.825 149.967 81.8247ZM149.966 81.8238C149.966 81.8238 149.967 81.8243 149.967 81.8246C149.967 81.8243 149.966 81.824 149.966 81.8238ZM149.966 81.8228C149.966 81.8228 149.966 81.8234 149.966 81.8237C149.966 81.8235 149.966 81.8231 149.966 81.8228ZM149.964 81.821C149.965 81.8216 149.965 81.8222 149.966 81.8228C149.965 81.8222 149.965 81.8216 149.964 81.821ZM149.964 81.82C149.964 81.82 149.964 81.8207 149.964 81.8209C149.964 81.8206 149.964 81.8203 149.964 81.82ZM149.963 81.8191C149.963 81.8191 149.964 81.8196 149.964 81.8199C149.964 81.8196 149.964 81.8194 149.963 81.8191ZM149.963 81.8181C149.963 81.8181 149.963 81.8187 149.963 81.819C149.963 81.8187 149.963 81.8184 149.963 81.8181ZM149.962 81.8171C149.962 81.8171 149.963 81.8178 149.963 81.818C149.963 81.8177 149.962 81.8174 149.962 81.8171ZM149.961 81.8143C149.961 81.8152 149.962 81.8162 149.962 81.8171C149.962 81.8163 149.961 81.8153 149.961 81.8143ZM149.96 81.8134C149.96 81.8134 149.961 81.8139 149.961 81.8143C149.961 81.8139 149.96 81.8137 149.96 81.8134ZM149.96 81.8124C149.96 81.8124 149.96 81.813 149.96 81.8132C149.96 81.813 149.96 81.8127 149.96 81.8124ZM149.959 81.8115C149.959 81.8115 149.96 81.812 149.96 81.8123C149.96 81.812 149.959 81.8117 149.959 81.8115ZM149.959 81.8105L149.959 81.8113L149.959 81.8105ZM149.958 81.8095C149.958 81.8095 149.958 81.8101 149.959 81.8104C149.958 81.8101 149.958 81.8099 149.958 81.8095ZM149.958 81.8086L149.958 81.8094L149.958 81.8086ZM149.957 81.8076C149.957 81.8076 149.957 81.8081 149.958 81.8084C149.957 81.8082 149.957 81.808 149.957 81.8076ZM149.957 81.8067C149.957 81.8067 149.957 81.8071 149.957 81.8075C149.957 81.8072 149.957 81.807 149.957 81.8067ZM149.956 81.8058C149.956 81.8058 149.957 81.8063 149.957 81.8065C149.957 81.8063 149.956 81.806 149.956 81.8058ZM149.956 81.8048C149.956 81.8048 149.956 81.8053 149.956 81.8056C149.956 81.8053 149.956 81.8051 149.956 81.8048ZM149.955 81.8039C149.955 81.8039 149.956 81.8043 149.956 81.8046C149.956 81.8043 149.955 81.8041 149.955 81.8039ZM149.955 81.8028C149.955 81.8028 149.955 81.8033 149.955 81.8036C149.955 81.8033 149.955 81.8031 149.955 81.8028ZM149.954 81.8019C149.954 81.8019 149.955 81.8024 149.955 81.8027C149.955 81.8024 149.954 81.8022 149.954 81.8019ZM149.954 81.8009C149.954 81.8009 149.954 81.8015 149.954 81.8017C149.954 81.8015 149.954 81.8011 149.954 81.8009ZM149.953 81.8C149.953 81.8 149.954 81.8005 149.954 81.8008C149.954 81.8005 149.953 81.8002 149.953 81.8ZM149.953 81.7989C149.953 81.7989 149.953 81.7995 149.953 81.7997C149.953 81.7995 149.953 81.7992 149.953 81.7989ZM149.952 81.7979C149.952 81.7979 149.953 81.7984 149.953 81.7988C149.953 81.7984 149.953 81.7982 149.952 81.7979ZM149.952 81.7969C149.952 81.7969 149.952 81.7975 149.952 81.7978C149.952 81.7975 149.952 81.7972 149.952 81.7969ZM149.952 81.796C149.952 81.796 149.952 81.7965 149.952 81.7968C149.952 81.7965 149.952 81.7963 149.952 81.796ZM149.951 81.7949C149.951 81.7949 149.951 81.7956 149.952 81.7958C149.951 81.7955 149.951 81.7952 149.951 81.7949ZM149.951 81.794C149.951 81.794 149.951 81.7946 149.951 81.7949C149.951 81.7946 149.951 81.7943 149.951 81.794ZM149.95 81.7929C149.95 81.7929 149.95 81.7936 149.951 81.7939C149.95 81.7936 149.95 81.7932 149.95 81.7929ZM149.95 81.7919C149.95 81.7919 149.95 81.7925 149.95 81.7928C149.95 81.7925 149.95 81.7922 149.95 81.7919ZM149.946 81.7828C149.947 81.7857 149.949 81.7888 149.95 81.7919C149.949 81.7888 149.947 81.7858 149.946 81.7828ZM149.946 81.7818C149.946 81.7818 149.946 81.7824 149.946 81.7828C149.946 81.7824 149.946 81.7821 149.946 81.7818ZM149.946 81.7808C149.946 81.7808 149.946 81.7813 149.946 81.7816C149.946 81.7814 149.946 81.7812 149.946 81.7808ZM149.945 81.78L149.945 81.7805L149.945 81.78Z" fill="#BFB6FF"/>
<path d="M166.457 99.7806C166.417 99.7806 166.378 99.7691 166.342 99.745C166.238 99.6756 166.206 99.5279 166.269 99.4149C167.032 98.0636 167.481 96.7809 167.604 95.6027C168.742 84.6421 164.506 51.2446 164.463 50.9085C164.446 50.7773 164.53 50.6561 164.651 50.6378C164.771 50.6193 164.883 50.7111 164.9 50.8424C164.943 51.1791 169.186 84.6363 168.042 95.6566C167.912 96.9054 167.442 98.2544 166.645 99.6662C166.603 99.7399 166.531 99.7805 166.457 99.7805L166.457 99.7806Z" fill="white"/>
<path d="M162.836 107.684C160.217 107.684 158.087 105.364 158.087 102.512C158.087 99.6604 160.217 97.3403 162.836 97.3403C165.455 97.3403 167.586 99.6604 167.586 102.512C167.586 105.364 165.455 107.684 162.836 107.684ZM162.836 97.8201C160.46 97.8201 158.528 99.9249 158.528 102.512C158.528 105.099 160.46 107.204 162.836 107.204C165.212 107.204 167.145 105.099 167.145 102.512C167.145 99.9249 165.212 97.8201 162.836 97.8201Z" fill="white"/>
<path d="M165.034 49.0793C165.261 50.6692 164.175 51.4448 164.175 51.4448C164.175 51.4448 162.267 51.3915 159.296 51.7401C156.71 52.0437 154.822 52.8404 154.822 52.8404C154.822 52.8404 153.777 52.4686 153.559 50.9942C153.266 49.0114 155.622 46.9711 158.791 46.4422C161.959 45.9135 164.751 47.0948 165.034 49.0792L165.034 49.0793Z" fill="#1B1B23"/>
<path d="M153.913 49.8202L163.983 48.6273C165.892 48.4012 167.311 46.6005 167.226 44.5119C166.945 37.5947 166.512 24.5456 165.903 22.9021C165.057 20.6179 164.24 21.3959 163.992 22.446C163.781 23.342 163.009 28.5825 163.009 28.5825C163.009 28.5825 160.929 20.6013 158.887 19.236C157.746 18.4725 157.434 19.677 157.62 21.2314C157.771 22.5003 159.094 28.5544 159.234 29.6017C157.56 27.799 152.18 24.6891 149.26 25.3986C147.999 25.7063 148.71 27.3376 149.894 28.1476C151.3 29.0668 155.271 31.6986 156.357 32.7948C153.635 32.0024 149.622 33.3585 147.409 35.305C146.114 36.4442 144.962 38.8196 147.137 38.0144C148.498 37.3783 150.257 36.4855 151.52 36.891C153.869 37.7547 153.887 40.3032 153.053 41.5293C152.167 42.7257 149.855 43.5807 148.105 41.1265C145.932 38.3343 145.303 38.8303 145.802 41.869C146.975 49.1334 150.95 50.1714 153.913 49.8205L153.913 49.8202Z" fill="#BFB6FF"/>
<path d="M153.253 38.4374C153.205 38.4374 153.159 38.4347 153.113 38.4292C152.992 38.4148 152.905 38.2962 152.918 38.1645C152.932 38.0328 153.04 37.9375 153.161 37.9523C153.195 37.9563 153.23 37.9583 153.265 37.9583C154.326 37.9584 156.139 36.19 156.357 34.5564C156.529 33.2678 155.669 32.3994 153.869 32.0449C153.75 32.0213 153.67 31.8964 153.692 31.7661C153.714 31.6356 153.828 31.5492 153.948 31.5727C156.705 32.116 156.914 33.7184 156.793 34.6253C156.539 36.5308 154.528 38.4372 153.253 38.4373L153.253 38.4374Z" fill="white"/>
<path d="M150.697 50.8006C150.597 50.8006 150.507 50.7262 150.483 50.6157C150.455 50.4867 150.528 50.3576 150.647 50.3271C152.293 49.904 153.145 48.9947 153.179 47.6244C153.23 45.5494 151.315 42.973 150.131 42.5947C150.014 42.5574 149.947 42.4241 149.982 42.2969C150.016 42.1698 150.138 42.0969 150.255 42.1342C151.563 42.5523 153.677 45.2973 153.619 47.6373C153.592 48.7478 153.071 50.1969 150.748 50.7941C150.731 50.7985 150.714 50.8005 150.697 50.8005L150.697 50.8006Z" fill="white"/>
<path d="M157.508 34.3073C157.055 34.3073 156.65 34.1361 156.356 33.7998C156.272 33.7039 156.275 33.552 156.363 33.4607C156.451 33.3693 156.591 33.3729 156.675 33.469C157.127 33.9855 157.859 33.867 158.394 33.5837C159.192 33.1612 159.981 32.1843 159.828 31.0379C159.81 30.9067 159.894 30.785 160.014 30.766C160.134 30.7469 160.246 30.8378 160.264 30.9689C160.449 32.3538 159.524 33.5188 158.587 34.0153C158.217 34.2108 157.849 34.3074 157.508 34.3074L157.508 34.3073Z" fill="white"/>
<path d="M163.066 31.6313C162.949 31.6313 162.851 31.5296 162.846 31.4001L162.692 26.7533C162.687 26.6208 162.782 26.5096 162.904 26.5048C162.906 26.5047 162.909 26.5046 162.912 26.5046C163.03 26.5046 163.128 26.6064 163.132 26.7358L163.287 31.3827C163.291 31.5151 163.196 31.6264 163.075 31.6312C163.072 31.6313 163.069 31.6313 163.066 31.6313Z" fill="white"/>
<path d="M164.698 32.5632C164.628 32.5632 164.558 32.5598 164.489 32.5531C163.589 32.4657 162.894 31.8484 162.837 31.0853C162.827 30.9532 162.917 30.8374 163.038 30.8266C163.16 30.8156 163.266 30.9142 163.276 31.0462C163.315 31.5673 163.853 32.0097 164.528 32.0752C165.313 32.1513 166.28 31.6966 166.646 30.1927C166.677 30.0646 166.798 29.9885 166.916 30.0224C167.033 30.0564 167.103 30.1878 167.072 30.3158C166.667 31.9799 165.617 32.5632 164.698 32.5632Z" fill="white"/>
<path d="M160.103 31.4698C160.002 31.4698 159.911 31.3934 159.888 31.2813C159.639 30.046 158.762 29.0219 158.753 29.0117C158.67 28.9153 158.674 28.7635 158.762 28.6726C158.851 28.5818 158.99 28.5858 159.074 28.6822C159.113 28.7276 160.043 29.8104 160.319 31.1784C160.345 31.3078 160.269 31.4358 160.151 31.4642C160.135 31.468 160.119 31.4698 160.103 31.4698Z" fill="white"/>
<path d="M161.599 32.6071C160.853 32.6071 160.087 32.2161 159.889 31.2841C159.861 31.155 159.935 31.0261 160.053 30.9962C160.171 30.9662 160.29 31.0466 160.318 31.1757C160.478 31.9267 161.179 32.1887 161.804 32.1153C162.308 32.0559 162.854 31.7563 162.86 31.2388C162.861 31.1064 162.959 31.0002 163.083 31.002C163.204 31.0036 163.302 31.1124 163.3 31.2449C163.292 31.9389 162.696 32.4929 161.851 32.5924C161.768 32.6022 161.684 32.6072 161.599 32.6072V32.6071Z" fill="white"/>
<path d="M158.983 46.551C158.893 46.551 158.808 46.4897 158.776 46.3914C158.316 44.9834 158.507 42.6985 159.262 40.5702C160.12 38.1518 161.553 36.3453 163.193 35.6141C163.306 35.564 163.435 35.6226 163.481 35.7453C163.527 35.8679 163.473 36.008 163.36 36.0582C161.831 36.7397 160.487 38.4473 159.673 40.7432C158.954 42.7706 158.765 44.9246 159.191 46.2308C159.232 46.3556 159.172 46.4928 159.057 46.5372C159.033 46.5466 159.008 46.5511 158.983 46.5511V46.551Z" fill="white"/>
<path d="M32.7288 139.428L94.6267 150.588C95.0107 150.657 95.3599 150.388 95.3908 149.999L99.6113 96.8432C99.6399 96.4836 99.3844 96.1522 99.0294 96.0881L42.9632 85.9796C42.6081 85.9157 42.2772 86.1413 42.2091 86.4939L32.157 138.598C32.0834 138.979 32.3447 139.359 32.7288 139.428V139.428Z" fill="#BFB6FF"/>
<path d="M32.157 138.598C32.0834 138.98 32.3447 139.359 32.7288 139.428L93.9046 150.458C85.0197 148.733 37.4506 137.635 42.2894 86.2937C42.2918 86.2677 42.2548 86.26 42.2499 86.2855L32.157 138.598H32.157Z" fill="#BFB6FF"/>
<path d="M88.1351 97.0969C87.4961 96.9831 86.9095 97.4696 86.8517 98.1626C86.6382 100.725 86.0604 106.8 84.9339 113.217C83.6349 120.616 83.9866 126.586 84.2055 128.864C84.261 129.442 84.6853 129.904 85.2201 129.967L101.242 131.872C101.969 131.959 102.568 131.287 102.457 130.506C102.185 128.587 101.795 125.149 101.904 121.787C102.062 116.951 102.978 104.718 103.267 100.938C103.316 100.302 103.049 99.2769 102.462 99.1725L88.135 97.0969H88.1351Z" fill="white"/>
<path d="M101.369 132.12C101.319 132.12 101.269 132.117 101.219 132.111L85.1969 130.206C84.562 130.13 84.0532 129.577 83.9871 128.889C83.7713 126.645 83.4106 120.619 84.7182 113.172C85.8559 106.691 86.4362 100.501 86.6329 98.1408C86.6661 97.7421 86.8442 97.3879 87.1343 97.1431C87.4244 96.8983 87.801 96.7951 88.1678 96.8594L102.492 98.9346C103.225 99.0649 103.544 100.213 103.487 100.958C103.208 104.622 102.283 116.955 102.125 121.795C102.015 125.189 102.423 128.686 102.675 130.469C102.738 130.913 102.612 131.352 102.329 131.674C102.076 131.962 101.733 132.119 101.369 132.12L101.369 132.12ZM87.9485 97.32C87.7509 97.32 87.5617 97.3896 87.4043 97.5225C87.212 97.6847 87.0938 97.9197 87.0718 98.1842C86.8745 100.552 86.2925 106.76 85.151 113.262C83.8546 120.647 84.2117 126.616 84.4254 128.839C84.4699 129.303 84.8146 129.677 85.2448 129.729L101.267 131.634C101.548 131.667 101.819 131.561 102.01 131.343C102.198 131.129 102.282 130.837 102.24 130.543C101.985 128.743 101.574 125.211 101.685 121.778C101.843 116.927 102.768 104.585 103.048 100.918C103.091 100.363 102.849 99.4842 102.428 99.4092L88.1067 97.3346C88.1045 97.3343 88.1023 97.3339 88.1001 97.3336C88.0493 97.3245 87.9986 97.32 87.9485 97.32Z" fill="#1B1B23"/>
<path d="M88.5067 104.816L88.7005 103.322C88.7378 103.034 88.9855 102.837 89.2535 102.882L100.323 104.76C100.591 104.806 100.778 105.077 100.74 105.365L100.547 106.859C100.509 107.147 100.262 107.344 99.9937 107.299L88.9242 105.421C88.6563 105.375 88.4693 105.104 88.5067 104.816Z" fill="#BFB6FF"/>
<path d="M97.199 111.311C97.1871 111.311 97.1751 111.31 97.163 111.308L88.9493 109.838C88.8292 109.816 88.7479 109.693 88.7676 109.562C88.7873 109.431 88.901 109.343 89.0207 109.364L97.2344 110.834C97.3544 110.856 97.4357 110.979 97.416 111.11C97.3983 111.227 97.3049 111.311 97.199 111.311Z" fill="#1B1B23"/>
<path d="M98.9064 114.589C98.8948 114.589 98.8831 114.588 98.8712 114.586L88.6152 112.798C88.495 112.777 88.4132 112.654 88.4325 112.523C88.4517 112.392 88.5645 112.304 88.6849 112.324L98.941 114.112C99.0611 114.133 99.1429 114.256 99.1236 114.387C99.1064 114.505 99.0127 114.589 98.9064 114.589Z" fill="#1B1B23"/>
<path d="M98.8755 117.647C98.8637 117.647 98.8519 117.646 98.84 117.644L88.4371 115.809C88.3169 115.787 88.2353 115.664 88.2548 115.533C88.2743 115.403 88.3883 115.314 88.5075 115.335L98.9104 117.17C99.0306 117.192 99.1122 117.315 99.0926 117.446C99.0751 117.563 98.9816 117.647 98.8755 117.647Z" fill="#1B1B23"/>
<path d="M96.6328 120.566C96.6221 120.566 96.6114 120.565 96.6006 120.563L88.1933 119.224C88.073 119.205 87.9897 119.083 88.0072 118.952C88.0249 118.821 88.1363 118.73 88.2571 118.749L96.6644 120.089C96.7848 120.108 96.8681 120.23 96.8505 120.361C96.8344 120.48 96.7404 120.566 96.6328 120.566Z" fill="#1B1B23"/>
<path d="M97.2143 128.451C96.9193 128.451 96.6386 128.303 96.4589 128.044L94.5939 125.355C94.5084 125.231 94.5308 125.056 94.6442 124.963C94.7573 124.869 94.9186 124.894 95.0042 125.017L96.8691 127.706C96.982 127.869 97.1543 127.906 97.278 127.887C97.3449 127.876 97.5076 127.831 97.5736 127.64L99.0578 123.335C99.1077 123.191 99.2557 123.117 99.3888 123.172C99.5217 123.226 99.589 123.387 99.5391 123.532L98.0548 127.836C97.9423 128.163 97.6794 128.389 97.3517 128.441C97.3058 128.448 97.2599 128.451 97.2143 128.451Z" fill="#1B1B23"/>
<path d="M97.4177 100.801C97.4057 100.801 97.3936 100.8 97.3813 100.798L93.741 100.141C93.621 100.119 93.5398 99.9956 93.5596 99.8649C93.5795 99.7341 93.6923 99.6458 93.8131 99.6674L97.4535 100.325C97.5735 100.346 97.6546 100.47 97.6348 100.601C97.6169 100.718 97.5235 100.801 97.4177 100.801Z" fill="#1B1B23"/>
<path d="M78.7531 96.9867C79.0163 97.0324 79.2695 96.9084 79.3318 96.703C79.8845 94.7329 80.2656 92.6765 80.4657 90.5473C80.9148 85.659 80.2106 81.7482 78.3132 79.0887C77.0243 77.2803 75.2087 76.1165 72.9331 75.6521L72.9145 75.6488L72.8968 75.6457C70.6005 75.3122 68.5232 75.7971 66.7448 77.0706C64.129 78.9434 62.2547 82.4041 61.1707 87.1817C60.7027 89.2642 60.4284 91.3392 60.3428 93.3909C60.3381 93.6166 60.5584 93.8266 60.8348 93.8606C61.1112 93.8945 61.3403 93.7397 61.3463 93.5141C61.3491 93.4064 61.7225 81.9533 67.4772 77.8712C69.0057 76.7881 70.7772 76.3712 72.7283 76.644C72.7474 76.6466 72.7667 76.65 72.7856 76.654C74.7158 77.0577 76.263 78.0534 77.3739 79.5973C81.5579 85.4132 78.3749 96.3762 78.3444 96.4794C78.2806 96.6947 78.4494 96.9189 78.7213 96.9806C78.732 96.9827 78.7425 96.9848 78.7531 96.9866V96.9867Z" fill="#1B1B23"/>
<path d="M81.021 144.166C81.0202 144.166 81.0194 144.166 81.0186 144.165C80.3682 143.771 79.6407 143.35 78.8247 142.902C78.8364 142.904 78.848 142.908 78.8596 142.911H78.8608C85.1652 144.495 89.0541 142.675 81.7322 140.242C73.7689 137.596 69.852 133.587 73.0235 133.858C77.4382 134.234 78.7038 132.764 69.6743 128.475C64.0003 125.779 57.7873 122.093 57.7873 122.093C57.7873 122.093 57.7829 122.095 57.7766 122.097C53.097 119.243 46.6343 115.185 40.7091 111.067C38.6049 109.605 36.163 108.96 33.9922 108.165C29.7851 106.625 25.2992 106.211 20.9105 106.933C20.1468 107.059 19.3211 107.201 18.4576 107.357C9.61183 108.963 10.684 124.677 11.7389 128.199C18.4324 136.516 35.2196 142.308 47.2148 145.565C59.21 148.822 47.224 145.568 47.241 145.572C48.3445 145.872 49.4075 146.15 50.418 146.406C58.5167 148.503 79.1721 153.655 79.1721 151.655C79.1721 151.389 78.9249 151.206 78.4877 150.859C78.4877 150.859 78.4877 150.859 78.4877 150.859C81.7647 151.445 84.4436 150.621 84.5392 149.711C84.5683 149.445 84.3748 149.171 83.9085 148.923C83.9085 148.923 83.9085 148.923 83.9085 148.923C86.3084 149.069 86.8037 147.672 81.0208 144.166L81.021 144.166Z" fill="white"/>
<path d="M90.0259 28.5299C92.3966 28.5299 94.3185 26.4371 94.3185 23.8555C94.3185 21.2739 92.3966 19.181 90.0259 19.181C87.6552 19.181 85.7334 21.2739 85.7334 23.8555C85.7334 26.4371 87.6552 28.5299 90.0259 28.5299Z" fill="#1B1B23"/>
<path d="M95.4865 31.0812L94.1565 31.5371L93.945 31.609L92.0532 32.2568L88.647 33.4228L81.5183 35.8644C81.5183 35.8644 78.9662 37.9053 77.2176 39.9191C75.4889 41.9112 73.9305 43.8434 73.9305 43.8434L73.9298 43.8426C73.6925 42.8677 73.2901 41.9248 72.8179 41.0579L72.8164 41.0531C72.8164 41.0531 77.4527 33.9603 85.5626 29.2906C90.6593 26.3564 93.5866 26.43 93.6409 26.4316H93.6417L95.4865 31.0812Z" fill="#62B2FF"/>
<path d="M80.6641 36.5558C81.578 36.3873 89.5311 35.5874 98.5456 31.0567C102.331 29.154 101.888 27.2361 96.5969 28.0291C92.6444 28.3418 85.214 32.3096 80.6641 36.5557V36.5558Z" fill="#62B2FF"/>
<path d="M80.8005 37.085C80.739 37.085 80.6779 37.0572 80.6344 37.0028C80.5544 36.9029 80.5639 36.7514 80.6556 36.6643C85.3844 32.1725 92.813 28.2474 96.5225 27.534C96.6418 27.5112 96.7566 27.5981 96.7778 27.7286C96.7989 27.8591 96.719 27.9836 96.5991 28.0066C92.9468 28.7089 85.6197 32.5858 80.9452 37.0258C80.9035 37.0655 80.8519 37.0849 80.8005 37.0849V37.085Z" fill="white"/>
<path d="M77.7497 152.349C76.2363 152.349 73.2129 151.966 67.0164 150.638C60.9186 149.331 53.9678 147.572 50.3672 146.64C49.3057 146.37 48.2357 146.089 47.1878 145.805L47.1615 145.798C42.0989 144.545 34.5226 142.358 27.2051 139.06C19.8977 135.767 14.6384 132.166 11.5733 128.357C11.498 128.263 11.4235 128.169 11.3497 128.075C11.2706 127.975 11.2816 127.823 11.3741 127.737C11.4666 127.651 11.6057 127.663 11.6847 127.764C11.7573 127.856 11.8305 127.949 11.9046 128.04C14.9247 131.793 20.1292 135.352 27.3735 138.617C34.6626 141.902 42.2131 144.081 47.2638 145.331C47.2663 145.332 47.269 145.332 47.2715 145.333L47.2939 145.339C48.34 145.623 49.4078 145.903 50.4681 146.173C54.1976 147.138 61.3768 148.954 67.5655 150.266C70.9368 150.981 73.616 151.463 75.5287 151.698C78.7459 152.093 78.9451 151.674 78.952 151.656C78.952 151.523 78.7398 151.355 78.4188 151.101L78.3581 151.053C78.2756 150.987 78.2452 150.869 78.2846 150.766C78.324 150.664 78.423 150.604 78.5236 150.622C81.1008 151.083 83.312 150.657 84.0843 150.021C84.2261 149.905 84.3099 149.785 84.3205 149.684C84.3386 149.518 84.1534 149.319 83.8122 149.138C83.7179 149.088 83.6692 148.973 83.6955 148.862C83.722 148.752 83.8152 148.677 83.921 148.683C84.9014 148.743 85.3129 148.53 85.371 148.312C85.4182 148.135 85.4252 147.111 80.9166 144.377C80.915 144.376 80.9134 144.375 80.9118 144.374C80.2229 143.958 79.4874 143.534 78.7256 143.116C78.6272 143.062 78.5805 142.937 78.6166 142.823C78.6526 142.71 78.7606 142.643 78.8682 142.666C78.8772 142.668 78.8863 142.671 78.8953 142.673L78.8993 142.674C78.9031 142.675 78.9069 142.676 78.9106 142.677C82.9119 143.682 85.3495 143.194 85.4804 142.662C85.553 142.366 84.8496 141.528 81.668 140.471C78.8539 139.536 76.2417 138.323 74.3127 137.054C73.2741 136.371 71.5551 135.09 71.7124 134.186C71.7899 133.741 72.2365 133.55 73.0409 133.618C75.2485 133.806 76.12 133.49 76.1951 133.163C76.241 132.963 76.1381 131.807 69.5865 128.694C64.2282 126.149 58.3182 122.679 57.7296 122.331C57.7086 122.326 57.6882 122.318 57.6692 122.306C53.2033 119.582 46.6152 115.456 40.5907 111.269C38.633 109.909 36.2132 108.863 33.9518 108.401C33.8322 108.376 33.7535 108.251 33.7759 108.121C33.7984 107.99 33.914 107.905 34.0331 107.929C36.3817 108.409 38.7948 109.452 40.8278 110.865C46.8221 115.03 53.3773 119.137 57.8372 121.859C57.8565 121.864 57.8752 121.871 57.8929 121.882C57.9549 121.919 64.1628 125.594 69.7626 128.254C72.1906 129.408 74.0022 130.418 75.1469 131.258C76.2794 132.089 76.7484 132.731 76.6226 133.279C76.4546 134.011 75.238 134.287 73.0065 134.096C72.4419 134.048 72.1668 134.152 72.1453 134.275C72.0955 134.561 72.6924 135.428 74.5405 136.643C76.4393 137.892 79.0162 139.088 81.7967 140.012C84.7357 140.989 86.1184 141.922 85.9061 142.786C85.6665 143.76 83.3176 144.012 80.3041 143.467C80.5832 143.629 80.8564 143.792 81.1229 143.953C81.1247 143.954 81.1265 143.955 81.1283 143.956C84.4767 145.986 86.0465 147.497 85.7942 148.445C85.7136 148.748 85.4282 149.087 84.5806 149.159C84.746 149.373 84.7757 149.578 84.7582 149.739C84.7332 149.978 84.5957 150.202 84.3499 150.404C83.5671 151.048 81.6104 151.491 79.2294 151.21C79.3339 151.344 79.3925 151.484 79.3925 151.654C79.3925 151.763 79.3599 151.922 79.2046 152.055C79.0252 152.21 78.6612 152.348 77.7497 152.348V152.349Z" fill="#1B1B23"/>
<path d="M83.9089 149.163C83.9017 149.163 83.8947 149.162 83.8875 149.162C80.3384 148.791 74.6201 146.401 71.872 145.253C71.7583 145.206 71.7016 145.067 71.7451 144.943C71.7887 144.82 71.9161 144.758 72.0297 144.805C74.7597 145.946 80.4402 148.319 83.9296 148.684C84.0507 148.697 84.1395 148.814 84.1278 148.946C84.1169 149.07 84.021 149.163 83.9089 149.163V149.163Z" fill="#1B1B23"/>
<path d="M78.4909 151.102C78.4735 151.102 78.4558 151.099 78.4379 151.095C75.5426 150.316 72.353 149.129 70.6394 148.492C70.5243 148.449 70.4628 148.313 70.5021 148.188C70.5414 148.062 70.6666 147.995 70.7818 148.038C72.4891 148.673 75.667 149.855 78.5437 150.629C78.6618 150.66 78.7339 150.791 78.7046 150.919C78.6799 151.029 78.5899 151.102 78.4909 151.102Z" fill="#1B1B23"/>
<path d="M78.8249 143.142C78.8024 143.142 78.7797 143.138 78.7573 143.13C77.0407 142.528 75.3691 141.873 73.8185 141.255C73.7042 141.209 73.6455 141.071 73.6873 140.947C73.7292 140.822 73.8559 140.759 73.97 140.804C75.5165 141.42 77.1831 142.074 78.8924 142.673C79.0082 142.714 79.0718 142.849 79.0346 142.975C79.0045 143.077 78.918 143.142 78.825 143.142L78.8249 143.142Z" fill="#1B1B23"/>
</g>
<defs>
<clipPath id="clip0_1116_54395">
<rect width="169" height="143" fill="white" transform="translate(6 19)"/>
</clipPath>
</defs>
</svg>
